<?xml version="1.0" encoding="utf-8" standalone="no"?>
<!DOCTYPE svg PUBLIC "-//W3C//DTD SVG 1.1//EN"
  "http://www.w3.org/Graphics/SVG/1.1/DTD/svg11.dtd">
<svg xmlns:xlink="http://www.w3.org/1999/xlink" width="1080pt" height="360pt" viewBox="0 0 1080 360" xmlns="http://www.w3.org/2000/svg" version="1.1">
 <metadata>
  <rdf:RDF xmlns:dc="http://purl.org/dc/elements/1.1/" xmlns:cc="http://creativecommons.org/ns#" xmlns:rdf="http://www.w3.org/1999/02/22-rdf-syntax-ns#">
   <cc:Work>
    <dc:type rdf:resource="http://purl.org/dc/dcmitype/StillImage"/>
    <dc:date>2024-09-03T19:48:23.267440</dc:date>
    <dc:format>image/svg+xml</dc:format>
    <dc:creator>
     <cc:Agent>
      <dc:title>Matplotlib v3.6.2, https://matplotlib.org/</dc:title>
     </cc:Agent>
    </dc:creator>
   </cc:Work>
  </rdf:RDF>
 </metadata>
 <defs>
  <style type="text/css">*{stroke-linejoin: round; stroke-linecap: butt}</style>
 </defs>
 <g id="figure_1">
  <g id="patch_1">
   <path d="M 0 360 
L 1080 360 
L 1080 0 
L 0 0 
z
" style="fill: #ffffff"/>
  </g>
  <g id="axes_1">
   <g id="patch_2">
    <path d="M 135 320.4 
L 972 320.4 
L 972 43.2 
L 135 43.2 
z
" style="fill: #ffffff"/>
   </g>
   <g id="matplotlib.axis_1">
    <g id="xtick_1">
     <g id="line2d_1">
      <path d="M 173.045455 320.4 
L 173.045455 43.2 
" clip-path="url(#ped47679cb0)" style="fill: none; stroke: #b0b0b0; stroke-width: 0.8; stroke-linecap: square"/>
     </g>
     <g id="line2d_2">
      <defs>
       <path id="m8c43b0cc85" d="M 0 0 
L 0 3.5 
" style="stroke: #000000; stroke-width: 0.8"/>
      </defs>
      <g>
       <use xlink:href="#m8c43b0cc85" x="173.045455" y="320.4" style="stroke: #000000; stroke-width: 0.8"/>
      </g>
     </g>
     <g id="text_1">
      <!-- 0 -->
      <g transform="translate(168.27358 338.797656) scale(0.15 -0.15)">
       <defs>
        <path id="DejaVuSans-30" d="M 2034 4250 
Q 1547 4250 1301 3770 
Q 1056 3291 1056 2328 
Q 1056 1369 1301 889 
Q 1547 409 2034 409 
Q 2525 409 2770 889 
Q 3016 1369 3016 2328 
Q 3016 3291 2770 3770 
Q 2525 4250 2034 4250 
z
M 2034 4750 
Q 2819 4750 3233 4129 
Q 3647 3509 3647 2328 
Q 3647 1150 3233 529 
Q 2819 -91 2034 -91 
Q 1250 -91 836 529 
Q 422 1150 422 2328 
Q 422 3509 836 4129 
Q 1250 4750 2034 4750 
z
" transform="scale(0.015625)"/>
       </defs>
       <use xlink:href="#DejaVuSans-30"/>
      </g>
     </g>
    </g>
    <g id="xtick_2">
     <g id="line2d_3">
      <path d="M 332.231457 320.4 
L 332.231457 43.2 
" clip-path="url(#ped47679cb0)" style="fill: none; stroke: #b0b0b0; stroke-width: 0.8; stroke-linecap: square"/>
     </g>
     <g id="line2d_4">
      <g>
       <use xlink:href="#m8c43b0cc85" x="332.231457" y="320.4" style="stroke: #000000; stroke-width: 0.8"/>
      </g>
     </g>
     <g id="text_2">
      <!-- 50 -->
      <g transform="translate(322.687707 338.797656) scale(0.15 -0.15)">
       <defs>
        <path id="DejaVuSans-35" d="M 691 4666 
L 3169 4666 
L 3169 4134 
L 1269 4134 
L 1269 2991 
Q 1406 3038 1543 3061 
Q 1681 3084 1819 3084 
Q 2600 3084 3056 2656 
Q 3513 2228 3513 1497 
Q 3513 744 3044 326 
Q 2575 -91 1722 -91 
Q 1428 -91 1123 -41 
Q 819 9 494 109 
L 494 744 
Q 775 591 1075 516 
Q 1375 441 1709 441 
Q 2250 441 2565 725 
Q 2881 1009 2881 1497 
Q 2881 1984 2565 2268 
Q 2250 2553 1709 2553 
Q 1456 2553 1204 2497 
Q 953 2441 691 2322 
L 691 4666 
z
" transform="scale(0.015625)"/>
       </defs>
       <use xlink:href="#DejaVuSans-35"/>
       <use xlink:href="#DejaVuSans-30" x="63.623047"/>
      </g>
     </g>
    </g>
    <g id="xtick_3">
     <g id="line2d_5">
      <path d="M 491.417459 320.4 
L 491.417459 43.2 
" clip-path="url(#ped47679cb0)" style="fill: none; stroke: #b0b0b0; stroke-width: 0.8; stroke-linecap: square"/>
     </g>
     <g id="line2d_6">
      <g>
       <use xlink:href="#m8c43b0cc85" x="491.417459" y="320.4" style="stroke: #000000; stroke-width: 0.8"/>
      </g>
     </g>
     <g id="text_3">
      <!-- 100 -->
      <g transform="translate(477.101834 338.797656) scale(0.15 -0.15)">
       <defs>
        <path id="DejaVuSans-31" d="M 794 531 
L 1825 531 
L 1825 4091 
L 703 3866 
L 703 4441 
L 1819 4666 
L 2450 4666 
L 2450 531 
L 3481 531 
L 3481 0 
L 794 0 
L 794 531 
z
" transform="scale(0.015625)"/>
       </defs>
       <use xlink:href="#DejaVuSans-31"/>
       <use xlink:href="#DejaVuSans-30" x="63.623047"/>
       <use xlink:href="#DejaVuSans-30" x="127.246094"/>
      </g>
     </g>
    </g>
    <g id="xtick_4">
     <g id="line2d_7">
      <path d="M 650.603461 320.4 
L 650.603461 43.2 
" clip-path="url(#ped47679cb0)" style="fill: none; stroke: #b0b0b0; stroke-width: 0.8; stroke-linecap: square"/>
     </g>
     <g id="line2d_8">
      <g>
       <use xlink:href="#m8c43b0cc85" x="650.603461" y="320.4" style="stroke: #000000; stroke-width: 0.8"/>
      </g>
     </g>
     <g id="text_4">
      <!-- 150 -->
      <g transform="translate(636.287836 338.797656) scale(0.15 -0.15)">
       <use xlink:href="#DejaVuSans-31"/>
       <use xlink:href="#DejaVuSans-35" x="63.623047"/>
       <use xlink:href="#DejaVuSans-30" x="127.246094"/>
      </g>
     </g>
    </g>
    <g id="xtick_5">
     <g id="line2d_9">
      <path d="M 809.789464 320.4 
L 809.789464 43.2 
" clip-path="url(#ped47679cb0)" style="fill: none; stroke: #b0b0b0; stroke-width: 0.8; stroke-linecap: square"/>
     </g>
     <g id="line2d_10">
      <g>
       <use xlink:href="#m8c43b0cc85" x="809.789464" y="320.4" style="stroke: #000000; stroke-width: 0.8"/>
      </g>
     </g>
     <g id="text_5">
      <!-- 200 -->
      <g transform="translate(795.473839 338.797656) scale(0.15 -0.15)">
       <defs>
        <path id="DejaVuSans-32" d="M 1228 531 
L 3431 531 
L 3431 0 
L 469 0 
L 469 531 
Q 828 903 1448 1529 
Q 2069 2156 2228 2338 
Q 2531 2678 2651 2914 
Q 2772 3150 2772 3378 
Q 2772 3750 2511 3984 
Q 2250 4219 1831 4219 
Q 1534 4219 1204 4116 
Q 875 4013 500 3803 
L 500 4441 
Q 881 4594 1212 4672 
Q 1544 4750 1819 4750 
Q 2544 4750 2975 4387 
Q 3406 4025 3406 3419 
Q 3406 3131 3298 2873 
Q 3191 2616 2906 2266 
Q 2828 2175 2409 1742 
Q 1991 1309 1228 531 
z
" transform="scale(0.015625)"/>
       </defs>
       <use xlink:href="#DejaVuSans-32"/>
       <use xlink:href="#DejaVuSans-30" x="63.623047"/>
       <use xlink:href="#DejaVuSans-30" x="127.246094"/>
      </g>
     </g>
    </g>
    <g id="xtick_6">
     <g id="line2d_11">
      <path d="M 968.975466 320.4 
L 968.975466 43.2 
" clip-path="url(#ped47679cb0)" style="fill: none; stroke: #b0b0b0; stroke-width: 0.8; stroke-linecap: square"/>
     </g>
     <g id="line2d_12">
      <g>
       <use xlink:href="#m8c43b0cc85" x="968.975466" y="320.4" style="stroke: #000000; stroke-width: 0.8"/>
      </g>
     </g>
     <g id="text_6">
      <!-- 250 -->
      <g transform="translate(954.659841 338.797656) scale(0.15 -0.15)">
       <use xlink:href="#DejaVuSans-32"/>
       <use xlink:href="#DejaVuSans-35" x="63.623047"/>
       <use xlink:href="#DejaVuSans-30" x="127.246094"/>
      </g>
     </g>
    </g>
    <g id="text_7">
     <!-- Hours -->
     <g transform="translate(531.527344 357.314844) scale(0.15 -0.15)">
      <defs>
       <path id="DejaVuSans-48" d="M 628 4666 
L 1259 4666 
L 1259 2753 
L 3553 2753 
L 3553 4666 
L 4184 4666 
L 4184 0 
L 3553 0 
L 3553 2222 
L 1259 2222 
L 1259 0 
L 628 0 
L 628 4666 
z
" transform="scale(0.015625)"/>
       <path id="DejaVuSans-6f" d="M 1959 3097 
Q 1497 3097 1228 2736 
Q 959 2375 959 1747 
Q 959 1119 1226 758 
Q 1494 397 1959 397 
Q 2419 397 2687 759 
Q 2956 1122 2956 1747 
Q 2956 2369 2687 2733 
Q 2419 3097 1959 3097 
z
M 1959 3584 
Q 2709 3584 3137 3096 
Q 3566 2609 3566 1747 
Q 3566 888 3137 398 
Q 2709 -91 1959 -91 
Q 1206 -91 779 398 
Q 353 888 353 1747 
Q 353 2609 779 3096 
Q 1206 3584 1959 3584 
z
" transform="scale(0.015625)"/>
       <path id="DejaVuSans-75" d="M 544 1381 
L 544 3500 
L 1119 3500 
L 1119 1403 
Q 1119 906 1312 657 
Q 1506 409 1894 409 
Q 2359 409 2629 706 
Q 2900 1003 2900 1516 
L 2900 3500 
L 3475 3500 
L 3475 0 
L 2900 0 
L 2900 538 
Q 2691 219 2414 64 
Q 2138 -91 1772 -91 
Q 1169 -91 856 284 
Q 544 659 544 1381 
z
M 1991 3584 
L 1991 3584 
z
" transform="scale(0.015625)"/>
       <path id="DejaVuSans-72" d="M 2631 2963 
Q 2534 3019 2420 3045 
Q 2306 3072 2169 3072 
Q 1681 3072 1420 2755 
Q 1159 2438 1159 1844 
L 1159 0 
L 581 0 
L 581 3500 
L 1159 3500 
L 1159 2956 
Q 1341 3275 1631 3429 
Q 1922 3584 2338 3584 
Q 2397 3584 2469 3576 
Q 2541 3569 2628 3553 
L 2631 2963 
z
" transform="scale(0.015625)"/>
       <path id="DejaVuSans-73" d="M 2834 3397 
L 2834 2853 
Q 2591 2978 2328 3040 
Q 2066 3103 1784 3103 
Q 1356 3103 1142 2972 
Q 928 2841 928 2578 
Q 928 2378 1081 2264 
Q 1234 2150 1697 2047 
L 1894 2003 
Q 2506 1872 2764 1633 
Q 3022 1394 3022 966 
Q 3022 478 2636 193 
Q 2250 -91 1575 -91 
Q 1294 -91 989 -36 
Q 684 19 347 128 
L 347 722 
Q 666 556 975 473 
Q 1284 391 1588 391 
Q 1994 391 2212 530 
Q 2431 669 2431 922 
Q 2431 1156 2273 1281 
Q 2116 1406 1581 1522 
L 1381 1569 
Q 847 1681 609 1914 
Q 372 2147 372 2553 
Q 372 3047 722 3315 
Q 1072 3584 1716 3584 
Q 2034 3584 2315 3537 
Q 2597 3491 2834 3397 
z
" transform="scale(0.015625)"/>
      </defs>
      <use xlink:href="#DejaVuSans-48"/>
      <use xlink:href="#DejaVuSans-6f" x="75.195312"/>
      <use xlink:href="#DejaVuSans-75" x="136.376953"/>
      <use xlink:href="#DejaVuSans-72" x="199.755859"/>
      <use xlink:href="#DejaVuSans-73" x="240.869141"/>
     </g>
    </g>
   </g>
   <g id="matplotlib.axis_2">
    <g id="ytick_1">
     <g id="line2d_13">
      <path d="M 135 298.443573 
L 972 298.443573 
" clip-path="url(#ped47679cb0)" style="fill: none; stroke: #b0b0b0; stroke-width: 0.8; stroke-linecap: square"/>
     </g>
     <g id="line2d_14">
      <defs>
       <path id="m1eae153402" d="M 0 0 
L -3.5 0 
" style="stroke: #000000; stroke-width: 0.8"/>
      </defs>
      <g>
       <use xlink:href="#m1eae153402" x="135" y="298.443573" style="stroke: #000000; stroke-width: 0.8"/>
      </g>
     </g>
     <g id="text_8">
      <!-- 6000 -->
      <g transform="translate(89.825 304.142401) scale(0.15 -0.15)">
       <defs>
        <path id="DejaVuSans-36" d="M 2113 2584 
Q 1688 2584 1439 2293 
Q 1191 2003 1191 1497 
Q 1191 994 1439 701 
Q 1688 409 2113 409 
Q 2538 409 2786 701 
Q 3034 994 3034 1497 
Q 3034 2003 2786 2293 
Q 2538 2584 2113 2584 
z
M 3366 4563 
L 3366 3988 
Q 3128 4100 2886 4159 
Q 2644 4219 2406 4219 
Q 1781 4219 1451 3797 
Q 1122 3375 1075 2522 
Q 1259 2794 1537 2939 
Q 1816 3084 2150 3084 
Q 2853 3084 3261 2657 
Q 3669 2231 3669 1497 
Q 3669 778 3244 343 
Q 2819 -91 2113 -91 
Q 1303 -91 875 529 
Q 447 1150 447 2328 
Q 447 3434 972 4092 
Q 1497 4750 2381 4750 
Q 2619 4750 2861 4703 
Q 3103 4656 3366 4563 
z
" transform="scale(0.015625)"/>
       </defs>
       <use xlink:href="#DejaVuSans-36"/>
       <use xlink:href="#DejaVuSans-30" x="63.623047"/>
       <use xlink:href="#DejaVuSans-30" x="127.246094"/>
       <use xlink:href="#DejaVuSans-30" x="190.869141"/>
      </g>
     </g>
    </g>
    <g id="ytick_2">
     <g id="line2d_15">
      <path d="M 135 258.36786 
L 972 258.36786 
" clip-path="url(#ped47679cb0)" style="fill: none; stroke: #b0b0b0; stroke-width: 0.8; stroke-linecap: square"/>
     </g>
     <g id="line2d_16">
      <g>
       <use xlink:href="#m1eae153402" x="135" y="258.36786" style="stroke: #000000; stroke-width: 0.8"/>
      </g>
     </g>
     <g id="text_9">
      <!-- 6500 -->
      <g transform="translate(89.825 264.066688) scale(0.15 -0.15)">
       <use xlink:href="#DejaVuSans-36"/>
       <use xlink:href="#DejaVuSans-35" x="63.623047"/>
       <use xlink:href="#DejaVuSans-30" x="127.246094"/>
       <use xlink:href="#DejaVuSans-30" x="190.869141"/>
      </g>
     </g>
    </g>
    <g id="ytick_3">
     <g id="line2d_17">
      <path d="M 135 218.292146 
L 972 218.292146 
" clip-path="url(#ped47679cb0)" style="fill: none; stroke: #b0b0b0; stroke-width: 0.8; stroke-linecap: square"/>
     </g>
     <g id="line2d_18">
      <g>
       <use xlink:href="#m1eae153402" x="135" y="218.292146" style="stroke: #000000; stroke-width: 0.8"/>
      </g>
     </g>
     <g id="text_10">
      <!-- 7000 -->
      <g transform="translate(89.825 223.990974) scale(0.15 -0.15)">
       <defs>
        <path id="DejaVuSans-37" d="M 525 4666 
L 3525 4666 
L 3525 4397 
L 1831 0 
L 1172 0 
L 2766 4134 
L 525 4134 
L 525 4666 
z
" transform="scale(0.015625)"/>
       </defs>
       <use xlink:href="#DejaVuSans-37"/>
       <use xlink:href="#DejaVuSans-30" x="63.623047"/>
       <use xlink:href="#DejaVuSans-30" x="127.246094"/>
       <use xlink:href="#DejaVuSans-30" x="190.869141"/>
      </g>
     </g>
    </g>
    <g id="ytick_4">
     <g id="line2d_19">
      <path d="M 135 178.216433 
L 972 178.216433 
" clip-path="url(#ped47679cb0)" style="fill: none; stroke: #b0b0b0; stroke-width: 0.8; stroke-linecap: square"/>
     </g>
     <g id="line2d_20">
      <g>
       <use xlink:href="#m1eae153402" x="135" y="178.216433" style="stroke: #000000; stroke-width: 0.8"/>
      </g>
     </g>
     <g id="text_11">
      <!-- 7500 -->
      <g transform="translate(89.825 183.915261) scale(0.15 -0.15)">
       <use xlink:href="#DejaVuSans-37"/>
       <use xlink:href="#DejaVuSans-35" x="63.623047"/>
       <use xlink:href="#DejaVuSans-30" x="127.246094"/>
       <use xlink:href="#DejaVuSans-30" x="190.869141"/>
      </g>
     </g>
    </g>
    <g id="ytick_5">
     <g id="line2d_21">
      <path d="M 135 138.140719 
L 972 138.140719 
" clip-path="url(#ped47679cb0)" style="fill: none; stroke: #b0b0b0; stroke-width: 0.8; stroke-linecap: square"/>
     </g>
     <g id="line2d_22">
      <g>
       <use xlink:href="#m1eae153402" x="135" y="138.140719" style="stroke: #000000; stroke-width: 0.8"/>
      </g>
     </g>
     <g id="text_12">
      <!-- 8000 -->
      <g transform="translate(89.825 143.839547) scale(0.15 -0.15)">
       <defs>
        <path id="DejaVuSans-38" d="M 2034 2216 
Q 1584 2216 1326 1975 
Q 1069 1734 1069 1313 
Q 1069 891 1326 650 
Q 1584 409 2034 409 
Q 2484 409 2743 651 
Q 3003 894 3003 1313 
Q 3003 1734 2745 1975 
Q 2488 2216 2034 2216 
z
M 1403 2484 
Q 997 2584 770 2862 
Q 544 3141 544 3541 
Q 544 4100 942 4425 
Q 1341 4750 2034 4750 
Q 2731 4750 3128 4425 
Q 3525 4100 3525 3541 
Q 3525 3141 3298 2862 
Q 3072 2584 2669 2484 
Q 3125 2378 3379 2068 
Q 3634 1759 3634 1313 
Q 3634 634 3220 271 
Q 2806 -91 2034 -91 
Q 1263 -91 848 271 
Q 434 634 434 1313 
Q 434 1759 690 2068 
Q 947 2378 1403 2484 
z
M 1172 3481 
Q 1172 3119 1398 2916 
Q 1625 2713 2034 2713 
Q 2441 2713 2670 2916 
Q 2900 3119 2900 3481 
Q 2900 3844 2670 4047 
Q 2441 4250 2034 4250 
Q 1625 4250 1398 4047 
Q 1172 3844 1172 3481 
z
" transform="scale(0.015625)"/>
       </defs>
       <use xlink:href="#DejaVuSans-38"/>
       <use xlink:href="#DejaVuSans-30" x="63.623047"/>
       <use xlink:href="#DejaVuSans-30" x="127.246094"/>
       <use xlink:href="#DejaVuSans-30" x="190.869141"/>
      </g>
     </g>
    </g>
    <g id="ytick_6">
     <g id="line2d_23">
      <path d="M 135 98.065006 
L 972 98.065006 
" clip-path="url(#ped47679cb0)" style="fill: none; stroke: #b0b0b0; stroke-width: 0.8; stroke-linecap: square"/>
     </g>
     <g id="line2d_24">
      <g>
       <use xlink:href="#m1eae153402" x="135" y="98.065006" style="stroke: #000000; stroke-width: 0.8"/>
      </g>
     </g>
     <g id="text_13">
      <!-- 8500 -->
      <g transform="translate(89.825 103.763834) scale(0.15 -0.15)">
       <use xlink:href="#DejaVuSans-38"/>
       <use xlink:href="#DejaVuSans-35" x="63.623047"/>
       <use xlink:href="#DejaVuSans-30" x="127.246094"/>
       <use xlink:href="#DejaVuSans-30" x="190.869141"/>
      </g>
     </g>
    </g>
    <g id="ytick_7">
     <g id="line2d_25">
      <path d="M 135 57.989292 
L 972 57.989292 
" clip-path="url(#ped47679cb0)" style="fill: none; stroke: #b0b0b0; stroke-width: 0.8; stroke-linecap: square"/>
     </g>
     <g id="line2d_26">
      <g>
       <use xlink:href="#m1eae153402" x="135" y="57.989292" style="stroke: #000000; stroke-width: 0.8"/>
      </g>
     </g>
     <g id="text_14">
      <!-- 9000 -->
      <g transform="translate(89.825 63.688121) scale(0.15 -0.15)">
       <defs>
        <path id="DejaVuSans-39" d="M 703 97 
L 703 672 
Q 941 559 1184 500 
Q 1428 441 1663 441 
Q 2288 441 2617 861 
Q 2947 1281 2994 2138 
Q 2813 1869 2534 1725 
Q 2256 1581 1919 1581 
Q 1219 1581 811 2004 
Q 403 2428 403 3163 
Q 403 3881 828 4315 
Q 1253 4750 1959 4750 
Q 2769 4750 3195 4129 
Q 3622 3509 3622 2328 
Q 3622 1225 3098 567 
Q 2575 -91 1691 -91 
Q 1453 -91 1209 -44 
Q 966 3 703 97 
z
M 1959 2075 
Q 2384 2075 2632 2365 
Q 2881 2656 2881 3163 
Q 2881 3666 2632 3958 
Q 2384 4250 1959 4250 
Q 1534 4250 1286 3958 
Q 1038 3666 1038 3163 
Q 1038 2656 1286 2365 
Q 1534 2075 1959 2075 
z
" transform="scale(0.015625)"/>
       </defs>
       <use xlink:href="#DejaVuSans-39"/>
       <use xlink:href="#DejaVuSans-30" x="63.623047"/>
       <use xlink:href="#DejaVuSans-30" x="127.246094"/>
       <use xlink:href="#DejaVuSans-30" x="190.869141"/>
      </g>
     </g>
    </g>
    <g id="text_15">
     <!-- MW -->
     <g transform="translate(82.705469 195.686719) rotate(-90) scale(0.15 -0.15)">
      <defs>
       <path id="DejaVuSans-4d" d="M 628 4666 
L 1569 4666 
L 2759 1491 
L 3956 4666 
L 4897 4666 
L 4897 0 
L 4281 0 
L 4281 4097 
L 3078 897 
L 2444 897 
L 1241 4097 
L 1241 0 
L 628 0 
L 628 4666 
z
" transform="scale(0.015625)"/>
       <path id="DejaVuSans-57" d="M 213 4666 
L 850 4666 
L 1831 722 
L 2809 4666 
L 3519 4666 
L 4500 722 
L 5478 4666 
L 6119 4666 
L 4947 0 
L 4153 0 
L 3169 4050 
L 2175 0 
L 1381 0 
L 213 4666 
z
" transform="scale(0.015625)"/>
      </defs>
      <use xlink:href="#DejaVuSans-4d"/>
      <use xlink:href="#DejaVuSans-57" x="86.279297"/>
     </g>
    </g>
   </g>
   <g id="line2d_27">
    <path d="M 173.045455 226.708047 
L 176.229175 221.979112 
L 179.412895 224.463806 
L 182.596615 224.944715 
L 185.780335 240.093335 
L 188.964055 219.57457 
L 192.147775 162.667056 
L 195.331495 108.805297 
L 198.515215 76.263819 
L 201.698935 75.782911 
L 204.882655 75.141699 
L 208.066375 77.145481 
L 211.250095 109.206052 
L 214.433815 105.679389 
L 217.617535 126.198156 
L 220.801255 133.572089 
L 223.984975 135.736175 
L 227.168695 133.972843 
L 230.352415 96.862738 
L 233.536135 104.076362 
L 236.719855 143.911621 
L 239.903576 173.808104 
L 243.087296 189.758238 
L 246.271016 222.780627 
L 249.454736 222.700474 
L 252.638456 220.536386 
L 255.822176 227.108803 
L 259.005896 239.692576 
L 262.189616 248.429082 
L 265.373336 221.658505 
L 268.557056 176.372951 
L 271.740776 123.953917 
L 274.924496 87.645318 
L 278.108216 85.080477 
L 281.291936 75.462301 
L 284.475656 76.424124 
L 287.659376 104.958032 
L 290.843096 93.897135 
L 294.026816 102.954243 
L 297.210536 101.431368 
L 300.394256 88.04608 
L 303.577976 86.763656 
L 306.761696 72.89746 
L 309.945417 92.454405 
L 316.312857 166.354021 
L 319.496577 184.468244 
L 322.680297 210.677761 
L 325.864017 187.994906 
L 329.047737 179.418705 
L 332.231457 185.750667 
L 335.415177 189.036875 
L 338.598897 201.300044 
L 341.782617 178.216433 
L 344.966337 161.945692 
L 348.150057 113.45408 
L 351.333777 76.263819 
L 354.517497 69.771552 
L 357.701217 61.916716 
L 360.884937 57.909138 
L 364.068657 79.550024 
L 367.252377 72.657003 
L 370.436097 84.920172 
L 373.619817 87.885775 
L 376.803537 92.775015 
L 379.987258 102.713785 
L 383.170978 78.82866 
L 386.354698 87.084258 
L 389.538418 126.358461 
L 392.722138 160.502966 
L 395.905858 176.052345 
L 399.089578 201.300044 
L 402.273298 209.635792 
L 405.457018 195.048232 
L 408.640738 179.017946 
L 411.824458 187.59415 
L 415.008178 193.365053 
L 418.191898 200.498529 
L 421.375618 161.144178 
L 424.559338 117.702108 
L 427.743058 87.885775 
L 430.926778 80.992754 
L 434.110498 72.657003 
L 437.294218 77.946998 
L 440.477938 99.026825 
L 443.661658 98.30546 
L 446.845378 108.164085 
L 450.029099 121.869983 
L 453.212819 131.087396 
L 456.396539 127.320275 
L 459.580259 101.832123 
L 462.763979 112.33196 
L 465.947699 150.644341 
L 469.131419 181.582793 
L 472.315139 197.532927 
L 475.498859 217.490632 
L 478.682579 230.23471 
L 481.866299 232.158343 
L 485.050019 198.093987 
L 491.417459 229.914104 
L 497.784899 216.368513 
L 500.968619 244.742118 
L 504.152339 219.734873 
L 507.336059 187.03309 
L 510.519779 169.64023 
L 513.703499 158.258727 
L 516.887219 149.281768 
L 520.07094 150.724494 
L 523.25466 170.361593 
L 526.43838 170.521896 
L 529.6221 166.514324 
L 532.80582 182.304156 
L 535.98954 154.331309 
L 539.17326 156.094637 
L 542.35698 191.040661 
L 545.5407 213.322758 
L 548.72442 222.379868 
L 551.90814 225.024866 
L 555.09186 232.238495 
L 558.27558 222.299718 
L 561.4593 227.269106 
L 564.64302 242.337574 
L 567.82674 259.890738 
L 571.01046 257.726647 
L 574.19418 285.699496 
L 577.3779 271.993605 
L 580.56162 240.49409 
L 583.74534 241.696362 
L 586.92906 212.040335 
L 590.112781 193.365053 
L 593.296501 188.71627 
L 596.480221 202.983224 
L 599.663941 219.414267 
L 602.847661 222.139415 
L 606.031381 215.246391 
L 609.215101 205.147313 
L 612.398821 187.273544 
L 615.582541 174.048559 
L 618.766261 202.74277 
L 621.949981 224.944715 
L 625.133701 233.921674 
L 628.317421 251.074079 
L 631.501141 247.467268 
L 634.684861 234.001827 
L 637.868581 219.173811 
L 641.052301 213.643363 
L 644.236021 226.146987 
L 647.419741 207.151098 
L 650.603461 171.243259 
L 653.787181 120.587559 
L 656.970901 92.534558 
L 660.154622 93.336075 
L 663.338342 96.221526 
L 666.522062 92.213948 
L 669.705782 118.183015 
L 672.889502 122.270738 
L 676.073222 127.961488 
L 679.256942 139.022385 
L 682.440662 132.369813 
L 685.624382 130.205726 
L 688.808102 96.381823 
L 691.991822 97.263493 
L 695.175542 134.614055 
L 698.359262 165.632658 
L 701.542982 185.670515 
L 704.726702 202.261861 
L 707.910422 197.933684 
L 711.094142 193.124598 
L 714.277862 195.048232 
L 717.461582 202.18171 
L 720.645302 213.402909 
L 723.829022 181.743095 
L 727.012742 163.228116 
L 730.196463 111.530443 
L 733.380183 77.46609 
L 736.563903 74.740944 
L 739.747623 68.24867 
L 742.931343 63.19914 
L 746.115063 89.729259 
L 749.298783 88.687292 
L 752.482503 100.549699 
L 755.666223 110.087722 
L 758.849943 116.660133 
L 762.033663 125.316494 
L 765.217383 97.584095 
L 768.401103 96.061221 
L 771.584823 131.568303 
L 774.768543 160.102211 
L 777.952263 164.590689 
L 781.135983 176.853858 
L 784.319703 223.02108 
L 787.503423 205.387766 
L 790.687143 205.147313 
L 793.870863 226.227138 
L 797.054583 232.318648 
L 800.238304 201.700801 
L 803.422024 168.197505 
L 806.605744 119.625737 
L 809.789464 89.809412 
L 812.973184 93.255923 
L 816.156904 92.2941 
L 819.340624 96.942883 
L 822.524344 126.919521 
L 825.708064 133.73239 
L 828.891784 149.522222 
L 832.075504 162.747209 
L 835.259224 166.995233 
L 838.442944 162.987662 
L 841.626664 122.511188 
L 844.810384 117.702108 
L 847.994104 154.331309 
L 851.177824 180.220218 
L 854.361544 203.544284 
L 857.545264 227.830166 
L 860.728984 217.731086 
L 863.912704 219.253964 
L 867.096424 221.097446 
L 870.280145 233.761373 
L 873.463865 239.772729 
L 876.647585 211.960184 
L 879.831305 155.693882 
L 883.015025 107.603025 
L 886.198745 86.603351 
L 889.382465 95.420009 
L 892.566185 99.267274 
L 895.749905 104.156515 
L 898.933625 138.541477 
L 902.117345 138.381172 
L 905.301065 145.755105 
L 908.484785 160.983877 
L 911.668505 166.674627 
L 914.852225 167.636445 
L 918.035945 127.320275 
L 921.219665 111.289993 
L 924.403385 145.835257 
L 927.587105 177.254617 
L 930.770825 195.929898 
L 933.954545 227.910317 
L 933.954545 227.910317 
" clip-path="url(#ped47679cb0)" style="fill: none; stroke: #1f77b4; stroke-width: 3; stroke-linecap: square"/>
   </g>
   <g id="line2d_28">
    <path d="M 173.045455 225.264655 
L 176.229175 220.87523 
L 179.412895 211.002006 
L 182.596615 200.720824 
L 185.780335 180.76989 
L 188.964055 166.184913 
L 192.147775 148.868839 
L 195.331495 124.707137 
L 198.515215 92.127382 
L 201.698935 63.60224 
L 204.882655 55.8 
L 208.066375 56.928382 
L 211.250095 70.919659 
L 217.617535 113.652893 
L 220.801255 129.576414 
L 223.984975 131.302018 
L 230.352415 153.707394 
L 233.536135 157.62006 
L 236.719855 172.358608 
L 239.903576 176.074965 
L 243.087296 187.301448 
L 246.271016 194.948982 
L 249.454736 229.980635 
L 252.638456 229.914612 
L 255.822176 231.091327 
L 259.005896 231.33006 
L 262.189616 224.287223 
L 265.373336 214.592266 
L 268.557056 206.986177 
L 271.740776 189.258896 
L 274.924496 163.744365 
L 278.108216 147.619447 
L 281.291936 139.039605 
L 284.475656 143.301133 
L 287.659376 153.892275 
L 290.843096 160.233317 
L 294.026816 159.275375 
L 297.210536 150.181397 
L 300.394256 120.183904 
L 303.577976 130.500699 
L 306.761696 136.768948 
L 309.945417 159.688147 
L 313.129137 164.475942 
L 316.312857 184.445193 
L 319.496577 194.944795 
L 322.680297 205.946439 
L 325.864017 222.999086 
L 329.047737 219.874041 
L 332.231457 213.255208 
L 335.415177 214.533326 
L 338.598897 203.229001 
L 341.782617 189.564317 
L 344.966337 176.768345 
L 348.150057 158.599723 
L 351.333777 135.275736 
L 354.517497 123.084892 
L 357.701217 97.370804 
L 360.884937 91.680835 
L 364.068657 98.155411 
L 367.252377 105.410837 
L 370.436097 99.940502 
L 373.619817 125.057447 
L 376.803537 140.035862 
L 379.987258 153.658709 
L 383.170978 167.88817 
L 386.354698 187.216914 
L 389.538418 196.242285 
L 392.722138 207.879505 
L 395.905858 211.466008 
L 399.089578 218.89927 
L 402.273298 241.474655 
L 405.457018 241.655152 
L 408.640738 241.5669 
L 415.008178 226.530993 
L 418.191898 216.831888 
L 421.375618 200.707949 
L 424.559338 188.705703 
L 427.743058 164.972192 
L 430.926778 146.699976 
L 434.110498 145.114128 
L 437.294218 133.597174 
L 440.477938 123.648026 
L 443.661658 118.831661 
L 446.845378 131.835213 
L 450.029099 140.74251 
L 453.212819 169.707349 
L 456.396539 190.281375 
L 459.580259 184.293343 
L 462.763979 196.58833 
L 465.947699 210.224835 
L 469.131419 213.212197 
L 472.315139 222.281989 
L 475.498859 219.173538 
L 478.682579 240.052046 
L 481.866299 234.110899 
L 485.050019 243.385961 
L 488.233739 243.328744 
L 491.417459 252.520132 
L 494.601179 258.223916 
L 497.784899 245.343214 
L 500.968619 243.789967 
L 504.152339 234.876095 
L 507.336059 225.24857 
L 510.519779 212.320239 
L 513.703499 207.990614 
L 516.887219 189.438846 
L 520.07094 188.230665 
L 523.25466 189.060162 
L 526.43838 199.783859 
L 532.80582 220.176488 
L 535.98954 201.806743 
L 539.17326 203.039111 
L 542.35698 212.25085 
L 545.5407 211.609404 
L 548.72442 220.691053 
L 551.90814 223.865136 
L 555.09186 239.871039 
L 558.27558 243.090012 
L 561.4593 247.672028 
L 564.64302 247.649955 
L 567.82674 248.679634 
L 571.01046 251.221546 
L 574.19418 246.381817 
L 577.3779 244.880778 
L 580.56162 232.964436 
L 583.74534 215.221306 
L 586.92906 211.481819 
L 590.112781 193.753951 
L 593.296501 202.747701 
L 596.480221 200.5352 
L 599.663941 187.242 
L 602.847661 189.968714 
L 606.031381 185.263927 
L 609.215101 193.918951 
L 612.398821 201.24901 
L 615.582541 209.468327 
L 618.766261 215.960945 
L 621.949981 223.256408 
L 625.133701 225.710223 
L 628.317421 229.171763 
L 631.501141 237.070045 
L 634.684861 226.246275 
L 637.868581 216.146334 
L 644.236021 186.064737 
L 647.419741 163.332102 
L 650.603461 143.146779 
L 653.787181 119.360082 
L 656.970901 106.381108 
L 660.154622 89.786631 
L 663.338342 83.08209 
L 666.522062 87.615498 
L 669.705782 81.14828 
L 672.889502 91.094023 
L 676.073222 94.507973 
L 679.256942 93.884843 
L 682.440662 96.932084 
L 685.624382 105.419369 
L 688.808102 111.226512 
L 691.991822 123.519698 
L 695.175542 140.083922 
L 701.542982 179.45741 
L 704.726702 184.310916 
L 707.910422 237.876059 
L 711.094142 232.632794 
L 714.277862 221.79157 
L 717.461582 216.336381 
L 720.645302 202.446859 
L 727.012742 171.787294 
L 730.196463 146.190341 
L 733.380183 123.251457 
L 736.563903 98.988626 
L 739.747623 83.254212 
L 742.931343 71.063759 
L 746.115063 66.89745 
L 749.298783 70.365565 
L 752.482503 73.169378 
L 755.666223 79.025285 
L 758.849943 94.224547 
L 762.033663 113.813979 
L 765.217383 132.468245 
L 768.401103 143.920154 
L 771.584823 163.353861 
L 774.768543 185.851913 
L 777.952263 197.576329 
L 781.135983 208.815766 
L 784.319703 235.124298 
L 787.503423 233.359362 
L 790.687143 229.207847 
L 793.870863 222.30234 
L 797.054583 215.810152 
L 800.238304 194.967024 
L 803.422024 180.02845 
L 812.973184 116.291159 
L 816.156904 100.661865 
L 819.340624 91.192334 
L 822.524344 91.686784 
L 825.708064 107.255807 
L 828.891784 128.789067 
L 832.075504 136.170082 
L 835.259224 140.210411 
L 838.442944 138.024836 
L 841.626664 138.996438 
L 844.810384 150.651895 
L 847.994104 169.23959 
L 851.177824 183.013073 
L 854.361544 199.06367 
L 857.545264 204.380355 
L 860.728984 232.838065 
L 863.912704 233.434426 
L 867.096424 229.182252 
L 870.280145 227.111308 
L 873.463865 222.429064 
L 876.647585 208.818115 
L 879.831305 198.051015 
L 883.015025 174.656661 
L 886.198745 132.900585 
L 889.382465 115.693702 
L 892.566185 112.956264 
L 895.749905 140.704156 
L 898.933625 148.135501 
L 902.117345 166.36001 
L 905.301065 164.511008 
L 908.484785 177.233169 
L 911.668505 185.915353 
L 914.852225 192.653239 
L 918.035945 198.302662 
L 921.219665 203.458418 
L 924.403385 201.48148 
L 927.587105 204.260559 
L 930.770825 214.191469 
L 933.954545 218.605238 
L 933.954545 218.605238 
" clip-path="url(#ped47679cb0)" style="fill: none; stroke: #ff7f0e; stroke-width: 3; stroke-linecap: square"/>
   </g>
   <g id="line2d_29">
    <path d="M 173.045455 191.682499 
L 176.229175 190.078453 
L 179.412895 182.151837 
L 182.596615 177.582618 
L 185.780335 167.173186 
L 188.964055 162.671792 
L 192.147775 159.984644 
L 195.331495 144.833872 
L 198.515215 128.64438 
L 201.698935 122.203187 
L 204.882655 121.9751 
L 208.066375 121.564246 
L 211.250095 121.79429 
L 214.433815 121.636413 
L 217.617535 121.67735 
L 220.801255 122.507747 
L 223.984975 124.178638 
L 227.168695 126.243907 
L 230.352415 129.839724 
L 233.536135 131.273135 
L 236.719855 139.827656 
L 239.903576 142.302488 
L 243.087296 148.207707 
L 246.271016 147.348858 
L 249.454736 203.406289 
L 252.638456 202.446898 
L 255.822176 204.615839 
L 259.005896 206.29037 
L 262.189616 205.913252 
L 265.373336 200.766223 
L 268.557056 202.181749 
L 271.740776 189.200818 
L 274.924496 163.793716 
L 278.108216 146.789129 
L 281.291936 136.996135 
L 284.475656 134.378964 
L 287.659376 136.788908 
L 290.843096 135.726079 
L 294.026816 136.385685 
L 297.210536 135.188188 
L 300.394256 129.12568 
L 303.577976 135.839771 
L 306.761696 134.637382 
L 309.945417 144.544341 
L 313.129137 141.320281 
L 316.312857 146.505037 
L 319.496577 144.11838 
L 322.680297 153.698589 
L 325.864017 206.874169 
L 329.047737 202.368155 
L 332.231457 195.463509 
L 335.415177 194.978139 
L 341.782617 179.228932 
L 344.966337 175.380763 
L 348.150057 170.081259 
L 351.333777 149.777666 
L 354.517497 144.477339 
L 357.701217 132.65516 
L 360.884937 130.794692 
L 364.068657 130.647813 
L 367.252377 128.848359 
L 370.436097 126.278856 
L 373.619817 129.12114 
L 376.803537 134.722112 
L 379.987258 142.155844 
L 383.170978 151.529256 
L 386.354698 153.33916 
L 389.538418 167.1789 
L 392.722138 178.088065 
L 395.905858 178.487414 
L 399.089578 181.221407 
L 402.273298 228.258045 
L 405.457018 229.120103 
L 411.824458 224.271881 
L 415.008178 220.78185 
L 418.191898 223.147413 
L 421.375618 213.712752 
L 424.559338 202.459696 
L 427.743058 188.315943 
L 430.926778 180.230042 
L 434.110498 180.336141 
L 437.294218 165.467386 
L 440.477938 147.155328 
L 443.661658 138.455415 
L 446.845378 140.211585 
L 450.029099 145.157257 
L 456.396539 170.293535 
L 459.580259 163.640379 
L 462.763979 167.746105 
L 465.947699 173.223171 
L 469.131419 178.121175 
L 472.315139 180.090755 
L 475.498859 177.155561 
L 478.682579 227.21455 
L 481.866299 225.016413 
L 485.050019 236.174525 
L 488.233739 242.689528 
L 491.417459 256.063545 
L 494.601179 266.15969 
L 497.784899 263.173697 
L 500.968619 266.230331 
L 504.152339 266.992318 
L 507.336059 266.227905 
L 513.703499 261.203569 
L 516.887219 245.513849 
L 520.07094 238.386438 
L 523.25466 232.500826 
L 526.43838 231.609846 
L 529.6221 230.117417 
L 532.80582 237.408888 
L 535.98954 207.635333 
L 539.17326 193.539288 
L 542.35698 196.753994 
L 545.5407 183.517972 
L 548.72442 194.611744 
L 551.90814 193.060728 
L 555.09186 237.693645 
L 558.27558 240.910816 
L 561.4593 249.903744 
L 564.64302 252.933765 
L 567.82674 253.795197 
L 571.01046 259.374527 
L 574.19418 254.651542 
L 577.3779 257.285855 
L 580.56162 261.26787 
L 583.74534 256.04249 
L 586.92906 249.735966 
L 590.112781 223.136729 
L 593.296501 229.455972 
L 596.480221 207.120689 
L 599.663941 185.777436 
L 602.847661 183.185352 
L 606.031381 194.77142 
L 609.215101 202.882995 
L 612.398821 205.28155 
L 615.582541 201.131875 
L 618.766261 196.655762 
L 621.949981 213.773023 
L 625.133701 202.825504 
L 628.317421 201.835704 
L 631.501141 208.881516 
L 634.684861 201.390919 
L 637.868581 198.73876 
L 641.052301 189.208215 
L 644.236021 188.349992 
L 647.419741 173.429068 
L 650.603461 161.38612 
L 653.787181 146.367316 
L 656.970901 141.854728 
L 660.154622 134.564197 
L 663.338342 133.170431 
L 666.522062 131.962954 
L 669.705782 126.260579 
L 672.889502 127.006872 
L 676.073222 125.753997 
L 679.256942 126.421861 
L 682.440662 128.460556 
L 685.624382 137.144423 
L 688.808102 137.430119 
L 691.991822 140.72662 
L 695.175542 150.350036 
L 698.359262 159.126852 
L 701.542982 168.681974 
L 704.726702 172.166605 
L 707.910422 215.509389 
L 711.094142 215.339732 
L 714.277862 210.74985 
L 717.461582 215.475301 
L 720.645302 211.649714 
L 723.829022 205.323661 
L 727.012742 203.13022 
L 730.196463 184.718209 
L 733.380183 160.570008 
L 736.563903 140.54354 
L 739.747623 129.433331 
L 742.931343 125.958603 
L 746.115063 125.480825 
L 749.298783 126.905117 
L 752.482503 126.056561 
L 755.666223 125.648211 
L 758.849943 126.061727 
L 762.033663 129.973688 
L 765.217383 135.619667 
L 768.401103 139.320879 
L 771.584823 139.210631 
L 774.768543 146.666358 
L 777.952263 151.08948 
L 781.135983 152.130313 
L 784.319703 208.659886 
L 787.503423 205.748839 
L 790.687143 201.059198 
L 793.870863 202.534798 
L 797.054583 197.665678 
L 800.238304 185.986034 
L 803.422024 182.23598 
L 806.605744 171.997027 
L 809.789464 167.263787 
L 812.973184 146.813902 
L 816.156904 140.209902 
L 819.340624 139.162963 
L 822.524344 135.94086 
L 825.708064 137.882262 
L 828.891784 138.125339 
L 832.075504 139.428504 
L 835.259224 142.011117 
L 838.442944 153.13839 
L 841.626664 150.141204 
L 844.810384 156.465418 
L 847.994104 160.932686 
L 851.177824 160.135555 
L 854.361544 161.704808 
L 857.545264 156.053976 
L 860.728984 214.992084 
L 863.912704 213.581215 
L 867.096424 208.987184 
L 870.280145 208.17796 
L 873.463865 207.736149 
L 876.647585 200.378694 
L 879.831305 198.210144 
L 883.015025 186.351998 
L 886.198745 152.693056 
L 889.382465 151.482879 
L 892.566185 141.110901 
L 895.749905 137.112057 
L 898.933625 134.854824 
L 902.117345 143.52742 
L 905.301065 141.139979 
L 908.484785 148.068225 
L 911.668505 159.645371 
L 914.852225 176.250492 
L 918.035945 176.578925 
L 921.219665 182.527507 
L 924.403385 183.872196 
L 927.587105 182.528329 
L 930.770825 184.65242 
L 933.954545 183.705162 
L 933.954545 183.705162 
" clip-path="url(#ped47679cb0)" style="fill: none; stroke: #2ca02c; stroke-width: 3; stroke-linecap: square"/>
   </g>
   <g id="line2d_30">
    <path d="M 173.045455 232.613069 
L 176.229175 244.017897 
L 179.412895 254.345573 
L 182.596615 260.503809 
L 185.780335 262.243033 
L 188.964055 243.100774 
L 192.147775 192.302263 
L 195.331495 133.65267 
L 198.515215 87.698781 
L 201.698935 66.855183 
L 204.882655 70.188042 
L 208.066375 68.887695 
L 211.250095 89.304705 
L 214.433815 104.982058 
L 217.617535 114.613379 
L 220.801255 130.313432 
L 223.984975 145.160466 
L 227.168695 153.314699 
L 230.352415 157.517796 
L 233.536135 156.750253 
L 236.719855 166.136854 
L 239.903576 158.672987 
L 243.087296 201.025423 
L 246.271016 238.809424 
L 249.454736 218.404077 
L 252.638456 248.638306 
L 255.822176 254.761046 
L 259.005896 255.78552 
L 262.189616 249.322372 
L 265.373336 238.005679 
L 268.557056 212.173321 
L 274.924496 145.151895 
L 278.108216 147.217634 
L 281.291936 125.107581 
L 284.475656 118.817651 
L 287.659376 130.588678 
L 290.843096 133.175479 
L 294.026816 153.69174 
L 297.210536 165.437329 
L 300.394256 138.205882 
L 303.577976 117.840492 
L 306.761696 102.414317 
L 309.945417 104.823947 
L 313.129137 123.099568 
L 316.312857 147.840373 
L 322.680297 242.139896 
L 325.864017 220.148857 
L 329.047737 237.271675 
L 332.231457 246.821788 
L 335.415177 254.321622 
L 338.598897 258.86818 
L 341.782617 239.716685 
L 344.966337 205.567599 
L 348.150057 161.358529 
L 351.333777 113.480927 
L 354.517497 105.418273 
L 357.701217 93.83193 
L 360.884937 108.284861 
L 364.068657 114.861661 
L 367.252377 113.750812 
L 370.436097 127.656615 
L 373.619817 134.917716 
L 376.803537 140.892794 
L 379.987258 142.302762 
L 383.170978 139.864797 
L 386.354698 142.426903 
L 389.538418 138.775512 
L 392.722138 186.656284 
L 395.905858 204.044173 
L 399.089578 237.13188 
L 402.273298 229.045235 
L 405.457018 243.316298 
L 408.640738 241.748023 
L 411.824458 223.033369 
L 415.008178 219.109785 
L 418.191898 210.464076 
L 421.375618 186.51915 
L 424.559338 149.877424 
L 427.743058 118.59152 
L 430.926778 106.638156 
L 434.110498 144.352181 
L 437.294218 135.755001 
L 440.477938 120.456293 
L 443.661658 126.867742 
L 446.845378 141.781152 
L 450.029099 142.335519 
L 453.212819 162.649249 
L 456.396539 147.264989 
L 459.580259 172.821553 
L 462.763979 190.788936 
L 465.947699 231.940862 
L 469.131419 198.293543 
L 472.315139 218.874536 
L 475.498859 218.379029 
L 478.682579 215.630868 
L 481.866299 227.599809 
L 485.050019 236.824346 
L 488.233739 241.372979 
L 491.417459 253.032467 
L 494.601179 267.210542 
L 497.784899 238.258814 
L 500.968619 221.238533 
L 504.152339 210.884205 
L 507.336059 177.378365 
L 510.519779 162.017313 
L 513.703499 165.551764 
L 516.887219 169.742885 
L 520.07094 184.941365 
L 523.25466 209.124827 
L 526.43838 217.261449 
L 529.6221 218.388539 
L 532.80582 212.36775 
L 535.98954 180.28902 
L 539.17326 159.311889 
L 542.35698 172.194783 
L 545.5407 194.693187 
L 548.72442 221.23278 
L 551.90814 241.962256 
L 555.09186 218.462859 
L 558.27558 233.709516 
L 561.4593 253.007694 
L 564.64302 264.201616 
L 567.82674 281.740102 
L 571.01046 278.127613 
L 574.19418 259.041946 
L 577.3779 235.96624 
L 580.56162 214.410516 
L 583.74534 206.924733 
L 586.92906 194.925579 
L 590.112781 218.185186 
L 593.296501 225.339954 
L 596.480221 229.711572 
L 599.663941 228.610703 
L 602.847661 214.131278 
L 606.031381 208.40546 
L 609.215101 178.211345 
L 612.398821 178.554963 
L 615.582541 183.182338 
L 618.766261 208.094051 
L 621.949981 247.272601 
L 625.133701 269.625456 
L 628.317421 285.623415 
L 631.501141 249.998845 
L 634.684861 260.949652 
L 637.868581 258.043888 
L 641.052301 250.563936 
L 644.236021 253.29429 
L 647.419741 239.661738 
L 653.787181 157.317614 
L 656.970901 102.112966 
L 660.154622 97.432326 
L 663.338342 86.811323 
L 666.522062 91.029292 
L 669.705782 107.789628 
L 672.889502 119.498703 
L 676.073222 135.600882 
L 679.256942 142.435787 
L 682.440662 111.90913 
L 685.624382 114.439457 
L 688.808102 110.74169 
L 691.991822 121.031364 
L 695.175542 139.580197 
L 698.359262 176.570667 
L 701.542982 220.234096 
L 704.726702 252.67566 
L 707.910422 235.175841 
L 711.094142 250.019196 
L 714.277862 249.774789 
L 717.461582 255.481195 
L 720.645302 260.727435 
L 723.829022 252.788334 
L 727.012742 213.560825 
L 733.380183 103.34866 
L 736.563903 91.856714 
L 739.747623 79.637457 
L 742.931343 82.962332 
L 746.115063 90.514413 
L 749.298783 100.745069 
L 752.482503 103.725622 
L 755.666223 104.337012 
L 758.849943 102.710501 
L 762.033663 108.775553 
L 765.217383 120.071739 
L 768.401103 132.022716 
L 771.584823 153.662975 
L 774.768543 193.587895 
L 777.952263 223.760524 
L 781.135983 239.91182 
L 784.319703 230.242067 
L 787.503423 237.207844 
L 790.687143 240.681907 
L 793.870863 243.852115 
L 797.054583 246.398293 
L 800.238304 223.70045 
L 803.422024 181.536729 
L 806.605744 141.501131 
L 812.973184 98.303973 
L 816.156904 85.771937 
L 819.340624 92.119007 
L 822.524344 102.296046 
L 825.708064 120.932819 
L 828.891784 148.513245 
L 832.075504 158.473117 
L 835.259224 155.627467 
L 838.442944 136.365725 
L 841.626664 141.432994 
L 844.810384 158.096703 
L 847.994104 182.05517 
L 851.177824 201.19598 
L 854.361544 219.373369 
L 857.545264 233.71026 
L 860.728984 217.120167 
L 863.912704 224.32315 
L 867.096424 231.97311 
L 870.280145 233.885395 
L 873.463865 239.779265 
L 876.647585 234.98462 
L 879.831305 208.646188 
L 883.015025 166.284163 
L 886.198745 121.396977 
L 889.382465 111.45546 
L 892.566185 129.166734 
L 895.749905 156.671197 
L 898.933625 157.755785 
L 902.117345 131.345616 
L 905.301065 129.317683 
L 908.484785 136.206479 
L 911.668505 152.604608 
L 914.852225 163.390493 
L 918.035945 158.061128 
L 921.219665 174.720805 
L 924.403385 216.710056 
L 927.587105 226.399377 
L 930.770825 231.004601 
L 933.954545 233.895179 
L 933.954545 233.895179 
" clip-path="url(#ped47679cb0)" style="fill: none; stroke: #d62728; stroke-width: 3; stroke-linecap: square"/>
   </g>
   <g id="line2d_31">
    <path d="M 173.045455 226.500232 
L 176.229175 226.684917 
L 179.412895 235.161204 
L 182.596615 239.504096 
L 185.780335 233.755814 
L 188.964055 218.489433 
L 192.147775 186.084383 
L 195.331495 145.041374 
L 198.515215 100.86921 
L 201.698935 117.991637 
L 204.882655 120.379899 
L 208.066375 97.742209 
L 211.250095 115.345387 
L 214.433815 118.303633 
L 217.617535 125.097953 
L 220.801255 145.826568 
L 223.984975 156.023254 
L 227.168695 129.245516 
L 230.352415 125.214267 
L 233.536135 139.821512 
L 236.719855 166.460982 
L 239.903576 172.080661 
L 243.087296 195.47662 
L 246.271016 213.942288 
L 249.454736 206.632501 
L 252.638456 211.587761 
L 255.822176 219.867936 
L 259.005896 228.732574 
L 262.189616 241.895802 
L 265.373336 243.606299 
L 268.557056 244.164972 
L 271.740776 208.619536 
L 274.924496 147.361069 
L 278.108216 135.854525 
L 281.291936 123.416104 
L 284.475656 106.116624 
L 287.659376 113.774372 
L 290.843096 116.047965 
L 294.026816 133.31504 
L 297.210536 161.858301 
L 303.577976 68.293682 
L 306.761696 58.58761 
L 309.945417 106.247026 
L 313.129137 130.426888 
L 316.312857 166.491077 
L 322.680297 216.751619 
L 325.864017 232.603011 
L 329.047737 219.794203 
L 332.231457 217.319567 
L 335.415177 216.876151 
L 338.598897 203.800862 
L 341.782617 195.052772 
L 344.966337 189.034997 
L 348.150057 158.508105 
L 351.333777 123.893255 
L 354.517497 107.767086 
L 357.701217 75.358592 
L 360.884937 102.812178 
L 364.068657 109.10383 
L 367.252377 116.447 
L 370.436097 122.081864 
L 376.803537 137.093585 
L 379.987258 114.692592 
L 383.170978 101.524119 
L 386.354698 121.381713 
L 389.538418 149.144125 
L 392.722138 179.666712 
L 395.905858 190.240869 
L 399.089578 201.955814 
L 402.273298 228.658528 
L 405.457018 224.600236 
L 408.640738 210.20918 
L 411.824458 212.676654 
L 415.008178 216.334659 
L 418.191898 215.272457 
L 421.375618 204.698574 
L 424.559338 163.50395 
L 427.743058 117.703827 
L 430.926778 111.06527 
L 434.110498 140.237728 
L 437.294218 135.184509 
L 440.477938 138.943134 
L 443.661658 153.658239 
L 446.845378 187.199302 
L 450.029099 179.742793 
L 453.212819 187.707567 
L 456.396539 142.571904 
L 459.580259 132.914283 
L 462.763979 147.756268 
L 465.947699 196.409515 
L 469.131419 181.711473 
L 472.315139 204.214691 
L 475.498859 213.908043 
L 478.682579 253.820401 
L 481.866299 226.265961 
L 485.050019 251.569547 
L 488.233739 253.319807 
L 491.417459 251.105154 
L 494.601179 263.907036 
L 497.784899 247.828573 
L 500.968619 232.410147 
L 504.152339 215.772621 
L 507.336059 188.706838 
L 510.519779 180.930349 
L 513.703499 191.81795 
L 516.887219 181.483934 
L 520.07094 192.071593 
L 523.25466 209.462183 
L 526.43838 217.165095 
L 529.6221 216.661566 
L 532.80582 210.457736 
L 535.98954 161.600353 
L 539.17326 146.817268 
L 542.35698 176.767758 
L 545.5407 204.954252 
L 548.72442 207.140649 
L 551.90814 207.404232 
L 555.09186 229.568568 
L 558.27558 219.782462 
L 561.4593 218.948464 
L 564.64302 227.470346 
L 567.82674 247.743256 
L 571.01046 264.293351 
L 574.19418 261.397412 
L 577.3779 239.618414 
L 580.56162 208.18884 
L 583.74534 198.991346 
L 586.92906 187.905911 
L 590.112781 222.450667 
L 593.296501 234.36509 
L 596.480221 238.72986 
L 599.663941 242.274839 
L 602.847661 242.671252 
L 606.031381 238.682975 
L 609.215101 192.175227 
L 612.398821 182.054856 
L 615.582541 203.909192 
L 618.766261 231.952681 
L 621.949981 254.965651 
L 625.133701 267.614665 
L 628.317421 268.809423 
L 631.501141 242.741971 
L 634.684861 241.217959 
L 637.868581 236.21824 
L 641.052301 226.281811 
L 644.236021 217.33119 
L 647.419741 190.297069 
L 650.603461 162.179142 
L 653.787181 125.527515 
L 656.970901 104.421938 
L 660.154622 109.756234 
L 663.338342 112.207115 
L 666.522062 118.970204 
L 669.705782 137.935762 
L 672.889502 144.173875 
L 676.073222 154.200474 
L 679.256942 141.50344 
L 682.440662 125.513895 
L 685.624382 81.202602 
L 688.808102 102.467777 
L 691.991822 139.571587 
L 695.175542 166.02011 
L 698.359262 183.1306 
L 701.542982 202.614011 
L 704.726702 238.740975 
L 707.910422 246.233998 
L 711.094142 247.843915 
L 714.277862 250.883133 
L 717.461582 253.60926 
L 720.645302 250.952483 
L 723.829022 231.190773 
L 727.012742 195.474311 
L 730.196463 157.659901 
L 733.380183 115.882183 
L 736.563903 97.05145 
L 739.747623 86.444301 
L 742.931343 87.564934 
L 746.115063 92.110084 
L 749.298783 108.689375 
L 752.482503 106.689816 
L 755.666223 97.792851 
L 758.849943 95.289919 
L 762.033663 95.210551 
L 765.217383 108.078925 
L 768.401103 145.445731 
L 771.584823 174.028716 
L 774.768543 196.86522 
L 777.952263 209.760794 
L 781.135983 219.901006 
L 784.319703 223.956089 
L 787.503423 221.422748 
L 790.687143 225.607529 
L 793.870863 222.228646 
L 797.054583 226.788276 
L 800.238304 210.686214 
L 803.422024 189.947776 
L 806.605744 151.425858 
L 809.789464 103.209491 
L 812.973184 90.892001 
L 816.156904 92.12519 
L 819.340624 111.484656 
L 822.524344 116.778407 
L 825.708064 132.50515 
L 828.891784 158.533152 
L 832.075504 166.746364 
L 835.259224 171.557877 
L 838.442944 115.103446 
L 841.626664 123.823084 
L 844.810384 160.325131 
L 847.994104 190.50277 
L 851.177824 186.816157 
L 854.361544 203.861211 
L 857.545264 215.205299 
L 860.728984 232.915751 
L 863.912704 228.895656 
L 867.096424 231.936244 
L 870.280145 219.874119 
L 873.463865 223.881104 
L 876.647585 220.691132 
L 879.831305 192.633749 
L 883.015025 152.109023 
L 886.198745 122.791878 
L 889.382465 99.291151 
L 892.566185 105.057279 
L 895.749905 127.035168 
L 898.933625 142.384831 
L 902.117345 135.198324 
L 905.301065 142.6346 
L 908.484785 152.572281 
L 911.668505 163.692392 
L 914.852225 141.096655 
L 918.035945 139.868554 
L 921.219665 166.144172 
L 924.403385 184.914673 
L 927.587105 206.626278 
L 930.770825 225.471413 
L 933.954545 222.834008 
L 933.954545 222.834008 
" clip-path="url(#ped47679cb0)" style="fill: none; stroke: #9467bd; stroke-width: 3; stroke-linecap: square"/>
   </g>
   <g id="line2d_32">
    <path d="M 173.045455 233.635822 
L 176.229175 224.510261 
L 179.412895 229.391123 
L 182.596615 213.349488 
L 185.780335 222.756479 
L 188.964055 213.461301 
L 192.147775 166.061125 
L 195.331495 110.180395 
L 198.515215 72.089995 
L 201.698935 57.823902 
L 204.882655 104.339438 
L 208.066375 106.06105 
L 211.250095 104.846333 
L 214.433815 108.240715 
L 220.801255 134.214708 
L 223.984975 143.270567 
L 227.168695 146.74557 
L 230.352415 116.760874 
L 233.536135 160.909947 
L 236.719855 164.901747 
L 239.903576 197.674405 
L 243.087296 191.420793 
L 246.271016 214.889076 
L 252.638456 223.698376 
L 255.822176 228.954556 
L 259.005896 222.231033 
L 262.189616 239.355613 
L 265.373336 230.886879 
L 268.557056 206.326141 
L 271.740776 164.487174 
L 274.924496 132.824856 
L 278.108216 160.158567 
L 281.291936 134.832516 
L 284.475656 119.213868 
L 287.659376 126.055348 
L 290.843096 137.978577 
L 294.026816 139.536716 
L 297.210536 145.271026 
L 300.394256 130.054583 
L 303.577976 94.009297 
L 306.761696 72.449502 
L 309.945417 98.202766 
L 313.129137 138.626246 
L 316.312857 177.304632 
L 319.496577 196.520271 
L 322.680297 218.558548 
L 325.864017 236.533562 
L 329.047737 230.591242 
L 332.231457 230.004548 
L 335.415177 226.393154 
L 338.598897 220.977532 
L 341.782617 215.150977 
L 344.966337 168.981212 
L 348.150057 130.03975 
L 351.333777 92.96091 
L 354.517497 93.579344 
L 357.701217 87.101559 
L 360.884937 102.220278 
L 364.068657 97.465514 
L 367.252377 104.476729 
L 370.436097 113.870178 
L 373.619817 124.387431 
L 376.803537 125.137755 
L 379.987258 118.22763 
L 383.170978 117.349017 
L 389.538418 157.113517 
L 392.722138 202.77854 
L 395.905858 198.021271 
L 399.089578 224.596361 
L 402.273298 223.807801 
L 405.457018 223.228034 
L 408.640738 212.314016 
L 411.824458 205.321822 
L 415.008178 206.271037 
L 418.191898 227.056047 
L 421.375618 171.983603 
L 424.559338 135.997999 
L 427.743058 103.772273 
L 430.926778 81.194774 
L 434.110498 98.660819 
L 437.294218 129.527846 
L 440.477938 131.75921 
L 443.661658 109.654245 
L 446.845378 126.806533 
L 450.029099 140.61653 
L 453.212819 146.017476 
L 456.396539 139.053616 
L 459.580259 121.913421 
L 465.947699 159.385818 
L 469.131419 202.733064 
L 472.315139 215.741233 
L 475.498859 221.832115 
L 478.682579 267.451271 
L 481.866299 270.776772 
L 485.050019 270.954843 
L 488.233739 268.784258 
L 491.417459 276.753924 
L 494.601179 307.8 
L 497.784899 301.394656 
L 504.152339 256.186277 
L 507.336059 240.942908 
L 510.519779 251.979032 
L 513.703499 256.129764 
L 516.887219 253.166979 
L 520.07094 253.433459 
L 523.25466 267.061041 
L 526.43838 261.924305 
L 529.6221 257.406043 
L 532.80582 230.056129 
L 535.98954 226.589619 
L 539.17326 213.430383 
L 542.35698 232.018783 
L 545.5407 237.811328 
L 548.72442 238.353994 
L 551.90814 239.650701 
L 555.09186 229.477928 
L 558.27558 231.722911 
L 561.4593 242.659159 
L 564.64302 242.231593 
L 567.82674 254.964125 
L 571.01046 250.958353 
L 574.19418 255.682083 
L 577.3779 268.734085 
L 580.56162 255.528629 
L 583.74534 256.726869 
L 586.92906 256.01846 
L 590.112781 198.592154 
L 593.296501 219.289186 
L 596.480221 176.564484 
L 599.663941 193.371001 
L 602.847661 216.819364 
L 606.031381 224.336143 
L 609.215101 225.439478 
L 612.398821 216.204256 
L 615.582541 222.333101 
L 618.766261 231.275464 
L 621.949981 244.214989 
L 625.133701 245.313 
L 628.317421 242.258871 
L 631.501141 236.971303 
L 634.684861 253.648827 
L 637.868581 251.072828 
L 641.052301 247.058799 
L 644.236021 249.443852 
L 647.419741 241.031709 
L 650.603461 192.626548 
L 653.787181 135.654499 
L 656.970901 111.11693 
L 660.154622 112.82821 
L 663.338342 97.990881 
L 666.522062 96.352865 
L 669.705782 124.307162 
L 672.889502 137.899521 
L 676.073222 146.506564 
L 679.256942 140.958895 
L 682.440662 144.554595 
L 685.624382 110.643457 
L 688.808102 102.863525 
L 691.991822 128.347726 
L 695.175542 164.979354 
L 698.359262 187.630429 
L 701.542982 200.676052 
L 704.726702 221.950034 
L 707.910422 233.711355 
L 711.094142 235.671426 
L 714.277862 240.930893 
L 717.461582 234.205531 
L 720.645302 248.670202 
L 723.829022 243.670092 
L 727.012742 202.398056 
L 730.196463 146.962268 
L 733.380183 108.06781 
L 736.563903 91.914714 
L 739.747623 77.288566 
L 742.931343 76.763199 
L 746.115063 93.013431 
L 749.298783 71.01069 
L 752.482503 95.836029 
L 755.666223 90.062074 
L 758.849943 111.005391 
L 762.033663 103.479454 
L 765.217383 111.171095 
L 768.401103 123.022587 
L 771.584823 159.862891 
L 774.768543 189.116322 
L 777.952263 188.688248 
L 781.135983 212.190854 
L 787.503423 218.314924 
L 790.687143 222.635 
L 793.870863 223.507899 
L 797.054583 226.874063 
L 800.238304 221.105078 
L 803.422024 179.364031 
L 806.605744 135.403712 
L 809.789464 107.549252 
L 812.973184 104.128023 
L 816.156904 116.926734 
L 819.340624 93.222498 
L 822.524344 106.776386 
L 825.708064 123.826136 
L 828.891784 150.734004 
L 832.075504 149.850185 
L 835.259224 159.254359 
L 838.442944 133.91461 
L 841.626664 121.896749 
L 844.810384 151.135269 
L 847.994104 160.871554 
L 851.177824 181.566355 
L 854.361544 198.451733 
L 857.545264 214.696329 
L 860.728984 212.968808 
L 863.912704 216.27889 
L 867.096424 224.643599 
L 870.280145 220.581315 
L 873.463865 223.028321 
L 876.647585 223.566134 
L 879.831305 181.412471 
L 883.015025 131.845271 
L 886.198745 94.966417 
L 889.382465 107.192093 
L 892.566185 107.218628 
L 895.749905 126.001105 
L 898.933625 131.707511 
L 902.117345 151.092493 
L 905.301065 151.863599 
L 908.484785 158.293089 
L 911.668505 154.051873 
L 914.852225 146.99119 
L 918.035945 136.853913 
L 921.219665 137.543458 
L 924.403385 205.047984 
L 927.587105 214.56307 
L 930.770825 222.057463 
L 933.954545 241.804927 
L 933.954545 241.804927 
" clip-path="url(#ped47679cb0)" style="fill: none; stroke: #8c564b; stroke-width: 3; stroke-linecap: square"/>
   </g>
   <g id="line2d_33">
    <path d="M 173.045455 226.486377 
L 176.229175 226.671062 
L 179.412895 235.14735 
L 182.596615 239.490242 
L 185.780335 233.741921 
L 188.964055 218.47554 
L 192.147775 186.070451 
L 195.331495 145.027402 
L 198.515215 100.855199 
L 201.698935 117.977626 
L 204.882655 120.366045 
L 208.066375 97.728511 
L 211.250095 115.331846 
L 214.433815 118.290248 
L 217.617535 125.084647 
L 220.801255 145.81334 
L 223.984975 156.009987 
L 227.168695 129.232092 
L 230.352415 125.200882 
L 233.536135 139.807971 
L 236.719855 166.447479 
L 239.903576 172.067002 
L 243.087296 195.462766 
L 246.271016 213.928394 
L 249.454736 206.619195 
L 252.638456 211.574494 
L 255.822176 219.854747 
L 259.005896 228.719463 
L 262.189616 241.88277 
L 265.373336 243.593306 
L 268.557056 244.152057 
L 271.740776 208.6067 
L 274.924496 147.348271 
L 278.108216 135.841806 
L 281.291936 123.40358 
L 284.475656 106.104491 
L 287.659376 113.762475 
L 290.843096 116.036067 
L 294.026816 133.302829 
L 297.210536 161.845543 
L 303.577976 68.280062 
L 306.761696 58.573991 
L 309.945417 106.23325 
L 313.129137 130.413073 
L 316.312857 166.477223 
L 322.680297 216.737608 
L 325.864017 232.589314 
L 329.047737 219.780505 
L 332.231457 217.305791 
L 335.415177 216.862257 
L 338.598897 203.786851 
L 341.782617 195.038683 
L 344.966337 189.020986 
L 348.150057 158.494133 
L 351.333777 123.879284 
L 354.517497 107.753231 
L 357.701217 75.344738 
L 360.884937 102.79848 
L 364.068657 109.090054 
L 367.252377 116.433146 
L 370.436097 122.068167 
L 376.803537 137.07973 
L 379.987258 114.678737 
L 383.170978 101.510265 
L 386.354698 121.367859 
L 389.538418 149.13031 
L 392.722138 179.653014 
L 395.905858 190.227171 
L 399.089578 201.942038 
L 402.273298 228.645182 
L 405.457018 224.586734 
L 408.640738 210.195404 
L 411.824458 212.6628 
L 415.008178 216.320766 
L 418.191898 215.258603 
L 421.375618 204.684641 
L 424.559338 163.490056 
L 427.743058 117.690051 
L 430.926778 111.051729 
L 434.110498 140.224304 
L 437.294218 135.171242 
L 440.477938 138.929867 
L 443.661658 153.644972 
L 446.845378 187.185996 
L 450.029099 179.729565 
L 453.212819 187.694456 
L 456.396539 142.558832 
L 459.580259 132.901094 
L 462.763979 147.743079 
L 465.947699 196.396287 
L 469.131419 181.698245 
L 472.315139 204.201385 
L 475.498859 213.894659 
L 478.682579 253.807721 
L 481.866299 226.253124 
L 485.050019 251.556789 
L 488.233739 253.30697 
L 491.417459 251.092474 
L 494.601179 263.894316 
L 497.784899 247.815776 
L 500.968619 232.397271 
L 504.152339 215.759745 
L 507.336059 188.694001 
L 510.519779 180.917434 
L 513.703499 191.805191 
L 516.887219 181.471215 
L 520.07094 192.058874 
L 523.25466 209.449542 
L 526.43838 217.152454 
L 529.6221 216.648886 
L 532.80582 210.444703 
L 535.98954 161.587047 
L 539.17326 146.803805 
L 542.35698 176.754256 
L 545.5407 204.940594 
L 548.72442 207.127146 
L 551.90814 207.39077 
L 555.09186 229.55577 
L 558.27558 219.769625 
L 561.4593 218.935589 
L 564.64302 227.457352 
L 567.82674 247.730145 
L 571.01046 264.280202 
L 574.19418 261.384144 
L 577.3779 239.605107 
L 580.56162 208.17569 
L 583.74534 198.978392 
L 586.92906 187.893152 
L 590.112781 222.43783 
L 593.296501 234.352293 
L 596.480221 238.716906 
L 599.663941 242.261728 
L 602.847661 242.658063 
L 606.031381 238.669746 
L 609.215101 192.161881 
L 612.398821 182.041394 
L 615.582541 203.895612 
L 618.766261 231.938983 
L 621.949981 254.95211 
L 625.133701 267.600968 
L 628.317421 268.795686 
L 631.501141 242.728039 
L 634.684861 241.203948 
L 637.868581 236.204151 
L 641.052301 226.267644 
L 644.236021 217.317023 
L 647.419741 190.282823 
L 650.603461 162.164857 
L 653.787181 125.513269 
L 656.970901 104.407849 
L 660.154622 109.742302 
L 663.338342 112.193339 
L 666.522062 118.956585 
L 669.705782 137.92226 
L 672.889502 144.160491 
L 676.073222 154.187051 
L 679.256942 141.489938 
L 682.440662 125.500197 
L 685.624382 81.188747 
L 688.808102 102.453688 
L 691.991822 139.557498 
L 695.175542 166.00602 
L 698.359262 183.116511 
L 701.542982 202.599921 
L 704.726702 238.726886 
L 707.910422 246.220222 
L 711.094142 247.830139 
L 714.277862 250.86924 
L 717.461582 253.595406 
L 720.645302 250.93859 
L 723.829022 231.17684 
L 727.012742 195.460339 
L 730.196463 157.645929 
L 733.380183 115.868172 
L 736.563903 97.037518 
L 739.747623 86.43029 
L 742.931343 87.551002 
L 746.115063 92.096151 
L 749.298783 108.675521 
L 752.482503 106.675883 
L 755.666223 97.778919 
L 758.849943 95.275908 
L 762.033663 95.196461 
L 765.217383 108.064757 
L 768.401103 145.431564 
L 771.584823 174.01451 
L 774.768543 196.850974 
L 777.952263 209.746548 
L 781.135983 219.886721 
L 784.319703 223.941961 
L 787.503423 221.408581 
L 790.687143 225.593323 
L 793.870863 222.214439 
L 797.054583 226.77403 
L 800.238304 210.671929 
L 803.422024 189.93353 
L 806.605744 151.411612 
L 809.789464 103.195323 
L 812.973184 90.87799 
L 816.156904 92.111336 
L 819.340624 111.470958 
L 822.524344 116.764944 
L 825.708064 132.491883 
L 828.891784 158.52012 
L 832.075504 166.733293 
L 835.259224 171.544688 
L 838.442944 115.090061 
L 841.626664 123.809386 
L 844.810384 160.311277 
L 847.994104 190.488876 
L 851.177824 186.802146 
L 854.361544 203.847122 
L 857.545264 215.191092 
L 860.728984 232.901818 
L 863.912704 228.881684 
L 867.096424 231.922155 
L 870.280145 219.86003 
L 873.463865 223.866975 
L 876.647585 220.677003 
L 879.831305 192.619582 
L 883.015025 152.094895 
L 886.198745 122.777906 
L 889.382465 99.277609 
L 892.566185 105.044129 
L 895.749905 127.022488 
L 898.933625 142.372503 
L 902.117345 135.186388 
L 905.301065 142.622781 
L 908.484785 152.560619 
L 911.668505 163.680651 
L 914.852225 141.084719 
L 918.035945 139.855796 
L 921.219665 166.1311 
L 924.403385 184.901367 
L 927.587105 206.612698 
L 930.770825 225.457833 
L 933.954545 222.820311 
L 933.954545 222.820311 
" clip-path="url(#ped47679cb0)" style="fill: none; stroke: #e377c2; stroke-width: 3; stroke-linecap: square"/>
   </g>
   <g id="patch_3">
    <path d="M 135 320.4 
L 135 43.2 
" style="fill: none; stroke: #000000; stroke-width: 0.8; stroke-linejoin: miter; stroke-linecap: square"/>
   </g>
   <g id="patch_4">
    <path d="M 972 320.4 
L 972 43.2 
" style="fill: none; stroke: #000000; stroke-width: 0.8; stroke-linejoin: miter; stroke-linecap: square"/>
   </g>
   <g id="patch_5">
    <path d="M 135 320.4 
L 972 320.4 
" style="fill: none; stroke: #000000; stroke-width: 0.8; stroke-linejoin: miter; stroke-linecap: square"/>
   </g>
   <g id="patch_6">
    <path d="M 135 43.2 
L 972 43.2 
" style="fill: none; stroke: #000000; stroke-width: 0.8; stroke-linejoin: miter; stroke-linecap: square"/>
   </g>
   <g id="legend_1">
    <g id="patch_7">
     <path d="M 469.703125 153.946875 
L 637.296875 153.946875 
Q 639.296875 153.946875 639.296875 151.946875 
L 639.296875 50.2 
Q 639.296875 48.2 637.296875 48.2 
L 469.703125 48.2 
Q 467.703125 48.2 467.703125 50.2 
L 467.703125 151.946875 
Q 467.703125 153.946875 469.703125 153.946875 
z
" style="fill: #ffffff; opacity: 0.8; stroke: #cccccc; stroke-linejoin: miter"/>
    </g>
    <g id="line2d_34">
     <path d="M 471.703125 56.298437 
L 481.703125 56.298437 
L 491.703125 56.298437 
" style="fill: none; stroke: #1f77b4; stroke-width: 3; stroke-linecap: square"/>
    </g>
    <g id="text_16">
     <!-- Actual Load -->
     <g transform="translate(499.703125 59.798437) scale(0.1 -0.1)">
      <defs>
       <path id="DejaVuSans-41" d="M 2188 4044 
L 1331 1722 
L 3047 1722 
L 2188 4044 
z
M 1831 4666 
L 2547 4666 
L 4325 0 
L 3669 0 
L 3244 1197 
L 1141 1197 
L 716 0 
L 50 0 
L 1831 4666 
z
" transform="scale(0.015625)"/>
       <path id="DejaVuSans-63" d="M 3122 3366 
L 3122 2828 
Q 2878 2963 2633 3030 
Q 2388 3097 2138 3097 
Q 1578 3097 1268 2742 
Q 959 2388 959 1747 
Q 959 1106 1268 751 
Q 1578 397 2138 397 
Q 2388 397 2633 464 
Q 2878 531 3122 666 
L 3122 134 
Q 2881 22 2623 -34 
Q 2366 -91 2075 -91 
Q 1284 -91 818 406 
Q 353 903 353 1747 
Q 353 2603 823 3093 
Q 1294 3584 2113 3584 
Q 2378 3584 2631 3529 
Q 2884 3475 3122 3366 
z
" transform="scale(0.015625)"/>
       <path id="DejaVuSans-74" d="M 1172 4494 
L 1172 3500 
L 2356 3500 
L 2356 3053 
L 1172 3053 
L 1172 1153 
Q 1172 725 1289 603 
Q 1406 481 1766 481 
L 2356 481 
L 2356 0 
L 1766 0 
Q 1100 0 847 248 
Q 594 497 594 1153 
L 594 3053 
L 172 3053 
L 172 3500 
L 594 3500 
L 594 4494 
L 1172 4494 
z
" transform="scale(0.015625)"/>
       <path id="DejaVuSans-61" d="M 2194 1759 
Q 1497 1759 1228 1600 
Q 959 1441 959 1056 
Q 959 750 1161 570 
Q 1363 391 1709 391 
Q 2188 391 2477 730 
Q 2766 1069 2766 1631 
L 2766 1759 
L 2194 1759 
z
M 3341 1997 
L 3341 0 
L 2766 0 
L 2766 531 
Q 2569 213 2275 61 
Q 1981 -91 1556 -91 
Q 1019 -91 701 211 
Q 384 513 384 1019 
Q 384 1609 779 1909 
Q 1175 2209 1959 2209 
L 2766 2209 
L 2766 2266 
Q 2766 2663 2505 2880 
Q 2244 3097 1772 3097 
Q 1472 3097 1187 3025 
Q 903 2953 641 2809 
L 641 3341 
Q 956 3463 1253 3523 
Q 1550 3584 1831 3584 
Q 2591 3584 2966 3190 
Q 3341 2797 3341 1997 
z
" transform="scale(0.015625)"/>
       <path id="DejaVuSans-6c" d="M 603 4863 
L 1178 4863 
L 1178 0 
L 603 0 
L 603 4863 
z
" transform="scale(0.015625)"/>
       <path id="DejaVuSans-20" transform="scale(0.015625)"/>
       <path id="DejaVuSans-4c" d="M 628 4666 
L 1259 4666 
L 1259 531 
L 3531 531 
L 3531 0 
L 628 0 
L 628 4666 
z
" transform="scale(0.015625)"/>
       <path id="DejaVuSans-64" d="M 2906 2969 
L 2906 4863 
L 3481 4863 
L 3481 0 
L 2906 0 
L 2906 525 
Q 2725 213 2448 61 
Q 2172 -91 1784 -91 
Q 1150 -91 751 415 
Q 353 922 353 1747 
Q 353 2572 751 3078 
Q 1150 3584 1784 3584 
Q 2172 3584 2448 3432 
Q 2725 3281 2906 2969 
z
M 947 1747 
Q 947 1113 1208 752 
Q 1469 391 1925 391 
Q 2381 391 2643 752 
Q 2906 1113 2906 1747 
Q 2906 2381 2643 2742 
Q 2381 3103 1925 3103 
Q 1469 3103 1208 2742 
Q 947 2381 947 1747 
z
" transform="scale(0.015625)"/>
      </defs>
      <use xlink:href="#DejaVuSans-41"/>
      <use xlink:href="#DejaVuSans-63" x="66.658203"/>
      <use xlink:href="#DejaVuSans-74" x="121.638672"/>
      <use xlink:href="#DejaVuSans-75" x="160.847656"/>
      <use xlink:href="#DejaVuSans-61" x="224.226562"/>
      <use xlink:href="#DejaVuSans-6c" x="285.505859"/>
      <use xlink:href="#DejaVuSans-20" x="313.289062"/>
      <use xlink:href="#DejaVuSans-4c" x="345.076172"/>
      <use xlink:href="#DejaVuSans-6f" x="399.039062"/>
      <use xlink:href="#DejaVuSans-61" x="460.220703"/>
      <use xlink:href="#DejaVuSans-64" x="521.5"/>
     </g>
    </g>
    <g id="line2d_35">
     <path d="M 471.703125 70.976562 
L 481.703125 70.976562 
L 491.703125 70.976562 
" style="fill: none; stroke: #ff7f0e; stroke-width: 3; stroke-linecap: square"/>
    </g>
    <g id="text_17">
     <!-- MLP(1) Forecast Load -->
     <g transform="translate(499.703125 74.476562) scale(0.1 -0.1)">
      <defs>
       <path id="DejaVuSans-50" d="M 1259 4147 
L 1259 2394 
L 2053 2394 
Q 2494 2394 2734 2622 
Q 2975 2850 2975 3272 
Q 2975 3691 2734 3919 
Q 2494 4147 2053 4147 
L 1259 4147 
z
M 628 4666 
L 2053 4666 
Q 2838 4666 3239 4311 
Q 3641 3956 3641 3272 
Q 3641 2581 3239 2228 
Q 2838 1875 2053 1875 
L 1259 1875 
L 1259 0 
L 628 0 
L 628 4666 
z
" transform="scale(0.015625)"/>
       <path id="DejaVuSans-28" d="M 1984 4856 
Q 1566 4138 1362 3434 
Q 1159 2731 1159 2009 
Q 1159 1288 1364 580 
Q 1569 -128 1984 -844 
L 1484 -844 
Q 1016 -109 783 600 
Q 550 1309 550 2009 
Q 550 2706 781 3412 
Q 1013 4119 1484 4856 
L 1984 4856 
z
" transform="scale(0.015625)"/>
       <path id="DejaVuSans-29" d="M 513 4856 
L 1013 4856 
Q 1481 4119 1714 3412 
Q 1947 2706 1947 2009 
Q 1947 1309 1714 600 
Q 1481 -109 1013 -844 
L 513 -844 
Q 928 -128 1133 580 
Q 1338 1288 1338 2009 
Q 1338 2731 1133 3434 
Q 928 4138 513 4856 
z
" transform="scale(0.015625)"/>
       <path id="DejaVuSans-46" d="M 628 4666 
L 3309 4666 
L 3309 4134 
L 1259 4134 
L 1259 2759 
L 3109 2759 
L 3109 2228 
L 1259 2228 
L 1259 0 
L 628 0 
L 628 4666 
z
" transform="scale(0.015625)"/>
       <path id="DejaVuSans-65" d="M 3597 1894 
L 3597 1613 
L 953 1613 
Q 991 1019 1311 708 
Q 1631 397 2203 397 
Q 2534 397 2845 478 
Q 3156 559 3463 722 
L 3463 178 
Q 3153 47 2828 -22 
Q 2503 -91 2169 -91 
Q 1331 -91 842 396 
Q 353 884 353 1716 
Q 353 2575 817 3079 
Q 1281 3584 2069 3584 
Q 2775 3584 3186 3129 
Q 3597 2675 3597 1894 
z
M 3022 2063 
Q 3016 2534 2758 2815 
Q 2500 3097 2075 3097 
Q 1594 3097 1305 2825 
Q 1016 2553 972 2059 
L 3022 2063 
z
" transform="scale(0.015625)"/>
      </defs>
      <use xlink:href="#DejaVuSans-4d"/>
      <use xlink:href="#DejaVuSans-4c" x="86.279297"/>
      <use xlink:href="#DejaVuSans-50" x="141.992188"/>
      <use xlink:href="#DejaVuSans-28" x="202.294922"/>
      <use xlink:href="#DejaVuSans-31" x="241.308594"/>
      <use xlink:href="#DejaVuSans-29" x="304.931641"/>
      <use xlink:href="#DejaVuSans-20" x="343.945312"/>
      <use xlink:href="#DejaVuSans-46" x="375.732422"/>
      <use xlink:href="#DejaVuSans-6f" x="429.626953"/>
      <use xlink:href="#DejaVuSans-72" x="490.808594"/>
      <use xlink:href="#DejaVuSans-65" x="529.671875"/>
      <use xlink:href="#DejaVuSans-63" x="591.195312"/>
      <use xlink:href="#DejaVuSans-61" x="646.175781"/>
      <use xlink:href="#DejaVuSans-73" x="707.455078"/>
      <use xlink:href="#DejaVuSans-74" x="759.554688"/>
      <use xlink:href="#DejaVuSans-20" x="798.763672"/>
      <use xlink:href="#DejaVuSans-4c" x="830.550781"/>
      <use xlink:href="#DejaVuSans-6f" x="884.513672"/>
      <use xlink:href="#DejaVuSans-61" x="945.695312"/>
      <use xlink:href="#DejaVuSans-64" x="1006.974609"/>
     </g>
    </g>
    <g id="line2d_36">
     <path d="M 471.703125 85.654687 
L 481.703125 85.654687 
L 491.703125 85.654687 
" style="fill: none; stroke: #2ca02c; stroke-width: 3; stroke-linecap: square"/>
    </g>
    <g id="text_18">
     <!-- MLP(2) Forecast Load -->
     <g transform="translate(499.703125 89.154687) scale(0.1 -0.1)">
      <use xlink:href="#DejaVuSans-4d"/>
      <use xlink:href="#DejaVuSans-4c" x="86.279297"/>
      <use xlink:href="#DejaVuSans-50" x="141.992188"/>
      <use xlink:href="#DejaVuSans-28" x="202.294922"/>
      <use xlink:href="#DejaVuSans-32" x="241.308594"/>
      <use xlink:href="#DejaVuSans-29" x="304.931641"/>
      <use xlink:href="#DejaVuSans-20" x="343.945312"/>
      <use xlink:href="#DejaVuSans-46" x="375.732422"/>
      <use xlink:href="#DejaVuSans-6f" x="429.626953"/>
      <use xlink:href="#DejaVuSans-72" x="490.808594"/>
      <use xlink:href="#DejaVuSans-65" x="529.671875"/>
      <use xlink:href="#DejaVuSans-63" x="591.195312"/>
      <use xlink:href="#DejaVuSans-61" x="646.175781"/>
      <use xlink:href="#DejaVuSans-73" x="707.455078"/>
      <use xlink:href="#DejaVuSans-74" x="759.554688"/>
      <use xlink:href="#DejaVuSans-20" x="798.763672"/>
      <use xlink:href="#DejaVuSans-4c" x="830.550781"/>
      <use xlink:href="#DejaVuSans-6f" x="884.513672"/>
      <use xlink:href="#DejaVuSans-61" x="945.695312"/>
      <use xlink:href="#DejaVuSans-64" x="1006.974609"/>
     </g>
    </g>
    <g id="line2d_37">
     <path d="M 471.703125 100.332812 
L 481.703125 100.332812 
L 491.703125 100.332812 
" style="fill: none; stroke: #d62728; stroke-width: 3; stroke-linecap: square"/>
    </g>
    <g id="text_19">
     <!-- KAN Forecast Load -->
     <g transform="translate(499.703125 103.832812) scale(0.1 -0.1)">
      <defs>
       <path id="DejaVuSans-4b" d="M 628 4666 
L 1259 4666 
L 1259 2694 
L 3353 4666 
L 4166 4666 
L 1850 2491 
L 4331 0 
L 3500 0 
L 1259 2247 
L 1259 0 
L 628 0 
L 628 4666 
z
" transform="scale(0.015625)"/>
       <path id="DejaVuSans-4e" d="M 628 4666 
L 1478 4666 
L 3547 763 
L 3547 4666 
L 4159 4666 
L 4159 0 
L 3309 0 
L 1241 3903 
L 1241 0 
L 628 0 
L 628 4666 
z
" transform="scale(0.015625)"/>
      </defs>
      <use xlink:href="#DejaVuSans-4b"/>
      <use xlink:href="#DejaVuSans-41" x="63.826172"/>
      <use xlink:href="#DejaVuSans-4e" x="132.234375"/>
      <use xlink:href="#DejaVuSans-20" x="207.039062"/>
      <use xlink:href="#DejaVuSans-46" x="238.826172"/>
      <use xlink:href="#DejaVuSans-6f" x="292.720703"/>
      <use xlink:href="#DejaVuSans-72" x="353.902344"/>
      <use xlink:href="#DejaVuSans-65" x="392.765625"/>
      <use xlink:href="#DejaVuSans-63" x="454.289062"/>
      <use xlink:href="#DejaVuSans-61" x="509.269531"/>
      <use xlink:href="#DejaVuSans-73" x="570.548828"/>
      <use xlink:href="#DejaVuSans-74" x="622.648438"/>
      <use xlink:href="#DejaVuSans-20" x="661.857422"/>
      <use xlink:href="#DejaVuSans-4c" x="693.644531"/>
      <use xlink:href="#DejaVuSans-6f" x="747.607422"/>
      <use xlink:href="#DejaVuSans-61" x="808.789062"/>
      <use xlink:href="#DejaVuSans-64" x="870.068359"/>
     </g>
    </g>
    <g id="line2d_38">
     <path d="M 471.703125 115.010937 
L 481.703125 115.010937 
L 491.703125 115.010937 
" style="fill: none; stroke: #9467bd; stroke-width: 3; stroke-linecap: square"/>
    </g>
    <g id="text_20">
     <!-- KAN+MLP Forecast Load -->
     <g transform="translate(499.703125 118.510937) scale(0.1 -0.1)">
      <defs>
       <path id="DejaVuSans-2b" d="M 2944 4013 
L 2944 2272 
L 4684 2272 
L 4684 1741 
L 2944 1741 
L 2944 0 
L 2419 0 
L 2419 1741 
L 678 1741 
L 678 2272 
L 2419 2272 
L 2419 4013 
L 2944 4013 
z
" transform="scale(0.015625)"/>
      </defs>
      <use xlink:href="#DejaVuSans-4b"/>
      <use xlink:href="#DejaVuSans-41" x="63.826172"/>
      <use xlink:href="#DejaVuSans-4e" x="132.234375"/>
      <use xlink:href="#DejaVuSans-2b" x="207.039062"/>
      <use xlink:href="#DejaVuSans-4d" x="290.828125"/>
      <use xlink:href="#DejaVuSans-4c" x="377.107422"/>
      <use xlink:href="#DejaVuSans-50" x="432.820312"/>
      <use xlink:href="#DejaVuSans-20" x="493.123047"/>
      <use xlink:href="#DejaVuSans-46" x="524.910156"/>
      <use xlink:href="#DejaVuSans-6f" x="578.804688"/>
      <use xlink:href="#DejaVuSans-72" x="639.986328"/>
      <use xlink:href="#DejaVuSans-65" x="678.849609"/>
      <use xlink:href="#DejaVuSans-63" x="740.373047"/>
      <use xlink:href="#DejaVuSans-61" x="795.353516"/>
      <use xlink:href="#DejaVuSans-73" x="856.632812"/>
      <use xlink:href="#DejaVuSans-74" x="908.732422"/>
      <use xlink:href="#DejaVuSans-20" x="947.941406"/>
      <use xlink:href="#DejaVuSans-4c" x="979.728516"/>
      <use xlink:href="#DejaVuSans-6f" x="1033.691406"/>
      <use xlink:href="#DejaVuSans-61" x="1094.873047"/>
      <use xlink:href="#DejaVuSans-64" x="1156.152344"/>
     </g>
    </g>
    <g id="line2d_39">
     <path d="M 471.703125 129.689062 
L 481.703125 129.689062 
L 491.703125 129.689062 
" style="fill: none; stroke: #8c564b; stroke-width: 3; stroke-linecap: square"/>
    </g>
    <g id="text_21">
     <!-- XGBoost Forecast Load -->
     <g transform="translate(499.703125 133.189062) scale(0.1 -0.1)">
      <defs>
       <path id="DejaVuSans-58" d="M 403 4666 
L 1081 4666 
L 2241 2931 
L 3406 4666 
L 4084 4666 
L 2584 2425 
L 4184 0 
L 3506 0 
L 2194 1984 
L 872 0 
L 191 0 
L 1856 2491 
L 403 4666 
z
" transform="scale(0.015625)"/>
       <path id="DejaVuSans-47" d="M 3809 666 
L 3809 1919 
L 2778 1919 
L 2778 2438 
L 4434 2438 
L 4434 434 
Q 4069 175 3628 42 
Q 3188 -91 2688 -91 
Q 1594 -91 976 548 
Q 359 1188 359 2328 
Q 359 3472 976 4111 
Q 1594 4750 2688 4750 
Q 3144 4750 3555 4637 
Q 3966 4525 4313 4306 
L 4313 3634 
Q 3963 3931 3569 4081 
Q 3175 4231 2741 4231 
Q 1884 4231 1454 3753 
Q 1025 3275 1025 2328 
Q 1025 1384 1454 906 
Q 1884 428 2741 428 
Q 3075 428 3337 486 
Q 3600 544 3809 666 
z
" transform="scale(0.015625)"/>
       <path id="DejaVuSans-42" d="M 1259 2228 
L 1259 519 
L 2272 519 
Q 2781 519 3026 730 
Q 3272 941 3272 1375 
Q 3272 1813 3026 2020 
Q 2781 2228 2272 2228 
L 1259 2228 
z
M 1259 4147 
L 1259 2741 
L 2194 2741 
Q 2656 2741 2882 2914 
Q 3109 3088 3109 3444 
Q 3109 3797 2882 3972 
Q 2656 4147 2194 4147 
L 1259 4147 
z
M 628 4666 
L 2241 4666 
Q 2963 4666 3353 4366 
Q 3744 4066 3744 3513 
Q 3744 3084 3544 2831 
Q 3344 2578 2956 2516 
Q 3422 2416 3680 2098 
Q 3938 1781 3938 1306 
Q 3938 681 3513 340 
Q 3088 0 2303 0 
L 628 0 
L 628 4666 
z
" transform="scale(0.015625)"/>
      </defs>
      <use xlink:href="#DejaVuSans-58"/>
      <use xlink:href="#DejaVuSans-47" x="68.505859"/>
      <use xlink:href="#DejaVuSans-42" x="145.996094"/>
      <use xlink:href="#DejaVuSans-6f" x="214.599609"/>
      <use xlink:href="#DejaVuSans-6f" x="275.78125"/>
      <use xlink:href="#DejaVuSans-73" x="336.962891"/>
      <use xlink:href="#DejaVuSans-74" x="389.0625"/>
      <use xlink:href="#DejaVuSans-20" x="428.271484"/>
      <use xlink:href="#DejaVuSans-46" x="460.058594"/>
      <use xlink:href="#DejaVuSans-6f" x="513.953125"/>
      <use xlink:href="#DejaVuSans-72" x="575.134766"/>
      <use xlink:href="#DejaVuSans-65" x="613.998047"/>
      <use xlink:href="#DejaVuSans-63" x="675.521484"/>
      <use xlink:href="#DejaVuSans-61" x="730.501953"/>
      <use xlink:href="#DejaVuSans-73" x="791.78125"/>
      <use xlink:href="#DejaVuSans-74" x="843.880859"/>
      <use xlink:href="#DejaVuSans-20" x="883.089844"/>
      <use xlink:href="#DejaVuSans-4c" x="914.876953"/>
      <use xlink:href="#DejaVuSans-6f" x="968.839844"/>
      <use xlink:href="#DejaVuSans-61" x="1030.021484"/>
      <use xlink:href="#DejaVuSans-64" x="1091.300781"/>
     </g>
    </g>
    <g id="line2d_40">
     <path d="M 471.703125 144.367187 
L 481.703125 144.367187 
L 491.703125 144.367187 
" style="fill: none; stroke: #e377c2; stroke-width: 3; stroke-linecap: square"/>
    </g>
    <g id="text_22">
     <!-- Revised KAN Forecast Load -->
     <g transform="translate(499.703125 147.867187) scale(0.1 -0.1)">
      <defs>
       <path id="DejaVuSans-52" d="M 2841 2188 
Q 3044 2119 3236 1894 
Q 3428 1669 3622 1275 
L 4263 0 
L 3584 0 
L 2988 1197 
Q 2756 1666 2539 1819 
Q 2322 1972 1947 1972 
L 1259 1972 
L 1259 0 
L 628 0 
L 628 4666 
L 2053 4666 
Q 2853 4666 3247 4331 
Q 3641 3997 3641 3322 
Q 3641 2881 3436 2590 
Q 3231 2300 2841 2188 
z
M 1259 4147 
L 1259 2491 
L 2053 2491 
Q 2509 2491 2742 2702 
Q 2975 2913 2975 3322 
Q 2975 3731 2742 3939 
Q 2509 4147 2053 4147 
L 1259 4147 
z
" transform="scale(0.015625)"/>
       <path id="DejaVuSans-76" d="M 191 3500 
L 800 3500 
L 1894 563 
L 2988 3500 
L 3597 3500 
L 2284 0 
L 1503 0 
L 191 3500 
z
" transform="scale(0.015625)"/>
       <path id="DejaVuSans-69" d="M 603 3500 
L 1178 3500 
L 1178 0 
L 603 0 
L 603 3500 
z
M 603 4863 
L 1178 4863 
L 1178 4134 
L 603 4134 
L 603 4863 
z
" transform="scale(0.015625)"/>
      </defs>
      <use xlink:href="#DejaVuSans-52"/>
      <use xlink:href="#DejaVuSans-65" x="64.982422"/>
      <use xlink:href="#DejaVuSans-76" x="126.505859"/>
      <use xlink:href="#DejaVuSans-69" x="185.685547"/>
      <use xlink:href="#DejaVuSans-73" x="213.46875"/>
      <use xlink:href="#DejaVuSans-65" x="265.568359"/>
      <use xlink:href="#DejaVuSans-64" x="327.091797"/>
      <use xlink:href="#DejaVuSans-20" x="390.568359"/>
      <use xlink:href="#DejaVuSans-4b" x="422.355469"/>
      <use xlink:href="#DejaVuSans-41" x="486.181641"/>
      <use xlink:href="#DejaVuSans-4e" x="554.589844"/>
      <use xlink:href="#DejaVuSans-20" x="629.394531"/>
      <use xlink:href="#DejaVuSans-46" x="661.181641"/>
      <use xlink:href="#DejaVuSans-6f" x="715.076172"/>
      <use xlink:href="#DejaVuSans-72" x="776.257812"/>
      <use xlink:href="#DejaVuSans-65" x="815.121094"/>
      <use xlink:href="#DejaVuSans-63" x="876.644531"/>
      <use xlink:href="#DejaVuSans-61" x="931.625"/>
      <use xlink:href="#DejaVuSans-73" x="992.904297"/>
      <use xlink:href="#DejaVuSans-74" x="1045.003906"/>
      <use xlink:href="#DejaVuSans-20" x="1084.212891"/>
      <use xlink:href="#DejaVuSans-4c" x="1116"/>
      <use xlink:href="#DejaVuSans-6f" x="1169.962891"/>
      <use xlink:href="#DejaVuSans-61" x="1231.144531"/>
      <use xlink:href="#DejaVuSans-64" x="1292.423828"/>
     </g>
    </g>
   </g>
  </g>
 </g>
 <defs>
  <clipPath id="ped47679cb0">
   <rect x="135" y="43.2" width="837" height="277.2"/>
  </clipPath>
 </defs>
</svg>
