<?xml version="1.0" encoding="utf-8" standalone="no"?>
<!DOCTYPE svg PUBLIC "-//W3C//DTD SVG 1.1//EN"
  "http://www.w3.org/Graphics/SVG/1.1/DTD/svg11.dtd">
<svg xmlns:xlink="http://www.w3.org/1999/xlink" width="1080pt" height="360pt" viewBox="0 0 1080 360" xmlns="http://www.w3.org/2000/svg" version="1.1">
 <metadata>
  <rdf:RDF xmlns:dc="http://purl.org/dc/elements/1.1/" xmlns:cc="http://creativecommons.org/ns#" xmlns:rdf="http://www.w3.org/1999/02/22-rdf-syntax-ns#">
   <cc:Work>
    <dc:type rdf:resource="http://purl.org/dc/dcmitype/StillImage"/>
    <dc:date>2024-09-03T20:06:47.133146</dc:date>
    <dc:format>image/svg+xml</dc:format>
    <dc:creator>
     <cc:Agent>
      <dc:title>Matplotlib v3.6.2, https://matplotlib.org/</dc:title>
     </cc:Agent>
    </dc:creator>
   </cc:Work>
  </rdf:RDF>
 </metadata>
 <defs>
  <style type="text/css">*{stroke-linejoin: round; stroke-linecap: butt}</style>
 </defs>
 <g id="figure_1">
  <g id="patch_1">
   <path d="M 0 360 
L 1080 360 
L 1080 0 
L 0 0 
z
" style="fill: #ffffff"/>
  </g>
  <g id="axes_1">
   <g id="patch_2">
    <path d="M 135 320.4 
L 972 320.4 
L 972 43.2 
L 135 43.2 
z
" style="fill: #ffffff"/>
   </g>
   <g id="matplotlib.axis_1">
    <g id="xtick_1">
     <g id="line2d_1">
      <path d="M 173.045455 320.4 
L 173.045455 43.2 
" clip-path="url(#p6c6ec37033)" style="fill: none; stroke: #b0b0b0; stroke-width: 0.8; stroke-linecap: square"/>
     </g>
     <g id="line2d_2">
      <defs>
       <path id="me9b0470f01" d="M 0 0 
L 0 3.5 
" style="stroke: #000000; stroke-width: 0.8"/>
      </defs>
      <g>
       <use xlink:href="#me9b0470f01" x="173.045455" y="320.4" style="stroke: #000000; stroke-width: 0.8"/>
      </g>
     </g>
     <g id="text_1">
      <!-- 0 -->
      <g transform="translate(168.27358 338.797656) scale(0.15 -0.15)">
       <defs>
        <path id="DejaVuSans-30" d="M 2034 4250 
Q 1547 4250 1301 3770 
Q 1056 3291 1056 2328 
Q 1056 1369 1301 889 
Q 1547 409 2034 409 
Q 2525 409 2770 889 
Q 3016 1369 3016 2328 
Q 3016 3291 2770 3770 
Q 2525 4250 2034 4250 
z
M 2034 4750 
Q 2819 4750 3233 4129 
Q 3647 3509 3647 2328 
Q 3647 1150 3233 529 
Q 2819 -91 2034 -91 
Q 1250 -91 836 529 
Q 422 1150 422 2328 
Q 422 3509 836 4129 
Q 1250 4750 2034 4750 
z
" transform="scale(0.015625)"/>
       </defs>
       <use xlink:href="#DejaVuSans-30"/>
      </g>
     </g>
    </g>
    <g id="xtick_2">
     <g id="line2d_3">
      <path d="M 332.231457 320.4 
L 332.231457 43.2 
" clip-path="url(#p6c6ec37033)" style="fill: none; stroke: #b0b0b0; stroke-width: 0.8; stroke-linecap: square"/>
     </g>
     <g id="line2d_4">
      <g>
       <use xlink:href="#me9b0470f01" x="332.231457" y="320.4" style="stroke: #000000; stroke-width: 0.8"/>
      </g>
     </g>
     <g id="text_2">
      <!-- 50 -->
      <g transform="translate(322.687707 338.797656) scale(0.15 -0.15)">
       <defs>
        <path id="DejaVuSans-35" d="M 691 4666 
L 3169 4666 
L 3169 4134 
L 1269 4134 
L 1269 2991 
Q 1406 3038 1543 3061 
Q 1681 3084 1819 3084 
Q 2600 3084 3056 2656 
Q 3513 2228 3513 1497 
Q 3513 744 3044 326 
Q 2575 -91 1722 -91 
Q 1428 -91 1123 -41 
Q 819 9 494 109 
L 494 744 
Q 775 591 1075 516 
Q 1375 441 1709 441 
Q 2250 441 2565 725 
Q 2881 1009 2881 1497 
Q 2881 1984 2565 2268 
Q 2250 2553 1709 2553 
Q 1456 2553 1204 2497 
Q 953 2441 691 2322 
L 691 4666 
z
" transform="scale(0.015625)"/>
       </defs>
       <use xlink:href="#DejaVuSans-35"/>
       <use xlink:href="#DejaVuSans-30" x="63.623047"/>
      </g>
     </g>
    </g>
    <g id="xtick_3">
     <g id="line2d_5">
      <path d="M 491.417459 320.4 
L 491.417459 43.2 
" clip-path="url(#p6c6ec37033)" style="fill: none; stroke: #b0b0b0; stroke-width: 0.8; stroke-linecap: square"/>
     </g>
     <g id="line2d_6">
      <g>
       <use xlink:href="#me9b0470f01" x="491.417459" y="320.4" style="stroke: #000000; stroke-width: 0.8"/>
      </g>
     </g>
     <g id="text_3">
      <!-- 100 -->
      <g transform="translate(477.101834 338.797656) scale(0.15 -0.15)">
       <defs>
        <path id="DejaVuSans-31" d="M 794 531 
L 1825 531 
L 1825 4091 
L 703 3866 
L 703 4441 
L 1819 4666 
L 2450 4666 
L 2450 531 
L 3481 531 
L 3481 0 
L 794 0 
L 794 531 
z
" transform="scale(0.015625)"/>
       </defs>
       <use xlink:href="#DejaVuSans-31"/>
       <use xlink:href="#DejaVuSans-30" x="63.623047"/>
       <use xlink:href="#DejaVuSans-30" x="127.246094"/>
      </g>
     </g>
    </g>
    <g id="xtick_4">
     <g id="line2d_7">
      <path d="M 650.603461 320.4 
L 650.603461 43.2 
" clip-path="url(#p6c6ec37033)" style="fill: none; stroke: #b0b0b0; stroke-width: 0.8; stroke-linecap: square"/>
     </g>
     <g id="line2d_8">
      <g>
       <use xlink:href="#me9b0470f01" x="650.603461" y="320.4" style="stroke: #000000; stroke-width: 0.8"/>
      </g>
     </g>
     <g id="text_4">
      <!-- 150 -->
      <g transform="translate(636.287836 338.797656) scale(0.15 -0.15)">
       <use xlink:href="#DejaVuSans-31"/>
       <use xlink:href="#DejaVuSans-35" x="63.623047"/>
       <use xlink:href="#DejaVuSans-30" x="127.246094"/>
      </g>
     </g>
    </g>
    <g id="xtick_5">
     <g id="line2d_9">
      <path d="M 809.789464 320.4 
L 809.789464 43.2 
" clip-path="url(#p6c6ec37033)" style="fill: none; stroke: #b0b0b0; stroke-width: 0.8; stroke-linecap: square"/>
     </g>
     <g id="line2d_10">
      <g>
       <use xlink:href="#me9b0470f01" x="809.789464" y="320.4" style="stroke: #000000; stroke-width: 0.8"/>
      </g>
     </g>
     <g id="text_5">
      <!-- 200 -->
      <g transform="translate(795.473839 338.797656) scale(0.15 -0.15)">
       <defs>
        <path id="DejaVuSans-32" d="M 1228 531 
L 3431 531 
L 3431 0 
L 469 0 
L 469 531 
Q 828 903 1448 1529 
Q 2069 2156 2228 2338 
Q 2531 2678 2651 2914 
Q 2772 3150 2772 3378 
Q 2772 3750 2511 3984 
Q 2250 4219 1831 4219 
Q 1534 4219 1204 4116 
Q 875 4013 500 3803 
L 500 4441 
Q 881 4594 1212 4672 
Q 1544 4750 1819 4750 
Q 2544 4750 2975 4387 
Q 3406 4025 3406 3419 
Q 3406 3131 3298 2873 
Q 3191 2616 2906 2266 
Q 2828 2175 2409 1742 
Q 1991 1309 1228 531 
z
" transform="scale(0.015625)"/>
       </defs>
       <use xlink:href="#DejaVuSans-32"/>
       <use xlink:href="#DejaVuSans-30" x="63.623047"/>
       <use xlink:href="#DejaVuSans-30" x="127.246094"/>
      </g>
     </g>
    </g>
    <g id="xtick_6">
     <g id="line2d_11">
      <path d="M 968.975466 320.4 
L 968.975466 43.2 
" clip-path="url(#p6c6ec37033)" style="fill: none; stroke: #b0b0b0; stroke-width: 0.8; stroke-linecap: square"/>
     </g>
     <g id="line2d_12">
      <g>
       <use xlink:href="#me9b0470f01" x="968.975466" y="320.4" style="stroke: #000000; stroke-width: 0.8"/>
      </g>
     </g>
     <g id="text_6">
      <!-- 250 -->
      <g transform="translate(954.659841 338.797656) scale(0.15 -0.15)">
       <use xlink:href="#DejaVuSans-32"/>
       <use xlink:href="#DejaVuSans-35" x="63.623047"/>
       <use xlink:href="#DejaVuSans-30" x="127.246094"/>
      </g>
     </g>
    </g>
    <g id="text_7">
     <!-- Hours -->
     <g transform="translate(531.527344 357.314844) scale(0.15 -0.15)">
      <defs>
       <path id="DejaVuSans-48" d="M 628 4666 
L 1259 4666 
L 1259 2753 
L 3553 2753 
L 3553 4666 
L 4184 4666 
L 4184 0 
L 3553 0 
L 3553 2222 
L 1259 2222 
L 1259 0 
L 628 0 
L 628 4666 
z
" transform="scale(0.015625)"/>
       <path id="DejaVuSans-6f" d="M 1959 3097 
Q 1497 3097 1228 2736 
Q 959 2375 959 1747 
Q 959 1119 1226 758 
Q 1494 397 1959 397 
Q 2419 397 2687 759 
Q 2956 1122 2956 1747 
Q 2956 2369 2687 2733 
Q 2419 3097 1959 3097 
z
M 1959 3584 
Q 2709 3584 3137 3096 
Q 3566 2609 3566 1747 
Q 3566 888 3137 398 
Q 2709 -91 1959 -91 
Q 1206 -91 779 398 
Q 353 888 353 1747 
Q 353 2609 779 3096 
Q 1206 3584 1959 3584 
z
" transform="scale(0.015625)"/>
       <path id="DejaVuSans-75" d="M 544 1381 
L 544 3500 
L 1119 3500 
L 1119 1403 
Q 1119 906 1312 657 
Q 1506 409 1894 409 
Q 2359 409 2629 706 
Q 2900 1003 2900 1516 
L 2900 3500 
L 3475 3500 
L 3475 0 
L 2900 0 
L 2900 538 
Q 2691 219 2414 64 
Q 2138 -91 1772 -91 
Q 1169 -91 856 284 
Q 544 659 544 1381 
z
M 1991 3584 
L 1991 3584 
z
" transform="scale(0.015625)"/>
       <path id="DejaVuSans-72" d="M 2631 2963 
Q 2534 3019 2420 3045 
Q 2306 3072 2169 3072 
Q 1681 3072 1420 2755 
Q 1159 2438 1159 1844 
L 1159 0 
L 581 0 
L 581 3500 
L 1159 3500 
L 1159 2956 
Q 1341 3275 1631 3429 
Q 1922 3584 2338 3584 
Q 2397 3584 2469 3576 
Q 2541 3569 2628 3553 
L 2631 2963 
z
" transform="scale(0.015625)"/>
       <path id="DejaVuSans-73" d="M 2834 3397 
L 2834 2853 
Q 2591 2978 2328 3040 
Q 2066 3103 1784 3103 
Q 1356 3103 1142 2972 
Q 928 2841 928 2578 
Q 928 2378 1081 2264 
Q 1234 2150 1697 2047 
L 1894 2003 
Q 2506 1872 2764 1633 
Q 3022 1394 3022 966 
Q 3022 478 2636 193 
Q 2250 -91 1575 -91 
Q 1294 -91 989 -36 
Q 684 19 347 128 
L 347 722 
Q 666 556 975 473 
Q 1284 391 1588 391 
Q 1994 391 2212 530 
Q 2431 669 2431 922 
Q 2431 1156 2273 1281 
Q 2116 1406 1581 1522 
L 1381 1569 
Q 847 1681 609 1914 
Q 372 2147 372 2553 
Q 372 3047 722 3315 
Q 1072 3584 1716 3584 
Q 2034 3584 2315 3537 
Q 2597 3491 2834 3397 
z
" transform="scale(0.015625)"/>
      </defs>
      <use xlink:href="#DejaVuSans-48"/>
      <use xlink:href="#DejaVuSans-6f" x="75.195312"/>
      <use xlink:href="#DejaVuSans-75" x="136.376953"/>
      <use xlink:href="#DejaVuSans-72" x="199.755859"/>
      <use xlink:href="#DejaVuSans-73" x="240.869141"/>
     </g>
    </g>
   </g>
   <g id="matplotlib.axis_2">
    <g id="ytick_1">
     <g id="line2d_13">
      <path d="M 135 304.442891 
L 972 304.442891 
" clip-path="url(#p6c6ec37033)" style="fill: none; stroke: #b0b0b0; stroke-width: 0.8; stroke-linecap: square"/>
     </g>
     <g id="line2d_14">
      <defs>
       <path id="m73a9179f6d" d="M 0 0 
L -3.5 0 
" style="stroke: #000000; stroke-width: 0.8"/>
      </defs>
      <g>
       <use xlink:href="#m73a9179f6d" x="135" y="304.442891" style="stroke: #000000; stroke-width: 0.8"/>
      </g>
     </g>
     <g id="text_8">
      <!-- 6000 -->
      <g transform="translate(89.825 310.14172) scale(0.15 -0.15)">
       <defs>
        <path id="DejaVuSans-36" d="M 2113 2584 
Q 1688 2584 1439 2293 
Q 1191 2003 1191 1497 
Q 1191 994 1439 701 
Q 1688 409 2113 409 
Q 2538 409 2786 701 
Q 3034 994 3034 1497 
Q 3034 2003 2786 2293 
Q 2538 2584 2113 2584 
z
M 3366 4563 
L 3366 3988 
Q 3128 4100 2886 4159 
Q 2644 4219 2406 4219 
Q 1781 4219 1451 3797 
Q 1122 3375 1075 2522 
Q 1259 2794 1537 2939 
Q 1816 3084 2150 3084 
Q 2853 3084 3261 2657 
Q 3669 2231 3669 1497 
Q 3669 778 3244 343 
Q 2819 -91 2113 -91 
Q 1303 -91 875 529 
Q 447 1150 447 2328 
Q 447 3434 972 4092 
Q 1497 4750 2381 4750 
Q 2619 4750 2861 4703 
Q 3103 4656 3366 4563 
z
" transform="scale(0.015625)"/>
       </defs>
       <use xlink:href="#DejaVuSans-36"/>
       <use xlink:href="#DejaVuSans-30" x="63.623047"/>
       <use xlink:href="#DejaVuSans-30" x="127.246094"/>
       <use xlink:href="#DejaVuSans-30" x="190.869141"/>
      </g>
     </g>
    </g>
    <g id="ytick_2">
     <g id="line2d_15">
      <path d="M 135 267.481779 
L 972 267.481779 
" clip-path="url(#p6c6ec37033)" style="fill: none; stroke: #b0b0b0; stroke-width: 0.8; stroke-linecap: square"/>
     </g>
     <g id="line2d_16">
      <g>
       <use xlink:href="#m73a9179f6d" x="135" y="267.481779" style="stroke: #000000; stroke-width: 0.8"/>
      </g>
     </g>
     <g id="text_9">
      <!-- 6500 -->
      <g transform="translate(89.825 273.180607) scale(0.15 -0.15)">
       <use xlink:href="#DejaVuSans-36"/>
       <use xlink:href="#DejaVuSans-35" x="63.623047"/>
       <use xlink:href="#DejaVuSans-30" x="127.246094"/>
       <use xlink:href="#DejaVuSans-30" x="190.869141"/>
      </g>
     </g>
    </g>
    <g id="ytick_3">
     <g id="line2d_17">
      <path d="M 135 230.520666 
L 972 230.520666 
" clip-path="url(#p6c6ec37033)" style="fill: none; stroke: #b0b0b0; stroke-width: 0.8; stroke-linecap: square"/>
     </g>
     <g id="line2d_18">
      <g>
       <use xlink:href="#m73a9179f6d" x="135" y="230.520666" style="stroke: #000000; stroke-width: 0.8"/>
      </g>
     </g>
     <g id="text_10">
      <!-- 7000 -->
      <g transform="translate(89.825 236.219494) scale(0.15 -0.15)">
       <defs>
        <path id="DejaVuSans-37" d="M 525 4666 
L 3525 4666 
L 3525 4397 
L 1831 0 
L 1172 0 
L 2766 4134 
L 525 4134 
L 525 4666 
z
" transform="scale(0.015625)"/>
       </defs>
       <use xlink:href="#DejaVuSans-37"/>
       <use xlink:href="#DejaVuSans-30" x="63.623047"/>
       <use xlink:href="#DejaVuSans-30" x="127.246094"/>
       <use xlink:href="#DejaVuSans-30" x="190.869141"/>
      </g>
     </g>
    </g>
    <g id="ytick_4">
     <g id="line2d_19">
      <path d="M 135 193.559553 
L 972 193.559553 
" clip-path="url(#p6c6ec37033)" style="fill: none; stroke: #b0b0b0; stroke-width: 0.8; stroke-linecap: square"/>
     </g>
     <g id="line2d_20">
      <g>
       <use xlink:href="#m73a9179f6d" x="135" y="193.559553" style="stroke: #000000; stroke-width: 0.8"/>
      </g>
     </g>
     <g id="text_11">
      <!-- 7500 -->
      <g transform="translate(89.825 199.258382) scale(0.15 -0.15)">
       <use xlink:href="#DejaVuSans-37"/>
       <use xlink:href="#DejaVuSans-35" x="63.623047"/>
       <use xlink:href="#DejaVuSans-30" x="127.246094"/>
       <use xlink:href="#DejaVuSans-30" x="190.869141"/>
      </g>
     </g>
    </g>
    <g id="ytick_5">
     <g id="line2d_21">
      <path d="M 135 156.598441 
L 972 156.598441 
" clip-path="url(#p6c6ec37033)" style="fill: none; stroke: #b0b0b0; stroke-width: 0.8; stroke-linecap: square"/>
     </g>
     <g id="line2d_22">
      <g>
       <use xlink:href="#m73a9179f6d" x="135" y="156.598441" style="stroke: #000000; stroke-width: 0.8"/>
      </g>
     </g>
     <g id="text_12">
      <!-- 8000 -->
      <g transform="translate(89.825 162.297269) scale(0.15 -0.15)">
       <defs>
        <path id="DejaVuSans-38" d="M 2034 2216 
Q 1584 2216 1326 1975 
Q 1069 1734 1069 1313 
Q 1069 891 1326 650 
Q 1584 409 2034 409 
Q 2484 409 2743 651 
Q 3003 894 3003 1313 
Q 3003 1734 2745 1975 
Q 2488 2216 2034 2216 
z
M 1403 2484 
Q 997 2584 770 2862 
Q 544 3141 544 3541 
Q 544 4100 942 4425 
Q 1341 4750 2034 4750 
Q 2731 4750 3128 4425 
Q 3525 4100 3525 3541 
Q 3525 3141 3298 2862 
Q 3072 2584 2669 2484 
Q 3125 2378 3379 2068 
Q 3634 1759 3634 1313 
Q 3634 634 3220 271 
Q 2806 -91 2034 -91 
Q 1263 -91 848 271 
Q 434 634 434 1313 
Q 434 1759 690 2068 
Q 947 2378 1403 2484 
z
M 1172 3481 
Q 1172 3119 1398 2916 
Q 1625 2713 2034 2713 
Q 2441 2713 2670 2916 
Q 2900 3119 2900 3481 
Q 2900 3844 2670 4047 
Q 2441 4250 2034 4250 
Q 1625 4250 1398 4047 
Q 1172 3844 1172 3481 
z
" transform="scale(0.015625)"/>
       </defs>
       <use xlink:href="#DejaVuSans-38"/>
       <use xlink:href="#DejaVuSans-30" x="63.623047"/>
       <use xlink:href="#DejaVuSans-30" x="127.246094"/>
       <use xlink:href="#DejaVuSans-30" x="190.869141"/>
      </g>
     </g>
    </g>
    <g id="ytick_6">
     <g id="line2d_23">
      <path d="M 135 119.637328 
L 972 119.637328 
" clip-path="url(#p6c6ec37033)" style="fill: none; stroke: #b0b0b0; stroke-width: 0.8; stroke-linecap: square"/>
     </g>
     <g id="line2d_24">
      <g>
       <use xlink:href="#m73a9179f6d" x="135" y="119.637328" style="stroke: #000000; stroke-width: 0.8"/>
      </g>
     </g>
     <g id="text_13">
      <!-- 8500 -->
      <g transform="translate(89.825 125.336156) scale(0.15 -0.15)">
       <use xlink:href="#DejaVuSans-38"/>
       <use xlink:href="#DejaVuSans-35" x="63.623047"/>
       <use xlink:href="#DejaVuSans-30" x="127.246094"/>
       <use xlink:href="#DejaVuSans-30" x="190.869141"/>
      </g>
     </g>
    </g>
    <g id="ytick_7">
     <g id="line2d_25">
      <path d="M 135 82.676215 
L 972 82.676215 
" clip-path="url(#p6c6ec37033)" style="fill: none; stroke: #b0b0b0; stroke-width: 0.8; stroke-linecap: square"/>
     </g>
     <g id="line2d_26">
      <g>
       <use xlink:href="#m73a9179f6d" x="135" y="82.676215" style="stroke: #000000; stroke-width: 0.8"/>
      </g>
     </g>
     <g id="text_14">
      <!-- 9000 -->
      <g transform="translate(89.825 88.375043) scale(0.15 -0.15)">
       <defs>
        <path id="DejaVuSans-39" d="M 703 97 
L 703 672 
Q 941 559 1184 500 
Q 1428 441 1663 441 
Q 2288 441 2617 861 
Q 2947 1281 2994 2138 
Q 2813 1869 2534 1725 
Q 2256 1581 1919 1581 
Q 1219 1581 811 2004 
Q 403 2428 403 3163 
Q 403 3881 828 4315 
Q 1253 4750 1959 4750 
Q 2769 4750 3195 4129 
Q 3622 3509 3622 2328 
Q 3622 1225 3098 567 
Q 2575 -91 1691 -91 
Q 1453 -91 1209 -44 
Q 966 3 703 97 
z
M 1959 2075 
Q 2384 2075 2632 2365 
Q 2881 2656 2881 3163 
Q 2881 3666 2632 3958 
Q 2384 4250 1959 4250 
Q 1534 4250 1286 3958 
Q 1038 3666 1038 3163 
Q 1038 2656 1286 2365 
Q 1534 2075 1959 2075 
z
" transform="scale(0.015625)"/>
       </defs>
       <use xlink:href="#DejaVuSans-39"/>
       <use xlink:href="#DejaVuSans-30" x="63.623047"/>
       <use xlink:href="#DejaVuSans-30" x="127.246094"/>
       <use xlink:href="#DejaVuSans-30" x="190.869141"/>
      </g>
     </g>
    </g>
    <g id="ytick_8">
     <g id="line2d_27">
      <path d="M 135 45.715103 
L 972 45.715103 
" clip-path="url(#p6c6ec37033)" style="fill: none; stroke: #b0b0b0; stroke-width: 0.8; stroke-linecap: square"/>
     </g>
     <g id="line2d_28">
      <g>
       <use xlink:href="#m73a9179f6d" x="135" y="45.715103" style="stroke: #000000; stroke-width: 0.8"/>
      </g>
     </g>
     <g id="text_15">
      <!-- 9500 -->
      <g transform="translate(89.825 51.413931) scale(0.15 -0.15)">
       <use xlink:href="#DejaVuSans-39"/>
       <use xlink:href="#DejaVuSans-35" x="63.623047"/>
       <use xlink:href="#DejaVuSans-30" x="127.246094"/>
       <use xlink:href="#DejaVuSans-30" x="190.869141"/>
      </g>
     </g>
    </g>
    <g id="text_16">
     <!-- MW -->
     <g transform="translate(82.705469 195.686719) rotate(-90) scale(0.15 -0.15)">
      <defs>
       <path id="DejaVuSans-4d" d="M 628 4666 
L 1569 4666 
L 2759 1491 
L 3956 4666 
L 4897 4666 
L 4897 0 
L 4281 0 
L 4281 4097 
L 3078 897 
L 2444 897 
L 1241 4097 
L 1241 0 
L 628 0 
L 628 4666 
z
" transform="scale(0.015625)"/>
       <path id="DejaVuSans-57" d="M 213 4666 
L 850 4666 
L 1831 722 
L 2809 4666 
L 3519 4666 
L 4500 722 
L 5478 4666 
L 6119 4666 
L 4947 0 
L 4153 0 
L 3169 4050 
L 2175 0 
L 1381 0 
L 213 4666 
z
" transform="scale(0.015625)"/>
      </defs>
      <use xlink:href="#DejaVuSans-4d"/>
      <use xlink:href="#DejaVuSans-57" x="86.279297"/>
     </g>
    </g>
   </g>
   <g id="line2d_29">
    <path d="M 173.045455 214.775232 
L 179.412895 220.910777 
L 182.596615 215.36661 
L 185.780335 226.972399 
L 188.964055 203.243365 
L 192.147775 184.541041 
L 195.331495 120.967925 
L 198.515215 99.752248 
L 201.698935 108.253305 
L 204.882655 112.097258 
L 208.066375 120.746159 
L 211.250095 150.241126 
L 214.433815 152.310954 
L 217.617535 157.929039 
L 220.801255 161.255543 
L 223.984975 140.113782 
L 227.168695 111.727647 
L 230.352415 112.688642 
L 233.536135 133.091175 
L 239.903576 198.734109 
L 243.087296 215.144843 
L 246.271016 240.574089 
L 249.454736 251.662423 
L 252.638456 255.358533 
L 255.822176 263.416057 
L 259.005896 264.968423 
L 262.189616 272.212802 
L 265.373336 238.430344 
L 268.557056 193.411709 
L 271.740776 131.53881 
L 274.924496 108.475078 
L 278.108216 117.05005 
L 281.291936 119.637326 
L 284.475656 130.282126 
L 287.659376 154.528619 
L 290.843096 160.220633 
L 294.026816 172.048187 
L 297.210536 176.853132 
L 300.394256 163.768897 
L 303.577976 129.616826 
L 306.761696 134.421774 
L 309.945417 155.711374 
L 313.129137 187.276165 
L 316.312857 214.70131 
L 319.496577 225.567877 
L 322.680297 240.9437 
L 325.864017 253.140867 
L 329.047737 239.908788 
L 332.231457 236.9519 
L 335.415177 238.726033 
L 338.598897 258.832879 
L 341.782617 260.828778 
L 344.966337 257.724046 
L 348.150057 273.543402 
L 354.517497 231.777344 
L 357.701217 224.976499 
L 360.884937 227.415933 
L 364.068657 222.463143 
L 367.252377 208.565764 
L 370.436097 189.789519 
L 373.619817 189.715597 
L 376.803537 202.651987 
L 379.987258 186.684788 
L 383.170978 187.941465 
L 389.538418 223.202366 
L 392.722138 237.986811 
L 395.905858 237.469355 
L 399.089578 224.68081 
L 402.273298 236.9519 
L 405.457018 239.317411 
L 408.640738 251.440657 
L 411.824458 254.915 
L 415.008178 261.715844 
L 418.191898 266.520788 
L 421.375618 274.134779 
L 424.559338 271.473577 
L 427.743058 257.650124 
L 430.926778 235.547378 
L 434.110498 225.567877 
L 437.294218 247.744545 
L 440.477938 257.058745 
L 443.661658 247.227089 
L 446.845378 252.9191 
L 450.029099 252.549489 
L 453.212819 227.785544 
L 456.396539 199.251566 
L 459.580259 189.124219 
L 462.763979 198.586264 
L 465.947699 212.779332 
L 469.131419 224.606888 
L 472.315139 231.185966 
L 475.498859 227.933388 
L 478.682579 240.574089 
L 481.866299 237.247589 
L 485.050019 235.547378 
L 488.233739 240.2784 
L 491.417459 237.691122 
L 494.601179 207.678698 
L 497.784899 192.820331 
L 500.968619 130.42997 
L 504.152339 99.752248 
L 507.336059 98.347734 
L 510.519779 94.429852 
L 513.703499 97.682428 
L 516.887219 122.224609 
L 520.07094 121.854991 
L 523.25466 131.908421 
L 526.43838 133.017253 
L 529.6221 117.123972 
L 532.80582 96.499673 
L 535.98954 97.682428 
L 539.17326 125.255418 
L 542.35698 158.076883 
L 545.5407 187.645776 
L 548.72442 203.317287 
L 551.90814 230.66851 
L 555.09186 246.192177 
L 558.27558 226.528866 
L 561.4593 214.109932 
L 564.64302 209.822443 
L 567.82674 211.005198 
L 571.01046 218.02781 
L 574.19418 183.727897 
L 577.3779 121.485381 
L 580.56162 96.499673 
L 583.74534 101.452465 
L 586.92906 104.113663 
L 590.112781 109.288215 
L 593.296501 134.27393 
L 596.480221 138.487494 
L 599.663941 142.035765 
L 602.847661 138.191805 
L 606.031381 119.637326 
L 609.215101 98.717338 
L 612.398821 104.852885 
L 615.582541 128.655838 
L 618.766261 161.403388 
L 621.949981 189.937363 
L 625.133701 204.278277 
L 628.317421 230.151055 
L 631.501141 214.996998 
L 634.684861 190.454818 
L 637.868581 199.695099 
L 641.052301 201.09962 
L 644.236021 211.005198 
L 647.419741 192.968176 
L 650.603461 178.405498 
L 653.787181 114.462774 
L 656.970901 89.107456 
L 660.154622 90.438055 
L 663.338342 90.955503 
L 666.522062 97.31281 
L 669.705782 115.645529 
L 672.889502 114.980229 
L 676.073222 123.776975 
L 679.256942 124.516197 
L 682.440662 113.353942 
L 685.624382 96.869277 
L 688.808102 98.791267 
L 691.991822 121.411458 
L 695.175542 155.563529 
L 698.359262 184.614963 
L 701.542982 200.064709 
L 704.726702 222.093533 
L 707.910422 224.754732 
L 711.094142 209.526754 
L 714.277862 209.822443 
L 717.461582 224.68081 
L 720.645302 240.426244 
L 723.829022 230.742433 
L 727.012742 197.107821 
L 730.196463 150.167204 
L 733.380183 127.916616 
L 736.563903 123.037753 
L 739.747623 123.62913 
L 742.931343 132.351954 
L 746.115063 147.284239 
L 749.298783 153.789397 
L 752.482503 156.302751 
L 755.666223 143.883819 
L 758.849943 142.55322 
L 762.033663 114.684541 
L 765.217383 118.011038 
L 768.401103 136.63944 
L 771.584823 167.982461 
L 774.768543 195.998988 
L 781.135983 220.02371 
L 784.319703 222.167455 
L 787.503423 235.029922 
L 790.687143 227.563777 
L 793.870863 215.514455 
L 797.054583 207.678698 
L 800.238304 212.187954 
L 803.422024 182.766909 
L 806.605744 128.507994 
L 809.789464 103.448357 
L 812.973184 105.000729 
L 816.156904 111.13627 
L 819.340624 118.676338 
L 822.524344 140.631237 
L 825.708064 148.762683 
L 828.891784 159.777093 
L 832.075504 159.777093 
L 835.259224 144.25343 
L 838.442944 118.084961 
L 841.626664 124.737963 
L 844.810384 147.358161 
L 847.994104 181.43631 
L 851.177824 208.787533 
L 854.361544 219.210566 
L 857.545264 234.660311 
L 860.728984 248.114155 
L 863.912704 237.247589 
L 867.096424 231.629499 
L 873.463865 254.397545 
L 876.647585 249.962212 
L 879.831305 256.393446 
L 883.015025 264.155279 
L 886.198745 243.530977 
L 889.382465 229.855366 
L 892.566185 154.528619 
L 895.749905 236.434444 
L 898.933625 232.442644 
L 902.117345 230.224977 
L 905.301065 238.060733 
L 908.484785 238.208578 
L 911.668505 223.128443 
L 914.852225 184.245353 
L 918.035945 183.432209 
L 921.219665 204.278277 
L 924.403385 226.528866 
L 927.587105 228.968299 
L 930.770825 233.329711 
L 933.954545 248.040233 
L 933.954545 248.040233 
" clip-path="url(#p6c6ec37033)" style="fill: none; stroke: #1f77b4; stroke-width: 3; stroke-linecap: square"/>
   </g>
   <g id="line2d_30">
    <path d="M 173.045455 269.800583 
L 176.229175 265.172756 
L 179.412895 259.329435 
L 182.596615 252.304225 
L 185.780335 243.917626 
L 188.964055 232.647302 
L 192.147775 214.026589 
L 195.331495 196.766219 
L 198.515215 173.288801 
L 201.698935 157.696049 
L 204.882655 139.771028 
L 208.066375 128.800291 
L 211.250095 137.265252 
L 214.433815 144.086635 
L 217.617535 157.117521 
L 220.801255 177.221262 
L 223.984975 169.810523 
L 227.168695 179.610018 
L 230.352415 178.115547 
L 233.536135 188.162581 
L 236.719855 195.888428 
L 239.903576 208.451489 
L 243.087296 210.389854 
L 246.271016 217.800701 
L 249.454736 269.539401 
L 255.822176 264.123515 
L 259.005896 261.01196 
L 262.189616 254.186895 
L 265.373336 246.319051 
L 268.557056 242.020625 
L 271.740776 224.710949 
L 274.924496 206.074427 
L 278.108216 194.663731 
L 281.291936 173.670613 
L 284.475656 164.935915 
L 287.659376 168.182284 
L 290.843096 178.835459 
L 294.026816 188.557495 
L 297.210536 195.156642 
L 300.394256 193.810485 
L 303.577976 196.316405 
L 306.761696 204.438248 
L 309.945417 217.691695 
L 316.312857 238.497156 
L 319.496577 239.462873 
L 322.680297 240.173111 
L 325.864017 279.788097 
L 329.047737 282.018144 
L 332.231457 283.730736 
L 335.415177 284.89317 
L 338.598897 283.237247 
L 341.782617 280.001237 
L 344.966337 278.969141 
L 348.150057 268.209992 
L 351.333777 244.846995 
L 354.517497 232.417955 
L 357.701217 208.136958 
L 360.884937 189.034452 
L 364.068657 182.027542 
L 367.252377 183.017768 
L 370.436097 187.315941 
L 373.619817 195.74358 
L 376.803537 196.182493 
L 379.987258 198.475093 
L 383.170978 203.475094 
L 386.354698 208.875531 
L 389.538418 217.942482 
L 392.722138 226.041838 
L 395.905858 233.529423 
L 399.089578 240.020322 
L 402.273298 278.58271 
L 405.457018 281.280979 
L 408.640738 284.85527 
L 411.824458 283.851076 
L 415.008178 289.489847 
L 418.191898 289.797231 
L 421.375618 286.056218 
L 424.559338 280.273211 
L 430.926778 254.160221 
L 434.110498 241.559839 
L 437.294218 233.927369 
L 440.477938 232.969809 
L 443.661658 233.378908 
L 446.845378 235.434725 
L 450.029099 227.483971 
L 453.212819 222.630299 
L 456.396539 219.771371 
L 459.580259 219.519862 
L 462.763979 221.586111 
L 465.947699 226.5694 
L 469.131419 228.337181 
L 472.315139 234.665328 
L 475.498859 241.977059 
L 478.682579 285.097719 
L 485.050019 262.45532 
L 488.233739 247.849544 
L 491.417459 230.956475 
L 494.601179 207.040289 
L 497.784899 184.903362 
L 500.968619 163.881801 
L 504.152339 146.83818 
L 507.336059 136.868498 
L 510.519779 131.532598 
L 513.703499 131.427851 
L 516.887219 132.887093 
L 520.07094 136.000272 
L 523.25466 141.047558 
L 526.43838 150.171538 
L 529.6221 147.73261 
L 532.80582 152.174766 
L 535.98954 157.830285 
L 539.17326 165.957471 
L 542.35698 176.702615 
L 545.5407 185.097624 
L 548.72442 192.846067 
L 551.90814 203.00384 
L 555.09186 286.790928 
L 558.27558 279.236748 
L 564.64302 261.34331 
L 567.82674 238.000274 
L 571.01046 218.32404 
L 574.19418 202.034116 
L 577.3779 171.261679 
L 580.56162 155.738337 
L 583.74534 143.147086 
L 586.92906 132.767186 
L 590.112781 131.110144 
L 593.296501 133.390327 
L 596.480221 136.210778 
L 599.663941 141.641895 
L 602.847661 139.678409 
L 606.031381 140.40803 
L 609.215101 143.000325 
L 612.398821 152.518244 
L 615.582541 161.356498 
L 618.766261 173.162975 
L 621.949981 182.923307 
L 625.133701 195.742172 
L 628.317421 204.257413 
L 631.501141 270.741179 
L 634.684861 265.652131 
L 637.868581 257.708596 
L 641.052301 242.620016 
L 644.236021 229.51528 
L 647.419741 212.486242 
L 650.603461 187.977451 
L 653.787181 165.023409 
L 656.970901 145.031995 
L 660.154622 130.669498 
L 663.338342 121.083576 
L 666.522062 115.677291 
L 669.705782 115.672743 
L 672.889502 122.769421 
L 676.073222 128.986324 
L 679.256942 128.994337 
L 682.440662 135.155365 
L 685.624382 143.389535 
L 688.808102 153.708941 
L 691.991822 162.733047 
L 695.175542 172.970048 
L 698.359262 182.01758 
L 701.542982 193.722883 
L 704.726702 203.484045 
L 707.910422 270.535258 
L 711.094142 268.895325 
L 714.277862 265.587305 
L 717.461582 256.31021 
L 720.645302 244.093263 
L 723.829022 236.395895 
L 727.012742 219.362705 
L 730.196463 204.333826 
L 733.380183 177.464469 
L 736.563903 158.902158 
L 739.747623 143.552251 
L 742.931343 132.765525 
L 746.115063 133.884826 
L 749.298783 139.947098 
L 752.482503 150.53736 
L 755.666223 163.395532 
L 758.849943 165.835615 
L 762.033663 171.811187 
L 765.217383 184.063724 
L 768.401103 193.327897 
L 771.584823 196.846385 
L 774.768543 203.561649 
L 777.952263 217.362979 
L 781.135983 222.520859 
L 784.319703 272.462686 
L 787.503423 273.226994 
L 790.687143 269.79322 
L 793.870863 264.802567 
L 797.054583 259.261071 
L 803.422024 241.888085 
L 806.605744 227.957319 
L 809.789464 210.39303 
L 812.973184 195.864606 
L 816.156904 170.248425 
L 819.340624 155.311371 
L 822.524344 152.357803 
L 825.708064 160.933503 
L 828.891784 174.003371 
L 832.075504 183.909635 
L 835.259224 185.694272 
L 838.442944 190.322893 
L 841.626664 200.146789 
L 844.810384 206.922331 
L 847.994104 215.863347 
L 851.177824 219.755345 
L 854.361544 224.859299 
L 857.545264 231.934465 
L 860.728984 275.579294 
L 863.912704 276.0717 
L 867.096424 275.003582 
L 870.280145 274.602279 
L 873.463865 269.691613 
L 876.647585 266.426618 
L 879.831305 259.799534 
L 883.015025 251.406691 
L 886.198745 239.386641 
L 889.382465 229.144947 
L 892.566185 203.339052 
L 895.749905 179.380816 
L 898.933625 181.127517 
L 902.117345 193.578214 
L 908.484785 230.583038 
L 911.668505 221.68992 
L 914.852225 218.539707 
L 918.035945 218.239795 
L 921.219665 220.084999 
L 924.403385 225.751239 
L 927.587105 226.6683 
L 930.770825 230.279083 
L 933.954545 231.883824 
L 933.954545 231.883824 
" clip-path="url(#p6c6ec37033)" style="fill: none; stroke: #ff7f0e; stroke-width: 3; stroke-linecap: square"/>
   </g>
   <g id="line2d_31">
    <path d="M 173.045455 278.938749 
L 176.229175 277.786999 
L 179.412895 276.031635 
L 182.596615 273.068393 
L 185.780335 267.207602 
L 188.964055 258.536143 
L 192.147775 243.91315 
L 195.331495 227.700901 
L 198.515215 201.69237 
L 201.698935 186.107774 
L 204.882655 165.720833 
L 208.066375 152.60119 
L 211.250095 154.37453 
L 214.433815 158.605963 
L 217.617535 171.716041 
L 220.801255 194.125917 
L 223.984975 190.25222 
L 227.168695 201.161415 
L 230.352415 199.054415 
L 233.536135 209.153714 
L 236.719855 215.088896 
L 239.903576 231.486961 
L 243.087296 230.813792 
L 246.271016 235.775497 
L 249.454736 280.227624 
L 252.638456 279.570734 
L 255.822176 278.797293 
L 259.005896 277.075461 
L 262.189616 272.362703 
L 265.373336 266.063865 
L 268.557056 259.433533 
L 271.740776 243.579778 
L 274.924496 219.066403 
L 278.108216 208.068631 
L 281.291936 182.664038 
L 284.475656 171.379168 
L 287.659376 173.95587 
L 290.843096 179.866075 
L 294.026816 190.179705 
L 297.210536 204.236911 
L 300.394256 207.34049 
L 303.577976 215.85934 
L 306.761696 222.042278 
L 309.945417 236.898552 
L 313.129137 248.237961 
L 316.312857 256.33887 
L 319.496577 256.876647 
L 322.680297 258.800574 
L 325.864017 286.372048 
L 329.047737 287.923007 
L 332.231457 287.499975 
L 335.415177 288.609314 
L 338.598897 286.37739 
L 341.782617 283.256053 
L 344.966337 279.926232 
L 348.150057 264.758351 
L 351.333777 244.297524 
L 354.517497 228.860701 
L 357.701217 207.562473 
L 360.884937 188.021523 
L 364.068657 181.699873 
L 367.252377 183.962875 
L 370.436097 191.165275 
L 373.619817 201.401518 
L 376.803537 202.486384 
L 379.987258 204.297045 
L 383.170978 212.010331 
L 386.354698 217.585071 
L 389.538418 229.872547 
L 392.722138 241.432352 
L 395.905858 250.015054 
L 399.089578 258.132819 
L 402.273298 283.464645 
L 405.457018 284.452308 
L 408.640738 285.276605 
L 411.824458 283.619997 
L 415.008178 284.218702 
L 418.191898 281.603811 
L 421.375618 274.609318 
L 424.559338 262.92809 
L 427.743058 243.315816 
L 430.926778 226.304139 
L 434.110498 213.814676 
L 437.294218 207.224264 
L 440.477938 215.28666 
L 443.661658 219.237456 
L 446.845378 226.297606 
L 450.029099 226.934067 
L 453.212819 232.735842 
L 456.396539 235.441295 
L 459.580259 239.148487 
L 462.763979 238.997935 
L 465.947699 243.431861 
L 469.131419 246.245057 
L 475.498859 258.851576 
L 478.682579 273.539431 
L 481.866299 269.242557 
L 485.050019 262.04438 
L 488.233739 248.37292 
L 491.417459 230.452591 
L 494.601179 206.507601 
L 497.784899 186.957519 
L 500.968619 168.135866 
L 504.152339 154.005279 
L 507.336059 146.866984 
L 510.519779 141.154182 
L 513.703499 138.223787 
L 516.887219 138.497097 
L 520.07094 139.301145 
L 523.25466 140.728696 
L 526.43838 137.736145 
L 529.6221 144.701402 
L 532.80582 145.226979 
L 535.98954 147.471428 
L 539.17326 151.969386 
L 542.35698 157.534813 
L 545.5407 161.916329 
L 548.72442 167.021691 
L 551.90814 173.505912 
L 555.09186 275.904798 
L 558.27558 272.830384 
L 561.4593 268.410643 
L 564.64302 260.501687 
L 567.82674 244.932071 
L 574.19418 209.532421 
L 577.3779 182.178707 
L 580.56162 168.003723 
L 583.74534 160.88759 
L 586.92906 153.143046 
L 590.112781 145.007558 
L 593.296501 144.627733 
L 596.480221 144.030796 
L 602.847661 149.126412 
L 606.031381 149.683139 
L 609.215101 149.097753 
L 612.398821 156.454386 
L 615.582541 161.524592 
L 618.766261 163.840689 
L 621.949981 166.976139 
L 625.133701 177.779107 
L 628.317421 183.163482 
L 631.501141 277.141984 
L 634.684861 275.180916 
L 637.868581 271.771939 
L 641.052301 263.902867 
L 644.236021 253.089865 
L 647.419741 237.698702 
L 650.603461 214.053985 
L 653.787181 193.360671 
L 656.970901 176.387832 
L 660.154622 162.369608 
L 663.338342 152.728172 
L 666.522062 145.262388 
L 669.705782 141.98227 
L 672.889502 142.332101 
L 676.073222 146.013377 
L 679.256942 147.457856 
L 682.440662 152.534198 
L 685.624382 155.3575 
L 688.808102 160.53285 
L 691.991822 164.827558 
L 695.175542 171.89684 
L 698.359262 177.708759 
L 701.542982 186.096838 
L 704.726702 199.400528 
L 707.910422 278.705432 
L 711.094142 277.511523 
L 714.277862 275.99536 
L 717.461582 272.027274 
L 720.645302 265.429462 
L 723.829022 258.428255 
L 727.012742 242.739454 
L 730.196463 228.142413 
L 733.380183 203.729815 
L 736.563903 185.157 
L 739.747623 170.331985 
L 742.931343 159.701478 
L 746.115063 157.406532 
L 749.298783 162.346291 
L 752.482503 172.626569 
L 755.666223 189.955664 
L 758.849943 191.926009 
L 762.033663 194.737256 
L 768.401103 215.903701 
L 771.584823 215.280091 
L 774.768543 218.308844 
L 777.952263 235.421009 
L 781.135983 238.741446 
L 784.319703 281.016224 
L 787.503423 281.659975 
L 790.687143 280.822286 
L 793.870863 278.656957 
L 797.054583 277.157974 
L 800.238304 271.616803 
L 803.422024 264.784845 
L 806.605744 253.033665 
L 809.789464 234.399056 
L 812.973184 217.803878 
L 816.156904 195.95672 
L 819.340624 176.71218 
L 822.524344 173.019245 
L 825.708064 179.191534 
L 828.891784 188.019971 
L 832.075504 201.059519 
L 835.259224 206.33745 
L 838.442944 211.089444 
L 841.626664 219.620314 
L 844.810384 225.07031 
L 847.994104 236.85827 
L 851.177824 239.690343 
L 854.361544 247.010015 
L 857.545264 253.698207 
L 860.728984 282.247455 
L 863.912704 282.805192 
L 870.280145 282.913115 
L 873.463865 280.122985 
L 876.647585 278.165562 
L 879.831305 273.085286 
L 883.015025 264.375385 
L 886.198745 250.707425 
L 889.382465 236.45112 
L 892.566185 207.636287 
L 895.749905 185.013595 
L 898.933625 185.498927 
L 902.117345 198.734181 
L 908.484785 243.774834 
L 911.668505 240.4566 
L 914.852225 238.177933 
L 918.035945 243.271384 
L 921.219665 245.963192 
L 924.403385 252.966637 
L 927.587105 252.318049 
L 930.770825 258.882617 
L 933.954545 259.614981 
L 933.954545 259.614981 
" clip-path="url(#p6c6ec37033)" style="fill: none; stroke: #2ca02c; stroke-width: 3; stroke-linecap: square"/>
   </g>
   <g id="line2d_32">
    <path d="M 173.045455 264.977772 
L 176.229175 270.986479 
L 179.412895 271.215826 
L 182.596615 287.250488 
L 185.780335 284.091215 
L 188.964055 263.291493 
L 192.147775 228.032902 
L 195.331495 176.268214 
L 198.515215 122.160935 
L 201.698935 100.724139 
L 204.882655 158.376833 
L 208.066375 157.152424 
L 214.433815 177.045299 
L 217.617535 176.234068 
L 220.801255 176.597254 
L 223.984975 158.912445 
L 227.168695 156.099682 
L 230.352415 151.76314 
L 233.536135 157.295215 
L 236.719855 175.11058 
L 239.903576 192.069306 
L 243.087296 219.550759 
L 246.271016 219.628291 
L 252.638456 253.57682 
L 255.822176 253.155485 
L 259.005896 261.759664 
L 262.189616 227.343526 
L 265.373336 214.119678 
L 268.557056 190.647639 
L 271.740776 147.124557 
L 274.924496 109.253349 
L 278.108216 128.502003 
L 281.291936 171.081566 
L 284.475656 169.675095 
L 287.659376 179.134974 
L 290.843096 180.033988 
L 294.026816 180.549061 
L 297.210536 189.214674 
L 300.394256 188.848347 
L 303.577976 199.975772 
L 306.761696 197.622569 
L 309.945417 193.493464 
L 313.129137 207.233252 
L 316.312857 237.25109 
L 319.496577 247.231384 
L 322.680297 268.060162 
L 325.864017 264.612889 
L 329.047737 269.208736 
L 332.231457 271.993381 
L 335.415177 279.8792 
L 338.598897 292.455038 
L 341.782617 290.786735 
L 344.966337 277.489144 
L 348.150057 254.426962 
L 351.333777 241.271549 
L 354.517497 238.736428 
L 357.701217 214.805624 
L 360.884937 209.17945 
L 364.068657 205.020494 
L 367.252377 206.978459 
L 370.436097 211.863931 
L 373.619817 216.525615 
L 376.803537 215.085973 
L 379.987258 215.084132 
L 383.170978 222.149732 
L 386.354698 231.963304 
L 389.538418 240.387875 
L 392.722138 250.55312 
L 395.905858 269.566617 
L 399.089578 307.8 
L 402.273298 274.065477 
L 405.457018 281.969236 
L 408.640738 291.685929 
L 411.824458 292.472761 
L 415.008178 304.693967 
L 418.191898 302.633241 
L 421.375618 282.562057 
L 424.559338 267.963464 
L 427.743058 270.688119 
L 430.926778 247.787317 
L 434.110498 227.291261 
L 437.294218 225.327377 
L 440.477938 233.224819 
L 443.661658 243.198292 
L 446.845378 251.731255 
L 450.029099 252.970788 
L 453.212819 240.878188 
L 456.396539 230.412851 
L 459.580259 248.728706 
L 462.763979 240.928071 
L 465.947699 264.209565 
L 469.131419 274.447685 
L 472.315139 270.912412 
L 475.498859 270.771209 
L 478.682579 273.333871 
L 481.866299 270.110963 
L 485.050019 272.994651 
L 488.233739 277.224605 
L 491.417459 266.576917 
L 494.601179 221.68927 
L 497.784899 178.787597 
L 500.968619 142.390502 
L 504.152339 101.579226 
L 507.336059 83.444963 
L 510.519779 137.426091 
L 513.703499 152.794731 
L 516.887219 164.272347 
L 520.07094 178.589942 
L 523.25466 176.236631 
L 526.43838 125.267473 
L 529.6221 149.82593 
L 532.80582 138.038115 
L 535.98954 139.493242 
L 539.17326 153.388743 
L 542.35698 182.478944 
L 545.5407 208.831604 
L 548.72442 229.484889 
L 551.90814 241.882599 
L 555.09186 241.892525 
L 558.27558 236.997993 
L 561.4593 241.64643 
L 564.64302 235.576578 
L 567.82674 238.20717 
L 571.01046 210.380433 
L 574.19418 168.642782 
L 577.3779 120.716708 
L 580.56162 91.464803 
L 583.74534 96.17554 
L 586.92906 129.012384 
L 590.112781 145.149411 
L 593.296501 157.023566 
L 596.480221 162.702186 
L 599.663941 159.806622 
L 602.847661 148.968895 
L 606.031381 136.630921 
L 609.215101 121.382513 
L 612.398821 117.411504 
L 615.582541 130.535659 
L 618.766261 162.964812 
L 621.949981 190.953362 
L 625.133701 207.445959 
L 628.317421 214.284414 
L 631.501141 242.843407 
L 634.684861 243.533468 
L 637.868581 250.306664 
L 641.052301 247.277008 
L 644.236021 247.441348 
L 647.419741 217.550672 
L 650.603461 182.242487 
L 653.787181 143.98113 
L 656.970901 104.171918 
L 660.154622 55.8 
L 663.338342 113.297775 
L 666.522062 140.826297 
L 669.705782 158.725979 
L 672.889502 165.067481 
L 676.073222 163.373983 
L 679.256942 154.827881 
L 682.440662 139.02964 
L 685.624382 132.478066 
L 688.808102 136.595115 
L 691.991822 152.606785 
L 695.175542 177.642994 
L 698.359262 196.551418 
L 701.542982 213.200234 
L 704.726702 217.046608 
L 707.910422 229.606203 
L 711.094142 239.577655 
L 714.277862 232.952736 
L 717.461582 238.007132 
L 720.645302 252.739673 
L 723.829022 228.222977 
L 727.012742 170.907806 
L 730.196463 128.175273 
L 733.380183 103.870815 
L 736.563903 133.700743 
L 739.747623 151.31015 
L 746.115063 173.06357 
L 749.298783 183.209323 
L 752.482503 181.999713 
L 755.666223 173.46563 
L 758.849943 163.221049 
L 762.033663 155.439905 
L 765.217383 149.456861 
L 768.401103 155.213807 
L 771.584823 163.615818 
L 774.768543 181.733694 
L 777.952263 205.956794 
L 781.135983 195.60577 
L 784.319703 219.668176 
L 787.503423 211.442054 
L 790.687143 227.690759 
L 793.870863 242.30841 
L 797.054583 233.278564 
L 800.238304 190.100802 
L 803.422024 159.320064 
L 806.605744 141.855721 
L 809.789464 101.782584 
L 812.973184 130.530389 
L 816.156904 148.238443 
L 819.340624 175.535669 
L 822.524344 187.115326 
L 825.708064 193.272996 
L 828.891784 185.922933 
L 832.075504 179.668816 
L 835.259224 166.417247 
L 838.442944 168.079992 
L 841.626664 170.772883 
L 844.810384 169.875999 
L 847.994104 171.468864 
L 851.177824 184.083071 
L 857.545264 219.754659 
L 860.728984 202.132077 
L 863.912704 199.976169 
L 867.096424 208.32707 
L 870.280145 204.703582 
L 873.463865 205.90045 
L 876.647585 178.178966 
L 879.831305 169.309346 
L 883.015025 150.055349 
L 886.198745 156.999057 
L 889.382465 191.665946 
L 892.566185 198.330461 
L 895.749905 216.38351 
L 898.933625 232.435317 
L 902.117345 234.79101 
L 905.301065 229.797037 
L 908.484785 228.951515 
L 911.668505 218.818756 
L 914.852225 211.977196 
L 918.035945 187.482807 
L 921.219665 189.151327 
L 924.403385 201.157625 
L 927.587105 192.049995 
L 930.770825 201.529293 
L 933.954545 201.952938 
L 933.954545 201.952938 
" clip-path="url(#p6c6ec37033)" style="fill: none; stroke: #d62728; stroke-width: 3; stroke-linecap: square"/>
   </g>
   <g id="line2d_33">
    <path d="M 173.045455 263.259008 
L 176.229175 266.08462 
L 179.412895 266.492997 
L 182.596615 273.113512 
L 185.780335 271.38955 
L 188.964055 253.208473 
L 192.147775 219.61721 
L 195.331495 163.370373 
L 198.515215 117.40544 
L 201.698935 108.95405 
L 204.882655 157.858367 
L 208.066375 156.619881 
L 211.250095 164.324938 
L 214.433815 175.045212 
L 217.617535 177.006786 
L 220.801255 176.261067 
L 223.984975 163.186145 
L 227.168695 158.508363 
L 230.352415 152.164912 
L 233.536135 163.1886 
L 236.719855 184.901774 
L 243.087296 236.366297 
L 246.271016 239.907886 
L 249.454736 218.873404 
L 252.638456 235.624259 
L 255.822176 234.837175 
L 259.005896 243.667994 
L 262.189616 212.678844 
L 268.557056 177.819209 
L 271.740776 139.567092 
L 274.924496 130.330857 
L 278.108216 157.540624 
L 281.291936 176.957697 
L 284.475656 172.572319 
L 287.659376 177.553009 
L 290.843096 184.774792 
L 294.026816 186.217828 
L 297.210536 191.137626 
L 300.394256 192.714682 
L 303.577976 200.30539 
L 306.761696 197.289052 
L 309.945417 191.951059 
L 313.129137 203.849145 
L 316.312857 227.440874 
L 319.496577 237.810812 
L 322.680297 254.554413 
L 325.864017 253.756609 
L 329.047737 262.101302 
L 332.231457 266.760857 
L 335.415177 272.212837 
L 338.598897 279.606756 
L 341.782617 284.74944 
L 344.966337 288.206893 
L 348.150057 269.146112 
L 351.333777 243.087553 
L 354.517497 244.486083 
L 357.701217 229.215224 
L 360.884937 221.262521 
L 364.068657 216.433429 
L 367.252377 217.88177 
L 370.436097 225.178847 
L 373.619817 229.483517 
L 376.803537 223.487912 
L 379.987258 218.648461 
L 383.170978 218.597314 
L 386.354698 223.411066 
L 389.538418 228.869436 
L 392.722138 241.225745 
L 395.905858 259.604189 
L 399.089578 289.630726 
L 402.273298 270.09472 
L 405.457018 276.913143 
L 408.640738 284.885193 
L 411.824458 288.426493 
L 415.008178 296.39331 
L 418.191898 302.402053 
L 421.375618 298.769361 
L 424.559338 284.731573 
L 427.743058 281.013011 
L 430.926778 260.760992 
L 434.110498 241.672202 
L 437.294218 236.762221 
L 440.477938 243.806526 
L 446.845378 262.257448 
L 450.029099 257.733863 
L 453.212819 242.585365 
L 456.396539 226.313705 
L 459.580259 239.57141 
L 462.763979 228.781617 
L 465.947699 250.210255 
L 469.131419 261.112664 
L 472.315139 268.080628 
L 475.498859 267.191757 
L 478.682579 270.201886 
L 485.050019 264.945828 
L 488.233739 264.409495 
L 491.417459 251.045959 
L 494.601179 206.61271 
L 497.784899 165.100652 
L 500.968619 131.985588 
L 504.152339 102.071487 
L 507.336059 102.369125 
L 510.519779 139.152146 
L 513.703499 150.217198 
L 516.887219 163.025632 
L 520.07094 177.40632 
L 523.25466 178.816329 
L 526.43838 131.904664 
L 529.6221 151.706074 
L 532.80582 141.090727 
L 535.98954 139.264184 
L 539.17326 154.375504 
L 542.35698 187.146223 
L 545.5407 211.576616 
L 548.72442 229.841217 
L 551.90814 236.777201 
L 555.09186 251.11739 
L 558.27558 246.653145 
L 561.4593 246.693716 
L 564.64302 240.481253 
L 567.82674 237.270509 
L 571.01046 211.045733 
L 574.19418 170.798438 
L 577.3779 127.122314 
L 580.56162 99.477135 
L 583.74534 95.495658 
L 586.92906 119.975609 
L 590.112781 134.017944 
L 593.296501 143.91439 
L 596.480221 152.384657 
L 599.663941 154.884008 
L 602.847661 144.32977 
L 606.031381 136.8999 
L 609.215101 125.328112 
L 612.398821 118.462513 
L 615.582541 142.734053 
L 618.766261 182.27638 
L 621.949981 207.081473 
L 625.133701 226.718905 
L 628.317421 226.14229 
L 631.501141 246.124717 
L 634.684861 247.138187 
L 637.868581 252.12949 
L 641.052301 249.354735 
L 644.236021 245.215596 
L 647.419741 211.439275 
L 653.787181 134.332547 
L 656.970901 96.695594 
L 660.154622 65.721388 
L 663.338342 120.077324 
L 666.522062 140.314616 
L 669.705782 156.462832 
L 672.889502 162.619926 
L 676.073222 162.510197 
L 679.256942 156.777074 
L 682.440662 146.536861 
L 685.624382 136.923434 
L 688.808102 135.476825 
L 691.991822 153.074971 
L 695.175542 183.443109 
L 698.359262 207.492233 
L 701.542982 227.453832 
L 704.726702 218.044125 
L 707.910422 235.888798 
L 711.094142 242.692531 
L 714.277862 230.031725 
L 717.461582 226.98348 
L 720.645302 243.372485 
L 723.829022 215.072437 
L 727.012742 163.344927 
L 730.196463 120.228056 
L 733.380183 117.247417 
L 736.563903 142.345745 
L 739.747623 153.094534 
L 742.931343 159.230151 
L 749.298783 178.801963 
L 752.482503 180.623994 
L 755.666223 174.765477 
L 758.849943 170.621213 
L 762.033663 158.080242 
L 765.217383 148.78528 
L 768.401103 153.0052 
L 771.584823 164.994064 
L 774.768543 185.619953 
L 777.952263 216.774778 
L 781.135983 209.731664 
L 784.319703 207.159366 
L 787.503423 209.45424 
L 790.687143 213.597421 
L 793.870863 223.716681 
L 797.054583 217.626147 
L 800.238304 176.676446 
L 803.422024 149.173408 
L 809.789464 124.28591 
L 812.973184 146.22908 
L 816.156904 159.849936 
L 819.340624 176.681427 
L 822.524344 185.186021 
L 825.708064 195.45298 
L 828.891784 192.20394 
L 832.075504 184.904048 
L 835.259224 174.289242 
L 838.442944 170.031134 
L 841.626664 168.418706 
L 844.810384 171.047926 
L 847.994104 182.890028 
L 851.177824 197.749875 
L 854.361544 208.085054 
L 857.545264 211.795964 
L 860.728984 235.055296 
L 863.912704 227.470725 
L 867.096424 232.860514 
L 870.280145 224.257779 
L 873.463865 232.924113 
L 876.647585 199.067481 
L 879.831305 191.206748 
L 883.015025 175.752346 
L 886.198745 184.075346 
L 889.382465 207.989692 
L 892.566185 214.656877 
L 895.749905 222.429936 
L 898.933625 237.739453 
L 902.117345 244.642915 
L 905.301065 242.559991 
L 908.484785 242.872391 
L 911.668505 232.531726 
L 914.852225 220.933336 
L 918.035945 191.923013 
L 921.219665 187.511214 
L 924.403385 194.237848 
L 927.587105 199.841499 
L 930.770825 216.279665 
L 933.954545 212.913027 
L 933.954545 212.913027 
" clip-path="url(#p6c6ec37033)" style="fill: none; stroke: #9467bd; stroke-width: 3; stroke-linecap: square"/>
   </g>
   <g id="line2d_34">
    <path d="M 173.045455 257.706683 
L 176.229175 257.706683 
L 179.412895 251.977603 
L 182.596615 261.109632 
L 185.780335 253.618257 
L 188.964055 248.022367 
L 192.147775 208.845897 
L 195.331495 147.74102 
L 198.515215 132.069112 
L 201.698935 128.018621 
L 204.882655 155.70217 
L 208.066375 150.85633 
L 211.250095 172.114925 
L 214.433815 203.512271 
L 217.617535 191.175995 
L 220.801255 160.02579 
L 223.984975 167.142392 
L 227.168695 143.096084 
L 230.352415 136.48481 
L 233.536135 161.698136 
L 236.719855 191.942721 
L 243.087296 230.218444 
L 246.271016 241.296274 
L 249.454736 258.645618 
L 252.638456 250.933668 
L 255.822176 252.532958 
L 259.005896 253.589309 
L 262.189616 255.62217 
L 265.373336 232.596444 
L 268.557056 208.269607 
L 271.740776 155.05203 
L 274.924496 137.039154 
L 278.108216 139.145288 
L 281.291936 164.805685 
L 284.475656 162.738209 
L 294.026816 186.857392 
L 297.210536 185.038284 
L 300.394256 169.634813 
L 303.577976 158.072843 
L 306.761696 151.48586 
L 309.945417 171.754446 
L 313.129137 208.261811 
L 316.312857 223.839043 
L 319.496577 260.604232 
L 322.680297 261.315517 
L 325.864017 260.174379 
L 329.047737 252.99591 
L 332.231457 255.34045 
L 335.415177 276.24907 
L 338.598897 277.68633 
L 341.782617 270.488587 
L 344.966337 265.690212 
L 348.150057 264.35066 
L 351.333777 255.723092 
L 354.517497 242.791106 
L 360.884937 226.767922 
L 364.068657 227.773019 
L 367.252377 222.507937 
L 370.436097 230.44992 
L 373.619817 230.497962 
L 376.803537 225.377116 
L 379.987258 212.407844 
L 383.170978 217.629359 
L 386.354698 231.886025 
L 389.538418 245.269413 
L 392.722138 249.273991 
L 395.905858 248.876695 
L 399.089578 261.343238 
L 402.273298 275.291655 
L 405.457018 281.959309 
L 408.640738 281.503973 
L 411.824458 286.657883 
L 415.008178 289.422747 
L 418.191898 290.463867 
L 421.375618 302.479441 
L 424.559338 300.511117 
L 427.743058 295.045673 
L 430.926778 278.882297 
L 434.110498 258.786713 
L 437.294218 272.78624 
L 440.477938 263.037963 
L 443.661658 260.515187 
L 446.845378 255.773624 
L 450.029099 271.534254 
L 453.212819 250.041295 
L 456.396539 233.709789 
L 459.580259 234.292107 
L 465.947699 253.772021 
L 469.131419 253.727119 
L 472.315139 255.747781 
L 475.498859 270.292159 
L 478.682579 253.869694 
L 481.866299 257.471417 
L 485.050019 259.114635 
L 488.233739 258.760977 
L 491.417459 260.397409 
L 494.601179 231.36792 
L 497.784899 208.686105 
L 500.968619 160.922927 
L 504.152339 142.355851 
L 507.336059 141.989056 
L 510.519779 141.746065 
L 513.703499 143.463024 
L 516.887219 143.766365 
L 520.07094 154.971863 
L 523.25466 171.508929 
L 526.43838 160.066324 
L 529.6221 162.216241 
L 532.80582 146.92239 
L 535.98954 133.008155 
L 539.17326 157.643964 
L 542.35698 197.219462 
L 548.72442 236.596329 
L 551.90814 251.910611 
L 555.09186 281.854707 
L 558.27558 278.866415 
L 561.4593 280.994819 
L 564.64302 281.535412 
L 567.82674 268.890632 
L 571.01046 254.96972 
L 574.19418 211.494789 
L 577.3779 153.893566 
L 580.56162 128.682117 
L 583.74534 138.394587 
L 586.92906 150.477623 
L 590.112781 156.11163 
L 593.296501 154.706205 
L 596.480221 174.657445 
L 599.663941 173.961862 
L 602.847661 173.71158 
L 606.031381 158.683495 
L 609.215101 133.626099 
L 612.398821 123.276337 
L 615.582541 146.165589 
L 618.766261 184.728266 
L 621.949981 201.389931 
L 625.133701 211.935471 
L 628.317421 216.006752 
L 631.501141 246.495663 
L 634.684861 246.616292 
L 637.868581 248.058209 
L 641.052301 245.142865 
L 644.236021 248.551625 
L 647.419741 225.088429 
L 650.603461 206.904609 
L 653.787181 151.622695 
L 656.970901 126.256038 
L 660.154622 118.801877 
L 663.338342 135.269713 
L 666.522062 140.580707 
L 669.705782 153.879958 
L 672.889502 166.016378 
L 676.073222 158.977343 
L 679.256942 154.947788 
L 682.440662 139.321214 
L 685.624382 119.289807 
L 688.808102 123.879699 
L 691.991822 138.102364 
L 695.175542 173.994058 
L 698.359262 196.129037 
L 701.542982 215.977443 
L 704.726702 214.677379 
L 707.910422 255.383692 
L 711.094142 259.094999 
L 714.277862 262.090798 
L 717.461582 259.928501 
L 720.645302 247.636513 
L 723.829022 239.232949 
L 727.012742 204.736644 
L 730.196463 146.238609 
L 733.380183 128.511388 
L 736.563903 132.366461 
L 739.747623 142.709942 
L 742.931343 144.633075 
L 746.115063 161.693624 
L 749.298783 160.295599 
L 752.482503 162.654396 
L 755.666223 157.016347 
L 758.849943 162.308969 
L 762.033663 143.810076 
L 765.217383 139.843001 
L 768.401103 156.697665 
L 771.584823 185.921417 
L 774.768543 206.570479 
L 777.952263 224.860851 
L 781.135983 208.842937 
L 784.319703 273.897997 
L 787.503423 251.342767 
L 790.687143 253.180968 
L 793.870863 266.712995 
L 797.054583 268.758525 
L 800.238304 248.099068 
L 803.422024 209.354546 
L 806.605744 158.802608 
L 809.789464 139.102118 
L 812.973184 137.401113 
L 816.156904 148.790514 
L 819.340624 153.78723 
L 822.524344 161.861537 
L 825.708064 177.69396 
L 828.891784 176.363648 
L 832.075504 178.92631 
L 835.259224 153.223537 
L 838.442944 154.668269 
L 841.626664 150.523788 
L 844.810384 169.895779 
L 847.994104 211.831409 
L 851.177824 220.342861 
L 854.361544 240.92706 
L 857.545264 239.785019 
L 860.728984 274.20354 
L 863.912704 268.360832 
L 867.096424 275.370775 
L 870.280145 263.772024 
L 873.463865 275.631018 
L 876.647585 266.753962 
L 879.831305 261.921297 
L 883.015025 250.7071 
L 886.198745 245.022092 
L 889.382465 244.705792 
L 892.566185 257.739458 
L 895.749905 249.615376 
L 898.933625 244.605377 
L 902.117345 267.038137 
L 905.301065 254.273956 
L 908.484785 244.439413 
L 911.668505 227.557641 
L 914.852225 209.140323 
L 918.035945 211.847327 
L 921.219665 225.759541 
L 924.403385 236.585862 
L 927.587105 244.653238 
L 930.770825 243.505964 
L 933.954545 249.631583 
L 933.954545 249.631583 
" clip-path="url(#p6c6ec37033)" style="fill: none; stroke: #8c564b; stroke-width: 3; stroke-linecap: square"/>
   </g>
   <g id="line2d_35">
    <path d="M 173.045455 262.50495 
L 176.229175 265.338431 
L 179.412895 265.75197 
L 182.596615 272.37364 
L 185.780335 270.652205 
L 188.964055 252.471849 
L 192.147775 218.883907 
L 195.331495 162.63819 
L 198.515215 116.665712 
L 201.698935 108.186458 
L 204.882655 157.063884 
L 208.066375 155.801683 
L 211.250095 163.47032 
L 214.433815 174.181427 
L 217.617535 176.154515 
L 220.801255 175.440703 
L 223.984975 162.40166 
L 227.168695 157.748458 
L 230.352415 151.417243 
L 233.536135 162.449991 
L 236.719855 184.164212 
L 243.087296 235.649634 
L 246.271016 239.189743 
L 249.454736 218.09408 
L 252.638456 234.852155 
L 255.822176 234.072434 
L 259.005896 242.905021 
L 262.189616 211.92208 
L 268.557056 177.069736 
L 271.740776 138.826137 
L 274.924496 129.575753 
L 278.108216 156.758269 
L 281.291936 176.147549 
L 284.475656 171.741019 
L 287.659376 176.710339 
L 290.843096 183.918731 
L 294.026816 185.363752 
L 297.210536 190.307589 
L 300.394256 191.914964 
L 303.577976 199.522023 
L 306.761696 196.519691 
L 309.945417 191.193609 
L 313.129137 203.104977 
L 316.312857 226.694036 
L 319.496577 237.065346 
L 322.680297 253.815335 
L 325.864017 252.945233 
L 329.047737 261.298264 
L 332.231457 265.956736 
L 335.415177 271.405648 
L 338.598897 278.797799 
L 341.782617 283.94698 
L 344.966337 287.401545 
L 348.150057 268.348055 
L 351.333777 242.294513 
L 354.517497 243.683334 
L 357.701217 228.410778 
L 360.884937 220.451723 
L 364.068657 215.617902 
L 367.252377 217.065413 
L 370.436097 224.362093 
L 373.619817 228.678494 
L 376.803537 222.689386 
L 379.987258 217.85885 
L 383.170978 217.81402 
L 386.354698 222.633547 
L 389.538418 228.098378 
L 392.722138 240.45891 
L 395.905858 258.842407 
L 399.089578 288.873853 
L 402.273298 269.261796 
L 405.457018 276.082565 
L 408.640738 284.057683 
L 411.824458 287.606347 
L 415.008178 295.577891 
L 418.191898 301.592302 
L 421.375618 297.963904 
L 424.559338 283.931351 
L 427.743058 280.210406 
L 430.926778 259.948895 
L 434.110498 240.850936 
L 437.294218 235.930957 
L 440.477938 242.974071 
L 446.845378 261.421275 
L 450.029099 256.917903 
L 453.212819 241.794672 
L 456.396539 225.539976 
L 459.580259 238.806055 
L 462.763979 228.018392 
L 465.947699 249.445008 
L 469.131419 260.348464 
L 472.315139 267.322925 
L 475.498859 266.438927 
L 478.682579 269.476091 
L 485.050019 264.231872 
L 488.233739 263.699401 
L 491.417459 250.339258 
L 494.601179 205.916007 
L 497.784899 164.404996 
L 500.968619 131.291196 
L 504.152339 101.37464 
L 507.336059 101.658273 
L 510.519779 138.42996 
L 513.703499 149.488841 
L 516.887219 162.285074 
L 520.07094 176.65598 
L 523.25466 178.06108 
L 526.43838 131.171 
L 529.6221 150.994753 
L 532.80582 140.395324 
L 535.98954 138.578454 
L 539.17326 153.692987 
L 542.35698 186.466016 
L 545.5407 210.895723 
L 548.72442 229.170683 
L 551.90814 236.107064 
L 555.09186 250.381633 
L 558.27558 245.92421 
L 561.4593 245.965466 
L 564.64302 239.754555 
L 567.82674 236.556661 
L 571.01046 210.335856 
L 574.19418 170.086828 
L 577.3779 126.420775 
L 580.56162 98.765994 
L 583.74534 94.760261 
L 586.92906 119.220577 
L 590.112781 133.243421 
L 593.296501 143.126332 
L 596.480221 151.593134 
L 599.663941 154.088731 
L 602.847661 143.561094 
L 606.031381 136.157285 
L 609.215101 124.607804 
L 612.398821 117.751084 
L 615.582541 142.033813 
L 618.766261 181.579208 
L 621.949981 206.390293 
L 625.133701 226.034186 
L 628.317421 225.464465 
L 631.501141 245.377012 
L 634.684861 246.405895 
L 637.868581 251.402179 
L 641.052301 248.632802 
L 644.236021 244.499438 
L 647.419741 210.728279 
L 653.787181 133.626532 
L 656.970901 95.980411 
L 660.154622 64.995232 
L 663.338342 119.328789 
L 666.522062 139.558285 
L 669.705782 155.694626 
L 672.889502 161.838328 
L 676.073222 161.730008 
L 679.256942 156.02197 
L 682.440662 145.807853 
L 685.624382 136.208323 
L 688.808102 134.777307 
L 691.991822 152.375561 
L 695.175542 182.751207 
L 698.359262 206.804445 
L 701.542982 226.767236 
L 704.726702 217.360886 
L 707.910422 235.14131 
L 711.094142 241.93804 
L 714.277862 229.28366 
L 717.461582 226.24267 
L 720.645302 242.640121 
L 723.829022 214.33603 
L 727.012742 162.610072 
L 730.196463 119.491794 
L 733.380183 116.514475 
L 736.563903 141.594178 
L 739.747623 152.318929 
L 742.931343 158.431337 
L 749.298783 177.980192 
L 752.482503 179.808359 
L 755.666223 173.971319 
L 758.849943 169.862896 
L 762.033663 157.332393 
L 765.217383 148.045877 
L 768.401103 152.278105 
L 771.584823 164.270759 
L 774.768543 184.901196 
L 777.952263 216.062374 
L 781.135983 209.023087 
L 784.319703 206.38755 
L 787.503423 208.6795 
L 790.687143 212.828457 
L 793.870863 222.954178 
L 797.054583 216.866531 
L 800.238304 175.922028 
L 803.422024 148.423574 
L 809.789464 123.526835 
L 812.973184 145.446002 
L 816.156904 159.04679 
L 819.340624 175.864926 
L 822.524344 184.35851 
L 825.708064 194.620308 
L 828.891784 191.379461 
L 832.075504 184.10101 
L 835.259224 173.50963 
L 838.442944 169.272493 
L 841.626664 167.667464 
L 844.810384 170.302531 
L 847.994104 182.149578 
L 851.177824 197.019568 
L 854.361544 207.354964 
L 857.545264 211.073923 
L 860.728984 234.258647 
L 863.912704 226.67819 
L 867.096424 232.075704 
L 870.280145 223.470803 
L 873.463865 232.153705 
L 876.647585 198.299888 
L 879.831305 190.445219 
L 883.015025 174.991936 
L 886.198745 183.30631 
L 889.382465 207.200297 
L 892.566185 213.839762 
L 895.749905 221.599791 
L 898.933625 236.889131 
L 902.117345 243.784652 
L 905.301065 241.71122 
L 908.484785 242.056937 
L 911.668505 231.74096 
L 914.852225 220.15986 
L 918.035945 191.15903 
L 921.219665 186.752392 
L 924.403385 193.485054 
L 927.587105 199.099064 
L 930.770825 215.535678 
L 933.954545 212.176729 
L 933.954545 212.176729 
" clip-path="url(#p6c6ec37033)" style="fill: none; stroke: #e377c2; stroke-width: 3; stroke-linecap: square"/>
   </g>
   <g id="patch_3">
    <path d="M 135 320.4 
L 135 43.2 
" style="fill: none; stroke: #000000; stroke-width: 0.8; stroke-linejoin: miter; stroke-linecap: square"/>
   </g>
   <g id="patch_4">
    <path d="M 972 320.4 
L 972 43.2 
" style="fill: none; stroke: #000000; stroke-width: 0.8; stroke-linejoin: miter; stroke-linecap: square"/>
   </g>
   <g id="patch_5">
    <path d="M 135 320.4 
L 972 320.4 
" style="fill: none; stroke: #000000; stroke-width: 0.8; stroke-linejoin: miter; stroke-linecap: square"/>
   </g>
   <g id="patch_6">
    <path d="M 135 43.2 
L 972 43.2 
" style="fill: none; stroke: #000000; stroke-width: 0.8; stroke-linejoin: miter; stroke-linecap: square"/>
   </g>
   <g id="legend_1">
    <g id="patch_7">
     <path d="M 797.40625 153.946875 
L 965 153.946875 
Q 967 153.946875 967 151.946875 
L 967 50.2 
Q 967 48.2 965 48.2 
L 797.40625 48.2 
Q 795.40625 48.2 795.40625 50.2 
L 795.40625 151.946875 
Q 795.40625 153.946875 797.40625 153.946875 
z
" style="fill: #ffffff; opacity: 0.8; stroke: #cccccc; stroke-linejoin: miter"/>
    </g>
    <g id="line2d_36">
     <path d="M 799.40625 56.298437 
L 809.40625 56.298437 
L 819.40625 56.298437 
" style="fill: none; stroke: #1f77b4; stroke-width: 3; stroke-linecap: square"/>
    </g>
    <g id="text_17">
     <!-- Actual Load -->
     <g transform="translate(827.40625 59.798437) scale(0.1 -0.1)">
      <defs>
       <path id="DejaVuSans-41" d="M 2188 4044 
L 1331 1722 
L 3047 1722 
L 2188 4044 
z
M 1831 4666 
L 2547 4666 
L 4325 0 
L 3669 0 
L 3244 1197 
L 1141 1197 
L 716 0 
L 50 0 
L 1831 4666 
z
" transform="scale(0.015625)"/>
       <path id="DejaVuSans-63" d="M 3122 3366 
L 3122 2828 
Q 2878 2963 2633 3030 
Q 2388 3097 2138 3097 
Q 1578 3097 1268 2742 
Q 959 2388 959 1747 
Q 959 1106 1268 751 
Q 1578 397 2138 397 
Q 2388 397 2633 464 
Q 2878 531 3122 666 
L 3122 134 
Q 2881 22 2623 -34 
Q 2366 -91 2075 -91 
Q 1284 -91 818 406 
Q 353 903 353 1747 
Q 353 2603 823 3093 
Q 1294 3584 2113 3584 
Q 2378 3584 2631 3529 
Q 2884 3475 3122 3366 
z
" transform="scale(0.015625)"/>
       <path id="DejaVuSans-74" d="M 1172 4494 
L 1172 3500 
L 2356 3500 
L 2356 3053 
L 1172 3053 
L 1172 1153 
Q 1172 725 1289 603 
Q 1406 481 1766 481 
L 2356 481 
L 2356 0 
L 1766 0 
Q 1100 0 847 248 
Q 594 497 594 1153 
L 594 3053 
L 172 3053 
L 172 3500 
L 594 3500 
L 594 4494 
L 1172 4494 
z
" transform="scale(0.015625)"/>
       <path id="DejaVuSans-61" d="M 2194 1759 
Q 1497 1759 1228 1600 
Q 959 1441 959 1056 
Q 959 750 1161 570 
Q 1363 391 1709 391 
Q 2188 391 2477 730 
Q 2766 1069 2766 1631 
L 2766 1759 
L 2194 1759 
z
M 3341 1997 
L 3341 0 
L 2766 0 
L 2766 531 
Q 2569 213 2275 61 
Q 1981 -91 1556 -91 
Q 1019 -91 701 211 
Q 384 513 384 1019 
Q 384 1609 779 1909 
Q 1175 2209 1959 2209 
L 2766 2209 
L 2766 2266 
Q 2766 2663 2505 2880 
Q 2244 3097 1772 3097 
Q 1472 3097 1187 3025 
Q 903 2953 641 2809 
L 641 3341 
Q 956 3463 1253 3523 
Q 1550 3584 1831 3584 
Q 2591 3584 2966 3190 
Q 3341 2797 3341 1997 
z
" transform="scale(0.015625)"/>
       <path id="DejaVuSans-6c" d="M 603 4863 
L 1178 4863 
L 1178 0 
L 603 0 
L 603 4863 
z
" transform="scale(0.015625)"/>
       <path id="DejaVuSans-20" transform="scale(0.015625)"/>
       <path id="DejaVuSans-4c" d="M 628 4666 
L 1259 4666 
L 1259 531 
L 3531 531 
L 3531 0 
L 628 0 
L 628 4666 
z
" transform="scale(0.015625)"/>
       <path id="DejaVuSans-64" d="M 2906 2969 
L 2906 4863 
L 3481 4863 
L 3481 0 
L 2906 0 
L 2906 525 
Q 2725 213 2448 61 
Q 2172 -91 1784 -91 
Q 1150 -91 751 415 
Q 353 922 353 1747 
Q 353 2572 751 3078 
Q 1150 3584 1784 3584 
Q 2172 3584 2448 3432 
Q 2725 3281 2906 2969 
z
M 947 1747 
Q 947 1113 1208 752 
Q 1469 391 1925 391 
Q 2381 391 2643 752 
Q 2906 1113 2906 1747 
Q 2906 2381 2643 2742 
Q 2381 3103 1925 3103 
Q 1469 3103 1208 2742 
Q 947 2381 947 1747 
z
" transform="scale(0.015625)"/>
      </defs>
      <use xlink:href="#DejaVuSans-41"/>
      <use xlink:href="#DejaVuSans-63" x="66.658203"/>
      <use xlink:href="#DejaVuSans-74" x="121.638672"/>
      <use xlink:href="#DejaVuSans-75" x="160.847656"/>
      <use xlink:href="#DejaVuSans-61" x="224.226562"/>
      <use xlink:href="#DejaVuSans-6c" x="285.505859"/>
      <use xlink:href="#DejaVuSans-20" x="313.289062"/>
      <use xlink:href="#DejaVuSans-4c" x="345.076172"/>
      <use xlink:href="#DejaVuSans-6f" x="399.039062"/>
      <use xlink:href="#DejaVuSans-61" x="460.220703"/>
      <use xlink:href="#DejaVuSans-64" x="521.5"/>
     </g>
    </g>
    <g id="line2d_37">
     <path d="M 799.40625 70.976562 
L 809.40625 70.976562 
L 819.40625 70.976562 
" style="fill: none; stroke: #ff7f0e; stroke-width: 3; stroke-linecap: square"/>
    </g>
    <g id="text_18">
     <!-- MLP(1) Forecast Load -->
     <g transform="translate(827.40625 74.476562) scale(0.1 -0.1)">
      <defs>
       <path id="DejaVuSans-50" d="M 1259 4147 
L 1259 2394 
L 2053 2394 
Q 2494 2394 2734 2622 
Q 2975 2850 2975 3272 
Q 2975 3691 2734 3919 
Q 2494 4147 2053 4147 
L 1259 4147 
z
M 628 4666 
L 2053 4666 
Q 2838 4666 3239 4311 
Q 3641 3956 3641 3272 
Q 3641 2581 3239 2228 
Q 2838 1875 2053 1875 
L 1259 1875 
L 1259 0 
L 628 0 
L 628 4666 
z
" transform="scale(0.015625)"/>
       <path id="DejaVuSans-28" d="M 1984 4856 
Q 1566 4138 1362 3434 
Q 1159 2731 1159 2009 
Q 1159 1288 1364 580 
Q 1569 -128 1984 -844 
L 1484 -844 
Q 1016 -109 783 600 
Q 550 1309 550 2009 
Q 550 2706 781 3412 
Q 1013 4119 1484 4856 
L 1984 4856 
z
" transform="scale(0.015625)"/>
       <path id="DejaVuSans-29" d="M 513 4856 
L 1013 4856 
Q 1481 4119 1714 3412 
Q 1947 2706 1947 2009 
Q 1947 1309 1714 600 
Q 1481 -109 1013 -844 
L 513 -844 
Q 928 -128 1133 580 
Q 1338 1288 1338 2009 
Q 1338 2731 1133 3434 
Q 928 4138 513 4856 
z
" transform="scale(0.015625)"/>
       <path id="DejaVuSans-46" d="M 628 4666 
L 3309 4666 
L 3309 4134 
L 1259 4134 
L 1259 2759 
L 3109 2759 
L 3109 2228 
L 1259 2228 
L 1259 0 
L 628 0 
L 628 4666 
z
" transform="scale(0.015625)"/>
       <path id="DejaVuSans-65" d="M 3597 1894 
L 3597 1613 
L 953 1613 
Q 991 1019 1311 708 
Q 1631 397 2203 397 
Q 2534 397 2845 478 
Q 3156 559 3463 722 
L 3463 178 
Q 3153 47 2828 -22 
Q 2503 -91 2169 -91 
Q 1331 -91 842 396 
Q 353 884 353 1716 
Q 353 2575 817 3079 
Q 1281 3584 2069 3584 
Q 2775 3584 3186 3129 
Q 3597 2675 3597 1894 
z
M 3022 2063 
Q 3016 2534 2758 2815 
Q 2500 3097 2075 3097 
Q 1594 3097 1305 2825 
Q 1016 2553 972 2059 
L 3022 2063 
z
" transform="scale(0.015625)"/>
      </defs>
      <use xlink:href="#DejaVuSans-4d"/>
      <use xlink:href="#DejaVuSans-4c" x="86.279297"/>
      <use xlink:href="#DejaVuSans-50" x="141.992188"/>
      <use xlink:href="#DejaVuSans-28" x="202.294922"/>
      <use xlink:href="#DejaVuSans-31" x="241.308594"/>
      <use xlink:href="#DejaVuSans-29" x="304.931641"/>
      <use xlink:href="#DejaVuSans-20" x="343.945312"/>
      <use xlink:href="#DejaVuSans-46" x="375.732422"/>
      <use xlink:href="#DejaVuSans-6f" x="429.626953"/>
      <use xlink:href="#DejaVuSans-72" x="490.808594"/>
      <use xlink:href="#DejaVuSans-65" x="529.671875"/>
      <use xlink:href="#DejaVuSans-63" x="591.195312"/>
      <use xlink:href="#DejaVuSans-61" x="646.175781"/>
      <use xlink:href="#DejaVuSans-73" x="707.455078"/>
      <use xlink:href="#DejaVuSans-74" x="759.554688"/>
      <use xlink:href="#DejaVuSans-20" x="798.763672"/>
      <use xlink:href="#DejaVuSans-4c" x="830.550781"/>
      <use xlink:href="#DejaVuSans-6f" x="884.513672"/>
      <use xlink:href="#DejaVuSans-61" x="945.695312"/>
      <use xlink:href="#DejaVuSans-64" x="1006.974609"/>
     </g>
    </g>
    <g id="line2d_38">
     <path d="M 799.40625 85.654687 
L 809.40625 85.654687 
L 819.40625 85.654687 
" style="fill: none; stroke: #2ca02c; stroke-width: 3; stroke-linecap: square"/>
    </g>
    <g id="text_19">
     <!-- MLP(2) Forecast Load -->
     <g transform="translate(827.40625 89.154687) scale(0.1 -0.1)">
      <use xlink:href="#DejaVuSans-4d"/>
      <use xlink:href="#DejaVuSans-4c" x="86.279297"/>
      <use xlink:href="#DejaVuSans-50" x="141.992188"/>
      <use xlink:href="#DejaVuSans-28" x="202.294922"/>
      <use xlink:href="#DejaVuSans-32" x="241.308594"/>
      <use xlink:href="#DejaVuSans-29" x="304.931641"/>
      <use xlink:href="#DejaVuSans-20" x="343.945312"/>
      <use xlink:href="#DejaVuSans-46" x="375.732422"/>
      <use xlink:href="#DejaVuSans-6f" x="429.626953"/>
      <use xlink:href="#DejaVuSans-72" x="490.808594"/>
      <use xlink:href="#DejaVuSans-65" x="529.671875"/>
      <use xlink:href="#DejaVuSans-63" x="591.195312"/>
      <use xlink:href="#DejaVuSans-61" x="646.175781"/>
      <use xlink:href="#DejaVuSans-73" x="707.455078"/>
      <use xlink:href="#DejaVuSans-74" x="759.554688"/>
      <use xlink:href="#DejaVuSans-20" x="798.763672"/>
      <use xlink:href="#DejaVuSans-4c" x="830.550781"/>
      <use xlink:href="#DejaVuSans-6f" x="884.513672"/>
      <use xlink:href="#DejaVuSans-61" x="945.695312"/>
      <use xlink:href="#DejaVuSans-64" x="1006.974609"/>
     </g>
    </g>
    <g id="line2d_39">
     <path d="M 799.40625 100.332812 
L 809.40625 100.332812 
L 819.40625 100.332812 
" style="fill: none; stroke: #d62728; stroke-width: 3; stroke-linecap: square"/>
    </g>
    <g id="text_20">
     <!-- KAN Forecast Load -->
     <g transform="translate(827.40625 103.832812) scale(0.1 -0.1)">
      <defs>
       <path id="DejaVuSans-4b" d="M 628 4666 
L 1259 4666 
L 1259 2694 
L 3353 4666 
L 4166 4666 
L 1850 2491 
L 4331 0 
L 3500 0 
L 1259 2247 
L 1259 0 
L 628 0 
L 628 4666 
z
" transform="scale(0.015625)"/>
       <path id="DejaVuSans-4e" d="M 628 4666 
L 1478 4666 
L 3547 763 
L 3547 4666 
L 4159 4666 
L 4159 0 
L 3309 0 
L 1241 3903 
L 1241 0 
L 628 0 
L 628 4666 
z
" transform="scale(0.015625)"/>
      </defs>
      <use xlink:href="#DejaVuSans-4b"/>
      <use xlink:href="#DejaVuSans-41" x="63.826172"/>
      <use xlink:href="#DejaVuSans-4e" x="132.234375"/>
      <use xlink:href="#DejaVuSans-20" x="207.039062"/>
      <use xlink:href="#DejaVuSans-46" x="238.826172"/>
      <use xlink:href="#DejaVuSans-6f" x="292.720703"/>
      <use xlink:href="#DejaVuSans-72" x="353.902344"/>
      <use xlink:href="#DejaVuSans-65" x="392.765625"/>
      <use xlink:href="#DejaVuSans-63" x="454.289062"/>
      <use xlink:href="#DejaVuSans-61" x="509.269531"/>
      <use xlink:href="#DejaVuSans-73" x="570.548828"/>
      <use xlink:href="#DejaVuSans-74" x="622.648438"/>
      <use xlink:href="#DejaVuSans-20" x="661.857422"/>
      <use xlink:href="#DejaVuSans-4c" x="693.644531"/>
      <use xlink:href="#DejaVuSans-6f" x="747.607422"/>
      <use xlink:href="#DejaVuSans-61" x="808.789062"/>
      <use xlink:href="#DejaVuSans-64" x="870.068359"/>
     </g>
    </g>
    <g id="line2d_40">
     <path d="M 799.40625 115.010937 
L 809.40625 115.010937 
L 819.40625 115.010937 
" style="fill: none; stroke: #9467bd; stroke-width: 3; stroke-linecap: square"/>
    </g>
    <g id="text_21">
     <!-- KAN+MLP Forecast Load -->
     <g transform="translate(827.40625 118.510937) scale(0.1 -0.1)">
      <defs>
       <path id="DejaVuSans-2b" d="M 2944 4013 
L 2944 2272 
L 4684 2272 
L 4684 1741 
L 2944 1741 
L 2944 0 
L 2419 0 
L 2419 1741 
L 678 1741 
L 678 2272 
L 2419 2272 
L 2419 4013 
L 2944 4013 
z
" transform="scale(0.015625)"/>
      </defs>
      <use xlink:href="#DejaVuSans-4b"/>
      <use xlink:href="#DejaVuSans-41" x="63.826172"/>
      <use xlink:href="#DejaVuSans-4e" x="132.234375"/>
      <use xlink:href="#DejaVuSans-2b" x="207.039062"/>
      <use xlink:href="#DejaVuSans-4d" x="290.828125"/>
      <use xlink:href="#DejaVuSans-4c" x="377.107422"/>
      <use xlink:href="#DejaVuSans-50" x="432.820312"/>
      <use xlink:href="#DejaVuSans-20" x="493.123047"/>
      <use xlink:href="#DejaVuSans-46" x="524.910156"/>
      <use xlink:href="#DejaVuSans-6f" x="578.804688"/>
      <use xlink:href="#DejaVuSans-72" x="639.986328"/>
      <use xlink:href="#DejaVuSans-65" x="678.849609"/>
      <use xlink:href="#DejaVuSans-63" x="740.373047"/>
      <use xlink:href="#DejaVuSans-61" x="795.353516"/>
      <use xlink:href="#DejaVuSans-73" x="856.632812"/>
      <use xlink:href="#DejaVuSans-74" x="908.732422"/>
      <use xlink:href="#DejaVuSans-20" x="947.941406"/>
      <use xlink:href="#DejaVuSans-4c" x="979.728516"/>
      <use xlink:href="#DejaVuSans-6f" x="1033.691406"/>
      <use xlink:href="#DejaVuSans-61" x="1094.873047"/>
      <use xlink:href="#DejaVuSans-64" x="1156.152344"/>
     </g>
    </g>
    <g id="line2d_41">
     <path d="M 799.40625 129.689062 
L 809.40625 129.689062 
L 819.40625 129.689062 
" style="fill: none; stroke: #8c564b; stroke-width: 3; stroke-linecap: square"/>
    </g>
    <g id="text_22">
     <!-- XGBoost Forecast Load -->
     <g transform="translate(827.40625 133.189062) scale(0.1 -0.1)">
      <defs>
       <path id="DejaVuSans-58" d="M 403 4666 
L 1081 4666 
L 2241 2931 
L 3406 4666 
L 4084 4666 
L 2584 2425 
L 4184 0 
L 3506 0 
L 2194 1984 
L 872 0 
L 191 0 
L 1856 2491 
L 403 4666 
z
" transform="scale(0.015625)"/>
       <path id="DejaVuSans-47" d="M 3809 666 
L 3809 1919 
L 2778 1919 
L 2778 2438 
L 4434 2438 
L 4434 434 
Q 4069 175 3628 42 
Q 3188 -91 2688 -91 
Q 1594 -91 976 548 
Q 359 1188 359 2328 
Q 359 3472 976 4111 
Q 1594 4750 2688 4750 
Q 3144 4750 3555 4637 
Q 3966 4525 4313 4306 
L 4313 3634 
Q 3963 3931 3569 4081 
Q 3175 4231 2741 4231 
Q 1884 4231 1454 3753 
Q 1025 3275 1025 2328 
Q 1025 1384 1454 906 
Q 1884 428 2741 428 
Q 3075 428 3337 486 
Q 3600 544 3809 666 
z
" transform="scale(0.015625)"/>
       <path id="DejaVuSans-42" d="M 1259 2228 
L 1259 519 
L 2272 519 
Q 2781 519 3026 730 
Q 3272 941 3272 1375 
Q 3272 1813 3026 2020 
Q 2781 2228 2272 2228 
L 1259 2228 
z
M 1259 4147 
L 1259 2741 
L 2194 2741 
Q 2656 2741 2882 2914 
Q 3109 3088 3109 3444 
Q 3109 3797 2882 3972 
Q 2656 4147 2194 4147 
L 1259 4147 
z
M 628 4666 
L 2241 4666 
Q 2963 4666 3353 4366 
Q 3744 4066 3744 3513 
Q 3744 3084 3544 2831 
Q 3344 2578 2956 2516 
Q 3422 2416 3680 2098 
Q 3938 1781 3938 1306 
Q 3938 681 3513 340 
Q 3088 0 2303 0 
L 628 0 
L 628 4666 
z
" transform="scale(0.015625)"/>
      </defs>
      <use xlink:href="#DejaVuSans-58"/>
      <use xlink:href="#DejaVuSans-47" x="68.505859"/>
      <use xlink:href="#DejaVuSans-42" x="145.996094"/>
      <use xlink:href="#DejaVuSans-6f" x="214.599609"/>
      <use xlink:href="#DejaVuSans-6f" x="275.78125"/>
      <use xlink:href="#DejaVuSans-73" x="336.962891"/>
      <use xlink:href="#DejaVuSans-74" x="389.0625"/>
      <use xlink:href="#DejaVuSans-20" x="428.271484"/>
      <use xlink:href="#DejaVuSans-46" x="460.058594"/>
      <use xlink:href="#DejaVuSans-6f" x="513.953125"/>
      <use xlink:href="#DejaVuSans-72" x="575.134766"/>
      <use xlink:href="#DejaVuSans-65" x="613.998047"/>
      <use xlink:href="#DejaVuSans-63" x="675.521484"/>
      <use xlink:href="#DejaVuSans-61" x="730.501953"/>
      <use xlink:href="#DejaVuSans-73" x="791.78125"/>
      <use xlink:href="#DejaVuSans-74" x="843.880859"/>
      <use xlink:href="#DejaVuSans-20" x="883.089844"/>
      <use xlink:href="#DejaVuSans-4c" x="914.876953"/>
      <use xlink:href="#DejaVuSans-6f" x="968.839844"/>
      <use xlink:href="#DejaVuSans-61" x="1030.021484"/>
      <use xlink:href="#DejaVuSans-64" x="1091.300781"/>
     </g>
    </g>
    <g id="line2d_42">
     <path d="M 799.40625 144.367187 
L 809.40625 144.367187 
L 819.40625 144.367187 
" style="fill: none; stroke: #e377c2; stroke-width: 3; stroke-linecap: square"/>
    </g>
    <g id="text_23">
     <!-- Revised KAN Forecast Load -->
     <g transform="translate(827.40625 147.867187) scale(0.1 -0.1)">
      <defs>
       <path id="DejaVuSans-52" d="M 2841 2188 
Q 3044 2119 3236 1894 
Q 3428 1669 3622 1275 
L 4263 0 
L 3584 0 
L 2988 1197 
Q 2756 1666 2539 1819 
Q 2322 1972 1947 1972 
L 1259 1972 
L 1259 0 
L 628 0 
L 628 4666 
L 2053 4666 
Q 2853 4666 3247 4331 
Q 3641 3997 3641 3322 
Q 3641 2881 3436 2590 
Q 3231 2300 2841 2188 
z
M 1259 4147 
L 1259 2491 
L 2053 2491 
Q 2509 2491 2742 2702 
Q 2975 2913 2975 3322 
Q 2975 3731 2742 3939 
Q 2509 4147 2053 4147 
L 1259 4147 
z
" transform="scale(0.015625)"/>
       <path id="DejaVuSans-76" d="M 191 3500 
L 800 3500 
L 1894 563 
L 2988 3500 
L 3597 3500 
L 2284 0 
L 1503 0 
L 191 3500 
z
" transform="scale(0.015625)"/>
       <path id="DejaVuSans-69" d="M 603 3500 
L 1178 3500 
L 1178 0 
L 603 0 
L 603 3500 
z
M 603 4863 
L 1178 4863 
L 1178 4134 
L 603 4134 
L 603 4863 
z
" transform="scale(0.015625)"/>
      </defs>
      <use xlink:href="#DejaVuSans-52"/>
      <use xlink:href="#DejaVuSans-65" x="64.982422"/>
      <use xlink:href="#DejaVuSans-76" x="126.505859"/>
      <use xlink:href="#DejaVuSans-69" x="185.685547"/>
      <use xlink:href="#DejaVuSans-73" x="213.46875"/>
      <use xlink:href="#DejaVuSans-65" x="265.568359"/>
      <use xlink:href="#DejaVuSans-64" x="327.091797"/>
      <use xlink:href="#DejaVuSans-20" x="390.568359"/>
      <use xlink:href="#DejaVuSans-4b" x="422.355469"/>
      <use xlink:href="#DejaVuSans-41" x="486.181641"/>
      <use xlink:href="#DejaVuSans-4e" x="554.589844"/>
      <use xlink:href="#DejaVuSans-20" x="629.394531"/>
      <use xlink:href="#DejaVuSans-46" x="661.181641"/>
      <use xlink:href="#DejaVuSans-6f" x="715.076172"/>
      <use xlink:href="#DejaVuSans-72" x="776.257812"/>
      <use xlink:href="#DejaVuSans-65" x="815.121094"/>
      <use xlink:href="#DejaVuSans-63" x="876.644531"/>
      <use xlink:href="#DejaVuSans-61" x="931.625"/>
      <use xlink:href="#DejaVuSans-73" x="992.904297"/>
      <use xlink:href="#DejaVuSans-74" x="1045.003906"/>
      <use xlink:href="#DejaVuSans-20" x="1084.212891"/>
      <use xlink:href="#DejaVuSans-4c" x="1116"/>
      <use xlink:href="#DejaVuSans-6f" x="1169.962891"/>
      <use xlink:href="#DejaVuSans-61" x="1231.144531"/>
      <use xlink:href="#DejaVuSans-64" x="1292.423828"/>
     </g>
    </g>
   </g>
  </g>
 </g>
 <defs>
  <clipPath id="p6c6ec37033">
   <rect x="135" y="43.2" width="837" height="277.2"/>
  </clipPath>
 </defs>
</svg>
