<?xml version="1.0" encoding="utf-8" standalone="no"?>
<!DOCTYPE svg PUBLIC "-//W3C//DTD SVG 1.1//EN"
  "http://www.w3.org/Graphics/SVG/1.1/DTD/svg11.dtd">
<svg xmlns:xlink="http://www.w3.org/1999/xlink" width="1080pt" height="360pt" viewBox="0 0 1080 360" xmlns="http://www.w3.org/2000/svg" version="1.1">
 <metadata>
  <rdf:RDF xmlns:dc="http://purl.org/dc/elements/1.1/" xmlns:cc="http://creativecommons.org/ns#" xmlns:rdf="http://www.w3.org/1999/02/22-rdf-syntax-ns#">
   <cc:Work>
    <dc:type rdf:resource="http://purl.org/dc/dcmitype/StillImage"/>
    <dc:date>2024-09-03T20:06:15.536016</dc:date>
    <dc:format>image/svg+xml</dc:format>
    <dc:creator>
     <cc:Agent>
      <dc:title>Matplotlib v3.6.2, https://matplotlib.org/</dc:title>
     </cc:Agent>
    </dc:creator>
   </cc:Work>
  </rdf:RDF>
 </metadata>
 <defs>
  <style type="text/css">*{stroke-linejoin: round; stroke-linecap: butt}</style>
 </defs>
 <g id="figure_1">
  <g id="patch_1">
   <path d="M 0 360 
L 1080 360 
L 1080 0 
L 0 0 
z
" style="fill: #ffffff"/>
  </g>
  <g id="axes_1">
   <g id="patch_2">
    <path d="M 135 320.4 
L 972 320.4 
L 972 43.2 
L 135 43.2 
z
" style="fill: #ffffff"/>
   </g>
   <g id="matplotlib.axis_1">
    <g id="xtick_1">
     <g id="line2d_1">
      <path d="M 173.045455 320.4 
L 173.045455 43.2 
" clip-path="url(#p895d93cb60)" style="fill: none; stroke: #b0b0b0; stroke-width: 0.8; stroke-linecap: square"/>
     </g>
     <g id="line2d_2">
      <defs>
       <path id="m07215695ad" d="M 0 0 
L 0 3.5 
" style="stroke: #000000; stroke-width: 0.8"/>
      </defs>
      <g>
       <use xlink:href="#m07215695ad" x="173.045455" y="320.4" style="stroke: #000000; stroke-width: 0.8"/>
      </g>
     </g>
     <g id="text_1">
      <!-- 0 -->
      <g transform="translate(168.27358 338.797656) scale(0.15 -0.15)">
       <defs>
        <path id="DejaVuSans-30" d="M 2034 4250 
Q 1547 4250 1301 3770 
Q 1056 3291 1056 2328 
Q 1056 1369 1301 889 
Q 1547 409 2034 409 
Q 2525 409 2770 889 
Q 3016 1369 3016 2328 
Q 3016 3291 2770 3770 
Q 2525 4250 2034 4250 
z
M 2034 4750 
Q 2819 4750 3233 4129 
Q 3647 3509 3647 2328 
Q 3647 1150 3233 529 
Q 2819 -91 2034 -91 
Q 1250 -91 836 529 
Q 422 1150 422 2328 
Q 422 3509 836 4129 
Q 1250 4750 2034 4750 
z
" transform="scale(0.015625)"/>
       </defs>
       <use xlink:href="#DejaVuSans-30"/>
      </g>
     </g>
    </g>
    <g id="xtick_2">
     <g id="line2d_3">
      <path d="M 332.231457 320.4 
L 332.231457 43.2 
" clip-path="url(#p895d93cb60)" style="fill: none; stroke: #b0b0b0; stroke-width: 0.8; stroke-linecap: square"/>
     </g>
     <g id="line2d_4">
      <g>
       <use xlink:href="#m07215695ad" x="332.231457" y="320.4" style="stroke: #000000; stroke-width: 0.8"/>
      </g>
     </g>
     <g id="text_2">
      <!-- 50 -->
      <g transform="translate(322.687707 338.797656) scale(0.15 -0.15)">
       <defs>
        <path id="DejaVuSans-35" d="M 691 4666 
L 3169 4666 
L 3169 4134 
L 1269 4134 
L 1269 2991 
Q 1406 3038 1543 3061 
Q 1681 3084 1819 3084 
Q 2600 3084 3056 2656 
Q 3513 2228 3513 1497 
Q 3513 744 3044 326 
Q 2575 -91 1722 -91 
Q 1428 -91 1123 -41 
Q 819 9 494 109 
L 494 744 
Q 775 591 1075 516 
Q 1375 441 1709 441 
Q 2250 441 2565 725 
Q 2881 1009 2881 1497 
Q 2881 1984 2565 2268 
Q 2250 2553 1709 2553 
Q 1456 2553 1204 2497 
Q 953 2441 691 2322 
L 691 4666 
z
" transform="scale(0.015625)"/>
       </defs>
       <use xlink:href="#DejaVuSans-35"/>
       <use xlink:href="#DejaVuSans-30" x="63.623047"/>
      </g>
     </g>
    </g>
    <g id="xtick_3">
     <g id="line2d_5">
      <path d="M 491.417459 320.4 
L 491.417459 43.2 
" clip-path="url(#p895d93cb60)" style="fill: none; stroke: #b0b0b0; stroke-width: 0.8; stroke-linecap: square"/>
     </g>
     <g id="line2d_6">
      <g>
       <use xlink:href="#m07215695ad" x="491.417459" y="320.4" style="stroke: #000000; stroke-width: 0.8"/>
      </g>
     </g>
     <g id="text_3">
      <!-- 100 -->
      <g transform="translate(477.101834 338.797656) scale(0.15 -0.15)">
       <defs>
        <path id="DejaVuSans-31" d="M 794 531 
L 1825 531 
L 1825 4091 
L 703 3866 
L 703 4441 
L 1819 4666 
L 2450 4666 
L 2450 531 
L 3481 531 
L 3481 0 
L 794 0 
L 794 531 
z
" transform="scale(0.015625)"/>
       </defs>
       <use xlink:href="#DejaVuSans-31"/>
       <use xlink:href="#DejaVuSans-30" x="63.623047"/>
       <use xlink:href="#DejaVuSans-30" x="127.246094"/>
      </g>
     </g>
    </g>
    <g id="xtick_4">
     <g id="line2d_7">
      <path d="M 650.603461 320.4 
L 650.603461 43.2 
" clip-path="url(#p895d93cb60)" style="fill: none; stroke: #b0b0b0; stroke-width: 0.8; stroke-linecap: square"/>
     </g>
     <g id="line2d_8">
      <g>
       <use xlink:href="#m07215695ad" x="650.603461" y="320.4" style="stroke: #000000; stroke-width: 0.8"/>
      </g>
     </g>
     <g id="text_4">
      <!-- 150 -->
      <g transform="translate(636.287836 338.797656) scale(0.15 -0.15)">
       <use xlink:href="#DejaVuSans-31"/>
       <use xlink:href="#DejaVuSans-35" x="63.623047"/>
       <use xlink:href="#DejaVuSans-30" x="127.246094"/>
      </g>
     </g>
    </g>
    <g id="xtick_5">
     <g id="line2d_9">
      <path d="M 809.789464 320.4 
L 809.789464 43.2 
" clip-path="url(#p895d93cb60)" style="fill: none; stroke: #b0b0b0; stroke-width: 0.8; stroke-linecap: square"/>
     </g>
     <g id="line2d_10">
      <g>
       <use xlink:href="#m07215695ad" x="809.789464" y="320.4" style="stroke: #000000; stroke-width: 0.8"/>
      </g>
     </g>
     <g id="text_5">
      <!-- 200 -->
      <g transform="translate(795.473839 338.797656) scale(0.15 -0.15)">
       <defs>
        <path id="DejaVuSans-32" d="M 1228 531 
L 3431 531 
L 3431 0 
L 469 0 
L 469 531 
Q 828 903 1448 1529 
Q 2069 2156 2228 2338 
Q 2531 2678 2651 2914 
Q 2772 3150 2772 3378 
Q 2772 3750 2511 3984 
Q 2250 4219 1831 4219 
Q 1534 4219 1204 4116 
Q 875 4013 500 3803 
L 500 4441 
Q 881 4594 1212 4672 
Q 1544 4750 1819 4750 
Q 2544 4750 2975 4387 
Q 3406 4025 3406 3419 
Q 3406 3131 3298 2873 
Q 3191 2616 2906 2266 
Q 2828 2175 2409 1742 
Q 1991 1309 1228 531 
z
" transform="scale(0.015625)"/>
       </defs>
       <use xlink:href="#DejaVuSans-32"/>
       <use xlink:href="#DejaVuSans-30" x="63.623047"/>
       <use xlink:href="#DejaVuSans-30" x="127.246094"/>
      </g>
     </g>
    </g>
    <g id="xtick_6">
     <g id="line2d_11">
      <path d="M 968.975466 320.4 
L 968.975466 43.2 
" clip-path="url(#p895d93cb60)" style="fill: none; stroke: #b0b0b0; stroke-width: 0.8; stroke-linecap: square"/>
     </g>
     <g id="line2d_12">
      <g>
       <use xlink:href="#m07215695ad" x="968.975466" y="320.4" style="stroke: #000000; stroke-width: 0.8"/>
      </g>
     </g>
     <g id="text_6">
      <!-- 250 -->
      <g transform="translate(954.659841 338.797656) scale(0.15 -0.15)">
       <use xlink:href="#DejaVuSans-32"/>
       <use xlink:href="#DejaVuSans-35" x="63.623047"/>
       <use xlink:href="#DejaVuSans-30" x="127.246094"/>
      </g>
     </g>
    </g>
    <g id="text_7">
     <!-- Hours -->
     <g transform="translate(531.527344 357.314844) scale(0.15 -0.15)">
      <defs>
       <path id="DejaVuSans-48" d="M 628 4666 
L 1259 4666 
L 1259 2753 
L 3553 2753 
L 3553 4666 
L 4184 4666 
L 4184 0 
L 3553 0 
L 3553 2222 
L 1259 2222 
L 1259 0 
L 628 0 
L 628 4666 
z
" transform="scale(0.015625)"/>
       <path id="DejaVuSans-6f" d="M 1959 3097 
Q 1497 3097 1228 2736 
Q 959 2375 959 1747 
Q 959 1119 1226 758 
Q 1494 397 1959 397 
Q 2419 397 2687 759 
Q 2956 1122 2956 1747 
Q 2956 2369 2687 2733 
Q 2419 3097 1959 3097 
z
M 1959 3584 
Q 2709 3584 3137 3096 
Q 3566 2609 3566 1747 
Q 3566 888 3137 398 
Q 2709 -91 1959 -91 
Q 1206 -91 779 398 
Q 353 888 353 1747 
Q 353 2609 779 3096 
Q 1206 3584 1959 3584 
z
" transform="scale(0.015625)"/>
       <path id="DejaVuSans-75" d="M 544 1381 
L 544 3500 
L 1119 3500 
L 1119 1403 
Q 1119 906 1312 657 
Q 1506 409 1894 409 
Q 2359 409 2629 706 
Q 2900 1003 2900 1516 
L 2900 3500 
L 3475 3500 
L 3475 0 
L 2900 0 
L 2900 538 
Q 2691 219 2414 64 
Q 2138 -91 1772 -91 
Q 1169 -91 856 284 
Q 544 659 544 1381 
z
M 1991 3584 
L 1991 3584 
z
" transform="scale(0.015625)"/>
       <path id="DejaVuSans-72" d="M 2631 2963 
Q 2534 3019 2420 3045 
Q 2306 3072 2169 3072 
Q 1681 3072 1420 2755 
Q 1159 2438 1159 1844 
L 1159 0 
L 581 0 
L 581 3500 
L 1159 3500 
L 1159 2956 
Q 1341 3275 1631 3429 
Q 1922 3584 2338 3584 
Q 2397 3584 2469 3576 
Q 2541 3569 2628 3553 
L 2631 2963 
z
" transform="scale(0.015625)"/>
       <path id="DejaVuSans-73" d="M 2834 3397 
L 2834 2853 
Q 2591 2978 2328 3040 
Q 2066 3103 1784 3103 
Q 1356 3103 1142 2972 
Q 928 2841 928 2578 
Q 928 2378 1081 2264 
Q 1234 2150 1697 2047 
L 1894 2003 
Q 2506 1872 2764 1633 
Q 3022 1394 3022 966 
Q 3022 478 2636 193 
Q 2250 -91 1575 -91 
Q 1294 -91 989 -36 
Q 684 19 347 128 
L 347 722 
Q 666 556 975 473 
Q 1284 391 1588 391 
Q 1994 391 2212 530 
Q 2431 669 2431 922 
Q 2431 1156 2273 1281 
Q 2116 1406 1581 1522 
L 1381 1569 
Q 847 1681 609 1914 
Q 372 2147 372 2553 
Q 372 3047 722 3315 
Q 1072 3584 1716 3584 
Q 2034 3584 2315 3537 
Q 2597 3491 2834 3397 
z
" transform="scale(0.015625)"/>
      </defs>
      <use xlink:href="#DejaVuSans-48"/>
      <use xlink:href="#DejaVuSans-6f" x="75.195312"/>
      <use xlink:href="#DejaVuSans-75" x="136.376953"/>
      <use xlink:href="#DejaVuSans-72" x="199.755859"/>
      <use xlink:href="#DejaVuSans-73" x="240.869141"/>
     </g>
    </g>
   </g>
   <g id="matplotlib.axis_2">
    <g id="ytick_1">
     <g id="line2d_13">
      <path d="M 135 319.051116 
L 972 319.051116 
" clip-path="url(#p895d93cb60)" style="fill: none; stroke: #b0b0b0; stroke-width: 0.8; stroke-linecap: square"/>
     </g>
     <g id="line2d_14">
      <defs>
       <path id="ma181e64e06" d="M 0 0 
L -3.5 0 
" style="stroke: #000000; stroke-width: 0.8"/>
      </defs>
      <g>
       <use xlink:href="#ma181e64e06" x="135" y="319.051116" style="stroke: #000000; stroke-width: 0.8"/>
      </g>
     </g>
     <g id="text_8">
      <!-- 5000 -->
      <g transform="translate(89.825 324.749944) scale(0.15 -0.15)">
       <use xlink:href="#DejaVuSans-35"/>
       <use xlink:href="#DejaVuSans-30" x="63.623047"/>
       <use xlink:href="#DejaVuSans-30" x="127.246094"/>
       <use xlink:href="#DejaVuSans-30" x="190.869141"/>
      </g>
     </g>
    </g>
    <g id="ytick_2">
     <g id="line2d_15">
      <path d="M 135 278.982453 
L 972 278.982453 
" clip-path="url(#p895d93cb60)" style="fill: none; stroke: #b0b0b0; stroke-width: 0.8; stroke-linecap: square"/>
     </g>
     <g id="line2d_16">
      <g>
       <use xlink:href="#ma181e64e06" x="135" y="278.982453" style="stroke: #000000; stroke-width: 0.8"/>
      </g>
     </g>
     <g id="text_9">
      <!-- 5500 -->
      <g transform="translate(89.825 284.681282) scale(0.15 -0.15)">
       <use xlink:href="#DejaVuSans-35"/>
       <use xlink:href="#DejaVuSans-35" x="63.623047"/>
       <use xlink:href="#DejaVuSans-30" x="127.246094"/>
       <use xlink:href="#DejaVuSans-30" x="190.869141"/>
      </g>
     </g>
    </g>
    <g id="ytick_3">
     <g id="line2d_17">
      <path d="M 135 238.913791 
L 972 238.913791 
" clip-path="url(#p895d93cb60)" style="fill: none; stroke: #b0b0b0; stroke-width: 0.8; stroke-linecap: square"/>
     </g>
     <g id="line2d_18">
      <g>
       <use xlink:href="#ma181e64e06" x="135" y="238.913791" style="stroke: #000000; stroke-width: 0.8"/>
      </g>
     </g>
     <g id="text_10">
      <!-- 6000 -->
      <g transform="translate(89.825 244.612619) scale(0.15 -0.15)">
       <defs>
        <path id="DejaVuSans-36" d="M 2113 2584 
Q 1688 2584 1439 2293 
Q 1191 2003 1191 1497 
Q 1191 994 1439 701 
Q 1688 409 2113 409 
Q 2538 409 2786 701 
Q 3034 994 3034 1497 
Q 3034 2003 2786 2293 
Q 2538 2584 2113 2584 
z
M 3366 4563 
L 3366 3988 
Q 3128 4100 2886 4159 
Q 2644 4219 2406 4219 
Q 1781 4219 1451 3797 
Q 1122 3375 1075 2522 
Q 1259 2794 1537 2939 
Q 1816 3084 2150 3084 
Q 2853 3084 3261 2657 
Q 3669 2231 3669 1497 
Q 3669 778 3244 343 
Q 2819 -91 2113 -91 
Q 1303 -91 875 529 
Q 447 1150 447 2328 
Q 447 3434 972 4092 
Q 1497 4750 2381 4750 
Q 2619 4750 2861 4703 
Q 3103 4656 3366 4563 
z
" transform="scale(0.015625)"/>
       </defs>
       <use xlink:href="#DejaVuSans-36"/>
       <use xlink:href="#DejaVuSans-30" x="63.623047"/>
       <use xlink:href="#DejaVuSans-30" x="127.246094"/>
       <use xlink:href="#DejaVuSans-30" x="190.869141"/>
      </g>
     </g>
    </g>
    <g id="ytick_4">
     <g id="line2d_19">
      <path d="M 135 198.845128 
L 972 198.845128 
" clip-path="url(#p895d93cb60)" style="fill: none; stroke: #b0b0b0; stroke-width: 0.8; stroke-linecap: square"/>
     </g>
     <g id="line2d_20">
      <g>
       <use xlink:href="#ma181e64e06" x="135" y="198.845128" style="stroke: #000000; stroke-width: 0.8"/>
      </g>
     </g>
     <g id="text_11">
      <!-- 6500 -->
      <g transform="translate(89.825 204.543956) scale(0.15 -0.15)">
       <use xlink:href="#DejaVuSans-36"/>
       <use xlink:href="#DejaVuSans-35" x="63.623047"/>
       <use xlink:href="#DejaVuSans-30" x="127.246094"/>
       <use xlink:href="#DejaVuSans-30" x="190.869141"/>
      </g>
     </g>
    </g>
    <g id="ytick_5">
     <g id="line2d_21">
      <path d="M 135 158.776465 
L 972 158.776465 
" clip-path="url(#p895d93cb60)" style="fill: none; stroke: #b0b0b0; stroke-width: 0.8; stroke-linecap: square"/>
     </g>
     <g id="line2d_22">
      <g>
       <use xlink:href="#ma181e64e06" x="135" y="158.776465" style="stroke: #000000; stroke-width: 0.8"/>
      </g>
     </g>
     <g id="text_12">
      <!-- 7000 -->
      <g transform="translate(89.825 164.475293) scale(0.15 -0.15)">
       <defs>
        <path id="DejaVuSans-37" d="M 525 4666 
L 3525 4666 
L 3525 4397 
L 1831 0 
L 1172 0 
L 2766 4134 
L 525 4134 
L 525 4666 
z
" transform="scale(0.015625)"/>
       </defs>
       <use xlink:href="#DejaVuSans-37"/>
       <use xlink:href="#DejaVuSans-30" x="63.623047"/>
       <use xlink:href="#DejaVuSans-30" x="127.246094"/>
       <use xlink:href="#DejaVuSans-30" x="190.869141"/>
      </g>
     </g>
    </g>
    <g id="ytick_6">
     <g id="line2d_23">
      <path d="M 135 118.707802 
L 972 118.707802 
" clip-path="url(#p895d93cb60)" style="fill: none; stroke: #b0b0b0; stroke-width: 0.8; stroke-linecap: square"/>
     </g>
     <g id="line2d_24">
      <g>
       <use xlink:href="#ma181e64e06" x="135" y="118.707802" style="stroke: #000000; stroke-width: 0.8"/>
      </g>
     </g>
     <g id="text_13">
      <!-- 7500 -->
      <g transform="translate(89.825 124.406631) scale(0.15 -0.15)">
       <use xlink:href="#DejaVuSans-37"/>
       <use xlink:href="#DejaVuSans-35" x="63.623047"/>
       <use xlink:href="#DejaVuSans-30" x="127.246094"/>
       <use xlink:href="#DejaVuSans-30" x="190.869141"/>
      </g>
     </g>
    </g>
    <g id="ytick_7">
     <g id="line2d_25">
      <path d="M 135 78.63914 
L 972 78.63914 
" clip-path="url(#p895d93cb60)" style="fill: none; stroke: #b0b0b0; stroke-width: 0.8; stroke-linecap: square"/>
     </g>
     <g id="line2d_26">
      <g>
       <use xlink:href="#ma181e64e06" x="135" y="78.63914" style="stroke: #000000; stroke-width: 0.8"/>
      </g>
     </g>
     <g id="text_14">
      <!-- 8000 -->
      <g transform="translate(89.825 84.337968) scale(0.15 -0.15)">
       <defs>
        <path id="DejaVuSans-38" d="M 2034 2216 
Q 1584 2216 1326 1975 
Q 1069 1734 1069 1313 
Q 1069 891 1326 650 
Q 1584 409 2034 409 
Q 2484 409 2743 651 
Q 3003 894 3003 1313 
Q 3003 1734 2745 1975 
Q 2488 2216 2034 2216 
z
M 1403 2484 
Q 997 2584 770 2862 
Q 544 3141 544 3541 
Q 544 4100 942 4425 
Q 1341 4750 2034 4750 
Q 2731 4750 3128 4425 
Q 3525 4100 3525 3541 
Q 3525 3141 3298 2862 
Q 3072 2584 2669 2484 
Q 3125 2378 3379 2068 
Q 3634 1759 3634 1313 
Q 3634 634 3220 271 
Q 2806 -91 2034 -91 
Q 1263 -91 848 271 
Q 434 634 434 1313 
Q 434 1759 690 2068 
Q 947 2378 1403 2484 
z
M 1172 3481 
Q 1172 3119 1398 2916 
Q 1625 2713 2034 2713 
Q 2441 2713 2670 2916 
Q 2900 3119 2900 3481 
Q 2900 3844 2670 4047 
Q 2441 4250 2034 4250 
Q 1625 4250 1398 4047 
Q 1172 3844 1172 3481 
z
" transform="scale(0.015625)"/>
       </defs>
       <use xlink:href="#DejaVuSans-38"/>
       <use xlink:href="#DejaVuSans-30" x="63.623047"/>
       <use xlink:href="#DejaVuSans-30" x="127.246094"/>
       <use xlink:href="#DejaVuSans-30" x="190.869141"/>
      </g>
     </g>
    </g>
    <g id="text_15">
     <!-- MW -->
     <g transform="translate(82.705469 195.686719) rotate(-90) scale(0.15 -0.15)">
      <defs>
       <path id="DejaVuSans-4d" d="M 628 4666 
L 1569 4666 
L 2759 1491 
L 3956 4666 
L 4897 4666 
L 4897 0 
L 4281 0 
L 4281 4097 
L 3078 897 
L 2444 897 
L 1241 4097 
L 1241 0 
L 628 0 
L 628 4666 
z
" transform="scale(0.015625)"/>
       <path id="DejaVuSans-57" d="M 213 4666 
L 850 4666 
L 1831 722 
L 2809 4666 
L 3519 4666 
L 4500 722 
L 5478 4666 
L 6119 4666 
L 4947 0 
L 4153 0 
L 3169 4050 
L 2175 0 
L 1381 0 
L 213 4666 
z
" transform="scale(0.015625)"/>
      </defs>
      <use xlink:href="#DejaVuSans-4d"/>
      <use xlink:href="#DejaVuSans-57" x="86.279297"/>
     </g>
    </g>
   </g>
   <g id="line2d_27">
    <path d="M 173.045455 264.237187 
L 176.229175 230.339097 
L 179.412895 229.858272 
L 182.596615 231.14047 
L 185.780335 251.335078 
L 188.964055 234.987061 
L 192.147775 223.607561 
L 195.331495 160.218936 
L 198.515215 125.840025 
L 201.698935 114.220109 
L 204.882655 94.185779 
L 208.066375 78.959683 
L 211.250095 119.669453 
L 214.433815 112.777637 
L 217.617535 116.944785 
L 220.801255 122.153704 
L 223.984975 132.811975 
L 227.168695 150.362046 
L 230.352415 155.250422 
L 233.536135 168.873767 
L 236.719855 169.274455 
L 239.903576 184.740959 
L 243.087296 210.224628 
L 246.271016 245.324777 
L 249.454736 255.101529 
L 252.638456 246.126151 
L 255.822176 211.426688 
L 259.005896 213.670533 
L 262.189616 234.586375 
L 265.373336 244.924089 
L 268.557056 222.726051 
L 271.740776 165.267587 
L 274.924496 126.080435 
L 278.108216 119.108492 
L 281.291936 95.788526 
L 284.475656 84.569302 
L 287.659376 122.634531 
L 290.843096 119.669453 
L 294.026816 125.359199 
L 297.210536 138.341445 
L 300.394256 162.382644 
L 303.577976 170.316239 
L 306.761696 174.483382 
L 309.945417 187.786178 
L 313.129137 185.061508 
L 316.312857 200.2876 
L 319.496577 217.35685 
L 322.680297 248.209721 
L 325.864017 262.794715 
L 329.047737 255.742627 
L 332.231457 268.724878 
L 335.415177 265.759796 
L 338.598897 275.296135 
L 341.782617 286.114674 
L 344.966337 255.021392 
L 348.150057 274.735174 
L 351.333777 254.460431 
L 354.517497 230.018548 
L 357.701217 225.530858 
L 360.884937 217.677399 
L 364.068657 226.893192 
L 367.252377 219.600695 
L 370.436097 220.161657 
L 373.619817 217.116438 
L 376.803537 221.604128 
L 379.987258 234.506239 
L 383.170978 239.875439 
L 386.354698 247.167934 
L 389.538418 237.311045 
L 399.089578 262.313888 
L 402.273298 270.247484 
L 405.457018 256.704277 
L 408.640738 263.515951 
L 411.824458 272.972155 
L 415.008178 292.365387 
L 418.191898 279.703692 
L 421.375618 272.491329 
L 424.559338 285.313304 
L 427.743058 261.272105 
L 430.926778 238.91379 
L 434.110498 223.0466 
L 437.294218 219.76097 
L 440.477938 221.043167 
L 443.661658 216.315065 
L 446.845378 219.280146 
L 450.029099 214.391769 
L 453.212819 210.865727 
L 456.396539 204.054054 
L 459.580259 212.147924 
L 462.763979 228.095251 
L 465.947699 230.018548 
L 469.131419 251.25494 
L 472.315139 264.718009 
L 475.498859 281.546849 
L 478.682579 278.26122 
L 481.866299 278.742039 
L 485.050019 239.715164 
L 488.233739 242.920656 
L 491.417459 252.537137 
L 494.601179 235.467886 
L 497.784899 207.339684 
L 500.968619 153.80795 
L 504.152339 108.610497 
L 507.336059 93.464543 
L 510.519779 75.353504 
L 513.703499 55.8 
L 516.887219 105.004318 
L 520.07094 104.283082 
L 523.25466 107.00775 
L 526.43838 120.150272 
L 529.6221 138.661996 
L 532.80582 156.452484 
L 535.98954 158.936739 
L 539.17326 173.441595 
L 542.35698 180.493679 
L 548.72442 229.697999 
L 551.90814 249.091232 
L 555.09186 255.662493 
L 558.27558 240.195988 
L 561.4593 218.639047 
L 564.64302 223.847974 
L 567.82674 230.339097 
L 571.01046 202.771857 
L 574.19418 194.357437 
L 577.3779 158.455917 
L 580.56162 127.202356 
L 583.74534 126.641395 
L 586.92906 116.383817 
L 590.112781 99.715257 
L 593.296501 143.309962 
L 596.480221 125.519474 
L 599.663941 133.853754 
L 602.847661 150.762731 
L 606.031381 156.933307 
L 609.215101 171.037475 
L 612.398821 173.28132 
L 615.582541 186.103293 
L 618.766261 181.214915 
L 621.949981 201.008836 
L 625.133701 225.771269 
L 628.317421 247.648761 
L 631.501141 275.857095 
L 634.684861 269.766661 
L 637.868581 261.512515 
L 641.052301 248.289859 
L 644.236021 262.554302 
L 647.419741 231.380882 
L 650.603461 216.47534 
L 653.787181 174.80393 
L 656.970901 148.83944 
L 660.154622 128.965378 
L 663.338342 119.108492 
L 666.522062 117.986564 
L 669.705782 153.567541 
L 672.889502 145.874355 
L 676.073222 139.303098 
L 679.256942 149.480535 
L 682.440662 161.821683 
L 685.624382 178.650522 
L 688.808102 185.62247 
L 691.991822 199.566364 
L 695.175542 193.235516 
L 701.542982 239.715164 
L 704.726702 264.798147 
L 707.910422 276.898882 
L 711.094142 251.335078 
L 714.277862 246.767249 
L 717.461582 253.418648 
L 720.645302 279.463275 
L 723.829022 279.383141 
L 730.196463 186.50398 
L 733.380183 157.17372 
L 736.563903 151.964793 
L 739.747623 136.57843 
L 742.931343 116.944785 
L 746.115063 155.651111 
L 749.298783 149.400401 
L 752.482503 145.71408 
L 755.666223 144.91271 
L 762.033663 180.092994 
L 765.217383 180.012856 
L 768.401103 187.145078 
L 771.584823 183.378623 
L 774.768543 206.057487 
L 777.952263 229.778136 
L 781.135983 266.080343 
L 784.319703 276.177646 
L 787.503423 261.993341 
L 790.687143 274.574899 
L 793.870863 278.982456 
L 797.054583 284.912619 
L 800.238304 267.041993 
L 803.422024 241.878871 
L 806.605744 181.936151 
L 809.789464 148.679165 
L 812.973184 141.466806 
L 816.156904 127.042087 
L 819.340624 114.700935 
L 822.524344 149.961361 
L 825.708064 147.717512 
L 828.891784 155.651111 
L 832.075504 167.912121 
L 835.259224 182.176564 
L 838.442944 188.827963 
L 841.626664 189.388923 
L 844.810384 198.604717 
L 847.994104 199.325952 
L 851.177824 224.24866 
L 854.361544 239.875439 
L 857.545264 265.599521 
L 860.728984 277.379709 
L 863.912704 268.163913 
L 867.096424 264.958423 
L 870.280145 271.529683 
L 873.463865 294.849646 
L 876.647585 289.079759 
L 879.831305 276.177646 
L 883.015025 290.842774 
L 886.198745 253.819333 
L 889.382465 235.147337 
L 892.566185 239.314477 
L 895.749905 230.579508 
L 898.933625 247.809032 
L 902.117345 230.900057 
L 905.301065 239.55489 
L 908.484785 222.886325 
L 911.668505 216.956164 
L 914.852225 258.948122 
L 918.035945 259.348807 
L 921.219665 262.233751 
L 924.403385 253.418648 
L 927.587105 268.484464 
L 933.954545 266.160481 
L 933.954545 266.160481 
" clip-path="url(#p895d93cb60)" style="fill: none; stroke: #1f77b4; stroke-width: 3; stroke-linecap: square"/>
   </g>
   <g id="line2d_28">
    <path d="M 173.045455 227.156064 
L 176.229175 249.157908 
L 179.412895 248.570808 
L 182.596615 245.876425 
L 185.780335 242.427233 
L 188.964055 246.114098 
L 192.147775 237.025281 
L 195.331495 220.697849 
L 198.515215 196.311881 
L 201.698935 154.051102 
L 204.882655 128.625031 
L 208.066375 114.249225 
L 211.250095 116.26021 
L 214.433815 129.843604 
L 217.617535 134.278782 
L 220.801255 142.110484 
L 223.984975 160.75466 
L 227.168695 168.592544 
L 230.352415 179.234452 
L 233.536135 192.937622 
L 236.719855 193.142817 
L 239.903576 212.842121 
L 243.087296 234.739254 
L 246.271016 238.422089 
L 249.454736 234.272478 
L 252.638456 251.671473 
L 255.822176 254.1265 
L 259.005896 253.012638 
L 262.189616 256.935454 
L 265.373336 250.275996 
L 268.557056 246.854547 
L 274.924496 201.541115 
L 278.108216 169.588783 
L 281.291936 148.958704 
L 284.475656 145.468191 
L 287.659376 151.398118 
L 290.843096 150.871982 
L 294.026816 157.978809 
L 297.210536 165.89104 
L 300.394256 179.609118 
L 303.577976 189.428366 
L 306.761696 199.934808 
L 309.945417 220.82412 
L 313.129137 222.59438 
L 316.312857 231.077315 
L 319.496577 247.097111 
L 322.680297 252.815817 
L 325.864017 256.69469 
L 329.047737 276.142078 
L 332.231457 277.627475 
L 335.415177 274.911493 
L 338.598897 276.841832 
L 341.782617 270.47111 
L 344.966337 269.144579 
L 348.150057 261.706638 
L 351.333777 247.462894 
L 354.517497 209.619959 
L 357.701217 185.14235 
L 360.884937 181.487258 
L 364.068657 181.127618 
L 367.252377 192.079511 
L 370.436097 201.643674 
L 373.619817 212.223992 
L 376.803537 213.648034 
L 379.987258 220.407742 
L 383.170978 236.142049 
L 386.354698 253.294802 
L 389.538418 266.780059 
L 392.722138 271.409711 
L 395.905858 274.905741 
L 399.089578 278.979362 
L 402.273298 279.158458 
L 405.457018 288.110204 
L 408.640738 287.417455 
L 411.824458 290.795744 
L 415.008178 289.54172 
L 418.191898 288.595293 
L 421.375618 288.914199 
L 424.559338 279.381536 
L 427.743058 264.916396 
L 430.926778 242.88591 
L 434.110498 212.792036 
L 437.294218 213.730988 
L 440.477938 207.633743 
L 443.661658 209.711522 
L 446.845378 214.496284 
L 450.029099 218.567636 
L 453.212819 233.488282 
L 456.396539 256.108021 
L 459.580259 245.986771 
L 462.763979 267.020823 
L 465.947699 274.107694 
L 469.131419 272.786367 
L 472.315139 256.578984 
L 475.498859 265.283627 
L 478.682579 275.065076 
L 481.866299 252.692089 
L 485.050019 244.415993 
L 488.233739 244.511508 
L 491.417459 216.4807 
L 494.601179 201.517989 
L 497.784899 211.271187 
L 500.968619 203.11608 
L 504.152339 168.275203 
L 507.336059 156.575389 
L 510.519779 138.329591 
L 513.703499 138.608898 
L 516.887219 135.01614 
L 520.07094 137.373069 
L 523.25466 142.383061 
L 526.43838 159.990734 
L 529.6221 174.159662 
L 532.80582 193.36703 
L 535.98954 206.198275 
L 539.17326 218.12602 
L 542.35698 222.396619 
L 545.5407 236.116302 
L 548.72442 246.727219 
L 551.90814 254.357012 
L 555.09186 264.508236 
L 558.27558 248.198608 
L 561.4593 238.904791 
L 564.64302 216.876065 
L 567.82674 216.986645 
L 571.01046 187.669884 
L 574.19418 195.531011 
L 577.3779 184.163406 
L 580.56162 159.218786 
L 583.74534 139.467713 
L 586.92906 129.461425 
L 590.112781 128.013828 
L 593.296501 135.159941 
L 596.480221 150.690539 
L 599.663941 157.85516 
L 602.847661 169.704684 
L 606.031381 178.727803 
L 609.215101 188.151843 
L 612.398821 198.064493 
L 615.582541 214.567813 
L 618.766261 222.942555 
L 621.949981 235.987683 
L 628.317421 253.435003 
L 631.501141 260.158203 
L 634.684861 253.965521 
L 637.868581 262.512198 
L 641.052301 262.799409 
L 644.236021 262.055165 
L 647.419741 257.114981 
L 650.603461 250.747076 
L 653.787181 234.314151 
L 656.970901 197.430164 
L 660.154622 173.626796 
L 663.338342 145.629366 
L 666.522062 126.676693 
L 669.705782 112.428213 
L 672.889502 121.655471 
L 676.073222 124.52265 
L 679.256942 143.214837 
L 682.440662 155.048984 
L 685.624382 171.016737 
L 688.808102 176.656676 
L 691.991822 198.781699 
L 695.175542 217.824605 
L 698.359262 226.471923 
L 704.726702 246.496629 
L 707.910422 247.394417 
L 711.094142 256.035083 
L 714.277862 254.026916 
L 717.461582 250.048692 
L 720.645302 247.697162 
L 723.829022 256.666595 
L 727.012742 255.684326 
L 730.196463 235.85969 
L 733.380183 191.183327 
L 736.563903 159.581556 
L 739.747623 125.778708 
L 742.931343 110.472518 
L 746.115063 114.821416 
L 749.298783 118.917224 
L 752.482503 130.238069 
L 755.666223 137.275676 
L 758.849943 149.860601 
L 762.033663 158.123628 
L 765.217383 173.655439 
L 768.401103 187.049876 
L 771.584823 196.736202 
L 774.768543 212.270713 
L 777.952263 220.557139 
L 781.135983 224.480659 
L 784.319703 234.127268 
L 787.503423 253.763456 
L 790.687143 255.941955 
L 793.870863 260.010529 
L 797.054583 256.800457 
L 800.238304 252.858155 
L 803.422024 263.246464 
L 806.605744 244.685126 
L 809.789464 215.880257 
L 812.973184 174.578583 
L 816.156904 147.387457 
L 819.340624 145.109256 
L 822.524344 146.254304 
L 825.708064 144.542112 
L 832.075504 163.440238 
L 835.259224 177.04171 
L 838.442944 193.214463 
L 841.626664 200.787284 
L 844.810384 215.187469 
L 847.994104 234.220475 
L 851.177824 250.885399 
L 854.361544 250.205523 
L 857.545264 252.275164 
L 860.728984 261.971702 
L 863.912704 276.679523 
L 867.096424 277.895669 
L 870.280145 277.142738 
L 873.463865 279.940775 
L 876.647585 276.063976 
L 879.831305 272.833322 
L 883.015025 264.854532 
L 886.198745 244.60941 
L 889.382465 210.704552 
L 892.566185 191.204887 
L 895.749905 187.27448 
L 898.933625 190.90805 
L 902.117345 188.617406 
L 905.301065 192.43962 
L 908.484785 205.426993 
L 911.668505 228.32866 
L 914.852225 243.113448 
L 918.035945 255.083492 
L 921.219665 249.48237 
L 924.403385 259.699644 
L 927.587105 249.607937 
L 930.770825 257.762966 
L 933.954545 263.762974 
L 933.954545 263.762974 
" clip-path="url(#p895d93cb60)" style="fill: none; stroke: #ff7f0e; stroke-width: 3; stroke-linecap: square"/>
   </g>
   <g id="line2d_29">
    <path d="M 173.045455 244.609136 
L 176.229175 254.202685 
L 179.412895 258.203056 
L 182.596615 259.717526 
L 185.780335 258.68658 
L 188.964055 264.944022 
L 192.147775 261.719942 
L 195.331495 253.202651 
L 198.515215 238.339604 
L 201.698935 209.467354 
L 208.066375 162.455074 
L 211.250095 155.375911 
L 214.433815 160.566681 
L 217.617535 155.100791 
L 220.801255 155.031963 
L 223.984975 160.81265 
L 227.168695 174.473599 
L 230.352415 189.990267 
L 233.536135 212.155006 
L 236.719855 214.95723 
L 239.903576 239.092691 
L 243.087296 252.566288 
L 246.271016 254.721856 
L 249.454736 250.722503 
L 252.638456 252.335071 
L 255.822176 255.587206 
L 259.005896 256.819787 
L 262.189616 261.569137 
L 265.373336 260.051536 
L 268.557056 259.797899 
L 271.740776 244.257362 
L 274.924496 231.284741 
L 281.291936 189.319743 
L 284.475656 185.331424 
L 287.659376 172.276552 
L 290.843096 166.112083 
L 294.026816 166.699417 
L 297.210536 166.656375 
L 300.394256 173.976223 
L 303.577976 181.696171 
L 306.761696 196.592713 
L 309.945417 223.445722 
L 313.129137 232.421846 
L 316.312857 238.322895 
L 319.496577 256.988905 
L 322.680297 258.555066 
L 325.864017 264.104302 
L 329.047737 261.205232 
L 332.231457 263.380131 
L 335.415177 263.975604 
L 338.598897 266.901399 
L 341.782617 264.007573 
L 344.966337 265.288792 
L 348.150057 262.42807 
L 351.333777 252.328028 
L 354.517497 229.467564 
L 357.701217 208.368518 
L 360.884937 189.146438 
L 364.068657 174.783387 
L 367.252377 175.741709 
L 370.436097 168.769605 
L 373.619817 167.461974 
L 376.803537 167.612036 
L 379.987258 179.265991 
L 383.170978 202.067447 
L 386.354698 232.605089 
L 389.538418 250.079839 
L 395.905858 261.21071 
L 399.089578 265.547165 
L 402.273298 265.636889 
L 405.457018 265.408646 
L 408.640738 266.02388 
L 411.824458 271.230458 
L 415.008178 271.933969 
L 418.191898 272.178254 
L 421.375618 273.520516 
L 424.559338 269.357562 
L 427.743058 262.434213 
L 430.926778 246.49925 
L 434.110498 218.242195 
L 437.294218 206.388641 
L 440.477938 188.764533 
L 443.661658 185.890076 
L 446.845378 183.529821 
L 450.029099 180.362205 
L 453.212819 199.710478 
L 456.396539 207.408474 
L 459.580259 197.406178 
L 462.763979 228.057413 
L 465.947699 236.625729 
L 469.131419 240.458234 
L 472.315139 225.762426 
L 475.498859 237.810846 
L 478.682579 252.512171 
L 481.866299 190.276695 
L 485.050019 189.975436 
L 488.233739 196.13255 
L 491.417459 182.26351 
L 494.601179 177.036858 
L 497.784899 192.144388 
L 500.968619 193.202725 
L 504.152339 168.4345 
L 507.336059 163.172475 
L 510.519779 149.792476 
L 513.703499 149.23758 
L 516.887219 143.079293 
L 520.07094 138.700735 
L 523.25466 138.81558 
L 526.43838 139.905964 
L 529.6221 144.52693 
L 532.80582 148.553556 
L 535.98954 168.194401 
L 539.17326 166.046345 
L 542.35698 169.280011 
L 545.5407 189.638453 
L 548.72442 197.788747 
L 551.90814 191.528528 
L 555.09186 211.592363 
L 558.27558 212.409427 
L 561.4593 209.621446 
L 564.64302 196.043921 
L 567.82674 200.864291 
L 571.01046 183.515695 
L 574.19418 197.357031 
L 577.3779 195.668865 
L 580.56162 180.178805 
L 583.74534 168.079086 
L 586.92906 157.216683 
L 590.112781 150.930716 
L 593.296501 148.021121 
L 596.480221 148.828402 
L 599.663941 147.386791 
L 602.847661 148.135692 
L 606.031381 149.320378 
L 609.215101 159.327605 
L 612.398821 160.643649 
L 615.582541 162.203862 
L 618.766261 186.583726 
L 621.949981 201.208436 
L 625.133701 214.557052 
L 628.317421 225.388152 
L 631.501141 226.909509 
L 634.684861 237.059872 
L 637.868581 248.782264 
L 641.052301 256.356963 
L 644.236021 259.036203 
L 647.419741 260.128035 
L 650.603461 259.139074 
L 653.787181 249.804915 
L 656.970901 220.799703 
L 660.154622 204.437563 
L 663.338342 183.012958 
L 666.522062 168.098729 
L 669.705782 153.939035 
L 672.889502 151.793327 
L 676.073222 145.117786 
L 679.256942 152.047708 
L 682.440662 154.923104 
L 685.624382 169.189113 
L 688.808102 182.90633 
L 691.991822 205.153086 
L 695.175542 230.91078 
L 701.542982 245.210479 
L 704.726702 249.096553 
L 707.910422 254.411989 
L 711.094142 255.975293 
L 714.277862 257.296385 
L 717.461582 255.63561 
L 720.645302 256.273578 
L 723.829022 265.540826 
L 727.012742 268.111129 
L 730.196463 258.206813 
L 733.380183 231.915079 
L 736.563903 213.638095 
L 739.747623 193.421498 
L 742.931343 169.769561 
L 746.115063 166.640723 
L 749.298783 158.165966 
L 752.482503 162.925763 
L 755.666223 159.858984 
L 758.849943 164.855241 
L 762.033663 171.819363 
L 765.217383 201.586544 
L 768.401103 219.243286 
L 771.584823 223.245887 
L 774.768543 238.675805 
L 777.952263 251.842195 
L 781.135983 253.505827 
L 784.319703 263.323354 
L 787.503423 259.856162 
L 790.687143 264.902349 
L 793.870863 267.823018 
L 797.054583 267.678473 
L 800.238304 266.170812 
L 803.422024 272.677156 
L 806.605744 264.693475 
L 809.789464 251.765423 
L 812.973184 222.636718 
L 816.156904 199.382494 
L 819.340624 188.195785 
L 822.524344 182.253571 
L 825.708064 166.920382 
L 828.891784 165.013246 
L 832.075504 164.510549 
L 835.259224 173.407514 
L 838.442944 187.779995 
L 841.626664 206.070478 
L 844.810384 231.466771 
L 847.994104 243.64698 
L 851.177824 259.362778 
L 854.361544 262.364602 
L 857.545264 263.619252 
L 860.728984 269.726984 
L 863.912704 263.749436 
L 867.096424 265.247667 
L 870.280145 265.17653 
L 873.463865 268.372632 
L 876.647585 267.97844 
L 879.831305 267.247226 
L 883.015025 265.484714 
L 886.198745 254.738917 
L 889.382465 227.064305 
L 892.566185 205.925582 
L 895.749905 192.036507 
L 898.933625 182.834958 
L 902.117345 168.596144 
L 905.301065 166.975633 
L 908.484785 174.087546 
L 911.668505 207.560962 
L 914.852225 220.167565 
L 918.035945 235.749071 
L 921.219665 241.068068 
L 924.403385 251.183567 
L 927.587105 245.096612 
L 930.770825 254.321052 
L 933.954545 255.36092 
L 933.954545 255.36092 
" clip-path="url(#p895d93cb60)" style="fill: none; stroke: #2ca02c; stroke-width: 3; stroke-linecap: square"/>
   </g>
   <g id="line2d_30">
    <path d="M 173.045455 229.540384 
L 176.229175 234.958341 
L 179.412895 248.419885 
L 182.596615 259.995425 
L 185.780335 259.965608 
L 188.964055 257.570136 
L 192.147775 234.677156 
L 195.331495 191.631947 
L 198.515215 155.606071 
L 201.698935 132.571403 
L 204.882655 118.467977 
L 208.066375 116.168294 
L 211.250095 123.673421 
L 214.433815 123.975149 
L 217.617535 129.436109 
L 220.801255 139.351224 
L 223.984975 155.085061 
L 227.168695 168.10409 
L 230.352415 180.444416 
L 233.536135 214.059637 
L 236.719855 217.672273 
L 239.903576 223.790179 
L 243.087296 227.310782 
L 246.271016 228.981106 
L 249.454736 240.28536 
L 252.638456 264.411899 
L 255.822176 264.787699 
L 259.005896 258.30178 
L 262.189616 250.681926 
L 265.373336 244.241553 
L 268.557056 235.35038 
L 271.740776 208.341245 
L 274.924496 159.664902 
L 278.108216 142.517823 
L 281.291936 130.006422 
L 284.475656 135.0242 
L 287.659376 145.447022 
L 290.843096 151.424218 
L 297.210536 153.855337 
L 300.394256 164.831881 
L 306.761696 198.989751 
L 309.945417 231.427759 
L 313.129137 233.994188 
L 316.312857 236.111293 
L 319.496577 235.055969 
L 322.680297 247.436129 
L 325.864017 254.20832 
L 329.047737 252.059247 
L 332.231457 250.282256 
L 335.415177 252.100528 
L 338.598897 261.852591 
L 341.782617 273.377497 
L 344.966337 276.423263 
L 348.150057 259.158913 
L 351.333777 205.314104 
L 354.517497 185.014944 
L 357.701217 165.748217 
L 360.884937 173.13842 
L 364.068657 174.35484 
L 367.252377 186.391052 
L 370.436097 193.053484 
L 376.803537 213.640912 
L 379.987258 223.258526 
L 383.170978 234.813483 
L 386.354698 241.271503 
L 389.538418 248.282775 
L 392.722138 250.0645 
L 395.905858 257.810626 
L 399.089578 266.033076 
L 402.273298 268.510524 
L 405.457018 266.344351 
L 408.640738 273.539611 
L 411.824458 276.579781 
L 415.008178 287.911309 
L 418.191898 302.482411 
L 421.375618 306.875173 
L 424.559338 286.140384 
L 427.743058 249.061884 
L 430.926778 208.229686 
L 434.110498 193.441767 
L 437.294218 205.557646 
L 440.477938 213.641303 
L 443.661658 226.996259 
L 446.845378 236.464555 
L 450.029099 240.416952 
L 453.212819 235.178797 
L 456.396539 252.840468 
L 459.580259 256.454513 
L 462.763979 261.247101 
L 465.947699 269.819173 
L 469.131419 274.283581 
L 472.315139 277.289318 
L 475.498859 277.390389 
L 478.682579 277.143404 
L 481.866299 267.79954 
L 488.233739 251.400853 
L 494.601179 247.592882 
L 497.784899 252.20563 
L 500.968619 247.022334 
L 504.152339 215.696935 
L 507.336059 187.580512 
L 510.519779 164.429473 
L 513.703499 160.478836 
L 516.887219 165.709753 
L 520.07094 176.287645 
L 523.25466 179.92325 
L 526.43838 181.498214 
L 529.6221 183.321456 
L 532.80582 213.231539 
L 535.98954 228.241048 
L 539.17326 234.489373 
L 542.35698 239.39211 
L 545.5407 250.639392 
L 548.72442 258.102219 
L 551.90814 261.789319 
L 555.09186 263.714923 
L 558.27558 271.673835 
L 561.4593 271.101644 
L 564.64302 264.010625 
L 567.82674 259.42922 
L 571.01046 239.874186 
L 574.19418 223.649978 
L 577.3779 200.630375 
L 580.56162 170.968608 
L 583.74534 144.509556 
L 586.92906 126.397034 
L 590.112781 125.306219 
L 593.296501 133.4994 
L 596.480221 134.29416 
L 599.663941 137.855497 
L 602.847661 143.144483 
L 606.031381 165.076754 
L 612.398821 243.246019 
L 615.582541 273.801153 
L 618.766261 232.790172 
L 621.949981 230.808612 
L 625.133701 242.643228 
L 628.317421 250.413301 
L 631.501141 253.058381 
L 634.684861 269.206287 
L 637.868581 268.784627 
L 641.052301 263.019904 
L 644.236021 254.035994 
L 647.419741 236.735488 
L 650.603461 218.455804 
L 653.787181 190.690059 
L 656.970901 173.700399 
L 660.154622 138.746947 
L 663.338342 123.507707 
L 666.522062 123.327125 
L 669.705782 123.80114 
L 672.889502 131.034629 
L 676.073222 135.941358 
L 679.256942 142.204278 
L 682.440662 160.614106 
L 685.624382 173.920659 
L 688.808102 218.988083 
L 691.991822 242.139788 
L 695.175542 226.666397 
L 698.359262 224.004922 
L 701.542982 227.52666 
L 704.726702 240.354306 
L 707.910422 245.208836 
L 711.094142 269.756605 
L 714.277862 272.073779 
L 717.461582 269.444038 
L 720.645302 259.960443 
L 723.829022 244.829084 
L 727.012742 222.538464 
L 730.196463 198.447454 
L 733.380183 160.632223 
L 736.563903 132.410346 
L 739.747623 121.104096 
L 742.931343 119.460655 
L 746.115063 123.493973 
L 749.298783 131.669545 
L 752.482503 126.85978 
L 755.666223 138.474605 
L 758.849943 163.795926 
L 762.033663 185.321876 
L 765.217383 176.605807 
L 768.401103 208.458007 
L 771.584823 222.698152 
L 774.768543 222.660157 
L 777.952263 224.977878 
L 781.135983 232.3376 
L 784.319703 237.717052 
L 787.503423 268.353302 
L 790.687143 268.957501 
L 793.870863 262.187266 
L 797.054583 253.877519 
L 800.238304 243.820598 
L 803.422024 236.315197 
L 806.605744 213.554279 
L 809.789464 177.473779 
L 812.973184 150.85097 
L 816.156904 135.035665 
L 819.340624 135.393505 
L 822.524344 143.448324 
L 825.708064 150.015436 
L 828.891784 150.824479 
L 832.075504 152.687398 
L 835.259224 163.17721 
L 838.442944 172.739729 
L 841.626664 192.430072 
L 844.810384 225.767317 
L 847.994104 232.395903 
L 851.177824 234.186119 
L 854.361544 236.423351 
L 857.545264 249.621397 
L 860.728984 255.307665 
L 863.912704 252.146388 
L 867.096424 250.112551 
L 870.280145 252.84399 
L 876.647585 273.062504 
L 879.831305 279.182758 
L 883.015025 267.816053 
L 886.198745 218.287977 
L 889.382465 193.3369 
L 892.566185 173.663499 
L 895.749905 172.978028 
L 898.933625 179.714337 
L 902.117345 182.07424 
L 905.301065 194.290018 
L 908.484785 196.787618 
L 911.668505 200.519521 
L 914.852225 211.043179 
L 918.035945 229.189666 
L 921.219665 238.43238 
L 924.403385 245.054313 
L 927.587105 248.526239 
L 930.770825 255.541425 
L 933.954545 263.554805 
L 933.954545 263.554805 
" clip-path="url(#p895d93cb60)" style="fill: none; stroke: #d62728; stroke-width: 3; stroke-linecap: square"/>
   </g>
   <g id="line2d_31">
    <path d="M 173.045455 224.929514 
L 176.229175 249.917608 
L 179.412895 250.822283 
L 182.596615 249.895852 
L 185.780335 242.696719 
L 188.964055 248.441915 
L 192.147775 234.346472 
L 195.331495 194.518065 
L 198.515215 160.618019 
L 201.698935 135.154736 
L 204.882655 121.167525 
L 208.066375 110.660771 
L 211.250095 110.770607 
L 214.433815 111.867996 
L 217.617535 120.620416 
L 220.801255 119.530814 
L 223.984975 133.238053 
L 227.168695 148.932526 
L 230.352415 147.243616 
L 233.536135 184.916885 
L 236.719855 198.709192 
L 239.903576 206.609684 
L 243.087296 217.362524 
L 246.271016 219.363101 
L 249.454736 238.967633 
L 252.638456 267.826735 
L 255.822176 273.323694 
L 259.005896 270.315375 
L 262.189616 266.017267 
L 265.373336 254.45691 
L 268.557056 244.333077 
L 271.740776 197.623229 
L 274.924496 173.06423 
L 278.108216 141.971261 
L 281.291936 126.783086 
L 284.475656 133.225102 
L 290.843096 140.170636 
L 294.026816 149.615141 
L 297.210536 157.443087 
L 300.394256 150.736633 
L 303.577976 159.801425 
L 306.761696 179.475647 
L 313.129137 216.226241 
L 316.312857 230.075911 
L 319.496577 242.761556 
L 322.680297 250.070018 
L 325.864017 254.212937 
L 329.047737 259.250241 
L 332.231457 262.72205 
L 335.415177 251.724728 
L 338.598897 251.108907 
L 341.782617 257.118072 
L 344.966337 263.737462 
L 348.150057 254.688401 
L 351.333777 243.801228 
L 354.517497 211.506825 
L 357.701217 175.781034 
L 360.884937 174.109772 
L 364.068657 168.48842 
L 367.252377 172.527608 
L 370.436097 182.523996 
L 373.619817 195.393706 
L 376.803537 209.254998 
L 379.987258 220.978056 
L 383.170978 234.691203 
L 386.354698 242.001425 
L 389.538418 250.90606 
L 392.722138 259.175934 
L 395.905858 262.963753 
L 399.089578 268.229143 
L 402.273298 274.322437 
L 405.457018 263.497207 
L 408.640738 273.246961 
L 411.824458 276.883153 
L 418.191898 288.420267 
L 421.375618 287.702474 
L 424.559338 293.07731 
L 427.743058 287.403525 
L 430.926778 241.715115 
L 434.110498 212.586566 
L 437.294218 204.006903 
L 440.477938 203.373552 
L 443.661658 214.294297 
L 446.845378 222.051497 
L 450.029099 233.820179 
L 453.212819 238.338586 
L 456.396539 253.481841 
L 459.580259 259.530996 
L 462.763979 270.719583 
L 465.947699 279.870068 
L 469.131419 280.783861 
L 472.315139 284.968179 
L 475.498859 289.402771 
L 478.682579 295.200558 
L 481.866299 271.223259 
L 485.050019 272.880239 
L 488.233739 263.524049 
L 491.417459 248.056176 
L 494.601179 237.774142 
L 497.784899 231.408116 
L 500.968619 225.485506 
L 504.152339 180.817204 
L 507.336059 155.436914 
L 510.519779 145.898734 
L 513.703499 157.896794 
L 516.887219 160.64048 
L 520.07094 164.715588 
L 526.43838 181.424338 
L 529.6221 176.256263 
L 532.80582 193.703466 
L 535.98954 207.390083 
L 539.17326 232.640736 
L 542.35698 232.826523 
L 545.5407 248.676106 
L 548.72442 257.37081 
L 551.90814 262.859121 
L 555.09186 267.943889 
L 558.27558 251.078817 
L 561.4593 256.590566 
L 564.64302 252.880107 
L 567.82674 255.281174 
L 571.01046 231.374034 
L 574.19418 212.885203 
L 577.3779 187.350078 
L 580.56162 134.393119 
L 583.74534 112.974658 
L 586.92906 109.253359 
L 590.112781 119.535745 
L 593.296501 129.381953 
L 596.480221 126.631928 
L 599.663941 122.035693 
L 602.847661 131.5511 
L 606.031381 164.262116 
L 609.215101 186.524445 
L 612.398821 214.654172 
L 615.582541 240.00977 
L 618.766261 209.388625 
L 621.949981 217.811927 
L 625.133701 233.1063 
L 628.317421 245.453356 
L 631.501141 250.289456 
L 634.684861 257.718398 
L 637.868581 263.771818 
L 641.052301 264.288641 
L 644.236021 260.24378 
L 647.419741 251.978209 
L 650.603461 231.38683 
L 653.787181 228.094391 
L 656.970901 159.596973 
L 660.154622 134.150555 
L 663.338342 119.118741 
L 669.705782 109.246081 
L 672.889502 120.614312 
L 676.073222 116.929012 
L 679.256942 123.295664 
L 682.440662 155.14763 
L 685.624382 163.422826 
L 688.808102 180.670937 
L 691.991822 214.214864 
L 695.175542 196.650195 
L 698.359262 210.752212 
L 701.542982 223.393992 
L 704.726702 231.765839 
L 707.910422 237.673736 
L 711.094142 263.154745 
L 714.277862 265.807181 
L 717.461582 267.677573 
L 720.645302 268.469008 
L 723.829022 269.859828 
L 727.012742 264.747631 
L 730.196463 219.35817 
L 733.380183 185.573323 
L 736.563903 139.134603 
L 742.931343 109.829542 
L 746.115063 108.926979 
L 749.298783 117.974045 
L 752.482503 114.609999 
L 755.666223 122.80138 
L 758.849943 147.913632 
L 762.033663 175.791717 
L 765.217383 143.571425 
L 768.401103 181.976143 
L 771.584823 195.467543 
L 774.768543 225.340257 
L 777.952263 236.104289 
L 781.135983 238.469044 
L 784.319703 239.150368 
L 787.503423 275.464198 
L 790.687143 277.464501 
L 793.870863 276.867579 
L 797.054583 271.069206 
L 800.238304 257.14695 
L 803.422024 253.628459 
L 806.605744 227.677348 
L 809.789464 209.593468 
L 812.973184 151.037344 
L 816.156904 130.730006 
L 819.340624 134.122655 
L 822.524344 137.719287 
L 825.708064 139.535603 
L 828.891784 148.297649 
L 832.075504 157.491881 
L 835.259224 151.843765 
L 838.442944 154.917274 
L 841.626664 181.559335 
L 844.810384 198.661767 
L 847.994104 217.217197 
L 851.177824 236.884923 
L 854.361544 244.883904 
L 857.545264 250.8548 
L 860.728984 256.064 
L 863.912704 266.824158 
L 867.096424 265.717848 
L 870.280145 257.460495 
L 873.463865 254.50234 
L 876.647585 259.897601 
L 879.831305 265.683492 
L 883.015025 263.642925 
L 886.198745 257.727984 
L 889.382465 221.404176 
L 892.566185 183.286513 
L 895.749905 176.100332 
L 898.933625 171.482496 
L 902.117345 170.836428 
L 905.301065 183.319343 
L 908.484785 191.303063 
L 911.668505 198.85671 
L 914.852225 209.153926 
L 918.035945 224.853994 
L 921.219665 242.269932 
L 924.403385 250.104021 
L 927.587105 253.850011 
L 930.770825 262.265721 
L 933.954545 270.361469 
L 933.954545 270.361469 
" clip-path="url(#p895d93cb60)" style="fill: none; stroke: #9467bd; stroke-width: 3; stroke-linecap: square"/>
   </g>
   <g id="line2d_32">
    <path d="M 173.045455 229.735719 
L 176.229175 265.324322 
L 179.412895 266.968937 
L 182.596615 259.800638 
L 185.780335 267.051148 
L 188.964055 287.101171 
L 192.147775 270.267911 
L 195.331495 200.913555 
L 198.515215 162.030948 
L 201.698935 148.842841 
L 204.882655 133.104935 
L 208.066375 100.321647 
L 211.250095 125.777104 
L 214.433815 122.733334 
L 217.617535 155.780863 
L 220.801255 132.453584 
L 223.984975 148.487506 
L 227.168695 122.808971 
L 230.352415 139.429718 
L 233.536135 207.427178 
L 236.719855 196.133333 
L 239.903576 198.739165 
L 243.087296 228.599006 
L 246.271016 244.410045 
L 249.454736 230.652094 
L 252.638456 246.048204 
L 255.822176 249.936508 
L 259.005896 254.652323 
L 262.189616 253.549731 
L 265.373336 257.06063 
L 268.557056 242.803581 
L 271.740776 198.80232 
L 274.924496 130.934927 
L 278.108216 129.252982 
L 281.291936 120.472037 
L 284.475656 109.659132 
L 290.843096 130.741979 
L 294.026816 134.173328 
L 297.210536 142.188039 
L 300.394256 152.240539 
L 303.577976 160.166777 
L 306.761696 169.585378 
L 309.945417 203.06075 
L 313.129137 224.380605 
L 316.312857 219.721919 
L 319.496577 232.360138 
L 322.680297 252.156679 
L 325.864017 254.464032 
L 329.047737 259.517653 
L 332.231457 257.267664 
L 335.415177 256.153607 
L 338.598897 274.738892 
L 341.782617 275.195847 
L 344.966337 259.616337 
L 348.150057 287.929269 
L 351.333777 251.274073 
L 354.517497 262.65056 
L 357.701217 215.882683 
L 360.884937 233.386859 
L 364.068657 223.544367 
L 367.252377 224.212152 
L 370.436097 233.810084 
L 373.619817 226.881062 
L 376.803537 244.171551 
L 379.987258 236.844581 
L 383.170978 260.007594 
L 386.354698 274.4248 
L 389.538418 285.74631 
L 392.722138 260.124161 
L 395.905858 273.69292 
L 399.089578 285.394848 
L 402.273298 283.819492 
L 405.457018 259.791716 
L 408.640738 267.414114 
L 411.824458 295.873038 
L 415.008178 307.8 
L 418.191898 296.44969 
L 421.375618 298.866919 
L 424.559338 296.187014 
L 427.743058 282.415015 
L 430.926778 244.81801 
L 434.110498 244.570359 
L 437.294218 237.634176 
L 440.477938 260.726756 
L 443.661658 243.567586 
L 446.845378 235.799939 
L 450.029099 266.159855 
L 453.212819 248.835989 
L 456.396539 240.387449 
L 459.580259 262.855404 
L 462.763979 254.935191 
L 465.947699 254.920165 
L 469.131419 268.281029 
L 472.315139 275.948817 
L 475.498859 282.591372 
L 478.682579 269.877085 
L 481.866299 263.945866 
L 485.050019 260.979259 
L 488.233739 279.723411 
L 491.417459 264.460185 
L 494.601179 256.670704 
L 497.784899 275.437746 
L 500.968619 217.066352 
L 504.152339 148.591512 
L 507.336059 140.456987 
L 510.519779 167.447339 
L 513.703499 171.109396 
L 516.887219 192.91074 
L 520.07094 231.472641 
L 523.25466 206.716429 
L 526.43838 240.37121 
L 529.6221 222.21588 
L 532.80582 196.076399 
L 535.98954 192.179565 
L 539.17326 225.739496 
L 542.35698 220.648976 
L 545.5407 236.873928 
L 548.72442 255.870113 
L 551.90814 270.84155 
L 555.09186 285.243769 
L 558.27558 283.888126 
L 561.4593 280.85985 
L 564.64302 267.041796 
L 567.82674 280.231195 
L 571.01046 267.989984 
L 574.19418 268.41317 
L 577.3779 211.874056 
L 580.56162 148.585956 
L 583.74534 123.884916 
L 586.92906 151.524663 
L 590.112781 133.571829 
L 593.296501 145.560772 
L 596.480221 193.50907 
L 599.663941 130.680076 
L 602.847661 113.562344 
L 606.031381 131.370869 
L 609.215101 152.832569 
L 612.398821 207.69189 
L 615.582541 220.305184 
L 618.766261 213.376905 
L 621.949981 250.274039 
L 625.133701 244.005367 
L 628.317421 270.225885 
L 631.501141 297.937748 
L 634.684861 267.157307 
L 637.868581 277.564124 
L 641.052301 275.464237 
L 644.236021 275.468111 
L 647.419741 266.276383 
L 650.603461 254.772725 
L 653.787181 198.023642 
L 656.970901 194.300426 
L 660.154622 183.645136 
L 663.338342 144.068488 
L 666.522062 122.712869 
L 669.705782 132.913709 
L 672.889502 128.303034 
L 676.073222 158.257138 
L 679.256942 131.41669 
L 682.440662 141.111194 
L 685.624382 140.59617 
L 688.808102 196.646399 
L 691.991822 210.945668 
L 695.175542 219.883093 
L 698.359262 237.985872 
L 701.542982 245.133981 
L 704.726702 273.57784 
L 707.910422 253.508879 
L 711.094142 252.479811 
L 714.277862 248.277023 
L 717.461582 237.682697 
L 720.645302 249.550495 
L 723.829022 274.11732 
L 727.012742 264.379343 
L 733.380183 155.671574 
L 736.563903 152.952188 
L 739.747623 118.854382 
L 742.931343 120.826668 
L 746.115063 125.016113 
L 749.298783 148.447789 
L 752.482503 120.909936 
L 755.666223 122.443188 
L 758.849943 164.593739 
L 762.033663 166.350499 
L 765.217383 134.976775 
L 768.401103 180.671837 
L 771.584823 191.994952 
L 774.768543 199.023324 
L 777.952263 221.234941 
L 781.135983 234.251035 
L 784.319703 251.207866 
L 787.503423 268.892429 
L 790.687143 280.095885 
L 793.870863 271.34906 
L 797.054583 286.468915 
L 800.238304 268.286468 
L 803.422024 259.214203 
L 806.605744 195.868856 
L 809.789464 159.419325 
L 812.973184 141.64676 
L 816.156904 114.523171 
L 819.340624 112.571349 
L 822.524344 129.432235 
L 825.708064 132.299375 
L 828.891784 139.849696 
L 832.075504 142.701379 
L 835.259224 167.93732 
L 838.442944 177.345747 
L 841.626664 163.228117 
L 847.994104 231.009112 
L 851.177824 209.940861 
L 854.361544 225.860719 
L 857.545264 252.24296 
L 860.728984 275.447842 
L 863.912704 274.082299 
L 867.096424 266.662709 
L 870.280145 277.574259 
L 873.463865 280.771378 
L 876.647585 268.654403 
L 879.831305 267.053066 
L 883.015025 289.30929 
L 886.198745 255.174351 
L 889.382465 251.610783 
L 892.566185 218.52068 
L 895.749905 229.204262 
L 898.933625 210.19399 
L 902.117345 213.953205 
L 905.301065 233.862244 
L 908.484785 230.88155 
L 911.668505 236.158796 
L 914.852225 243.233654 
L 918.035945 262.71712 
L 921.219665 261.544759 
L 924.403385 265.862353 
L 927.587105 262.622544 
L 930.770825 265.840754 
L 933.954545 283.750272 
L 933.954545 283.750272 
" clip-path="url(#p895d93cb60)" style="fill: none; stroke: #8c564b; stroke-width: 3; stroke-linecap: square"/>
   </g>
   <g id="line2d_33">
    <path d="M 173.045455 224.890033 
L 176.229175 249.876561 
L 179.412895 250.782528 
L 182.596615 249.85727 
L 185.780335 242.65888 
L 188.964055 248.405133 
L 192.147775 234.30969 
L 195.331495 194.479718 
L 198.515215 160.575446 
L 201.698935 135.107311 
L 204.882655 121.116853 
L 208.066375 110.60822 
L 211.250095 110.717117 
L 214.433815 111.814036 
L 217.617535 120.566261 
L 220.801255 119.476581 
L 223.984975 133.183937 
L 227.168695 148.878762 
L 230.352415 147.190909 
L 233.536135 184.867621 
L 236.719855 198.662549 
L 239.903576 206.566406 
L 243.087296 217.321203 
L 246.271016 219.32358 
L 249.454736 238.92956 
L 252.638456 267.78741 
L 255.822176 273.28609 
L 259.005896 270.278593 
L 262.189616 265.981698 
L 265.373336 254.421811 
L 268.557056 244.298017 
L 271.740776 197.586213 
L 274.924496 173.022323 
L 278.108216 141.924658 
L 281.291936 126.733039 
L 284.475656 133.173177 
L 290.843096 140.116755 
L 294.026816 149.560947 
L 297.210536 157.388814 
L 300.394256 150.6824 
L 303.577976 159.747543 
L 306.761696 179.422861 
L 313.129137 216.181711 
L 316.312857 230.033612 
L 319.496577 242.721761 
L 322.680297 250.031671 
L 325.864017 254.17596 
L 329.047737 259.212364 
L 332.231457 262.684994 
L 335.415177 251.688338 
L 338.598897 251.073612 
L 341.782617 257.083286 
L 344.966337 263.702519 
L 348.150057 254.652167 
L 351.333777 243.760455 
L 354.517497 211.461474 
L 357.701217 175.731222 
L 360.884937 174.057886 
L 364.068657 168.435126 
L 367.252377 172.473805 
L 370.436097 182.469879 
L 373.619817 195.339511 
L 376.803537 209.201038 
L 379.987258 220.924448 
L 383.170978 234.638809 
L 386.354698 241.953414 
L 389.538418 250.862822 
L 392.722138 259.134692 
L 395.905858 262.924702 
L 399.089578 268.19154 
L 402.273298 274.285694 
L 405.457018 263.459994 
L 408.640738 273.210375 
L 411.824458 276.847545 
L 418.191898 288.385637 
L 421.375618 287.667727 
L 424.559338 293.040606 
L 427.743058 287.362986 
L 430.926778 241.67035 
L 434.110498 212.537772 
L 437.294218 203.956035 
L 440.477938 203.321236 
L 443.661658 214.241551 
L 446.845378 221.998554 
L 450.029099 233.767707 
L 453.212819 238.288109 
L 456.396539 253.436255 
L 459.580259 259.490066 
L 462.763979 270.681001 
L 465.947699 279.832739 
L 469.131419 280.74747 
L 472.315139 284.932063 
L 475.498859 289.367398 
L 478.682579 295.165811 
L 481.866299 271.185303 
L 485.050019 272.84244 
L 488.233739 263.487189 
L 491.417459 248.018181 
L 494.601179 237.736265 
L 497.784899 231.371648 
L 500.968619 225.449194 
L 504.152339 180.779561 
L 507.336059 155.398607 
L 510.519779 145.858665 
L 513.703499 157.855629 
L 516.887219 160.597789 
L 520.07094 164.671724 
L 526.43838 181.379456 
L 529.6221 176.21052 
L 532.80582 193.658623 
L 535.98954 207.348097 
L 539.17326 232.601372 
L 542.35698 232.788763 
L 545.5407 248.640028 
L 548.72442 257.335632 
L 551.90814 262.823709 
L 555.09186 267.909925 
L 558.27558 251.043483 
L 561.4593 256.55535 
L 564.64302 252.84489 
L 567.82674 255.24674 
L 571.01046 231.339522 
L 574.19418 212.851317 
L 577.3779 187.315918 
L 580.56162 134.357472 
L 583.74534 112.93635 
L 586.92906 109.211021 
L 590.112781 119.489611 
L 593.296501 129.333315 
L 596.480221 126.581138 
L 599.663941 121.984003 
L 602.847661 131.498901 
L 606.031381 164.209995 
L 609.215101 186.473459 
L 612.398821 214.605064 
L 615.582541 239.964458 
L 618.766261 209.348713 
L 621.949981 217.774441 
L 625.133701 233.070261 
L 628.317421 245.418492 
L 631.501141 250.255687 
L 634.684861 257.684003 
L 637.868581 263.738323 
L 641.052301 264.256007 
L 644.236021 260.211694 
L 647.419741 251.94628 
L 650.603461 231.355057 
L 653.787181 228.062031 
L 656.970901 159.561913 
L 660.154622 134.112169 
L 663.338342 119.076325 
L 669.705782 109.196386 
L 672.889502 120.562622 
L 676.073222 116.876305 
L 679.256942 123.242448 
L 682.440662 155.094335 
L 685.624382 163.370079 
L 688.808102 180.620773 
L 691.991822 214.171078 
L 695.175542 196.610635 
L 698.359262 210.714687 
L 701.542982 223.357876 
L 704.726702 231.730857 
L 707.910422 237.639341 
L 711.094142 263.119332 
L 714.277862 265.77216 
L 717.461582 267.642748 
L 720.645302 268.434534 
L 723.829022 269.82606 
L 727.012742 264.714331 
L 730.196463 219.323697 
L 733.380183 185.534349 
L 736.563903 139.08933 
L 742.931343 109.777186 
L 746.115063 108.873528 
L 749.298783 117.919968 
L 752.482503 114.555609 
L 755.666223 122.746872 
L 758.849943 147.859163 
L 762.033663 175.737483 
L 765.217383 143.518757 
L 768.401103 181.928326 
L 771.584823 195.423249 
L 774.768543 225.298115 
L 777.952263 236.064964 
L 781.135983 238.430815 
L 784.319703 239.11343 
L 787.503423 275.426086 
L 790.687143 277.427445 
L 793.870863 276.831267 
L 797.054583 271.033715 
L 800.238304 257.112007 
L 803.422024 253.594182 
L 806.605744 227.641897 
L 809.789464 209.553517 
L 812.973184 150.991719 
L 816.156904 130.680115 
L 819.340624 134.070496 
L 822.524344 137.666228 
L 825.708064 139.481722 
L 828.891784 148.243416 
L 832.075504 157.437569 
L 835.259224 151.789492 
L 838.442944 154.863275 
L 841.626664 181.506823 
L 844.810384 198.614303 
L 847.994104 217.172785 
L 851.177824 236.843876 
L 854.361544 244.844853 
L 857.545264 250.81747 
L 860.728984 256.027923 
L 863.912704 266.786945 
L 867.096424 265.681418 
L 870.280145 257.424769 
L 873.463865 254.467201 
L 876.647585 259.862971 
L 879.831305 265.649215 
L 883.015025 263.607826 
L 886.198745 257.688229 
L 889.382465 221.358903 
L 892.566185 183.236897 
L 895.749905 176.048407 
L 898.933625 171.429437 
L 902.117345 170.782547 
L 905.301065 183.265188 
L 908.484785 191.248869 
L 911.668505 198.802712 
L 914.852225 209.100162 
L 918.035945 224.801952 
L 921.219665 242.222625 
L 924.403385 250.059648 
L 927.587105 253.807047 
L 930.770825 262.223931 
L 933.954545 270.32144 
L 933.954545 270.32144 
" clip-path="url(#p895d93cb60)" style="fill: none; stroke: #e377c2; stroke-width: 3; stroke-linecap: square"/>
   </g>
   <g id="patch_3">
    <path d="M 135 320.4 
L 135 43.2 
" style="fill: none; stroke: #000000; stroke-width: 0.8; stroke-linejoin: miter; stroke-linecap: square"/>
   </g>
   <g id="patch_4">
    <path d="M 972 320.4 
L 972 43.2 
" style="fill: none; stroke: #000000; stroke-width: 0.8; stroke-linejoin: miter; stroke-linecap: square"/>
   </g>
   <g id="patch_5">
    <path d="M 135 320.4 
L 972 320.4 
" style="fill: none; stroke: #000000; stroke-width: 0.8; stroke-linejoin: miter; stroke-linecap: square"/>
   </g>
   <g id="patch_6">
    <path d="M 135 43.2 
L 972 43.2 
" style="fill: none; stroke: #000000; stroke-width: 0.8; stroke-linejoin: miter; stroke-linecap: square"/>
   </g>
   <g id="legend_1">
    <g id="patch_7">
     <path d="M 797.40625 153.946875 
L 965 153.946875 
Q 967 153.946875 967 151.946875 
L 967 50.2 
Q 967 48.2 965 48.2 
L 797.40625 48.2 
Q 795.40625 48.2 795.40625 50.2 
L 795.40625 151.946875 
Q 795.40625 153.946875 797.40625 153.946875 
z
" style="fill: #ffffff; opacity: 0.8; stroke: #cccccc; stroke-linejoin: miter"/>
    </g>
    <g id="line2d_34">
     <path d="M 799.40625 56.298437 
L 809.40625 56.298437 
L 819.40625 56.298437 
" style="fill: none; stroke: #1f77b4; stroke-width: 3; stroke-linecap: square"/>
    </g>
    <g id="text_16">
     <!-- Actual Load -->
     <g transform="translate(827.40625 59.798437) scale(0.1 -0.1)">
      <defs>
       <path id="DejaVuSans-41" d="M 2188 4044 
L 1331 1722 
L 3047 1722 
L 2188 4044 
z
M 1831 4666 
L 2547 4666 
L 4325 0 
L 3669 0 
L 3244 1197 
L 1141 1197 
L 716 0 
L 50 0 
L 1831 4666 
z
" transform="scale(0.015625)"/>
       <path id="DejaVuSans-63" d="M 3122 3366 
L 3122 2828 
Q 2878 2963 2633 3030 
Q 2388 3097 2138 3097 
Q 1578 3097 1268 2742 
Q 959 2388 959 1747 
Q 959 1106 1268 751 
Q 1578 397 2138 397 
Q 2388 397 2633 464 
Q 2878 531 3122 666 
L 3122 134 
Q 2881 22 2623 -34 
Q 2366 -91 2075 -91 
Q 1284 -91 818 406 
Q 353 903 353 1747 
Q 353 2603 823 3093 
Q 1294 3584 2113 3584 
Q 2378 3584 2631 3529 
Q 2884 3475 3122 3366 
z
" transform="scale(0.015625)"/>
       <path id="DejaVuSans-74" d="M 1172 4494 
L 1172 3500 
L 2356 3500 
L 2356 3053 
L 1172 3053 
L 1172 1153 
Q 1172 725 1289 603 
Q 1406 481 1766 481 
L 2356 481 
L 2356 0 
L 1766 0 
Q 1100 0 847 248 
Q 594 497 594 1153 
L 594 3053 
L 172 3053 
L 172 3500 
L 594 3500 
L 594 4494 
L 1172 4494 
z
" transform="scale(0.015625)"/>
       <path id="DejaVuSans-61" d="M 2194 1759 
Q 1497 1759 1228 1600 
Q 959 1441 959 1056 
Q 959 750 1161 570 
Q 1363 391 1709 391 
Q 2188 391 2477 730 
Q 2766 1069 2766 1631 
L 2766 1759 
L 2194 1759 
z
M 3341 1997 
L 3341 0 
L 2766 0 
L 2766 531 
Q 2569 213 2275 61 
Q 1981 -91 1556 -91 
Q 1019 -91 701 211 
Q 384 513 384 1019 
Q 384 1609 779 1909 
Q 1175 2209 1959 2209 
L 2766 2209 
L 2766 2266 
Q 2766 2663 2505 2880 
Q 2244 3097 1772 3097 
Q 1472 3097 1187 3025 
Q 903 2953 641 2809 
L 641 3341 
Q 956 3463 1253 3523 
Q 1550 3584 1831 3584 
Q 2591 3584 2966 3190 
Q 3341 2797 3341 1997 
z
" transform="scale(0.015625)"/>
       <path id="DejaVuSans-6c" d="M 603 4863 
L 1178 4863 
L 1178 0 
L 603 0 
L 603 4863 
z
" transform="scale(0.015625)"/>
       <path id="DejaVuSans-20" transform="scale(0.015625)"/>
       <path id="DejaVuSans-4c" d="M 628 4666 
L 1259 4666 
L 1259 531 
L 3531 531 
L 3531 0 
L 628 0 
L 628 4666 
z
" transform="scale(0.015625)"/>
       <path id="DejaVuSans-64" d="M 2906 2969 
L 2906 4863 
L 3481 4863 
L 3481 0 
L 2906 0 
L 2906 525 
Q 2725 213 2448 61 
Q 2172 -91 1784 -91 
Q 1150 -91 751 415 
Q 353 922 353 1747 
Q 353 2572 751 3078 
Q 1150 3584 1784 3584 
Q 2172 3584 2448 3432 
Q 2725 3281 2906 2969 
z
M 947 1747 
Q 947 1113 1208 752 
Q 1469 391 1925 391 
Q 2381 391 2643 752 
Q 2906 1113 2906 1747 
Q 2906 2381 2643 2742 
Q 2381 3103 1925 3103 
Q 1469 3103 1208 2742 
Q 947 2381 947 1747 
z
" transform="scale(0.015625)"/>
      </defs>
      <use xlink:href="#DejaVuSans-41"/>
      <use xlink:href="#DejaVuSans-63" x="66.658203"/>
      <use xlink:href="#DejaVuSans-74" x="121.638672"/>
      <use xlink:href="#DejaVuSans-75" x="160.847656"/>
      <use xlink:href="#DejaVuSans-61" x="224.226562"/>
      <use xlink:href="#DejaVuSans-6c" x="285.505859"/>
      <use xlink:href="#DejaVuSans-20" x="313.289062"/>
      <use xlink:href="#DejaVuSans-4c" x="345.076172"/>
      <use xlink:href="#DejaVuSans-6f" x="399.039062"/>
      <use xlink:href="#DejaVuSans-61" x="460.220703"/>
      <use xlink:href="#DejaVuSans-64" x="521.5"/>
     </g>
    </g>
    <g id="line2d_35">
     <path d="M 799.40625 70.976562 
L 809.40625 70.976562 
L 819.40625 70.976562 
" style="fill: none; stroke: #ff7f0e; stroke-width: 3; stroke-linecap: square"/>
    </g>
    <g id="text_17">
     <!-- MLP(1) Forecast Load -->
     <g transform="translate(827.40625 74.476562) scale(0.1 -0.1)">
      <defs>
       <path id="DejaVuSans-50" d="M 1259 4147 
L 1259 2394 
L 2053 2394 
Q 2494 2394 2734 2622 
Q 2975 2850 2975 3272 
Q 2975 3691 2734 3919 
Q 2494 4147 2053 4147 
L 1259 4147 
z
M 628 4666 
L 2053 4666 
Q 2838 4666 3239 4311 
Q 3641 3956 3641 3272 
Q 3641 2581 3239 2228 
Q 2838 1875 2053 1875 
L 1259 1875 
L 1259 0 
L 628 0 
L 628 4666 
z
" transform="scale(0.015625)"/>
       <path id="DejaVuSans-28" d="M 1984 4856 
Q 1566 4138 1362 3434 
Q 1159 2731 1159 2009 
Q 1159 1288 1364 580 
Q 1569 -128 1984 -844 
L 1484 -844 
Q 1016 -109 783 600 
Q 550 1309 550 2009 
Q 550 2706 781 3412 
Q 1013 4119 1484 4856 
L 1984 4856 
z
" transform="scale(0.015625)"/>
       <path id="DejaVuSans-29" d="M 513 4856 
L 1013 4856 
Q 1481 4119 1714 3412 
Q 1947 2706 1947 2009 
Q 1947 1309 1714 600 
Q 1481 -109 1013 -844 
L 513 -844 
Q 928 -128 1133 580 
Q 1338 1288 1338 2009 
Q 1338 2731 1133 3434 
Q 928 4138 513 4856 
z
" transform="scale(0.015625)"/>
       <path id="DejaVuSans-46" d="M 628 4666 
L 3309 4666 
L 3309 4134 
L 1259 4134 
L 1259 2759 
L 3109 2759 
L 3109 2228 
L 1259 2228 
L 1259 0 
L 628 0 
L 628 4666 
z
" transform="scale(0.015625)"/>
       <path id="DejaVuSans-65" d="M 3597 1894 
L 3597 1613 
L 953 1613 
Q 991 1019 1311 708 
Q 1631 397 2203 397 
Q 2534 397 2845 478 
Q 3156 559 3463 722 
L 3463 178 
Q 3153 47 2828 -22 
Q 2503 -91 2169 -91 
Q 1331 -91 842 396 
Q 353 884 353 1716 
Q 353 2575 817 3079 
Q 1281 3584 2069 3584 
Q 2775 3584 3186 3129 
Q 3597 2675 3597 1894 
z
M 3022 2063 
Q 3016 2534 2758 2815 
Q 2500 3097 2075 3097 
Q 1594 3097 1305 2825 
Q 1016 2553 972 2059 
L 3022 2063 
z
" transform="scale(0.015625)"/>
      </defs>
      <use xlink:href="#DejaVuSans-4d"/>
      <use xlink:href="#DejaVuSans-4c" x="86.279297"/>
      <use xlink:href="#DejaVuSans-50" x="141.992188"/>
      <use xlink:href="#DejaVuSans-28" x="202.294922"/>
      <use xlink:href="#DejaVuSans-31" x="241.308594"/>
      <use xlink:href="#DejaVuSans-29" x="304.931641"/>
      <use xlink:href="#DejaVuSans-20" x="343.945312"/>
      <use xlink:href="#DejaVuSans-46" x="375.732422"/>
      <use xlink:href="#DejaVuSans-6f" x="429.626953"/>
      <use xlink:href="#DejaVuSans-72" x="490.808594"/>
      <use xlink:href="#DejaVuSans-65" x="529.671875"/>
      <use xlink:href="#DejaVuSans-63" x="591.195312"/>
      <use xlink:href="#DejaVuSans-61" x="646.175781"/>
      <use xlink:href="#DejaVuSans-73" x="707.455078"/>
      <use xlink:href="#DejaVuSans-74" x="759.554688"/>
      <use xlink:href="#DejaVuSans-20" x="798.763672"/>
      <use xlink:href="#DejaVuSans-4c" x="830.550781"/>
      <use xlink:href="#DejaVuSans-6f" x="884.513672"/>
      <use xlink:href="#DejaVuSans-61" x="945.695312"/>
      <use xlink:href="#DejaVuSans-64" x="1006.974609"/>
     </g>
    </g>
    <g id="line2d_36">
     <path d="M 799.40625 85.654687 
L 809.40625 85.654687 
L 819.40625 85.654687 
" style="fill: none; stroke: #2ca02c; stroke-width: 3; stroke-linecap: square"/>
    </g>
    <g id="text_18">
     <!-- MLP(2) Forecast Load -->
     <g transform="translate(827.40625 89.154687) scale(0.1 -0.1)">
      <use xlink:href="#DejaVuSans-4d"/>
      <use xlink:href="#DejaVuSans-4c" x="86.279297"/>
      <use xlink:href="#DejaVuSans-50" x="141.992188"/>
      <use xlink:href="#DejaVuSans-28" x="202.294922"/>
      <use xlink:href="#DejaVuSans-32" x="241.308594"/>
      <use xlink:href="#DejaVuSans-29" x="304.931641"/>
      <use xlink:href="#DejaVuSans-20" x="343.945312"/>
      <use xlink:href="#DejaVuSans-46" x="375.732422"/>
      <use xlink:href="#DejaVuSans-6f" x="429.626953"/>
      <use xlink:href="#DejaVuSans-72" x="490.808594"/>
      <use xlink:href="#DejaVuSans-65" x="529.671875"/>
      <use xlink:href="#DejaVuSans-63" x="591.195312"/>
      <use xlink:href="#DejaVuSans-61" x="646.175781"/>
      <use xlink:href="#DejaVuSans-73" x="707.455078"/>
      <use xlink:href="#DejaVuSans-74" x="759.554688"/>
      <use xlink:href="#DejaVuSans-20" x="798.763672"/>
      <use xlink:href="#DejaVuSans-4c" x="830.550781"/>
      <use xlink:href="#DejaVuSans-6f" x="884.513672"/>
      <use xlink:href="#DejaVuSans-61" x="945.695312"/>
      <use xlink:href="#DejaVuSans-64" x="1006.974609"/>
     </g>
    </g>
    <g id="line2d_37">
     <path d="M 799.40625 100.332812 
L 809.40625 100.332812 
L 819.40625 100.332812 
" style="fill: none; stroke: #d62728; stroke-width: 3; stroke-linecap: square"/>
    </g>
    <g id="text_19">
     <!-- KAN Forecast Load -->
     <g transform="translate(827.40625 103.832812) scale(0.1 -0.1)">
      <defs>
       <path id="DejaVuSans-4b" d="M 628 4666 
L 1259 4666 
L 1259 2694 
L 3353 4666 
L 4166 4666 
L 1850 2491 
L 4331 0 
L 3500 0 
L 1259 2247 
L 1259 0 
L 628 0 
L 628 4666 
z
" transform="scale(0.015625)"/>
       <path id="DejaVuSans-4e" d="M 628 4666 
L 1478 4666 
L 3547 763 
L 3547 4666 
L 4159 4666 
L 4159 0 
L 3309 0 
L 1241 3903 
L 1241 0 
L 628 0 
L 628 4666 
z
" transform="scale(0.015625)"/>
      </defs>
      <use xlink:href="#DejaVuSans-4b"/>
      <use xlink:href="#DejaVuSans-41" x="63.826172"/>
      <use xlink:href="#DejaVuSans-4e" x="132.234375"/>
      <use xlink:href="#DejaVuSans-20" x="207.039062"/>
      <use xlink:href="#DejaVuSans-46" x="238.826172"/>
      <use xlink:href="#DejaVuSans-6f" x="292.720703"/>
      <use xlink:href="#DejaVuSans-72" x="353.902344"/>
      <use xlink:href="#DejaVuSans-65" x="392.765625"/>
      <use xlink:href="#DejaVuSans-63" x="454.289062"/>
      <use xlink:href="#DejaVuSans-61" x="509.269531"/>
      <use xlink:href="#DejaVuSans-73" x="570.548828"/>
      <use xlink:href="#DejaVuSans-74" x="622.648438"/>
      <use xlink:href="#DejaVuSans-20" x="661.857422"/>
      <use xlink:href="#DejaVuSans-4c" x="693.644531"/>
      <use xlink:href="#DejaVuSans-6f" x="747.607422"/>
      <use xlink:href="#DejaVuSans-61" x="808.789062"/>
      <use xlink:href="#DejaVuSans-64" x="870.068359"/>
     </g>
    </g>
    <g id="line2d_38">
     <path d="M 799.40625 115.010937 
L 809.40625 115.010937 
L 819.40625 115.010937 
" style="fill: none; stroke: #9467bd; stroke-width: 3; stroke-linecap: square"/>
    </g>
    <g id="text_20">
     <!-- KAN+MLP Forecast Load -->
     <g transform="translate(827.40625 118.510937) scale(0.1 -0.1)">
      <defs>
       <path id="DejaVuSans-2b" d="M 2944 4013 
L 2944 2272 
L 4684 2272 
L 4684 1741 
L 2944 1741 
L 2944 0 
L 2419 0 
L 2419 1741 
L 678 1741 
L 678 2272 
L 2419 2272 
L 2419 4013 
L 2944 4013 
z
" transform="scale(0.015625)"/>
      </defs>
      <use xlink:href="#DejaVuSans-4b"/>
      <use xlink:href="#DejaVuSans-41" x="63.826172"/>
      <use xlink:href="#DejaVuSans-4e" x="132.234375"/>
      <use xlink:href="#DejaVuSans-2b" x="207.039062"/>
      <use xlink:href="#DejaVuSans-4d" x="290.828125"/>
      <use xlink:href="#DejaVuSans-4c" x="377.107422"/>
      <use xlink:href="#DejaVuSans-50" x="432.820312"/>
      <use xlink:href="#DejaVuSans-20" x="493.123047"/>
      <use xlink:href="#DejaVuSans-46" x="524.910156"/>
      <use xlink:href="#DejaVuSans-6f" x="578.804688"/>
      <use xlink:href="#DejaVuSans-72" x="639.986328"/>
      <use xlink:href="#DejaVuSans-65" x="678.849609"/>
      <use xlink:href="#DejaVuSans-63" x="740.373047"/>
      <use xlink:href="#DejaVuSans-61" x="795.353516"/>
      <use xlink:href="#DejaVuSans-73" x="856.632812"/>
      <use xlink:href="#DejaVuSans-74" x="908.732422"/>
      <use xlink:href="#DejaVuSans-20" x="947.941406"/>
      <use xlink:href="#DejaVuSans-4c" x="979.728516"/>
      <use xlink:href="#DejaVuSans-6f" x="1033.691406"/>
      <use xlink:href="#DejaVuSans-61" x="1094.873047"/>
      <use xlink:href="#DejaVuSans-64" x="1156.152344"/>
     </g>
    </g>
    <g id="line2d_39">
     <path d="M 799.40625 129.689062 
L 809.40625 129.689062 
L 819.40625 129.689062 
" style="fill: none; stroke: #8c564b; stroke-width: 3; stroke-linecap: square"/>
    </g>
    <g id="text_21">
     <!-- XGBoost Forecast Load -->
     <g transform="translate(827.40625 133.189062) scale(0.1 -0.1)">
      <defs>
       <path id="DejaVuSans-58" d="M 403 4666 
L 1081 4666 
L 2241 2931 
L 3406 4666 
L 4084 4666 
L 2584 2425 
L 4184 0 
L 3506 0 
L 2194 1984 
L 872 0 
L 191 0 
L 1856 2491 
L 403 4666 
z
" transform="scale(0.015625)"/>
       <path id="DejaVuSans-47" d="M 3809 666 
L 3809 1919 
L 2778 1919 
L 2778 2438 
L 4434 2438 
L 4434 434 
Q 4069 175 3628 42 
Q 3188 -91 2688 -91 
Q 1594 -91 976 548 
Q 359 1188 359 2328 
Q 359 3472 976 4111 
Q 1594 4750 2688 4750 
Q 3144 4750 3555 4637 
Q 3966 4525 4313 4306 
L 4313 3634 
Q 3963 3931 3569 4081 
Q 3175 4231 2741 4231 
Q 1884 4231 1454 3753 
Q 1025 3275 1025 2328 
Q 1025 1384 1454 906 
Q 1884 428 2741 428 
Q 3075 428 3337 486 
Q 3600 544 3809 666 
z
" transform="scale(0.015625)"/>
       <path id="DejaVuSans-42" d="M 1259 2228 
L 1259 519 
L 2272 519 
Q 2781 519 3026 730 
Q 3272 941 3272 1375 
Q 3272 1813 3026 2020 
Q 2781 2228 2272 2228 
L 1259 2228 
z
M 1259 4147 
L 1259 2741 
L 2194 2741 
Q 2656 2741 2882 2914 
Q 3109 3088 3109 3444 
Q 3109 3797 2882 3972 
Q 2656 4147 2194 4147 
L 1259 4147 
z
M 628 4666 
L 2241 4666 
Q 2963 4666 3353 4366 
Q 3744 4066 3744 3513 
Q 3744 3084 3544 2831 
Q 3344 2578 2956 2516 
Q 3422 2416 3680 2098 
Q 3938 1781 3938 1306 
Q 3938 681 3513 340 
Q 3088 0 2303 0 
L 628 0 
L 628 4666 
z
" transform="scale(0.015625)"/>
      </defs>
      <use xlink:href="#DejaVuSans-58"/>
      <use xlink:href="#DejaVuSans-47" x="68.505859"/>
      <use xlink:href="#DejaVuSans-42" x="145.996094"/>
      <use xlink:href="#DejaVuSans-6f" x="214.599609"/>
      <use xlink:href="#DejaVuSans-6f" x="275.78125"/>
      <use xlink:href="#DejaVuSans-73" x="336.962891"/>
      <use xlink:href="#DejaVuSans-74" x="389.0625"/>
      <use xlink:href="#DejaVuSans-20" x="428.271484"/>
      <use xlink:href="#DejaVuSans-46" x="460.058594"/>
      <use xlink:href="#DejaVuSans-6f" x="513.953125"/>
      <use xlink:href="#DejaVuSans-72" x="575.134766"/>
      <use xlink:href="#DejaVuSans-65" x="613.998047"/>
      <use xlink:href="#DejaVuSans-63" x="675.521484"/>
      <use xlink:href="#DejaVuSans-61" x="730.501953"/>
      <use xlink:href="#DejaVuSans-73" x="791.78125"/>
      <use xlink:href="#DejaVuSans-74" x="843.880859"/>
      <use xlink:href="#DejaVuSans-20" x="883.089844"/>
      <use xlink:href="#DejaVuSans-4c" x="914.876953"/>
      <use xlink:href="#DejaVuSans-6f" x="968.839844"/>
      <use xlink:href="#DejaVuSans-61" x="1030.021484"/>
      <use xlink:href="#DejaVuSans-64" x="1091.300781"/>
     </g>
    </g>
    <g id="line2d_40">
     <path d="M 799.40625 144.367187 
L 809.40625 144.367187 
L 819.40625 144.367187 
" style="fill: none; stroke: #e377c2; stroke-width: 3; stroke-linecap: square"/>
    </g>
    <g id="text_22">
     <!-- Revised KAN Forecast Load -->
     <g transform="translate(827.40625 147.867187) scale(0.1 -0.1)">
      <defs>
       <path id="DejaVuSans-52" d="M 2841 2188 
Q 3044 2119 3236 1894 
Q 3428 1669 3622 1275 
L 4263 0 
L 3584 0 
L 2988 1197 
Q 2756 1666 2539 1819 
Q 2322 1972 1947 1972 
L 1259 1972 
L 1259 0 
L 628 0 
L 628 4666 
L 2053 4666 
Q 2853 4666 3247 4331 
Q 3641 3997 3641 3322 
Q 3641 2881 3436 2590 
Q 3231 2300 2841 2188 
z
M 1259 4147 
L 1259 2491 
L 2053 2491 
Q 2509 2491 2742 2702 
Q 2975 2913 2975 3322 
Q 2975 3731 2742 3939 
Q 2509 4147 2053 4147 
L 1259 4147 
z
" transform="scale(0.015625)"/>
       <path id="DejaVuSans-76" d="M 191 3500 
L 800 3500 
L 1894 563 
L 2988 3500 
L 3597 3500 
L 2284 0 
L 1503 0 
L 191 3500 
z
" transform="scale(0.015625)"/>
       <path id="DejaVuSans-69" d="M 603 3500 
L 1178 3500 
L 1178 0 
L 603 0 
L 603 3500 
z
M 603 4863 
L 1178 4863 
L 1178 4134 
L 603 4134 
L 603 4863 
z
" transform="scale(0.015625)"/>
      </defs>
      <use xlink:href="#DejaVuSans-52"/>
      <use xlink:href="#DejaVuSans-65" x="64.982422"/>
      <use xlink:href="#DejaVuSans-76" x="126.505859"/>
      <use xlink:href="#DejaVuSans-69" x="185.685547"/>
      <use xlink:href="#DejaVuSans-73" x="213.46875"/>
      <use xlink:href="#DejaVuSans-65" x="265.568359"/>
      <use xlink:href="#DejaVuSans-64" x="327.091797"/>
      <use xlink:href="#DejaVuSans-20" x="390.568359"/>
      <use xlink:href="#DejaVuSans-4b" x="422.355469"/>
      <use xlink:href="#DejaVuSans-41" x="486.181641"/>
      <use xlink:href="#DejaVuSans-4e" x="554.589844"/>
      <use xlink:href="#DejaVuSans-20" x="629.394531"/>
      <use xlink:href="#DejaVuSans-46" x="661.181641"/>
      <use xlink:href="#DejaVuSans-6f" x="715.076172"/>
      <use xlink:href="#DejaVuSans-72" x="776.257812"/>
      <use xlink:href="#DejaVuSans-65" x="815.121094"/>
      <use xlink:href="#DejaVuSans-63" x="876.644531"/>
      <use xlink:href="#DejaVuSans-61" x="931.625"/>
      <use xlink:href="#DejaVuSans-73" x="992.904297"/>
      <use xlink:href="#DejaVuSans-74" x="1045.003906"/>
      <use xlink:href="#DejaVuSans-20" x="1084.212891"/>
      <use xlink:href="#DejaVuSans-4c" x="1116"/>
      <use xlink:href="#DejaVuSans-6f" x="1169.962891"/>
      <use xlink:href="#DejaVuSans-61" x="1231.144531"/>
      <use xlink:href="#DejaVuSans-64" x="1292.423828"/>
     </g>
    </g>
   </g>
  </g>
 </g>
 <defs>
  <clipPath id="p895d93cb60">
   <rect x="135" y="43.2" width="837" height="277.2"/>
  </clipPath>
 </defs>
</svg>
