<?xml version="1.0" encoding="utf-8" standalone="no"?>
<!DOCTYPE svg PUBLIC "-//W3C//DTD SVG 1.1//EN"
  "http://www.w3.org/Graphics/SVG/1.1/DTD/svg11.dtd">
<svg xmlns:xlink="http://www.w3.org/1999/xlink" width="1080pt" height="360pt" viewBox="0 0 1080 360" xmlns="http://www.w3.org/2000/svg" version="1.1">
 <metadata>
  <rdf:RDF xmlns:dc="http://purl.org/dc/elements/1.1/" xmlns:cc="http://creativecommons.org/ns#" xmlns:rdf="http://www.w3.org/1999/02/22-rdf-syntax-ns#">
   <cc:Work>
    <dc:type rdf:resource="http://purl.org/dc/dcmitype/StillImage"/>
    <dc:date>2024-09-03T20:15:12.029790</dc:date>
    <dc:format>image/svg+xml</dc:format>
    <dc:creator>
     <cc:Agent>
      <dc:title>Matplotlib v3.6.2, https://matplotlib.org/</dc:title>
     </cc:Agent>
    </dc:creator>
   </cc:Work>
  </rdf:RDF>
 </metadata>
 <defs>
  <style type="text/css">*{stroke-linejoin: round; stroke-linecap: butt}</style>
 </defs>
 <g id="figure_1">
  <g id="patch_1">
   <path d="M 0 360 
L 1080 360 
L 1080 0 
L 0 0 
z
" style="fill: #ffffff"/>
  </g>
  <g id="axes_1">
   <g id="patch_2">
    <path d="M 135 320.4 
L 972 320.4 
L 972 43.2 
L 135 43.2 
z
" style="fill: #ffffff"/>
   </g>
   <g id="matplotlib.axis_1">
    <g id="xtick_1">
     <g id="line2d_1">
      <path d="M 173.045455 320.4 
L 173.045455 43.2 
" clip-path="url(#p2ed11ac3d9)" style="fill: none; stroke: #b0b0b0; stroke-width: 0.8; stroke-linecap: square"/>
     </g>
     <g id="line2d_2">
      <defs>
       <path id="m3076755b99" d="M 0 0 
L 0 3.5 
" style="stroke: #000000; stroke-width: 0.8"/>
      </defs>
      <g>
       <use xlink:href="#m3076755b99" x="173.045455" y="320.4" style="stroke: #000000; stroke-width: 0.8"/>
      </g>
     </g>
     <g id="text_1">
      <!-- 0 -->
      <g transform="translate(168.27358 338.797656) scale(0.15 -0.15)">
       <defs>
        <path id="DejaVuSans-30" d="M 2034 4250 
Q 1547 4250 1301 3770 
Q 1056 3291 1056 2328 
Q 1056 1369 1301 889 
Q 1547 409 2034 409 
Q 2525 409 2770 889 
Q 3016 1369 3016 2328 
Q 3016 3291 2770 3770 
Q 2525 4250 2034 4250 
z
M 2034 4750 
Q 2819 4750 3233 4129 
Q 3647 3509 3647 2328 
Q 3647 1150 3233 529 
Q 2819 -91 2034 -91 
Q 1250 -91 836 529 
Q 422 1150 422 2328 
Q 422 3509 836 4129 
Q 1250 4750 2034 4750 
z
" transform="scale(0.015625)"/>
       </defs>
       <use xlink:href="#DejaVuSans-30"/>
      </g>
     </g>
    </g>
    <g id="xtick_2">
     <g id="line2d_3">
      <path d="M 332.231457 320.4 
L 332.231457 43.2 
" clip-path="url(#p2ed11ac3d9)" style="fill: none; stroke: #b0b0b0; stroke-width: 0.8; stroke-linecap: square"/>
     </g>
     <g id="line2d_4">
      <g>
       <use xlink:href="#m3076755b99" x="332.231457" y="320.4" style="stroke: #000000; stroke-width: 0.8"/>
      </g>
     </g>
     <g id="text_2">
      <!-- 50 -->
      <g transform="translate(322.687707 338.797656) scale(0.15 -0.15)">
       <defs>
        <path id="DejaVuSans-35" d="M 691 4666 
L 3169 4666 
L 3169 4134 
L 1269 4134 
L 1269 2991 
Q 1406 3038 1543 3061 
Q 1681 3084 1819 3084 
Q 2600 3084 3056 2656 
Q 3513 2228 3513 1497 
Q 3513 744 3044 326 
Q 2575 -91 1722 -91 
Q 1428 -91 1123 -41 
Q 819 9 494 109 
L 494 744 
Q 775 591 1075 516 
Q 1375 441 1709 441 
Q 2250 441 2565 725 
Q 2881 1009 2881 1497 
Q 2881 1984 2565 2268 
Q 2250 2553 1709 2553 
Q 1456 2553 1204 2497 
Q 953 2441 691 2322 
L 691 4666 
z
" transform="scale(0.015625)"/>
       </defs>
       <use xlink:href="#DejaVuSans-35"/>
       <use xlink:href="#DejaVuSans-30" x="63.623047"/>
      </g>
     </g>
    </g>
    <g id="xtick_3">
     <g id="line2d_5">
      <path d="M 491.417459 320.4 
L 491.417459 43.2 
" clip-path="url(#p2ed11ac3d9)" style="fill: none; stroke: #b0b0b0; stroke-width: 0.8; stroke-linecap: square"/>
     </g>
     <g id="line2d_6">
      <g>
       <use xlink:href="#m3076755b99" x="491.417459" y="320.4" style="stroke: #000000; stroke-width: 0.8"/>
      </g>
     </g>
     <g id="text_3">
      <!-- 100 -->
      <g transform="translate(477.101834 338.797656) scale(0.15 -0.15)">
       <defs>
        <path id="DejaVuSans-31" d="M 794 531 
L 1825 531 
L 1825 4091 
L 703 3866 
L 703 4441 
L 1819 4666 
L 2450 4666 
L 2450 531 
L 3481 531 
L 3481 0 
L 794 0 
L 794 531 
z
" transform="scale(0.015625)"/>
       </defs>
       <use xlink:href="#DejaVuSans-31"/>
       <use xlink:href="#DejaVuSans-30" x="63.623047"/>
       <use xlink:href="#DejaVuSans-30" x="127.246094"/>
      </g>
     </g>
    </g>
    <g id="xtick_4">
     <g id="line2d_7">
      <path d="M 650.603461 320.4 
L 650.603461 43.2 
" clip-path="url(#p2ed11ac3d9)" style="fill: none; stroke: #b0b0b0; stroke-width: 0.8; stroke-linecap: square"/>
     </g>
     <g id="line2d_8">
      <g>
       <use xlink:href="#m3076755b99" x="650.603461" y="320.4" style="stroke: #000000; stroke-width: 0.8"/>
      </g>
     </g>
     <g id="text_4">
      <!-- 150 -->
      <g transform="translate(636.287836 338.797656) scale(0.15 -0.15)">
       <use xlink:href="#DejaVuSans-31"/>
       <use xlink:href="#DejaVuSans-35" x="63.623047"/>
       <use xlink:href="#DejaVuSans-30" x="127.246094"/>
      </g>
     </g>
    </g>
    <g id="xtick_5">
     <g id="line2d_9">
      <path d="M 809.789464 320.4 
L 809.789464 43.2 
" clip-path="url(#p2ed11ac3d9)" style="fill: none; stroke: #b0b0b0; stroke-width: 0.8; stroke-linecap: square"/>
     </g>
     <g id="line2d_10">
      <g>
       <use xlink:href="#m3076755b99" x="809.789464" y="320.4" style="stroke: #000000; stroke-width: 0.8"/>
      </g>
     </g>
     <g id="text_5">
      <!-- 200 -->
      <g transform="translate(795.473839 338.797656) scale(0.15 -0.15)">
       <defs>
        <path id="DejaVuSans-32" d="M 1228 531 
L 3431 531 
L 3431 0 
L 469 0 
L 469 531 
Q 828 903 1448 1529 
Q 2069 2156 2228 2338 
Q 2531 2678 2651 2914 
Q 2772 3150 2772 3378 
Q 2772 3750 2511 3984 
Q 2250 4219 1831 4219 
Q 1534 4219 1204 4116 
Q 875 4013 500 3803 
L 500 4441 
Q 881 4594 1212 4672 
Q 1544 4750 1819 4750 
Q 2544 4750 2975 4387 
Q 3406 4025 3406 3419 
Q 3406 3131 3298 2873 
Q 3191 2616 2906 2266 
Q 2828 2175 2409 1742 
Q 1991 1309 1228 531 
z
" transform="scale(0.015625)"/>
       </defs>
       <use xlink:href="#DejaVuSans-32"/>
       <use xlink:href="#DejaVuSans-30" x="63.623047"/>
       <use xlink:href="#DejaVuSans-30" x="127.246094"/>
      </g>
     </g>
    </g>
    <g id="xtick_6">
     <g id="line2d_11">
      <path d="M 968.975466 320.4 
L 968.975466 43.2 
" clip-path="url(#p2ed11ac3d9)" style="fill: none; stroke: #b0b0b0; stroke-width: 0.8; stroke-linecap: square"/>
     </g>
     <g id="line2d_12">
      <g>
       <use xlink:href="#m3076755b99" x="968.975466" y="320.4" style="stroke: #000000; stroke-width: 0.8"/>
      </g>
     </g>
     <g id="text_6">
      <!-- 250 -->
      <g transform="translate(954.659841 338.797656) scale(0.15 -0.15)">
       <use xlink:href="#DejaVuSans-32"/>
       <use xlink:href="#DejaVuSans-35" x="63.623047"/>
       <use xlink:href="#DejaVuSans-30" x="127.246094"/>
      </g>
     </g>
    </g>
    <g id="text_7">
     <!-- Hours -->
     <g transform="translate(531.527344 357.314844) scale(0.15 -0.15)">
      <defs>
       <path id="DejaVuSans-48" d="M 628 4666 
L 1259 4666 
L 1259 2753 
L 3553 2753 
L 3553 4666 
L 4184 4666 
L 4184 0 
L 3553 0 
L 3553 2222 
L 1259 2222 
L 1259 0 
L 628 0 
L 628 4666 
z
" transform="scale(0.015625)"/>
       <path id="DejaVuSans-6f" d="M 1959 3097 
Q 1497 3097 1228 2736 
Q 959 2375 959 1747 
Q 959 1119 1226 758 
Q 1494 397 1959 397 
Q 2419 397 2687 759 
Q 2956 1122 2956 1747 
Q 2956 2369 2687 2733 
Q 2419 3097 1959 3097 
z
M 1959 3584 
Q 2709 3584 3137 3096 
Q 3566 2609 3566 1747 
Q 3566 888 3137 398 
Q 2709 -91 1959 -91 
Q 1206 -91 779 398 
Q 353 888 353 1747 
Q 353 2609 779 3096 
Q 1206 3584 1959 3584 
z
" transform="scale(0.015625)"/>
       <path id="DejaVuSans-75" d="M 544 1381 
L 544 3500 
L 1119 3500 
L 1119 1403 
Q 1119 906 1312 657 
Q 1506 409 1894 409 
Q 2359 409 2629 706 
Q 2900 1003 2900 1516 
L 2900 3500 
L 3475 3500 
L 3475 0 
L 2900 0 
L 2900 538 
Q 2691 219 2414 64 
Q 2138 -91 1772 -91 
Q 1169 -91 856 284 
Q 544 659 544 1381 
z
M 1991 3584 
L 1991 3584 
z
" transform="scale(0.015625)"/>
       <path id="DejaVuSans-72" d="M 2631 2963 
Q 2534 3019 2420 3045 
Q 2306 3072 2169 3072 
Q 1681 3072 1420 2755 
Q 1159 2438 1159 1844 
L 1159 0 
L 581 0 
L 581 3500 
L 1159 3500 
L 1159 2956 
Q 1341 3275 1631 3429 
Q 1922 3584 2338 3584 
Q 2397 3584 2469 3576 
Q 2541 3569 2628 3553 
L 2631 2963 
z
" transform="scale(0.015625)"/>
       <path id="DejaVuSans-73" d="M 2834 3397 
L 2834 2853 
Q 2591 2978 2328 3040 
Q 2066 3103 1784 3103 
Q 1356 3103 1142 2972 
Q 928 2841 928 2578 
Q 928 2378 1081 2264 
Q 1234 2150 1697 2047 
L 1894 2003 
Q 2506 1872 2764 1633 
Q 3022 1394 3022 966 
Q 3022 478 2636 193 
Q 2250 -91 1575 -91 
Q 1294 -91 989 -36 
Q 684 19 347 128 
L 347 722 
Q 666 556 975 473 
Q 1284 391 1588 391 
Q 1994 391 2212 530 
Q 2431 669 2431 922 
Q 2431 1156 2273 1281 
Q 2116 1406 1581 1522 
L 1381 1569 
Q 847 1681 609 1914 
Q 372 2147 372 2553 
Q 372 3047 722 3315 
Q 1072 3584 1716 3584 
Q 2034 3584 2315 3537 
Q 2597 3491 2834 3397 
z
" transform="scale(0.015625)"/>
      </defs>
      <use xlink:href="#DejaVuSans-48"/>
      <use xlink:href="#DejaVuSans-6f" x="75.195312"/>
      <use xlink:href="#DejaVuSans-75" x="136.376953"/>
      <use xlink:href="#DejaVuSans-72" x="199.755859"/>
      <use xlink:href="#DejaVuSans-73" x="240.869141"/>
     </g>
    </g>
   </g>
   <g id="matplotlib.axis_2">
    <g id="ytick_1">
     <g id="line2d_13">
      <path d="M 135 290.797617 
L 972 290.797617 
" clip-path="url(#p2ed11ac3d9)" style="fill: none; stroke: #b0b0b0; stroke-width: 0.8; stroke-linecap: square"/>
     </g>
     <g id="line2d_14">
      <defs>
       <path id="md389b6879a" d="M 0 0 
L -3.5 0 
" style="stroke: #000000; stroke-width: 0.8"/>
      </defs>
      <g>
       <use xlink:href="#md389b6879a" x="135" y="290.797617" style="stroke: #000000; stroke-width: 0.8"/>
      </g>
     </g>
     <g id="text_8">
      <!-- 5500 -->
      <g transform="translate(89.825 296.496445) scale(0.15 -0.15)">
       <use xlink:href="#DejaVuSans-35"/>
       <use xlink:href="#DejaVuSans-35" x="63.623047"/>
       <use xlink:href="#DejaVuSans-30" x="127.246094"/>
       <use xlink:href="#DejaVuSans-30" x="190.869141"/>
      </g>
     </g>
    </g>
    <g id="ytick_2">
     <g id="line2d_15">
      <path d="M 135 245.882171 
L 972 245.882171 
" clip-path="url(#p2ed11ac3d9)" style="fill: none; stroke: #b0b0b0; stroke-width: 0.8; stroke-linecap: square"/>
     </g>
     <g id="line2d_16">
      <g>
       <use xlink:href="#md389b6879a" x="135" y="245.882171" style="stroke: #000000; stroke-width: 0.8"/>
      </g>
     </g>
     <g id="text_9">
      <!-- 6000 -->
      <g transform="translate(89.825 251.580999) scale(0.15 -0.15)">
       <defs>
        <path id="DejaVuSans-36" d="M 2113 2584 
Q 1688 2584 1439 2293 
Q 1191 2003 1191 1497 
Q 1191 994 1439 701 
Q 1688 409 2113 409 
Q 2538 409 2786 701 
Q 3034 994 3034 1497 
Q 3034 2003 2786 2293 
Q 2538 2584 2113 2584 
z
M 3366 4563 
L 3366 3988 
Q 3128 4100 2886 4159 
Q 2644 4219 2406 4219 
Q 1781 4219 1451 3797 
Q 1122 3375 1075 2522 
Q 1259 2794 1537 2939 
Q 1816 3084 2150 3084 
Q 2853 3084 3261 2657 
Q 3669 2231 3669 1497 
Q 3669 778 3244 343 
Q 2819 -91 2113 -91 
Q 1303 -91 875 529 
Q 447 1150 447 2328 
Q 447 3434 972 4092 
Q 1497 4750 2381 4750 
Q 2619 4750 2861 4703 
Q 3103 4656 3366 4563 
z
" transform="scale(0.015625)"/>
       </defs>
       <use xlink:href="#DejaVuSans-36"/>
       <use xlink:href="#DejaVuSans-30" x="63.623047"/>
       <use xlink:href="#DejaVuSans-30" x="127.246094"/>
       <use xlink:href="#DejaVuSans-30" x="190.869141"/>
      </g>
     </g>
    </g>
    <g id="ytick_3">
     <g id="line2d_17">
      <path d="M 135 200.966724 
L 972 200.966724 
" clip-path="url(#p2ed11ac3d9)" style="fill: none; stroke: #b0b0b0; stroke-width: 0.8; stroke-linecap: square"/>
     </g>
     <g id="line2d_18">
      <g>
       <use xlink:href="#md389b6879a" x="135" y="200.966724" style="stroke: #000000; stroke-width: 0.8"/>
      </g>
     </g>
     <g id="text_10">
      <!-- 6500 -->
      <g transform="translate(89.825 206.665552) scale(0.15 -0.15)">
       <use xlink:href="#DejaVuSans-36"/>
       <use xlink:href="#DejaVuSans-35" x="63.623047"/>
       <use xlink:href="#DejaVuSans-30" x="127.246094"/>
       <use xlink:href="#DejaVuSans-30" x="190.869141"/>
      </g>
     </g>
    </g>
    <g id="ytick_4">
     <g id="line2d_19">
      <path d="M 135 156.051277 
L 972 156.051277 
" clip-path="url(#p2ed11ac3d9)" style="fill: none; stroke: #b0b0b0; stroke-width: 0.8; stroke-linecap: square"/>
     </g>
     <g id="line2d_20">
      <g>
       <use xlink:href="#md389b6879a" x="135" y="156.051277" style="stroke: #000000; stroke-width: 0.8"/>
      </g>
     </g>
     <g id="text_11">
      <!-- 7000 -->
      <g transform="translate(89.825 161.750105) scale(0.15 -0.15)">
       <defs>
        <path id="DejaVuSans-37" d="M 525 4666 
L 3525 4666 
L 3525 4397 
L 1831 0 
L 1172 0 
L 2766 4134 
L 525 4134 
L 525 4666 
z
" transform="scale(0.015625)"/>
       </defs>
       <use xlink:href="#DejaVuSans-37"/>
       <use xlink:href="#DejaVuSans-30" x="63.623047"/>
       <use xlink:href="#DejaVuSans-30" x="127.246094"/>
       <use xlink:href="#DejaVuSans-30" x="190.869141"/>
      </g>
     </g>
    </g>
    <g id="ytick_5">
     <g id="line2d_21">
      <path d="M 135 111.135831 
L 972 111.135831 
" clip-path="url(#p2ed11ac3d9)" style="fill: none; stroke: #b0b0b0; stroke-width: 0.8; stroke-linecap: square"/>
     </g>
     <g id="line2d_22">
      <g>
       <use xlink:href="#md389b6879a" x="135" y="111.135831" style="stroke: #000000; stroke-width: 0.8"/>
      </g>
     </g>
     <g id="text_12">
      <!-- 7500 -->
      <g transform="translate(89.825 116.834659) scale(0.15 -0.15)">
       <use xlink:href="#DejaVuSans-37"/>
       <use xlink:href="#DejaVuSans-35" x="63.623047"/>
       <use xlink:href="#DejaVuSans-30" x="127.246094"/>
       <use xlink:href="#DejaVuSans-30" x="190.869141"/>
      </g>
     </g>
    </g>
    <g id="ytick_6">
     <g id="line2d_23">
      <path d="M 135 66.220384 
L 972 66.220384 
" clip-path="url(#p2ed11ac3d9)" style="fill: none; stroke: #b0b0b0; stroke-width: 0.8; stroke-linecap: square"/>
     </g>
     <g id="line2d_24">
      <g>
       <use xlink:href="#md389b6879a" x="135" y="66.220384" style="stroke: #000000; stroke-width: 0.8"/>
      </g>
     </g>
     <g id="text_13">
      <!-- 8000 -->
      <g transform="translate(89.825 71.919212) scale(0.15 -0.15)">
       <defs>
        <path id="DejaVuSans-38" d="M 2034 2216 
Q 1584 2216 1326 1975 
Q 1069 1734 1069 1313 
Q 1069 891 1326 650 
Q 1584 409 2034 409 
Q 2484 409 2743 651 
Q 3003 894 3003 1313 
Q 3003 1734 2745 1975 
Q 2488 2216 2034 2216 
z
M 1403 2484 
Q 997 2584 770 2862 
Q 544 3141 544 3541 
Q 544 4100 942 4425 
Q 1341 4750 2034 4750 
Q 2731 4750 3128 4425 
Q 3525 4100 3525 3541 
Q 3525 3141 3298 2862 
Q 3072 2584 2669 2484 
Q 3125 2378 3379 2068 
Q 3634 1759 3634 1313 
Q 3634 634 3220 271 
Q 2806 -91 2034 -91 
Q 1263 -91 848 271 
Q 434 634 434 1313 
Q 434 1759 690 2068 
Q 947 2378 1403 2484 
z
M 1172 3481 
Q 1172 3119 1398 2916 
Q 1625 2713 2034 2713 
Q 2441 2713 2670 2916 
Q 2900 3119 2900 3481 
Q 2900 3844 2670 4047 
Q 2441 4250 2034 4250 
Q 1625 4250 1398 4047 
Q 1172 3844 1172 3481 
z
" transform="scale(0.015625)"/>
       </defs>
       <use xlink:href="#DejaVuSans-38"/>
       <use xlink:href="#DejaVuSans-30" x="63.623047"/>
       <use xlink:href="#DejaVuSans-30" x="127.246094"/>
       <use xlink:href="#DejaVuSans-30" x="190.869141"/>
      </g>
     </g>
    </g>
    <g id="text_14">
     <!-- MW -->
     <g transform="translate(82.705469 195.686719) rotate(-90) scale(0.15 -0.15)">
      <defs>
       <path id="DejaVuSans-4d" d="M 628 4666 
L 1569 4666 
L 2759 1491 
L 3956 4666 
L 4897 4666 
L 4897 0 
L 4281 0 
L 4281 4097 
L 3078 897 
L 2444 897 
L 1241 4097 
L 1241 0 
L 628 0 
L 628 4666 
z
" transform="scale(0.015625)"/>
       <path id="DejaVuSans-57" d="M 213 4666 
L 850 4666 
L 1831 722 
L 2809 4666 
L 3519 4666 
L 4500 722 
L 5478 4666 
L 6119 4666 
L 4947 0 
L 4153 0 
L 3169 4050 
L 2175 0 
L 1381 0 
L 213 4666 
z
" transform="scale(0.015625)"/>
      </defs>
      <use xlink:href="#DejaVuSans-4d"/>
      <use xlink:href="#DejaVuSans-57" x="86.279297"/>
     </g>
    </g>
   </g>
   <g id="line2d_25">
    <path d="M 173.045455 239.773669 
L 176.229175 235.910941 
L 179.412895 220.63969 
L 182.596615 231.599058 
L 185.780335 248.127941 
L 188.964055 238.066883 
L 192.147775 235.641451 
L 195.331495 169.436081 
L 198.515215 124.251142 
L 201.698935 115.088394 
L 204.882655 107.901919 
L 208.066375 88.678105 
L 211.250095 131.886767 
L 214.433815 131.437612 
L 217.617535 146.708864 
L 220.801255 156.410601 
L 223.984975 167.190309 
L 227.168695 183.359869 
L 230.352415 176.173397 
L 233.536135 190.726002 
L 236.719855 208.332858 
L 239.903576 206.715902 
L 243.087296 218.663411 
L 246.271016 252.439824 
L 249.454736 209.320996 
L 252.638456 206.895562 
L 255.822176 221.358336 
L 259.005896 227.377005 
L 262.189616 234.65331 
L 265.373336 213.812542 
L 268.557056 231.329567 
L 271.740776 154.883475 
L 274.924496 106.195129 
L 278.108216 96.223901 
L 281.291936 79.784848 
L 284.475656 59.842392 
L 287.659376 111.495153 
L 290.843096 114.279914 
L 294.026816 122.00537 
L 297.210536 135.12068 
L 300.394256 146.888524 
L 303.577976 167.280139 
L 306.761696 164.585212 
L 309.945417 181.47342 
L 313.129137 200.697231 
L 316.312857 206.626069 
L 319.496577 215.968484 
L 322.680297 257.560184 
L 325.864017 229.712611 
L 329.047737 214.171865 
L 332.231457 222.795631 
L 335.415177 223.244786 
L 338.598897 240.132994 
L 341.782617 226.74819 
L 344.966337 231.509228 
L 348.150057 160.902145 
L 351.333777 113.112113 
L 354.517497 101.973076 
L 357.701217 86.701824 
L 360.884937 75.742456 
L 364.068657 119.310439 
L 367.252377 110.77651 
L 370.436097 121.19689 
L 373.619817 143.025796 
L 376.803537 171.771683 
L 379.987258 185.785303 
L 383.170978 187.851413 
L 386.354698 200.068415 
L 389.538418 218.573578 
L 392.722138 220.100704 
L 395.905858 225.849883 
L 399.089578 252.260164 
L 402.273298 270.855162 
L 405.457018 243.726228 
L 408.640738 233.305845 
L 411.824458 246.241494 
L 415.008178 265.195809 
L 418.191898 262.680547 
L 421.375618 251.451688 
L 424.559338 262.680547 
L 427.743058 284.419623 
L 430.926778 260.524605 
L 434.110498 235.012631 
L 437.294218 223.244786 
L 440.477938 221.987151 
L 443.661658 191.444649 
L 446.845378 187.132766 
L 450.029099 207.075224 
L 453.212819 216.687129 
L 456.396539 244.624538 
L 459.580259 253.068644 
L 462.763979 266.9026 
L 465.947699 278.131459 
L 469.131419 275.256875 
L 472.315139 266.812769 
L 475.498859 284.689114 
L 478.682579 270.495833 
L 481.866299 261.063594 
L 485.050019 266.9026 
L 488.233739 281.365371 
L 491.417459 292.145079 
L 494.601179 292.23491 
L 497.784899 301.397665 
L 500.968619 298.972225 
L 504.152339 296.007811 
L 507.336059 270.046682 
L 510.519779 228.005825 
L 513.703499 224.861743 
L 516.887219 207.165055 
L 520.07094 208.153195 
L 523.25466 215.070175 
L 526.43838 223.154956 
L 529.6221 220.100704 
L 532.80582 215.519328 
L 535.98954 275.526366 
L 539.17326 291.516267 
L 542.35698 299.062063 
L 545.5407 279.748419 
L 548.72442 272.741605 
L 551.90814 296.906121 
L 555.09186 307.506161 
L 558.27558 303.284108 
L 561.4593 276.963658 
L 564.64302 279.658589 
L 567.82674 279.928079 
L 571.01046 275.885687 
L 574.19418 251.900839 
L 577.3779 187.671752 
L 580.56162 142.30715 
L 583.74534 137.456282 
L 586.92906 122.724019 
L 590.112781 93.079819 
L 593.296501 121.825709 
L 596.480221 130.000317 
L 602.847661 140.241039 
L 606.031381 151.559732 
L 609.215101 178.598832 
L 612.398821 188.48023 
L 615.582541 206.715902 
L 618.766261 228.63464 
L 621.949981 228.904131 
L 625.133701 230.161762 
L 628.317421 264.656828 
L 631.501141 260.075454 
L 634.684861 259.895793 
L 637.868581 243.456737 
L 641.052301 248.217775 
L 644.236021 259.716125 
L 647.419741 247.76862 
L 650.603461 237.258407 
L 653.787181 185.875134 
L 656.970901 145.990218 
L 660.154622 140.869855 
L 663.338342 123.981651 
L 666.522062 98.829001 
L 669.705782 135.480001 
L 672.889502 130.000317 
L 676.073222 130.000317 
L 679.256942 141.498674 
L 682.440662 155.781785 
L 685.624382 171.771683 
L 688.808102 172.580161 
L 691.991822 195.936194 
L 695.175542 221.088845 
L 698.359262 216.866792 
L 701.542982 220.549859 
L 704.726702 263.219536 
L 707.910422 269.328032 
L 711.094142 246.780479 
L 714.277862 236.809252 
L 717.461582 242.199106 
L 720.645302 268.250061 
L 723.829022 268.789051 
L 727.012742 249.026251 
L 730.196463 177.071707 
L 733.380183 128.563025 
L 736.563903 108.89006 
L 739.747623 84.276392 
L 742.931343 55.8 
L 746.115063 100.895105 
L 749.298783 98.559503 
L 752.482503 105.745978 
L 755.666223 120.927399 
L 762.033663 146.798694 
L 765.217383 154.973305 
L 768.401103 178.41917 
L 771.584823 204.829453 
L 774.768543 210.57863 
L 777.952263 224.143093 
L 781.135983 262.590717 
L 784.319703 263.219536 
L 787.503423 222.346476 
L 790.687143 230.521087 
L 793.870863 245.433018 
L 797.054583 262.231395 
L 800.238304 253.338135 
L 803.422024 240.132994 
L 806.605744 169.795404 
L 809.789464 122.81385 
L 812.973184 112.393463 
L 816.156904 91.642527 
L 819.340624 69.993281 
L 822.524344 122.454521 
L 825.708064 129.19184 
L 828.891784 143.654616 
L 832.075504 151.919057 
L 835.259224 163.956397 
L 838.442944 185.066656 
L 841.626664 189.288708 
L 844.810384 205.997254 
L 847.994104 224.502418 
L 851.177824 223.514277 
L 854.361544 224.412587 
L 857.545264 263.399197 
L 860.728984 250.104222 
L 863.912704 238.156713 
L 867.096424 227.377005 
L 870.280145 234.65331 
L 873.463865 242.378766 
L 876.647585 227.915991 
L 879.831305 251.272023 
L 883.015025 192.971774 
L 886.198745 161.171637 
L 889.382465 154.52415 
L 892.566185 140.241039 
L 895.749905 122.99351 
L 898.933625 155.961446 
L 902.117345 152.368212 
L 905.301065 165.214028 
L 908.484785 184.43784 
L 911.668505 201.415879 
L 914.852225 213.902372 
L 918.035945 214.261697 
L 921.219665 231.239733 
L 924.403385 249.924562 
L 927.587105 247.319465 
L 930.770825 249.026251 
L 933.954545 278.221289 
L 933.954545 278.221289 
" clip-path="url(#p2ed11ac3d9)" style="fill: none; stroke: #1f77b4; stroke-width: 3; stroke-linecap: square"/>
   </g>
   <g id="line2d_26">
    <path d="M 173.045455 223.354004 
L 176.229175 247.566807 
L 179.412895 247.582948 
L 182.596615 245.262346 
L 185.780335 241.152144 
L 188.964055 229.13814 
L 192.147775 208.795346 
L 195.331495 178.624711 
L 198.515215 138.420605 
L 201.698935 132.99724 
L 204.882655 119.351059 
L 208.066375 126.168513 
L 211.250095 141.988488 
L 214.433815 154.726008 
L 217.617535 168.525051 
L 220.801255 179.420644 
L 223.984975 191.727652 
L 227.168695 122.176784 
L 230.352415 188.596334 
L 233.536135 198.376234 
L 236.719855 213.729685 
L 239.903576 213.784294 
L 243.087296 220.258654 
L 246.271016 228.813862 
L 249.454736 232.182345 
L 252.638456 260.316127 
L 259.005896 250.15484 
L 262.189616 241.697139 
L 265.373336 231.635772 
L 268.557056 210.862729 
L 271.740776 191.185859 
L 274.924496 167.006611 
L 278.108216 150.431978 
L 281.291936 144.684906 
L 284.475656 140.175685 
L 287.659376 149.980762 
L 290.843096 150.720287 
L 294.026816 169.756366 
L 297.210536 184.604562 
L 300.394256 196.378857 
L 303.577976 199.014657 
L 306.761696 206.11621 
L 309.945417 216.272013 
L 313.129137 213.834166 
L 316.312857 221.929254 
L 319.496577 221.613486 
L 322.680297 229.468645 
L 325.864017 230.925546 
L 329.047737 256.414799 
L 332.231457 252.31394 
L 335.415177 250.358451 
L 338.598897 245.220896 
L 341.782617 236.29746 
L 344.966337 226.726259 
L 348.150057 208.912679 
L 351.333777 184.484422 
L 354.517497 175.73556 
L 357.701217 165.494136 
L 360.884937 154.07184 
L 364.068657 175.699899 
L 367.252377 175.794511 
L 370.436097 188.257802 
L 373.619817 198.860611 
L 376.803537 203.698408 
L 379.987258 214.640319 
L 383.170978 223.214696 
L 386.354698 225.865891 
L 389.538418 237.649968 
L 392.722138 235.671012 
L 395.905858 232.5368 
L 399.089578 237.749317 
L 402.273298 241.736221 
L 405.457018 261.85992 
L 408.640738 262.185644 
L 411.824458 258.566091 
L 415.008178 257.891921 
L 418.191898 252.064712 
L 421.375618 242.155461 
L 424.559338 239.188015 
L 427.743058 215.733686 
L 430.926778 204.707953 
L 434.110498 197.195274 
L 437.294218 193.769111 
L 440.477938 198.713451 
L 443.661658 231.775387 
L 446.845378 216.839422 
L 450.029099 223.647621 
L 453.212819 228.588934 
L 456.396539 243.892469 
L 459.580259 246.108108 
L 462.763979 258.180801 
L 465.947699 255.998366 
L 469.131419 257.925037 
L 472.315139 263.880808 
L 475.498859 252.999207 
L 478.682579 251.148507 
L 481.866299 265.061242 
L 485.050019 267.420268 
L 488.233739 264.458787 
L 491.417459 259.691346 
L 494.601179 260.058696 
L 497.784899 255.516709 
L 500.968619 248.952255 
L 504.152339 236.847367 
L 507.336059 232.937662 
L 510.519779 220.389277 
L 513.703499 230.920984 
L 516.887219 251.43822 
L 520.07094 229.621989 
L 523.25466 213.123502 
L 526.43838 197.645876 
L 529.6221 230.313003 
L 532.80582 259.546555 
L 535.98954 270.817086 
L 539.17326 255.10225 
L 542.35698 256.531562 
L 545.5407 260.499385 
L 548.72442 263.992833 
L 551.90814 262.132483 
L 555.09186 277.080993 
L 558.27558 238.00451 
L 561.4593 235.212559 
L 564.64302 216.477773 
L 567.82674 218.835922 
L 571.01046 208.918205 
L 574.19418 172.147017 
L 577.3779 145.093005 
L 580.56162 119.802231 
L 583.74534 107.096028 
L 586.92906 111.585687 
L 590.112781 119.500411 
L 593.296501 129.451902 
L 596.480221 147.884693 
L 599.663941 157.708455 
L 602.847661 165.753145 
L 606.031381 169.100092 
L 609.215101 175.821925 
L 612.398821 184.842254 
L 615.582541 185.007836 
L 618.766261 186.83814 
L 621.949981 199.926124 
L 625.133701 208.2743 
L 631.501141 225.89063 
L 634.684861 236.693891 
L 637.868581 246.030164 
L 641.052301 237.558207 
L 644.236021 226.290307 
L 647.419741 210.974271 
L 650.603461 179.291073 
L 653.787181 153.434865 
L 656.970901 137.769857 
L 660.154622 134.454141 
L 663.338342 150.56725 
L 666.522062 170.921668 
L 669.705782 182.888651 
L 672.889502 184.885196 
L 676.073222 182.136625 
L 679.256942 197.053904 
L 682.440662 194.223135 
L 685.624382 193.907893 
L 688.808102 198.861269 
L 691.991822 198.710337 
L 695.175542 215.49902 
L 698.359262 219.239591 
L 701.542982 232.290116 
L 704.726702 233.811013 
L 707.910422 235.938136 
L 711.094142 262.756211 
L 714.277862 256.183599 
L 717.461582 254.167842 
L 720.645302 248.529901 
L 723.829022 243.161496 
L 727.012742 220.416033 
L 730.196463 196.024314 
L 733.380183 155.782793 
L 736.563903 147.038186 
L 739.747623 148.749227 
L 742.931343 143.69567 
L 746.115063 138.128084 
L 749.298783 191.142654 
L 752.482503 167.593407 
L 755.666223 158.983107 
L 758.849943 172.610339 
L 762.033663 198.145472 
L 765.217383 206.016992 
L 768.401103 202.555915 
L 771.584823 201.789106 
L 774.768543 218.624855 
L 777.952263 222.753698 
L 781.135983 225.556527 
L 784.319703 228.805923 
L 787.503423 252.972934 
L 790.687143 250.941913 
L 793.870863 251.386638 
L 797.054583 246.576562 
L 800.238304 238.488009 
L 803.422024 225.594776 
L 806.605744 200.986725 
L 809.789464 183.735071 
L 812.973184 156.613641 
L 816.156904 144.316722 
L 819.340624 166.052772 
L 822.524344 176.0919 
L 825.708064 194.402753 
L 828.891784 203.278992 
L 832.075504 207.189838 
L 835.259224 215.822289 
L 838.442944 221.931974 
L 841.626664 227.305949 
L 844.810384 230.249358 
L 847.994104 240.433322 
L 851.177824 245.278619 
L 854.361544 247.336571 
L 857.545264 246.794867 
L 860.728984 246.501381 
L 863.912704 282.743453 
L 867.096424 266.267379 
L 870.280145 269.803462 
L 873.463865 260.534256 
L 876.647585 261.169389 
L 883.015025 216.782663 
L 886.198745 204.633561 
L 889.382465 196.007295 
L 892.566185 195.652051 
L 895.749905 196.67243 
L 898.933625 202.5135 
L 902.117345 202.489814 
L 905.301065 207.62057 
L 908.484785 212.963271 
L 911.668505 218.58722 
L 914.852225 226.504752 
L 918.035945 233.881412 
L 921.219665 238.616966 
L 924.403385 248.148822 
L 927.587105 246.062447 
L 930.770825 248.795753 
L 933.954545 248.654384 
L 933.954545 248.654384 
" clip-path="url(#p2ed11ac3d9)" style="fill: none; stroke: #ff7f0e; stroke-width: 3; stroke-linecap: square"/>
   </g>
   <g id="line2d_27">
    <path d="M 173.045455 167.744514 
L 176.229175 189.860678 
L 179.412895 194.784709 
L 182.596615 200.554721 
L 185.780335 204.556845 
L 188.964055 204.383719 
L 192.147775 193.29228 
L 195.331495 177.229832 
L 198.515215 148.588646 
L 201.698935 158.847746 
L 204.882655 147.774115 
L 208.066375 153.428505 
L 211.250095 166.211029 
L 214.433815 170.823283 
L 217.617535 177.075215 
L 220.801255 180.622351 
L 223.984975 191.903278 
L 227.168695 99.874379 
L 230.352415 173.915519 
L 233.536135 172.106093 
L 236.719855 190.166533 
L 239.903576 179.351999 
L 243.087296 183.943506 
L 246.271016 194.136418 
L 249.454736 190.168419 
L 252.638456 221.711476 
L 255.822176 218.550463 
L 259.005896 214.838974 
L 262.189616 210.273169 
L 265.373336 209.267485 
L 268.557056 198.699283 
L 271.740776 189.470914 
L 274.924496 175.596997 
L 278.108216 168.776122 
L 281.291936 172.736357 
L 284.475656 178.06375 
L 287.659376 185.761047 
L 290.843096 172.051352 
L 294.026816 180.518967 
L 297.210536 186.489958 
L 300.394256 180.06933 
L 303.577976 171.649175 
L 306.761696 170.599627 
L 309.945417 193.28241 
L 313.129137 185.936849 
L 316.312857 192.138777 
L 319.496577 189.324807 
L 322.680297 198.123936 
L 325.864017 193.628224 
L 329.047737 213.860747 
L 332.231457 212.237782 
L 335.415177 213.889784 
L 338.598897 213.721658 
L 341.782617 209.368764 
L 344.966337 208.621913 
L 348.150057 201.378946 
L 351.333777 186.988458 
L 354.517497 188.954605 
L 357.701217 187.555384 
L 360.884937 178.883062 
L 364.068657 198.288114 
L 367.252377 193.12468 
L 370.436097 195.083239 
L 373.619817 196.347846 
L 376.803537 183.018573 
L 379.987258 183.59721 
L 383.170978 190.489801 
L 386.354698 195.542263 
L 389.538418 213.463789 
L 392.722138 210.45327 
L 395.905858 203.186398 
L 399.089578 212.797865 
L 402.273298 220.177025 
L 405.457018 237.267002 
L 408.640738 239.446761 
L 411.824458 237.798662 
L 415.008178 239.29561 
L 418.191898 235.790494 
L 421.375618 230.288001 
L 424.559338 232.696417 
L 427.743058 215.926199 
L 430.926778 214.619265 
L 434.110498 207.738912 
L 437.294218 209.547241 
L 440.477938 209.233184 
L 443.661658 243.440595 
L 446.845378 225.853259 
L 450.029099 229.845689 
L 453.212819 230.614691 
L 456.396539 236.325532 
L 459.580259 230.631666 
L 462.763979 243.05991 
L 465.947699 240.970728 
L 469.131419 242.825815 
L 472.315139 248.680263 
L 475.498859 238.548759 
L 478.682579 235.827471 
L 481.866299 250.901253 
L 485.050019 256.285185 
L 488.233739 255.873138 
L 491.417459 251.466687 
L 494.601179 253.906508 
L 497.784899 250.024349 
L 500.968619 239.928856 
L 504.152339 222.85796 
L 507.336059 212.35858 
L 510.519779 198.6302 
L 513.703499 205.225796 
L 516.887219 216.310481 
L 520.07094 204.674441 
L 523.25466 197.763384 
L 526.43838 177.577488 
L 529.6221 231.351146 
L 532.80582 259.631605 
L 535.98954 266.803821 
L 539.17326 245.778041 
L 542.35698 245.413102 
L 545.5407 249.082396 
L 548.72442 255.542588 
L 551.90814 249.962239 
L 555.09186 268.606097 
L 558.27558 190.706483 
L 561.4593 191.835379 
L 564.64302 172.506604 
L 567.82674 191.076553 
L 571.01046 196.770376 
L 574.19418 174.75049 
L 577.3779 161.446394 
L 580.56162 141.719127 
L 583.74534 124.994746 
L 586.92906 123.870983 
L 590.112781 121.08969 
L 593.296501 119.035028 
L 596.480221 130.973325 
L 599.663941 131.729738 
L 602.847661 138.01891 
L 606.031381 141.35261 
L 609.215101 159.524066 
L 612.398821 170.845785 
L 615.582541 162.650778 
L 618.766261 149.606437 
L 621.949981 172.760174 
L 625.133701 165.601424 
L 628.317421 167.82623 
L 631.501141 170.747489 
L 634.684861 194.239452 
L 637.868581 215.708114 
L 641.052301 214.441928 
L 644.236021 210.617404 
L 647.419741 199.285246 
L 650.603461 181.278187 
L 653.787181 169.60311 
L 656.970901 153.924943 
L 660.154622 147.959523 
L 663.338342 143.021061 
L 666.522062 149.357735 
L 672.889502 179.868263 
L 676.073222 172.787852 
L 679.256942 186.750503 
L 682.440662 190.041963 
L 685.624382 196.117391 
L 688.808102 205.305012 
L 691.991822 197.792597 
L 695.175542 209.647818 
L 698.359262 208.660512 
L 701.542982 218.142452 
L 704.726702 206.902932 
L 707.910422 206.826655 
L 711.094142 233.76079 
L 714.277862 229.239462 
L 717.461582 229.127305 
L 720.645302 228.052493 
L 723.829022 230.889052 
L 727.012742 220.38976 
L 730.196463 203.841839 
L 733.380183 159.45871 
L 736.563903 150.3264 
L 739.747623 154.941506 
L 742.931343 142.668185 
L 746.115063 124.16381 
L 749.298783 175.001473 
L 752.482503 164.565123 
L 755.666223 147.209338 
L 758.849943 155.817401 
L 762.033663 185.073981 
L 765.217383 185.254739 
L 768.401103 173.680941 
L 771.584823 163.208141 
L 774.768543 179.254448 
L 777.952263 181.393502 
L 781.135983 182.212376 
L 784.319703 179.745754 
L 787.503423 204.456444 
L 790.687143 206.341664 
L 793.870863 210.734474 
L 797.054583 211.435093 
L 800.238304 211.288548 
L 803.422024 205.805837 
L 806.605744 194.280507 
L 809.789464 191.831606 
L 812.973184 179.669696 
L 816.156904 174.60877 
L 819.340624 189.206728 
L 822.524344 182.035126 
L 825.708064 184.712245 
L 828.891784 179.726148 
L 832.075504 172.867024 
L 835.259224 181.456094 
L 838.442944 186.407101 
L 841.626664 195.159955 
L 844.810384 200.85154 
L 847.994104 208.133457 
L 851.177824 219.367626 
L 854.361544 224.828099 
L 857.545264 223.882945 
L 860.728984 231.346278 
L 863.912704 256.97361 
L 867.096424 245.467273 
L 870.280145 253.100706 
L 873.463865 248.584335 
L 876.647585 255.115497 
L 879.831305 241.788417 
L 883.015025 225.084871 
L 886.198745 207.431434 
L 889.382465 192.030129 
L 895.749905 176.442057 
L 898.933625 178.531458 
L 902.117345 177.1761 
L 905.301065 182.463314 
L 908.484785 183.628046 
L 911.668505 186.889021 
L 914.852225 194.97946 
L 918.035945 202.210364 
L 921.219665 206.512729 
L 924.403385 217.796682 
L 927.587105 212.632941 
L 930.770825 225.616751 
L 933.954545 218.750521 
L 933.954545 218.750521 
" clip-path="url(#p2ed11ac3d9)" style="fill: none; stroke: #2ca02c; stroke-width: 3; stroke-linecap: square"/>
   </g>
   <g id="line2d_28">
    <path d="M 173.045455 256.684423 
L 176.229175 258.866989 
L 179.412895 248.990592 
L 182.596615 236.045118 
L 185.780335 229.9253 
L 188.964055 216.485011 
L 192.147775 190.003451 
L 195.331495 174.166326 
L 198.515215 155.728491 
L 201.698935 131.9262 
L 204.882655 111.955318 
L 208.066375 97.820024 
L 211.250095 100.254055 
L 214.433815 110.386172 
L 217.617535 128.111676 
L 220.801255 136.374408 
L 223.984975 154.520906 
L 227.168695 173.340259 
L 230.352415 170.691081 
L 233.536135 178.594226 
L 236.719855 178.413468 
L 239.903576 204.413283 
L 243.087296 228.612006 
L 246.271016 234.9682 
L 249.454736 245.095668 
L 252.638456 259.015816 
L 255.822176 252.206125 
L 259.005896 237.143792 
L 262.189616 230.119788 
L 265.373336 222.026805 
L 268.557056 198.077134 
L 271.740776 178.034318 
L 274.924496 173.170686 
L 278.108216 153.826822 
L 284.475656 95.144923 
L 287.659376 90.391123 
L 290.843096 93.322163 
L 294.026816 103.482879 
L 297.210536 117.820688 
L 300.394256 136.982302 
L 303.577976 151.810847 
L 306.761696 170.625068 
L 309.945417 176.448197 
L 313.129137 193.804289 
L 316.312857 224.217047 
L 319.496577 230.709127 
L 322.680297 240.535434 
L 325.864017 258.376516 
L 329.047737 263.526572 
L 332.231457 265.438681 
L 335.415177 261.611569 
L 338.598897 247.97552 
L 341.782617 231.625464 
L 344.966337 225.37226 
L 348.150057 206.242491 
L 351.333777 179.860938 
L 354.517497 173.476146 
L 357.701217 159.00631 
L 360.884937 127.99294 
L 364.068657 121.860929 
L 367.252377 131.789304 
L 370.436097 165.885041 
L 373.619817 175.192144 
L 376.803537 178.745201 
L 379.987258 205.070741 
L 383.170978 221.137619 
L 386.354698 221.934386 
L 389.538418 225.833872 
L 392.722138 230.783431 
L 395.905858 239.264862 
L 399.089578 258.480208 
L 402.273298 265.03317 
L 405.457018 247.878408 
L 408.640738 253.414851 
L 411.824458 259.580417 
L 415.008178 265.279284 
L 418.191898 262.199593 
L 421.375618 247.889286 
L 424.559338 230.503236 
L 427.743058 217.087816 
L 430.926778 191.372934 
L 434.110498 188.285523 
L 437.294218 195.741443 
L 440.477938 195.54235 
L 443.661658 175.066214 
L 446.845378 174.213786 
L 450.029099 177.941461 
L 453.212819 191.953676 
L 456.396539 209.334989 
L 459.580259 228.061792 
L 462.763979 231.325618 
L 465.947699 237.400301 
L 469.131419 248.924446 
L 472.315139 263.806504 
L 475.498859 263.990377 
L 478.682579 259.130692 
L 481.866299 245.512978 
L 485.050019 242.199455 
L 488.233739 241.075384 
L 491.417459 246.762057 
L 494.601179 256.466864 
L 497.784899 264.178767 
L 500.968619 264.38751 
L 504.152339 256.2983 
L 507.336059 257.479743 
L 510.519779 255.353935 
L 513.703499 247.485924 
L 516.887219 233.27694 
L 520.07094 227.196687 
L 523.25466 223.518401 
L 526.43838 229.923151 
L 532.80582 240.644696 
L 535.98954 257.189766 
L 539.17326 265.288056 
L 542.35698 264.918951 
L 545.5407 261.423135 
L 548.72442 249.586774 
L 551.90814 241.498748 
L 555.09186 243.229528 
L 558.27558 256.478181 
L 561.4593 262.498386 
L 564.64302 265.452805 
L 567.82674 260.302134 
L 571.01046 245.140276 
L 574.19418 231.488261 
L 577.3779 220.023199 
L 580.56162 190.345361 
L 583.74534 206.646247 
L 586.92906 189.277918 
L 590.112781 175.851226 
L 593.296501 167.940668 
L 596.480221 161.164927 
L 599.663941 159.973133 
L 602.847661 167.698326 
L 606.031381 176.675319 
L 609.215101 197.249313 
L 612.398821 221.877014 
L 615.582541 230.669914 
L 618.766261 244.117178 
L 621.949981 255.721373 
L 625.133701 264.40624 
L 628.317421 265.439207 
L 631.501141 265.446181 
L 634.684861 260.133745 
L 637.868581 253.963749 
L 641.052301 237.149274 
L 644.236021 231.60805 
L 647.419741 224.433685 
L 650.603461 188.263636 
L 653.787181 202.049651 
L 656.970901 199.017332 
L 660.154622 177.62521 
L 663.338342 160.832009 
L 666.522062 129.208376 
L 669.705782 116.961855 
L 672.889502 117.151211 
L 676.073222 114.317327 
L 679.256942 128.111194 
L 682.440662 157.052006 
L 685.624382 178.149326 
L 688.808102 186.925032 
L 691.991822 211.485623 
L 695.175542 228.822547 
L 698.359262 230.370726 
L 701.542982 233.859569 
L 704.726702 246.935359 
L 707.910422 249.083624 
L 711.094142 249.78556 
L 714.277862 237.82248 
L 717.461582 231.823548 
L 720.645302 229.083881 
L 723.829022 214.157566 
L 727.012742 183.01831 
L 730.196463 180.571207 
L 733.380183 176.144755 
L 736.563903 144.254788 
L 739.747623 106.097361 
L 742.931343 97.035495 
L 746.115063 89.439652 
L 749.298783 83.54428 
L 752.482503 83.845047 
L 755.666223 90.758956 
L 758.849943 95.201593 
L 762.033663 86.124813 
L 765.217383 109.257146 
L 768.401103 162.365801 
L 771.584823 185.392731 
L 774.768543 222.959107 
L 777.952263 231.019588 
L 781.135983 240.157557 
L 784.319703 256.003981 
L 787.503423 264.442426 
L 790.687143 258.303529 
L 797.054583 232.773045 
L 800.238304 227.868445 
L 806.605744 180.816312 
L 809.789464 172.274789 
L 812.973184 142.176527 
L 816.156904 110.645138 
L 819.340624 102.602466 
L 822.524344 110.837608 
L 825.708064 109.4533 
L 828.891784 109.441983 
L 832.075504 105.065271 
L 835.259224 121.3587 
L 838.442944 142.174773 
L 841.626664 165.326843 
L 844.810384 190.642487 
L 847.994104 221.048578 
L 851.177824 229.303502 
L 854.361544 233.726533 
L 857.545264 250.067817 
L 860.728984 252.60225 
L 863.912704 265.073567 
L 867.096424 263.760536 
L 870.280145 252.276744 
L 873.463865 233.857069 
L 876.647585 229.198056 
L 879.831305 226.643183 
L 883.015025 202.991604 
L 886.198745 180.276537 
L 889.382465 187.994625 
L 892.566185 185.442647 
L 895.749905 170.740514 
L 898.933625 155.354211 
L 902.117345 142.262937 
L 905.301065 144.66179 
L 908.484785 156.15703 
L 911.668505 171.850768 
L 914.852225 180.809163 
L 918.035945 198.987111 
L 921.219665 225.01184 
L 924.403385 233.437214 
L 927.587105 251.630558 
L 930.770825 252.826432 
L 933.954545 264.040029 
L 933.954545 264.040029 
" clip-path="url(#p2ed11ac3d9)" style="fill: none; stroke: #d62728; stroke-width: 3; stroke-linecap: square"/>
   </g>
   <g id="line2d_29">
    <path d="M 173.045455 243.241063 
L 176.229175 246.332027 
L 179.412895 242.904987 
L 182.596615 237.241123 
L 185.780335 225.536789 
L 192.147775 187.694604 
L 195.331495 169.423272 
L 198.515215 160.371275 
L 201.698935 141.465512 
L 204.882655 129.551164 
L 208.066375 112.288061 
L 211.250095 115.900684 
L 214.433815 122.772528 
L 217.617535 137.892717 
L 220.801255 147.614542 
L 223.984975 161.578421 
L 227.168695 178.382676 
L 230.352415 173.255385 
L 233.536135 181.528906 
L 236.719855 185.234124 
L 239.903576 212.424242 
L 243.087296 231.901448 
L 246.271016 240.655311 
L 249.454736 244.764767 
L 252.638456 252.95245 
L 255.822176 248.808298 
L 259.005896 243.414453 
L 262.189616 237.171425 
L 265.373336 226.843855 
L 268.557056 211.494703 
L 271.740776 191.726599 
L 274.924496 180.850218 
L 278.108216 164.655042 
L 284.475656 110.051631 
L 287.659376 107.075281 
L 290.843096 105.744179 
L 294.026816 114.33167 
L 297.210536 130.474474 
L 300.394256 151.40459 
L 306.761696 180.048671 
L 309.945417 184.651539 
L 316.312857 226.787535 
L 319.496577 237.249501 
L 322.680297 243.379143 
L 325.864017 250.16699 
L 329.047737 244.588615 
L 332.231457 254.577213 
L 335.415177 253.94945 
L 338.598897 246.551253 
L 341.782617 239.813585 
L 344.966337 229.371972 
L 348.150057 216.14718 
L 351.333777 198.295395 
L 354.517497 185.001388 
L 357.701217 174.715926 
L 360.884937 157.432032 
L 364.068657 149.725656 
L 367.252377 154.172154 
L 370.436097 173.563389 
L 373.619817 185.7135 
L 376.803537 197.312124 
L 379.987258 212.756546 
L 383.170978 224.657473 
L 386.354698 222.313667 
L 392.722138 238.600824 
L 395.905858 244.512469 
L 399.089578 252.410306 
L 402.273298 256.317073 
L 405.457018 253.363312 
L 408.640738 246.637268 
L 411.824458 241.57077 
L 415.008178 253.136015 
L 418.191898 253.163254 
L 421.375618 245.953535 
L 424.559338 236.949787 
L 427.743058 220.749127 
L 430.926778 201.296045 
L 434.110498 194.004567 
L 437.294218 196.905648 
L 440.477938 201.749718 
L 443.661658 185.991633 
L 446.845378 184.090841 
L 453.212819 209.380957 
L 456.396539 218.760829 
L 459.580259 230.447004 
L 462.763979 236.7728 
L 469.131419 245.509118 
L 472.315139 254.204073 
L 475.498859 248.716055 
L 478.682579 241.57327 
L 481.866299 272.722484 
L 485.050019 267.922145 
L 488.233739 259.192363 
L 491.417459 248.831633 
L 494.601179 241.886977 
L 497.784899 255.372752 
L 500.968619 253.232689 
L 504.152339 245.899453 
L 507.336059 246.041699 
L 510.519779 244.599975 
L 513.703499 242.058217 
L 516.887219 234.497903 
L 520.07094 219.088221 
L 523.25466 214.128529 
L 526.43838 221.220432 
L 529.6221 234.039757 
L 532.80582 238.030959 
L 535.98954 244.937937 
L 539.17326 254.605943 
L 542.35698 255.388016 
L 545.5407 251.094775 
L 548.72442 245.084483 
L 551.90814 257.946925 
L 555.09186 266.342999 
L 558.27558 252.411447 
L 561.4593 254.816178 
L 564.64302 247.555666 
L 567.82674 241.022968 
L 571.01046 232.020404 
L 574.19418 221.079677 
L 577.3779 211.425356 
L 580.56162 185.384485 
L 583.74534 203.78837 
L 586.92906 186.642776 
L 590.112781 166.150279 
L 593.296501 143.981084 
L 596.480221 133.669656 
L 599.663941 130.091553 
L 602.847661 141.232119 
L 606.031381 165.598485 
L 609.215101 196.000146 
L 612.398821 215.663725 
L 615.582541 231.724857 
L 618.766261 240.239712 
L 621.949981 243.997608 
L 625.133701 248.717151 
L 628.317421 252.130067 
L 631.501141 252.012296 
L 634.684861 248.362609 
L 637.868581 246.311411 
L 641.052301 240.572586 
L 644.236021 235.849183 
L 647.419741 220.650831 
L 650.603461 200.352821 
L 653.787181 205.816408 
L 656.970901 206.114368 
L 660.154622 184.302655 
L 663.338342 159.496169 
L 666.522062 127.031776 
L 669.705782 114.266358 
L 672.889502 113.620523 
L 676.073222 111.587398 
L 679.256942 120.921784 
L 682.440662 156.611185 
L 685.624382 184.437971 
L 688.808102 192.965107 
L 695.175542 228.774824 
L 698.359262 231.509798 
L 701.542982 237.57891 
L 704.726702 243.028812 
L 707.910422 244.108142 
L 711.094142 247.144496 
L 714.277862 243.15847 
L 717.461582 239.476895 
L 720.645302 233.258825 
L 723.829022 219.04063 
L 727.012742 198.574099 
L 730.196463 195.48182 
L 733.380183 187.415813 
L 736.563903 159.156365 
L 739.747623 118.441082 
L 742.931343 107.569877 
L 746.115063 97.6651 
L 749.298783 89.210469 
L 752.482503 99.390047 
L 755.666223 106.294963 
L 758.849943 110.539517 
L 762.033663 105.723826 
L 765.217383 131.139872 
L 768.401103 177.042889 
L 771.584823 209.408986 
L 774.768543 231.116174 
L 777.952263 240.10071 
L 781.135983 244.47058 
L 787.503423 256.415764 
L 790.687143 252.681773 
L 793.870863 246.703895 
L 797.054583 242.132608 
L 800.238304 234.145422 
L 803.422024 219.19064 
L 806.605744 206.790029 
L 809.789464 192.087677 
L 812.973184 168.194809 
L 816.156904 136.722503 
L 819.340624 124.010642 
L 822.524344 125.458682 
L 825.708064 122.885869 
L 832.075504 112.957319 
L 835.259224 128.115185 
L 841.626664 170.436633 
L 844.810384 208.906801 
L 847.994104 228.78658 
L 851.177824 239.06612 
L 854.361544 242.797918 
L 857.545264 246.108809 
L 860.728984 244.826745 
L 863.912704 256.496998 
L 867.096424 252.135068 
L 873.463865 239.644757 
L 876.647585 230.580303 
L 879.831305 222.760936 
L 883.015025 214.037163 
L 886.198745 202.436871 
L 889.382465 209.053829 
L 892.566185 207.416433 
L 895.749905 178.352542 
L 898.933625 163.727783 
L 902.117345 151.660705 
L 905.301065 153.902178 
L 908.484785 161.621933 
L 911.668505 176.649922 
L 914.852225 200.227067 
L 918.035945 215.321464 
L 921.219665 233.791713 
L 924.403385 243.197639 
L 927.587105 247.39583 
L 930.770825 248.436605 
L 933.954545 255.516051 
L 933.954545 255.516051 
" clip-path="url(#p2ed11ac3d9)" style="fill: none; stroke: #9467bd; stroke-width: 3; stroke-linecap: square"/>
   </g>
   <g id="line2d_30">
    <path d="M 173.045455 234.721735 
L 176.229175 229.126209 
L 179.412895 227.742603 
L 182.596615 224.034052 
L 185.780335 240.604957 
L 188.964055 219.663612 
L 192.147775 210.829305 
L 195.331495 156.885766 
L 198.515215 126.640081 
L 201.698935 139.166578 
L 204.882655 118.174967 
L 208.066375 107.483161 
L 211.250095 147.811925 
L 214.433815 162.364135 
L 217.617535 148.949417 
L 220.801255 157.176269 
L 223.984975 173.505622 
L 227.168695 187.31041 
L 230.352415 181.438461 
L 233.536135 196.634094 
L 236.719855 206.910169 
L 239.903576 219.218668 
L 243.087296 236.570637 
L 246.271016 262.027475 
L 249.454736 227.818617 
L 252.638456 239.522249 
L 255.822176 242.732212 
L 259.005896 194.321475 
L 262.189616 204.672117 
L 265.373336 201.320038 
L 268.557056 207.108517 
L 271.740776 170.088583 
L 274.924496 135.318588 
L 278.108216 194.844845 
L 281.291936 180.652003 
L 284.475656 146.738866 
L 287.659376 186.829061 
L 290.843096 169.214003 
L 294.026816 184.382265 
L 297.210536 214.64725 
L 300.394256 234.220384 
L 303.577976 235.750272 
L 306.761696 237.630975 
L 309.945417 257.962408 
L 313.129137 235.386431 
L 316.312857 225.378532 
L 319.496577 222.270419 
L 322.680297 250.037946 
L 325.864017 221.249031 
L 329.047737 216.440095 
L 332.231457 206.969823 
L 335.415177 196.680194 
L 338.598897 203.772404 
L 341.782617 190.435455 
L 344.966337 208.737052 
L 348.150057 193.373075 
L 351.333777 151.839796 
L 354.517497 148.632684 
L 357.701217 153.659442 
L 360.884937 130.376924 
L 364.068657 158.278978 
L 367.252377 156.146065 
L 370.436097 169.278657 
L 373.619817 191.653217 
L 376.803537 202.942258 
L 379.987258 200.604988 
L 383.170978 223.938606 
L 386.354698 235.34441 
L 389.538418 239.85021 
L 392.722138 240.057418 
L 395.905858 244.932674 
L 399.089578 271.580868 
L 402.273298 248.79606 
L 405.457018 267.385967 
L 408.640738 264.694812 
L 411.824458 259.844295 
L 415.008178 276.547227 
L 421.375618 273.741196 
L 424.559338 270.592026 
L 427.743058 265.305338 
L 430.926778 249.12911 
L 434.110498 211.134327 
L 437.294218 194.315553 
L 440.477938 207.208085 
L 443.661658 198.664939 
L 446.845378 174.759921 
L 450.029099 194.601056 
L 453.212819 188.361362 
L 456.396539 188.27947 
L 459.580259 250.377356 
L 462.763979 272.537251 
L 465.947699 256.234304 
L 469.131419 280.916395 
L 475.498859 256.235707 
L 478.682579 231.40694 
L 481.866299 269.024635 
L 485.050019 266.346552 
L 488.233739 273.834229 
L 491.417459 281.033508 
L 494.601179 285.79551 
L 497.784899 281.851724 
L 500.968619 278.280068 
L 504.152339 272.219685 
L 507.336059 253.144261 
L 510.519779 262.453163 
L 513.703499 211.539399 
L 516.887219 216.140425 
L 520.07094 202.15343 
L 523.25466 204.24235 
L 526.43838 201.859638 
L 529.6221 235.368798 
L 532.80582 229.808932 
L 535.98954 270.554787 
L 539.17326 289.604288 
L 542.35698 271.872906 
L 545.5407 275.549262 
L 548.72442 307.8 
L 551.90814 305.62761 
L 555.09186 248.490951 
L 558.27558 209.841385 
L 561.4593 215.454236 
L 564.64302 210.427172 
L 567.82674 206.767878 
L 571.01046 208.653757 
L 574.19418 217.990775 
L 577.3779 165.12332 
L 580.56162 127.549663 
L 583.74534 136.043902 
L 586.92906 124.601034 
L 590.112781 115.040711 
L 593.296501 141.741541 
L 596.480221 127.449393 
L 599.663941 144.743287 
L 602.847661 147.958251 
L 606.031381 167.700037 
L 612.398821 201.844505 
L 615.582541 187.4788 
L 618.766261 208.452164 
L 621.949981 206.916003 
L 625.133701 202.680485 
L 628.317421 226.492207 
L 631.501141 225.47139 
L 634.684861 232.284458 
L 637.868581 239.38373 
L 644.236021 242.433243 
L 647.419741 234.859288 
L 650.603461 249.634497 
L 653.787181 143.689353 
L 656.970901 142.357198 
L 660.154622 120.014395 
L 663.338342 104.1381 
L 666.522062 107.256522 
L 669.705782 129.341237 
L 672.889502 126.386335 
L 676.073222 133.174182 
L 679.256942 143.018473 
L 682.440662 165.219424 
L 685.624382 174.83554 
L 688.808102 204.636237 
L 691.991822 198.021736 
L 695.175542 212.292303 
L 698.359262 194.075756 
L 701.542982 211.841833 
L 704.726702 225.228303 
L 707.910422 237.423855 
L 711.094142 245.117073 
L 714.277862 238.795311 
L 717.461582 247.610099 
L 720.645302 244.489397 
L 723.829022 241.977202 
L 727.012742 241.628187 
L 730.196463 150.530142 
L 733.380183 139.362075 
L 736.563903 138.528946 
L 739.747623 127.549751 
L 742.931343 116.992603 
L 746.115063 141.037587 
L 749.298783 129.718676 
L 752.482503 144.611217 
L 755.666223 150.416187 
L 758.849943 157.342509 
L 762.033663 176.178178 
L 765.217383 191.813667 
L 768.401103 201.084408 
L 771.584823 214.390609 
L 774.768543 220.641181 
L 777.952263 240.148872 
L 781.135983 260.823926 
L 784.319703 237.213007 
L 787.503423 265.671767 
L 790.687143 263.803258 
L 793.870863 263.884755 
L 797.054583 267.092789 
L 800.238304 273.551665 
L 803.422024 229.952013 
L 806.605744 223.899218 
L 809.789464 196.395525 
L 812.973184 188.554489 
L 816.156904 185.144688 
L 819.340624 168.190686 
L 822.524344 185.50502 
L 825.708064 163.55764 
L 828.891784 204.471927 
L 832.075504 195.701791 
L 835.259224 195.696879 
L 838.442944 203.121481 
L 841.626664 242.820858 
L 844.810384 252.221872 
L 847.994104 257.123796 
L 851.177824 240.734878 
L 854.361544 239.607737 
L 857.545264 265.056943 
L 860.728984 266.141844 
L 863.912704 213.945007 
L 867.096424 223.305579 
L 870.280145 229.031027 
L 873.463865 251.416201 
L 876.647585 252.7434 
L 879.831305 244.90083 
L 883.015025 172.39357 
L 886.198745 165.826966 
L 892.566185 155.673487 
L 895.749905 146.73062 
L 898.933625 175.742051 
L 902.117345 155.693533 
L 905.301065 159.576964 
L 908.484785 187.504942 
L 911.668505 195.899437 
L 914.852225 197.284622 
L 918.035945 203.095251 
L 921.219665 232.043958 
L 924.403385 217.133785 
L 927.587105 216.67498 
L 930.770825 213.460587 
L 933.954545 225.149174 
L 933.954545 225.149174 
" clip-path="url(#p2ed11ac3d9)" style="fill: none; stroke: #8c564b; stroke-width: 3; stroke-linecap: square"/>
   </g>
   <g id="line2d_31">
    <path d="M 173.045455 243.233256 
L 176.229175 246.322421 
L 179.412895 242.8956 
L 182.596615 237.231824 
L 185.780335 225.527753 
L 192.147775 187.685393 
L 195.331495 169.413842 
L 198.515215 160.361669 
L 201.698935 141.455687 
L 204.882655 129.540724 
L 208.066375 112.27692 
L 211.250095 115.888973 
L 214.433815 122.760597 
L 217.617535 137.880523 
L 220.801255 147.602261 
L 223.984975 161.56614 
L 227.168695 178.371008 
L 230.352415 173.243717 
L 233.536135 181.51759 
L 236.719855 185.223246 
L 239.903576 212.413803 
L 243.087296 231.891448 
L 246.271016 240.645573 
L 249.454736 244.755425 
L 252.638456 252.941089 
L 255.822176 248.797157 
L 259.005896 243.403619 
L 262.189616 237.160766 
L 265.373336 226.83324 
L 268.557056 211.484132 
L 271.740776 191.716072 
L 274.924496 180.839911 
L 278.108216 164.644471 
L 284.475656 110.040359 
L 287.659376 107.063658 
L 290.843096 105.732423 
L 294.026816 114.319871 
L 297.210536 130.462807 
L 300.394256 151.39323 
L 306.761696 180.037793 
L 309.945417 184.640836 
L 316.312857 226.777447 
L 319.496577 237.239544 
L 322.680297 243.369406 
L 325.864017 250.15756 
L 329.047737 244.577342 
L 332.231457 254.565941 
L 335.415177 253.93844 
L 338.598897 246.540331 
L 341.782617 239.802795 
L 344.966337 229.361182 
L 348.150057 216.136302 
L 351.333777 198.284386 
L 354.517497 184.990335 
L 357.701217 174.704566 
L 360.884937 157.420409 
L 364.068657 149.713594 
L 367.252377 154.159916 
L 370.436097 173.55102 
L 373.619817 185.701087 
L 376.803537 197.299974 
L 379.987258 212.744484 
L 383.170978 224.645674 
L 386.354698 222.302044 
L 392.722138 238.589858 
L 395.905858 244.501766 
L 399.089578 252.399779 
L 402.273298 256.306809 
L 405.457018 253.351425 
L 408.640738 246.625513 
L 411.824458 241.559103 
L 415.008178 253.124348 
L 418.191898 253.151674 
L 421.375618 245.94178 
L 424.559338 236.937812 
L 427.743058 220.736933 
L 430.926778 201.283632 
L 434.110498 193.991978 
L 437.294218 196.892884 
L 440.477938 201.736998 
L 443.661658 185.978825 
L 446.845378 184.077946 
L 453.212819 209.368281 
L 456.396539 218.748504 
L 459.580259 230.434678 
L 462.763979 236.760738 
L 469.131419 245.49767 
L 472.315139 254.192932 
L 475.498859 248.705045 
L 478.682579 241.562392 
L 481.866299 272.71029 
L 485.050019 267.909995 
L 488.233739 259.180213 
L 491.417459 248.819527 
L 494.601179 241.874827 
L 497.784899 255.360646 
L 500.968619 253.220451 
L 504.152339 245.886908 
L 507.336059 246.029023 
L 510.519779 244.587079 
L 513.703499 242.04519 
L 516.887219 234.484964 
L 520.07094 219.075193 
L 523.25466 214.115633 
L 526.43838 221.207581 
L 529.6221 234.026598 
L 532.80582 238.017757 
L 535.98954 244.924822 
L 539.17326 254.59296 
L 542.35698 255.375428 
L 545.5407 251.082581 
L 548.72442 245.072596 
L 551.90814 257.935345 
L 555.09186 266.331726 
L 558.27558 252.401753 
L 561.4593 254.806923 
L 564.64302 247.546806 
L 567.82674 241.014591 
L 571.01046 232.011895 
L 574.19418 221.070553 
L 577.3779 211.415443 
L 580.56162 185.373783 
L 583.74534 203.77701 
L 586.92906 186.63102 
L 590.112781 166.137953 
L 593.296501 143.968496 
L 596.480221 133.656804 
L 599.663941 130.078482 
L 602.847661 141.21896 
L 606.031381 165.585239 
L 609.215101 195.986812 
L 612.398821 215.650566 
L 615.582541 231.712049 
L 618.766261 240.227386 
L 621.949981 243.985897 
L 625.133701 248.70601 
L 628.317421 252.119496 
L 631.501141 252.002251 
L 634.684861 248.351073 
L 637.868581 246.300226 
L 641.052301 240.561532 
L 644.236021 235.838436 
L 647.419741 220.640348 
L 650.603461 200.341592 
L 653.787181 205.804258 
L 656.970901 206.101823 
L 660.154622 184.289671 
L 663.338342 159.482967 
L 666.522062 127.018397 
L 669.705782 114.253068 
L 672.889502 113.607452 
L 676.073222 111.574502 
L 679.256942 120.909019 
L 682.440662 156.59807 
L 685.624382 184.424725 
L 688.808102 192.951905 
L 695.175542 228.762411 
L 698.359262 231.497911 
L 701.542982 237.567418 
L 704.726702 243.017714 
L 707.910422 244.097133 
L 711.094142 247.13239 
L 714.277862 243.146408 
L 717.461582 239.465008 
L 720.645302 233.247113 
L 723.829022 219.02883 
L 727.012742 198.562256 
L 730.196463 195.469758 
L 733.380183 187.403838 
L 736.563903 159.144697 
L 739.747623 118.429415 
L 742.931343 107.558254 
L 746.115063 97.653389 
L 749.298783 89.19946 
L 752.482503 99.378686 
L 755.666223 106.283471 
L 758.849943 110.528332 
L 762.033663 105.712948 
L 765.217383 131.129126 
L 768.401103 177.032405 
L 771.584823 209.39881 
L 774.768543 231.106436 
L 777.952263 240.091061 
L 781.135983 244.460974 
L 787.503423 256.404535 
L 790.687143 252.670632 
L 793.870863 246.692842 
L 797.054583 242.121686 
L 800.238304 234.1345 
L 803.422024 219.179762 
L 806.605744 206.778976 
L 809.789464 192.076536 
L 812.973184 168.183361 
L 816.156904 136.710879 
L 819.340624 123.998843 
L 822.524344 125.446664 
L 825.708064 122.8735 
L 832.075504 112.944555 
L 835.259224 128.102334 
L 841.626664 170.424001 
L 844.810384 208.89452 
L 847.994104 228.775044 
L 851.177824 239.055461 
L 854.361544 242.787786 
L 857.545264 246.099423 
L 860.728984 244.817446 
L 863.912704 256.486208 
L 867.096424 252.124935 
L 873.463865 239.635458 
L 876.647585 230.571004 
L 879.831305 222.750584 
L 883.015025 214.025671 
L 886.198745 202.424765 
L 889.382465 209.041197 
L 892.566185 207.40345 
L 895.749905 178.33934 
L 898.933625 163.714405 
L 902.117345 151.647195 
L 905.301065 153.888625 
L 908.484785 161.608336 
L 911.668505 176.636369 
L 914.852225 200.213557 
L 918.035945 215.308042 
L 921.219665 233.77851 
L 924.403385 243.184831 
L 927.587105 247.383373 
L 930.770825 248.424324 
L 933.954545 255.504165 
L 933.954545 255.504165 
" clip-path="url(#p2ed11ac3d9)" style="fill: none; stroke: #e377c2; stroke-width: 3; stroke-linecap: square"/>
   </g>
   <g id="patch_3">
    <path d="M 135 320.4 
L 135 43.2 
" style="fill: none; stroke: #000000; stroke-width: 0.8; stroke-linejoin: miter; stroke-linecap: square"/>
   </g>
   <g id="patch_4">
    <path d="M 972 320.4 
L 972 43.2 
" style="fill: none; stroke: #000000; stroke-width: 0.8; stroke-linejoin: miter; stroke-linecap: square"/>
   </g>
   <g id="patch_5">
    <path d="M 135 320.4 
L 972 320.4 
" style="fill: none; stroke: #000000; stroke-width: 0.8; stroke-linejoin: miter; stroke-linecap: square"/>
   </g>
   <g id="patch_6">
    <path d="M 135 43.2 
L 972 43.2 
" style="fill: none; stroke: #000000; stroke-width: 0.8; stroke-linejoin: miter; stroke-linecap: square"/>
   </g>
   <g id="legend_1">
    <g id="patch_7">
     <path d="M 469.703125 153.946875 
L 637.296875 153.946875 
Q 639.296875 153.946875 639.296875 151.946875 
L 639.296875 50.2 
Q 639.296875 48.2 637.296875 48.2 
L 469.703125 48.2 
Q 467.703125 48.2 467.703125 50.2 
L 467.703125 151.946875 
Q 467.703125 153.946875 469.703125 153.946875 
z
" style="fill: #ffffff; opacity: 0.8; stroke: #cccccc; stroke-linejoin: miter"/>
    </g>
    <g id="line2d_32">
     <path d="M 471.703125 56.298437 
L 481.703125 56.298437 
L 491.703125 56.298437 
" style="fill: none; stroke: #1f77b4; stroke-width: 3; stroke-linecap: square"/>
    </g>
    <g id="text_15">
     <!-- Actual Load -->
     <g transform="translate(499.703125 59.798437) scale(0.1 -0.1)">
      <defs>
       <path id="DejaVuSans-41" d="M 2188 4044 
L 1331 1722 
L 3047 1722 
L 2188 4044 
z
M 1831 4666 
L 2547 4666 
L 4325 0 
L 3669 0 
L 3244 1197 
L 1141 1197 
L 716 0 
L 50 0 
L 1831 4666 
z
" transform="scale(0.015625)"/>
       <path id="DejaVuSans-63" d="M 3122 3366 
L 3122 2828 
Q 2878 2963 2633 3030 
Q 2388 3097 2138 3097 
Q 1578 3097 1268 2742 
Q 959 2388 959 1747 
Q 959 1106 1268 751 
Q 1578 397 2138 397 
Q 2388 397 2633 464 
Q 2878 531 3122 666 
L 3122 134 
Q 2881 22 2623 -34 
Q 2366 -91 2075 -91 
Q 1284 -91 818 406 
Q 353 903 353 1747 
Q 353 2603 823 3093 
Q 1294 3584 2113 3584 
Q 2378 3584 2631 3529 
Q 2884 3475 3122 3366 
z
" transform="scale(0.015625)"/>
       <path id="DejaVuSans-74" d="M 1172 4494 
L 1172 3500 
L 2356 3500 
L 2356 3053 
L 1172 3053 
L 1172 1153 
Q 1172 725 1289 603 
Q 1406 481 1766 481 
L 2356 481 
L 2356 0 
L 1766 0 
Q 1100 0 847 248 
Q 594 497 594 1153 
L 594 3053 
L 172 3053 
L 172 3500 
L 594 3500 
L 594 4494 
L 1172 4494 
z
" transform="scale(0.015625)"/>
       <path id="DejaVuSans-61" d="M 2194 1759 
Q 1497 1759 1228 1600 
Q 959 1441 959 1056 
Q 959 750 1161 570 
Q 1363 391 1709 391 
Q 2188 391 2477 730 
Q 2766 1069 2766 1631 
L 2766 1759 
L 2194 1759 
z
M 3341 1997 
L 3341 0 
L 2766 0 
L 2766 531 
Q 2569 213 2275 61 
Q 1981 -91 1556 -91 
Q 1019 -91 701 211 
Q 384 513 384 1019 
Q 384 1609 779 1909 
Q 1175 2209 1959 2209 
L 2766 2209 
L 2766 2266 
Q 2766 2663 2505 2880 
Q 2244 3097 1772 3097 
Q 1472 3097 1187 3025 
Q 903 2953 641 2809 
L 641 3341 
Q 956 3463 1253 3523 
Q 1550 3584 1831 3584 
Q 2591 3584 2966 3190 
Q 3341 2797 3341 1997 
z
" transform="scale(0.015625)"/>
       <path id="DejaVuSans-6c" d="M 603 4863 
L 1178 4863 
L 1178 0 
L 603 0 
L 603 4863 
z
" transform="scale(0.015625)"/>
       <path id="DejaVuSans-20" transform="scale(0.015625)"/>
       <path id="DejaVuSans-4c" d="M 628 4666 
L 1259 4666 
L 1259 531 
L 3531 531 
L 3531 0 
L 628 0 
L 628 4666 
z
" transform="scale(0.015625)"/>
       <path id="DejaVuSans-64" d="M 2906 2969 
L 2906 4863 
L 3481 4863 
L 3481 0 
L 2906 0 
L 2906 525 
Q 2725 213 2448 61 
Q 2172 -91 1784 -91 
Q 1150 -91 751 415 
Q 353 922 353 1747 
Q 353 2572 751 3078 
Q 1150 3584 1784 3584 
Q 2172 3584 2448 3432 
Q 2725 3281 2906 2969 
z
M 947 1747 
Q 947 1113 1208 752 
Q 1469 391 1925 391 
Q 2381 391 2643 752 
Q 2906 1113 2906 1747 
Q 2906 2381 2643 2742 
Q 2381 3103 1925 3103 
Q 1469 3103 1208 2742 
Q 947 2381 947 1747 
z
" transform="scale(0.015625)"/>
      </defs>
      <use xlink:href="#DejaVuSans-41"/>
      <use xlink:href="#DejaVuSans-63" x="66.658203"/>
      <use xlink:href="#DejaVuSans-74" x="121.638672"/>
      <use xlink:href="#DejaVuSans-75" x="160.847656"/>
      <use xlink:href="#DejaVuSans-61" x="224.226562"/>
      <use xlink:href="#DejaVuSans-6c" x="285.505859"/>
      <use xlink:href="#DejaVuSans-20" x="313.289062"/>
      <use xlink:href="#DejaVuSans-4c" x="345.076172"/>
      <use xlink:href="#DejaVuSans-6f" x="399.039062"/>
      <use xlink:href="#DejaVuSans-61" x="460.220703"/>
      <use xlink:href="#DejaVuSans-64" x="521.5"/>
     </g>
    </g>
    <g id="line2d_33">
     <path d="M 471.703125 70.976562 
L 481.703125 70.976562 
L 491.703125 70.976562 
" style="fill: none; stroke: #ff7f0e; stroke-width: 3; stroke-linecap: square"/>
    </g>
    <g id="text_16">
     <!-- MLP(1) Forecast Load -->
     <g transform="translate(499.703125 74.476562) scale(0.1 -0.1)">
      <defs>
       <path id="DejaVuSans-50" d="M 1259 4147 
L 1259 2394 
L 2053 2394 
Q 2494 2394 2734 2622 
Q 2975 2850 2975 3272 
Q 2975 3691 2734 3919 
Q 2494 4147 2053 4147 
L 1259 4147 
z
M 628 4666 
L 2053 4666 
Q 2838 4666 3239 4311 
Q 3641 3956 3641 3272 
Q 3641 2581 3239 2228 
Q 2838 1875 2053 1875 
L 1259 1875 
L 1259 0 
L 628 0 
L 628 4666 
z
" transform="scale(0.015625)"/>
       <path id="DejaVuSans-28" d="M 1984 4856 
Q 1566 4138 1362 3434 
Q 1159 2731 1159 2009 
Q 1159 1288 1364 580 
Q 1569 -128 1984 -844 
L 1484 -844 
Q 1016 -109 783 600 
Q 550 1309 550 2009 
Q 550 2706 781 3412 
Q 1013 4119 1484 4856 
L 1984 4856 
z
" transform="scale(0.015625)"/>
       <path id="DejaVuSans-29" d="M 513 4856 
L 1013 4856 
Q 1481 4119 1714 3412 
Q 1947 2706 1947 2009 
Q 1947 1309 1714 600 
Q 1481 -109 1013 -844 
L 513 -844 
Q 928 -128 1133 580 
Q 1338 1288 1338 2009 
Q 1338 2731 1133 3434 
Q 928 4138 513 4856 
z
" transform="scale(0.015625)"/>
       <path id="DejaVuSans-46" d="M 628 4666 
L 3309 4666 
L 3309 4134 
L 1259 4134 
L 1259 2759 
L 3109 2759 
L 3109 2228 
L 1259 2228 
L 1259 0 
L 628 0 
L 628 4666 
z
" transform="scale(0.015625)"/>
       <path id="DejaVuSans-65" d="M 3597 1894 
L 3597 1613 
L 953 1613 
Q 991 1019 1311 708 
Q 1631 397 2203 397 
Q 2534 397 2845 478 
Q 3156 559 3463 722 
L 3463 178 
Q 3153 47 2828 -22 
Q 2503 -91 2169 -91 
Q 1331 -91 842 396 
Q 353 884 353 1716 
Q 353 2575 817 3079 
Q 1281 3584 2069 3584 
Q 2775 3584 3186 3129 
Q 3597 2675 3597 1894 
z
M 3022 2063 
Q 3016 2534 2758 2815 
Q 2500 3097 2075 3097 
Q 1594 3097 1305 2825 
Q 1016 2553 972 2059 
L 3022 2063 
z
" transform="scale(0.015625)"/>
      </defs>
      <use xlink:href="#DejaVuSans-4d"/>
      <use xlink:href="#DejaVuSans-4c" x="86.279297"/>
      <use xlink:href="#DejaVuSans-50" x="141.992188"/>
      <use xlink:href="#DejaVuSans-28" x="202.294922"/>
      <use xlink:href="#DejaVuSans-31" x="241.308594"/>
      <use xlink:href="#DejaVuSans-29" x="304.931641"/>
      <use xlink:href="#DejaVuSans-20" x="343.945312"/>
      <use xlink:href="#DejaVuSans-46" x="375.732422"/>
      <use xlink:href="#DejaVuSans-6f" x="429.626953"/>
      <use xlink:href="#DejaVuSans-72" x="490.808594"/>
      <use xlink:href="#DejaVuSans-65" x="529.671875"/>
      <use xlink:href="#DejaVuSans-63" x="591.195312"/>
      <use xlink:href="#DejaVuSans-61" x="646.175781"/>
      <use xlink:href="#DejaVuSans-73" x="707.455078"/>
      <use xlink:href="#DejaVuSans-74" x="759.554688"/>
      <use xlink:href="#DejaVuSans-20" x="798.763672"/>
      <use xlink:href="#DejaVuSans-4c" x="830.550781"/>
      <use xlink:href="#DejaVuSans-6f" x="884.513672"/>
      <use xlink:href="#DejaVuSans-61" x="945.695312"/>
      <use xlink:href="#DejaVuSans-64" x="1006.974609"/>
     </g>
    </g>
    <g id="line2d_34">
     <path d="M 471.703125 85.654687 
L 481.703125 85.654687 
L 491.703125 85.654687 
" style="fill: none; stroke: #2ca02c; stroke-width: 3; stroke-linecap: square"/>
    </g>
    <g id="text_17">
     <!-- MLP(2) Forecast Load -->
     <g transform="translate(499.703125 89.154687) scale(0.1 -0.1)">
      <use xlink:href="#DejaVuSans-4d"/>
      <use xlink:href="#DejaVuSans-4c" x="86.279297"/>
      <use xlink:href="#DejaVuSans-50" x="141.992188"/>
      <use xlink:href="#DejaVuSans-28" x="202.294922"/>
      <use xlink:href="#DejaVuSans-32" x="241.308594"/>
      <use xlink:href="#DejaVuSans-29" x="304.931641"/>
      <use xlink:href="#DejaVuSans-20" x="343.945312"/>
      <use xlink:href="#DejaVuSans-46" x="375.732422"/>
      <use xlink:href="#DejaVuSans-6f" x="429.626953"/>
      <use xlink:href="#DejaVuSans-72" x="490.808594"/>
      <use xlink:href="#DejaVuSans-65" x="529.671875"/>
      <use xlink:href="#DejaVuSans-63" x="591.195312"/>
      <use xlink:href="#DejaVuSans-61" x="646.175781"/>
      <use xlink:href="#DejaVuSans-73" x="707.455078"/>
      <use xlink:href="#DejaVuSans-74" x="759.554688"/>
      <use xlink:href="#DejaVuSans-20" x="798.763672"/>
      <use xlink:href="#DejaVuSans-4c" x="830.550781"/>
      <use xlink:href="#DejaVuSans-6f" x="884.513672"/>
      <use xlink:href="#DejaVuSans-61" x="945.695312"/>
      <use xlink:href="#DejaVuSans-64" x="1006.974609"/>
     </g>
    </g>
    <g id="line2d_35">
     <path d="M 471.703125 100.332812 
L 481.703125 100.332812 
L 491.703125 100.332812 
" style="fill: none; stroke: #d62728; stroke-width: 3; stroke-linecap: square"/>
    </g>
    <g id="text_18">
     <!-- KAN Forecast Load -->
     <g transform="translate(499.703125 103.832812) scale(0.1 -0.1)">
      <defs>
       <path id="DejaVuSans-4b" d="M 628 4666 
L 1259 4666 
L 1259 2694 
L 3353 4666 
L 4166 4666 
L 1850 2491 
L 4331 0 
L 3500 0 
L 1259 2247 
L 1259 0 
L 628 0 
L 628 4666 
z
" transform="scale(0.015625)"/>
       <path id="DejaVuSans-4e" d="M 628 4666 
L 1478 4666 
L 3547 763 
L 3547 4666 
L 4159 4666 
L 4159 0 
L 3309 0 
L 1241 3903 
L 1241 0 
L 628 0 
L 628 4666 
z
" transform="scale(0.015625)"/>
      </defs>
      <use xlink:href="#DejaVuSans-4b"/>
      <use xlink:href="#DejaVuSans-41" x="63.826172"/>
      <use xlink:href="#DejaVuSans-4e" x="132.234375"/>
      <use xlink:href="#DejaVuSans-20" x="207.039062"/>
      <use xlink:href="#DejaVuSans-46" x="238.826172"/>
      <use xlink:href="#DejaVuSans-6f" x="292.720703"/>
      <use xlink:href="#DejaVuSans-72" x="353.902344"/>
      <use xlink:href="#DejaVuSans-65" x="392.765625"/>
      <use xlink:href="#DejaVuSans-63" x="454.289062"/>
      <use xlink:href="#DejaVuSans-61" x="509.269531"/>
      <use xlink:href="#DejaVuSans-73" x="570.548828"/>
      <use xlink:href="#DejaVuSans-74" x="622.648438"/>
      <use xlink:href="#DejaVuSans-20" x="661.857422"/>
      <use xlink:href="#DejaVuSans-4c" x="693.644531"/>
      <use xlink:href="#DejaVuSans-6f" x="747.607422"/>
      <use xlink:href="#DejaVuSans-61" x="808.789062"/>
      <use xlink:href="#DejaVuSans-64" x="870.068359"/>
     </g>
    </g>
    <g id="line2d_36">
     <path d="M 471.703125 115.010937 
L 481.703125 115.010937 
L 491.703125 115.010937 
" style="fill: none; stroke: #9467bd; stroke-width: 3; stroke-linecap: square"/>
    </g>
    <g id="text_19">
     <!-- KAN+MLP Forecast Load -->
     <g transform="translate(499.703125 118.510937) scale(0.1 -0.1)">
      <defs>
       <path id="DejaVuSans-2b" d="M 2944 4013 
L 2944 2272 
L 4684 2272 
L 4684 1741 
L 2944 1741 
L 2944 0 
L 2419 0 
L 2419 1741 
L 678 1741 
L 678 2272 
L 2419 2272 
L 2419 4013 
L 2944 4013 
z
" transform="scale(0.015625)"/>
      </defs>
      <use xlink:href="#DejaVuSans-4b"/>
      <use xlink:href="#DejaVuSans-41" x="63.826172"/>
      <use xlink:href="#DejaVuSans-4e" x="132.234375"/>
      <use xlink:href="#DejaVuSans-2b" x="207.039062"/>
      <use xlink:href="#DejaVuSans-4d" x="290.828125"/>
      <use xlink:href="#DejaVuSans-4c" x="377.107422"/>
      <use xlink:href="#DejaVuSans-50" x="432.820312"/>
      <use xlink:href="#DejaVuSans-20" x="493.123047"/>
      <use xlink:href="#DejaVuSans-46" x="524.910156"/>
      <use xlink:href="#DejaVuSans-6f" x="578.804688"/>
      <use xlink:href="#DejaVuSans-72" x="639.986328"/>
      <use xlink:href="#DejaVuSans-65" x="678.849609"/>
      <use xlink:href="#DejaVuSans-63" x="740.373047"/>
      <use xlink:href="#DejaVuSans-61" x="795.353516"/>
      <use xlink:href="#DejaVuSans-73" x="856.632812"/>
      <use xlink:href="#DejaVuSans-74" x="908.732422"/>
      <use xlink:href="#DejaVuSans-20" x="947.941406"/>
      <use xlink:href="#DejaVuSans-4c" x="979.728516"/>
      <use xlink:href="#DejaVuSans-6f" x="1033.691406"/>
      <use xlink:href="#DejaVuSans-61" x="1094.873047"/>
      <use xlink:href="#DejaVuSans-64" x="1156.152344"/>
     </g>
    </g>
    <g id="line2d_37">
     <path d="M 471.703125 129.689062 
L 481.703125 129.689062 
L 491.703125 129.689062 
" style="fill: none; stroke: #8c564b; stroke-width: 3; stroke-linecap: square"/>
    </g>
    <g id="text_20">
     <!-- XGBoost Forecast Load -->
     <g transform="translate(499.703125 133.189062) scale(0.1 -0.1)">
      <defs>
       <path id="DejaVuSans-58" d="M 403 4666 
L 1081 4666 
L 2241 2931 
L 3406 4666 
L 4084 4666 
L 2584 2425 
L 4184 0 
L 3506 0 
L 2194 1984 
L 872 0 
L 191 0 
L 1856 2491 
L 403 4666 
z
" transform="scale(0.015625)"/>
       <path id="DejaVuSans-47" d="M 3809 666 
L 3809 1919 
L 2778 1919 
L 2778 2438 
L 4434 2438 
L 4434 434 
Q 4069 175 3628 42 
Q 3188 -91 2688 -91 
Q 1594 -91 976 548 
Q 359 1188 359 2328 
Q 359 3472 976 4111 
Q 1594 4750 2688 4750 
Q 3144 4750 3555 4637 
Q 3966 4525 4313 4306 
L 4313 3634 
Q 3963 3931 3569 4081 
Q 3175 4231 2741 4231 
Q 1884 4231 1454 3753 
Q 1025 3275 1025 2328 
Q 1025 1384 1454 906 
Q 1884 428 2741 428 
Q 3075 428 3337 486 
Q 3600 544 3809 666 
z
" transform="scale(0.015625)"/>
       <path id="DejaVuSans-42" d="M 1259 2228 
L 1259 519 
L 2272 519 
Q 2781 519 3026 730 
Q 3272 941 3272 1375 
Q 3272 1813 3026 2020 
Q 2781 2228 2272 2228 
L 1259 2228 
z
M 1259 4147 
L 1259 2741 
L 2194 2741 
Q 2656 2741 2882 2914 
Q 3109 3088 3109 3444 
Q 3109 3797 2882 3972 
Q 2656 4147 2194 4147 
L 1259 4147 
z
M 628 4666 
L 2241 4666 
Q 2963 4666 3353 4366 
Q 3744 4066 3744 3513 
Q 3744 3084 3544 2831 
Q 3344 2578 2956 2516 
Q 3422 2416 3680 2098 
Q 3938 1781 3938 1306 
Q 3938 681 3513 340 
Q 3088 0 2303 0 
L 628 0 
L 628 4666 
z
" transform="scale(0.015625)"/>
      </defs>
      <use xlink:href="#DejaVuSans-58"/>
      <use xlink:href="#DejaVuSans-47" x="68.505859"/>
      <use xlink:href="#DejaVuSans-42" x="145.996094"/>
      <use xlink:href="#DejaVuSans-6f" x="214.599609"/>
      <use xlink:href="#DejaVuSans-6f" x="275.78125"/>
      <use xlink:href="#DejaVuSans-73" x="336.962891"/>
      <use xlink:href="#DejaVuSans-74" x="389.0625"/>
      <use xlink:href="#DejaVuSans-20" x="428.271484"/>
      <use xlink:href="#DejaVuSans-46" x="460.058594"/>
      <use xlink:href="#DejaVuSans-6f" x="513.953125"/>
      <use xlink:href="#DejaVuSans-72" x="575.134766"/>
      <use xlink:href="#DejaVuSans-65" x="613.998047"/>
      <use xlink:href="#DejaVuSans-63" x="675.521484"/>
      <use xlink:href="#DejaVuSans-61" x="730.501953"/>
      <use xlink:href="#DejaVuSans-73" x="791.78125"/>
      <use xlink:href="#DejaVuSans-74" x="843.880859"/>
      <use xlink:href="#DejaVuSans-20" x="883.089844"/>
      <use xlink:href="#DejaVuSans-4c" x="914.876953"/>
      <use xlink:href="#DejaVuSans-6f" x="968.839844"/>
      <use xlink:href="#DejaVuSans-61" x="1030.021484"/>
      <use xlink:href="#DejaVuSans-64" x="1091.300781"/>
     </g>
    </g>
    <g id="line2d_38">
     <path d="M 471.703125 144.367187 
L 481.703125 144.367187 
L 491.703125 144.367187 
" style="fill: none; stroke: #e377c2; stroke-width: 3; stroke-linecap: square"/>
    </g>
    <g id="text_21">
     <!-- Revised KAN Forecast Load -->
     <g transform="translate(499.703125 147.867187) scale(0.1 -0.1)">
      <defs>
       <path id="DejaVuSans-52" d="M 2841 2188 
Q 3044 2119 3236 1894 
Q 3428 1669 3622 1275 
L 4263 0 
L 3584 0 
L 2988 1197 
Q 2756 1666 2539 1819 
Q 2322 1972 1947 1972 
L 1259 1972 
L 1259 0 
L 628 0 
L 628 4666 
L 2053 4666 
Q 2853 4666 3247 4331 
Q 3641 3997 3641 3322 
Q 3641 2881 3436 2590 
Q 3231 2300 2841 2188 
z
M 1259 4147 
L 1259 2491 
L 2053 2491 
Q 2509 2491 2742 2702 
Q 2975 2913 2975 3322 
Q 2975 3731 2742 3939 
Q 2509 4147 2053 4147 
L 1259 4147 
z
" transform="scale(0.015625)"/>
       <path id="DejaVuSans-76" d="M 191 3500 
L 800 3500 
L 1894 563 
L 2988 3500 
L 3597 3500 
L 2284 0 
L 1503 0 
L 191 3500 
z
" transform="scale(0.015625)"/>
       <path id="DejaVuSans-69" d="M 603 3500 
L 1178 3500 
L 1178 0 
L 603 0 
L 603 3500 
z
M 603 4863 
L 1178 4863 
L 1178 4134 
L 603 4134 
L 603 4863 
z
" transform="scale(0.015625)"/>
      </defs>
      <use xlink:href="#DejaVuSans-52"/>
      <use xlink:href="#DejaVuSans-65" x="64.982422"/>
      <use xlink:href="#DejaVuSans-76" x="126.505859"/>
      <use xlink:href="#DejaVuSans-69" x="185.685547"/>
      <use xlink:href="#DejaVuSans-73" x="213.46875"/>
      <use xlink:href="#DejaVuSans-65" x="265.568359"/>
      <use xlink:href="#DejaVuSans-64" x="327.091797"/>
      <use xlink:href="#DejaVuSans-20" x="390.568359"/>
      <use xlink:href="#DejaVuSans-4b" x="422.355469"/>
      <use xlink:href="#DejaVuSans-41" x="486.181641"/>
      <use xlink:href="#DejaVuSans-4e" x="554.589844"/>
      <use xlink:href="#DejaVuSans-20" x="629.394531"/>
      <use xlink:href="#DejaVuSans-46" x="661.181641"/>
      <use xlink:href="#DejaVuSans-6f" x="715.076172"/>
      <use xlink:href="#DejaVuSans-72" x="776.257812"/>
      <use xlink:href="#DejaVuSans-65" x="815.121094"/>
      <use xlink:href="#DejaVuSans-63" x="876.644531"/>
      <use xlink:href="#DejaVuSans-61" x="931.625"/>
      <use xlink:href="#DejaVuSans-73" x="992.904297"/>
      <use xlink:href="#DejaVuSans-74" x="1045.003906"/>
      <use xlink:href="#DejaVuSans-20" x="1084.212891"/>
      <use xlink:href="#DejaVuSans-4c" x="1116"/>
      <use xlink:href="#DejaVuSans-6f" x="1169.962891"/>
      <use xlink:href="#DejaVuSans-61" x="1231.144531"/>
      <use xlink:href="#DejaVuSans-64" x="1292.423828"/>
     </g>
    </g>
   </g>
  </g>
 </g>
 <defs>
  <clipPath id="p2ed11ac3d9">
   <rect x="135" y="43.2" width="837" height="277.2"/>
  </clipPath>
 </defs>
</svg>
