<?xml version="1.0" encoding="utf-8" standalone="no"?>
<!DOCTYPE svg PUBLIC "-//W3C//DTD SVG 1.1//EN"
  "http://www.w3.org/Graphics/SVG/1.1/DTD/svg11.dtd">
<svg xmlns:xlink="http://www.w3.org/1999/xlink" width="762.075pt" height="202.896pt" viewBox="0 0 762.075 202.896" xmlns="http://www.w3.org/2000/svg" version="1.1">
 <metadata>
  <rdf:RDF xmlns:dc="http://purl.org/dc/elements/1.1/" xmlns:cc="http://creativecommons.org/ns#" xmlns:rdf="http://www.w3.org/1999/02/22-rdf-syntax-ns#">
   <cc:Work>
    <dc:type rdf:resource="http://purl.org/dc/dcmitype/StillImage"/>
    <dc:date>2025-04-11T11:09:32.699098</dc:date>
    <dc:format>image/svg+xml</dc:format>
    <dc:creator>
     <cc:Agent>
      <dc:title>Matplotlib v3.6.2, https://matplotlib.org/</dc:title>
     </cc:Agent>
    </dc:creator>
   </cc:Work>
  </rdf:RDF>
 </metadata>
 <defs>
  <style type="text/css">*{stroke-linejoin: round; stroke-linecap: butt}</style>
 </defs>
 <g id="figure_1">
  <g id="patch_1">
   <path d="M 0 202.896 
L 762.075 202.896 
L 762.075 0 
L 0 0 
z
" style="fill: #ffffff"/>
  </g>
  <g id="axes_1">
   <g id="patch_2">
    <path d="M 73.0215 118.08 
L 742.6215 118.08 
L 742.6215 7.2 
L 73.0215 7.2 
z
" style="fill: #ffffff"/>
   </g>
   <g id="matplotlib.axis_1">
    <g id="xtick_1">
     <g id="line2d_1">
      <path d="M 103.457864 118.08 
L 103.457864 7.2 
" clip-path="url(#pf8fe6fb118)" style="fill: none; stroke: #b0b0b0; stroke-width: 0.8; stroke-linecap: square"/>
     </g>
     <g id="line2d_2">
      <defs>
       <path id="mfd4ec144cc" d="M 0 0 
L 0 3.5 
" style="stroke: #000000; stroke-width: 0.8"/>
      </defs>
      <g>
       <use xlink:href="#mfd4ec144cc" x="103.457864" y="118.08" style="stroke: #000000; stroke-width: 0.8"/>
      </g>
     </g>
     <g id="text_1">
      <!-- 0 -->
      <g transform="translate(98.685989 136.477656) scale(0.15 -0.15)">
       <defs>
        <path id="DejaVuSans-30" d="M 2034 4250 
Q 1547 4250 1301 3770 
Q 1056 3291 1056 2328 
Q 1056 1369 1301 889 
Q 1547 409 2034 409 
Q 2525 409 2770 889 
Q 3016 1369 3016 2328 
Q 3016 3291 2770 3770 
Q 2525 4250 2034 4250 
z
M 2034 4750 
Q 2819 4750 3233 4129 
Q 3647 3509 3647 2328 
Q 3647 1150 3233 529 
Q 2819 -91 2034 -91 
Q 1250 -91 836 529 
Q 422 1150 422 2328 
Q 422 3509 836 4129 
Q 1250 4750 2034 4750 
z
" transform="scale(0.015625)"/>
       </defs>
       <use xlink:href="#DejaVuSans-30"/>
      </g>
     </g>
    </g>
    <g id="xtick_2">
     <g id="line2d_3">
      <path d="M 230.806665 118.08 
L 230.806665 7.2 
" clip-path="url(#pf8fe6fb118)" style="fill: none; stroke: #b0b0b0; stroke-width: 0.8; stroke-linecap: square"/>
     </g>
     <g id="line2d_4">
      <g>
       <use xlink:href="#mfd4ec144cc" x="230.806665" y="118.08" style="stroke: #000000; stroke-width: 0.8"/>
      </g>
     </g>
     <g id="text_2">
      <!-- 50 -->
      <g transform="translate(221.262915 136.477656) scale(0.15 -0.15)">
       <defs>
        <path id="DejaVuSans-35" d="M 691 4666 
L 3169 4666 
L 3169 4134 
L 1269 4134 
L 1269 2991 
Q 1406 3038 1543 3061 
Q 1681 3084 1819 3084 
Q 2600 3084 3056 2656 
Q 3513 2228 3513 1497 
Q 3513 744 3044 326 
Q 2575 -91 1722 -91 
Q 1428 -91 1123 -41 
Q 819 9 494 109 
L 494 744 
Q 775 591 1075 516 
Q 1375 441 1709 441 
Q 2250 441 2565 725 
Q 2881 1009 2881 1497 
Q 2881 1984 2565 2268 
Q 2250 2553 1709 2553 
Q 1456 2553 1204 2497 
Q 953 2441 691 2322 
L 691 4666 
z
" transform="scale(0.015625)"/>
       </defs>
       <use xlink:href="#DejaVuSans-35"/>
       <use xlink:href="#DejaVuSans-30" x="63.623047"/>
      </g>
     </g>
    </g>
    <g id="xtick_3">
     <g id="line2d_5">
      <path d="M 358.155467 118.08 
L 358.155467 7.2 
" clip-path="url(#pf8fe6fb118)" style="fill: none; stroke: #b0b0b0; stroke-width: 0.8; stroke-linecap: square"/>
     </g>
     <g id="line2d_6">
      <g>
       <use xlink:href="#mfd4ec144cc" x="358.155467" y="118.08" style="stroke: #000000; stroke-width: 0.8"/>
      </g>
     </g>
     <g id="text_3">
      <!-- 100 -->
      <g transform="translate(343.839842 136.477656) scale(0.15 -0.15)">
       <defs>
        <path id="DejaVuSans-31" d="M 794 531 
L 1825 531 
L 1825 4091 
L 703 3866 
L 703 4441 
L 1819 4666 
L 2450 4666 
L 2450 531 
L 3481 531 
L 3481 0 
L 794 0 
L 794 531 
z
" transform="scale(0.015625)"/>
       </defs>
       <use xlink:href="#DejaVuSans-31"/>
       <use xlink:href="#DejaVuSans-30" x="63.623047"/>
       <use xlink:href="#DejaVuSans-30" x="127.246094"/>
      </g>
     </g>
    </g>
    <g id="xtick_4">
     <g id="line2d_7">
      <path d="M 485.504269 118.08 
L 485.504269 7.2 
" clip-path="url(#pf8fe6fb118)" style="fill: none; stroke: #b0b0b0; stroke-width: 0.8; stroke-linecap: square"/>
     </g>
     <g id="line2d_8">
      <g>
       <use xlink:href="#mfd4ec144cc" x="485.504269" y="118.08" style="stroke: #000000; stroke-width: 0.8"/>
      </g>
     </g>
     <g id="text_4">
      <!-- 150 -->
      <g transform="translate(471.188644 136.477656) scale(0.15 -0.15)">
       <use xlink:href="#DejaVuSans-31"/>
       <use xlink:href="#DejaVuSans-35" x="63.623047"/>
       <use xlink:href="#DejaVuSans-30" x="127.246094"/>
      </g>
     </g>
    </g>
    <g id="xtick_5">
     <g id="line2d_9">
      <path d="M 612.853071 118.08 
L 612.853071 7.2 
" clip-path="url(#pf8fe6fb118)" style="fill: none; stroke: #b0b0b0; stroke-width: 0.8; stroke-linecap: square"/>
     </g>
     <g id="line2d_10">
      <g>
       <use xlink:href="#mfd4ec144cc" x="612.853071" y="118.08" style="stroke: #000000; stroke-width: 0.8"/>
      </g>
     </g>
     <g id="text_5">
      <!-- 200 -->
      <g transform="translate(598.537446 136.477656) scale(0.15 -0.15)">
       <defs>
        <path id="DejaVuSans-32" d="M 1228 531 
L 3431 531 
L 3431 0 
L 469 0 
L 469 531 
Q 828 903 1448 1529 
Q 2069 2156 2228 2338 
Q 2531 2678 2651 2914 
Q 2772 3150 2772 3378 
Q 2772 3750 2511 3984 
Q 2250 4219 1831 4219 
Q 1534 4219 1204 4116 
Q 875 4013 500 3803 
L 500 4441 
Q 881 4594 1212 4672 
Q 1544 4750 1819 4750 
Q 2544 4750 2975 4387 
Q 3406 4025 3406 3419 
Q 3406 3131 3298 2873 
Q 3191 2616 2906 2266 
Q 2828 2175 2409 1742 
Q 1991 1309 1228 531 
z
" transform="scale(0.015625)"/>
       </defs>
       <use xlink:href="#DejaVuSans-32"/>
       <use xlink:href="#DejaVuSans-30" x="63.623047"/>
       <use xlink:href="#DejaVuSans-30" x="127.246094"/>
      </g>
     </g>
    </g>
    <g id="xtick_6">
     <g id="line2d_11">
      <path d="M 740.201873 118.08 
L 740.201873 7.2 
" clip-path="url(#pf8fe6fb118)" style="fill: none; stroke: #b0b0b0; stroke-width: 0.8; stroke-linecap: square"/>
     </g>
     <g id="line2d_12">
      <g>
       <use xlink:href="#mfd4ec144cc" x="740.201873" y="118.08" style="stroke: #000000; stroke-width: 0.8"/>
      </g>
     </g>
     <g id="text_6">
      <!-- 250 -->
      <g transform="translate(725.886248 136.477656) scale(0.15 -0.15)">
       <use xlink:href="#DejaVuSans-32"/>
       <use xlink:href="#DejaVuSans-35" x="63.623047"/>
       <use xlink:href="#DejaVuSans-30" x="127.246094"/>
      </g>
     </g>
    </g>
    <g id="text_7">
     <!-- Hours -->
     <g transform="translate(385.848844 154.994844) scale(0.15 -0.15)">
      <defs>
       <path id="DejaVuSans-48" d="M 628 4666 
L 1259 4666 
L 1259 2753 
L 3553 2753 
L 3553 4666 
L 4184 4666 
L 4184 0 
L 3553 0 
L 3553 2222 
L 1259 2222 
L 1259 0 
L 628 0 
L 628 4666 
z
" transform="scale(0.015625)"/>
       <path id="DejaVuSans-6f" d="M 1959 3097 
Q 1497 3097 1228 2736 
Q 959 2375 959 1747 
Q 959 1119 1226 758 
Q 1494 397 1959 397 
Q 2419 397 2687 759 
Q 2956 1122 2956 1747 
Q 2956 2369 2687 2733 
Q 2419 3097 1959 3097 
z
M 1959 3584 
Q 2709 3584 3137 3096 
Q 3566 2609 3566 1747 
Q 3566 888 3137 398 
Q 2709 -91 1959 -91 
Q 1206 -91 779 398 
Q 353 888 353 1747 
Q 353 2609 779 3096 
Q 1206 3584 1959 3584 
z
" transform="scale(0.015625)"/>
       <path id="DejaVuSans-75" d="M 544 1381 
L 544 3500 
L 1119 3500 
L 1119 1403 
Q 1119 906 1312 657 
Q 1506 409 1894 409 
Q 2359 409 2629 706 
Q 2900 1003 2900 1516 
L 2900 3500 
L 3475 3500 
L 3475 0 
L 2900 0 
L 2900 538 
Q 2691 219 2414 64 
Q 2138 -91 1772 -91 
Q 1169 -91 856 284 
Q 544 659 544 1381 
z
M 1991 3584 
L 1991 3584 
z
" transform="scale(0.015625)"/>
       <path id="DejaVuSans-72" d="M 2631 2963 
Q 2534 3019 2420 3045 
Q 2306 3072 2169 3072 
Q 1681 3072 1420 2755 
Q 1159 2438 1159 1844 
L 1159 0 
L 581 0 
L 581 3500 
L 1159 3500 
L 1159 2956 
Q 1341 3275 1631 3429 
Q 1922 3584 2338 3584 
Q 2397 3584 2469 3576 
Q 2541 3569 2628 3553 
L 2631 2963 
z
" transform="scale(0.015625)"/>
       <path id="DejaVuSans-73" d="M 2834 3397 
L 2834 2853 
Q 2591 2978 2328 3040 
Q 2066 3103 1784 3103 
Q 1356 3103 1142 2972 
Q 928 2841 928 2578 
Q 928 2378 1081 2264 
Q 1234 2150 1697 2047 
L 1894 2003 
Q 2506 1872 2764 1633 
Q 3022 1394 3022 966 
Q 3022 478 2636 193 
Q 2250 -91 1575 -91 
Q 1294 -91 989 -36 
Q 684 19 347 128 
L 347 722 
Q 666 556 975 473 
Q 1284 391 1588 391 
Q 1994 391 2212 530 
Q 2431 669 2431 922 
Q 2431 1156 2273 1281 
Q 2116 1406 1581 1522 
L 1381 1569 
Q 847 1681 609 1914 
Q 372 2147 372 2553 
Q 372 3047 722 3315 
Q 1072 3584 1716 3584 
Q 2034 3584 2315 3537 
Q 2597 3491 2834 3397 
z
" transform="scale(0.015625)"/>
      </defs>
      <use xlink:href="#DejaVuSans-48"/>
      <use xlink:href="#DejaVuSans-6f" x="75.195312"/>
      <use xlink:href="#DejaVuSans-75" x="136.376953"/>
      <use xlink:href="#DejaVuSans-72" x="199.755859"/>
      <use xlink:href="#DejaVuSans-73" x="240.869141"/>
     </g>
    </g>
   </g>
   <g id="matplotlib.axis_2">
    <g id="ytick_1">
     <g id="line2d_13">
      <path d="M 73.0215 117.053589 
L 742.6215 117.053589 
" clip-path="url(#pf8fe6fb118)" style="fill: none; stroke: #b0b0b0; stroke-width: 0.8; stroke-linecap: square"/>
     </g>
     <g id="line2d_14">
      <defs>
       <path id="m2f703219fb" d="M 0 0 
L -3.5 0 
" style="stroke: #000000; stroke-width: 0.8"/>
      </defs>
      <g>
       <use xlink:href="#m2f703219fb" x="73.0215" y="117.053589" style="stroke: #000000; stroke-width: 0.8"/>
      </g>
     </g>
     <g id="text_8">
      <!-- 6000 -->
      <g transform="translate(27.8465 122.752418) scale(0.15 -0.15)">
       <defs>
        <path id="DejaVuSans-36" d="M 2113 2584 
Q 1688 2584 1439 2293 
Q 1191 2003 1191 1497 
Q 1191 994 1439 701 
Q 1688 409 2113 409 
Q 2538 409 2786 701 
Q 3034 994 3034 1497 
Q 3034 2003 2786 2293 
Q 2538 2584 2113 2584 
z
M 3366 4563 
L 3366 3988 
Q 3128 4100 2886 4159 
Q 2644 4219 2406 4219 
Q 1781 4219 1451 3797 
Q 1122 3375 1075 2522 
Q 1259 2794 1537 2939 
Q 1816 3084 2150 3084 
Q 2853 3084 3261 2657 
Q 3669 2231 3669 1497 
Q 3669 778 3244 343 
Q 2819 -91 2113 -91 
Q 1303 -91 875 529 
Q 447 1150 447 2328 
Q 447 3434 972 4092 
Q 1497 4750 2381 4750 
Q 2619 4750 2861 4703 
Q 3103 4656 3366 4563 
z
" transform="scale(0.015625)"/>
       </defs>
       <use xlink:href="#DejaVuSans-36"/>
       <use xlink:href="#DejaVuSans-30" x="63.623047"/>
       <use xlink:href="#DejaVuSans-30" x="127.246094"/>
       <use xlink:href="#DejaVuSans-30" x="190.869141"/>
      </g>
     </g>
    </g>
    <g id="ytick_2">
     <g id="line2d_15">
      <path d="M 73.0215 83.004332 
L 742.6215 83.004332 
" clip-path="url(#pf8fe6fb118)" style="fill: none; stroke: #b0b0b0; stroke-width: 0.8; stroke-linecap: square"/>
     </g>
     <g id="line2d_16">
      <g>
       <use xlink:href="#m2f703219fb" x="73.0215" y="83.004332" style="stroke: #000000; stroke-width: 0.8"/>
      </g>
     </g>
     <g id="text_9">
      <!-- 7000 -->
      <g transform="translate(27.8465 88.70316) scale(0.15 -0.15)">
       <defs>
        <path id="DejaVuSans-37" d="M 525 4666 
L 3525 4666 
L 3525 4397 
L 1831 0 
L 1172 0 
L 2766 4134 
L 525 4134 
L 525 4666 
z
" transform="scale(0.015625)"/>
       </defs>
       <use xlink:href="#DejaVuSans-37"/>
       <use xlink:href="#DejaVuSans-30" x="63.623047"/>
       <use xlink:href="#DejaVuSans-30" x="127.246094"/>
       <use xlink:href="#DejaVuSans-30" x="190.869141"/>
      </g>
     </g>
    </g>
    <g id="ytick_3">
     <g id="line2d_17">
      <path d="M 73.0215 48.955075 
L 742.6215 48.955075 
" clip-path="url(#pf8fe6fb118)" style="fill: none; stroke: #b0b0b0; stroke-width: 0.8; stroke-linecap: square"/>
     </g>
     <g id="line2d_18">
      <g>
       <use xlink:href="#m2f703219fb" x="73.0215" y="48.955075" style="stroke: #000000; stroke-width: 0.8"/>
      </g>
     </g>
     <g id="text_10">
      <!-- 8000 -->
      <g transform="translate(27.8465 54.653903) scale(0.15 -0.15)">
       <defs>
        <path id="DejaVuSans-38" d="M 2034 2216 
Q 1584 2216 1326 1975 
Q 1069 1734 1069 1313 
Q 1069 891 1326 650 
Q 1584 409 2034 409 
Q 2484 409 2743 651 
Q 3003 894 3003 1313 
Q 3003 1734 2745 1975 
Q 2488 2216 2034 2216 
z
M 1403 2484 
Q 997 2584 770 2862 
Q 544 3141 544 3541 
Q 544 4100 942 4425 
Q 1341 4750 2034 4750 
Q 2731 4750 3128 4425 
Q 3525 4100 3525 3541 
Q 3525 3141 3298 2862 
Q 3072 2584 2669 2484 
Q 3125 2378 3379 2068 
Q 3634 1759 3634 1313 
Q 3634 634 3220 271 
Q 2806 -91 2034 -91 
Q 1263 -91 848 271 
Q 434 634 434 1313 
Q 434 1759 690 2068 
Q 947 2378 1403 2484 
z
M 1172 3481 
Q 1172 3119 1398 2916 
Q 1625 2713 2034 2713 
Q 2441 2713 2670 2916 
Q 2900 3119 2900 3481 
Q 2900 3844 2670 4047 
Q 2441 4250 2034 4250 
Q 1625 4250 1398 4047 
Q 1172 3844 1172 3481 
z
" transform="scale(0.015625)"/>
       </defs>
       <use xlink:href="#DejaVuSans-38"/>
       <use xlink:href="#DejaVuSans-30" x="63.623047"/>
       <use xlink:href="#DejaVuSans-30" x="127.246094"/>
       <use xlink:href="#DejaVuSans-30" x="190.869141"/>
      </g>
     </g>
    </g>
    <g id="ytick_4">
     <g id="line2d_19">
      <path d="M 73.0215 14.905817 
L 742.6215 14.905817 
" clip-path="url(#pf8fe6fb118)" style="fill: none; stroke: #b0b0b0; stroke-width: 0.8; stroke-linecap: square"/>
     </g>
     <g id="line2d_20">
      <g>
       <use xlink:href="#m2f703219fb" x="73.0215" y="14.905817" style="stroke: #000000; stroke-width: 0.8"/>
      </g>
     </g>
     <g id="text_11">
      <!-- 9000 -->
      <g transform="translate(27.8465 20.604646) scale(0.15 -0.15)">
       <defs>
        <path id="DejaVuSans-39" d="M 703 97 
L 703 672 
Q 941 559 1184 500 
Q 1428 441 1663 441 
Q 2288 441 2617 861 
Q 2947 1281 2994 2138 
Q 2813 1869 2534 1725 
Q 2256 1581 1919 1581 
Q 1219 1581 811 2004 
Q 403 2428 403 3163 
Q 403 3881 828 4315 
Q 1253 4750 1959 4750 
Q 2769 4750 3195 4129 
Q 3622 3509 3622 2328 
Q 3622 1225 3098 567 
Q 2575 -91 1691 -91 
Q 1453 -91 1209 -44 
Q 966 3 703 97 
z
M 1959 2075 
Q 2384 2075 2632 2365 
Q 2881 2656 2881 3163 
Q 2881 3666 2632 3958 
Q 2384 4250 1959 4250 
Q 1534 4250 1286 3958 
Q 1038 3666 1038 3163 
Q 1038 2656 1286 2365 
Q 1534 2075 1959 2075 
z
" transform="scale(0.015625)"/>
       </defs>
       <use xlink:href="#DejaVuSans-39"/>
       <use xlink:href="#DejaVuSans-30" x="63.623047"/>
       <use xlink:href="#DejaVuSans-30" x="127.246094"/>
       <use xlink:href="#DejaVuSans-30" x="190.869141"/>
      </g>
     </g>
    </g>
    <g id="text_12">
     <!-- MW -->
     <g transform="translate(20.726969 76.526719) rotate(-90) scale(0.15 -0.15)">
      <defs>
       <path id="DejaVuSans-4d" d="M 628 4666 
L 1569 4666 
L 2759 1491 
L 3956 4666 
L 4897 4666 
L 4897 0 
L 4281 0 
L 4281 4097 
L 3078 897 
L 2444 897 
L 1241 4097 
L 1241 0 
L 628 0 
L 628 4666 
z
" transform="scale(0.015625)"/>
       <path id="DejaVuSans-57" d="M 213 4666 
L 850 4666 
L 1831 722 
L 2809 4666 
L 3519 4666 
L 4500 722 
L 5478 4666 
L 6119 4666 
L 4947 0 
L 4153 0 
L 3169 4050 
L 2175 0 
L 1381 0 
L 213 4666 
z
" transform="scale(0.015625)"/>
      </defs>
      <use xlink:href="#DejaVuSans-4d"/>
      <use xlink:href="#DejaVuSans-57" x="86.279297"/>
     </g>
    </g>
   </g>
   <g id="line2d_21">
    <path d="M 103.457864 86.579504 
L 106.00484 84.570598 
L 108.551816 85.626125 
L 111.098792 85.830421 
L 113.645768 92.26573 
L 116.192744 83.54912 
L 118.73972 59.374148 
L 121.286696 36.493047 
L 123.833672 22.669048 
L 128.927624 22.192359 
L 131.4746 23.043589 
L 134.021576 36.663292 
L 136.568552 35.165124 
L 139.115528 43.881735 
L 141.662504 47.014267 
L 144.20948 47.933596 
L 146.756456 47.184513 
L 149.303432 31.419709 
L 151.850408 34.48414 
L 154.397384 51.406621 
L 156.94436 64.106994 
L 159.491336 70.882796 
L 162.038312 84.911091 
L 164.585289 84.877041 
L 167.132265 83.957711 
L 169.679241 86.74975 
L 172.226217 92.095483 
L 174.773193 95.806853 
L 177.320169 84.434401 
L 179.867145 65.196571 
L 182.414121 42.928356 
L 184.961097 27.504042 
L 187.508073 26.414467 
L 190.055049 22.328555 
L 192.602025 22.737148 
L 195.149001 34.858684 
L 197.695977 30.159886 
L 200.242953 34.007451 
L 202.789929 33.360516 
L 205.336905 27.67429 
L 207.883881 27.129501 
L 210.430857 21.23898 
L 212.977833 29.546998 
L 218.071785 60.940413 
L 220.618761 68.635546 
L 223.165737 79.769653 
L 225.712713 70.133713 
L 228.259689 66.490443 
L 230.806665 69.180334 
L 233.353641 70.576353 
L 235.900618 75.78589 
L 238.447594 65.979704 
L 240.99457 59.067704 
L 243.541546 38.467904 
L 246.088522 22.669048 
L 248.635498 19.911058 
L 251.182474 16.574233 
L 253.72945 14.871767 
L 256.276426 24.065067 
L 258.823402 21.136831 
L 261.370378 26.346368 
L 263.917354 27.606191 
L 266.46433 29.683197 
L 269.011306 33.905302 
L 271.558282 23.758623 
L 274.105258 27.265697 
L 276.652234 43.949835 
L 279.19921 58.454817 
L 281.746186 65.060374 
L 284.293162 75.78589 
L 286.840138 79.327012 
L 289.387114 73.130047 
L 291.93409 66.320196 
L 294.481066 69.963467 
L 297.028042 72.415013 
L 299.575018 75.445397 
L 302.121994 58.727211 
L 304.668971 40.272515 
L 307.215947 27.606191 
L 309.762923 24.677955 
L 312.309899 21.136831 
L 314.856875 23.384083 
L 317.403851 32.339038 
L 319.950827 32.032594 
L 322.497803 36.220652 
L 325.044779 42.043077 
L 327.591755 45.958741 
L 330.138731 44.358424 
L 332.685707 33.530761 
L 335.232683 37.991214 
L 337.779659 54.266759 
L 340.326635 67.409772 
L 342.873611 74.185574 
L 345.420587 82.66384 
L 347.967563 88.077672 
L 350.514539 88.894853 
L 353.061515 74.423919 
L 358.155467 87.941475 
L 363.249419 82.18715 
L 365.796395 94.240587 
L 368.343371 83.617219 
L 370.890347 69.725122 
L 373.437324 62.336433 
L 375.9843 57.501438 
L 378.531276 53.687922 
L 381.078252 54.300808 
L 383.625228 62.642876 
L 386.172204 62.710975 
L 388.71918 61.008512 
L 391.266156 67.716216 
L 393.813132 55.833026 
L 396.360108 56.582108 
L 398.907084 71.427585 
L 401.45406 80.893278 
L 404.001036 84.740844 
L 406.548012 85.86447 
L 409.094988 88.928903 
L 411.641964 84.706795 
L 414.18894 86.817849 
L 416.735916 93.219109 
L 419.282892 100.675897 
L 421.829868 99.756566 
L 424.376844 111.639757 
L 426.92382 105.817336 
L 429.470796 92.435976 
L 432.017772 92.946715 
L 434.564748 80.34849 
L 437.111724 72.415013 
L 439.6587 70.440156 
L 442.205676 76.500924 
L 444.752653 83.481022 
L 447.299629 84.638696 
L 449.846605 81.71046 
L 452.393581 77.420254 
L 454.940557 69.827269 
L 457.487533 64.209142 
L 460.034509 76.398776 
L 462.581485 85.830421 
L 465.128461 89.643937 
L 467.675437 96.930478 
L 470.222413 95.398263 
L 472.769389 89.677987 
L 475.316365 83.378874 
L 477.863341 81.029475 
L 480.410317 86.34116 
L 482.957293 78.271485 
L 485.504269 63.017418 
L 488.051245 41.498288 
L 490.598221 29.581048 
L 493.145197 29.921541 
L 495.692173 31.147314 
L 498.239149 29.444849 
L 500.786125 40.47681 
L 503.333101 42.213322 
L 505.880077 44.630819 
L 508.427053 49.329616 
L 510.974029 46.503527 
L 513.521006 45.584198 
L 516.067982 31.215411 
L 518.614958 31.589954 
L 521.161934 47.456907 
L 523.70891 60.63397 
L 526.255886 69.146284 
L 528.802862 76.194481 
L 531.349838 74.355821 
L 533.896814 72.312865 
L 536.44379 73.130047 
L 538.990766 76.160431 
L 541.537742 80.927327 
L 544.084718 67.477871 
L 546.631694 59.612492 
L 549.17867 37.65072 
L 551.725646 23.179788 
L 554.272622 22.022114 
L 556.819598 19.26412 
L 559.366574 17.119021 
L 561.91355 28.389324 
L 564.460526 27.946684 
L 567.007502 32.985973 
L 569.554478 37.037835 
L 572.101454 39.829872 
L 574.64843 43.507195 
L 577.195406 31.72615 
L 579.742382 31.079215 
L 582.289359 46.163036 
L 584.836335 58.284572 
L 587.383311 60.191329 
L 589.930287 65.400866 
L 592.477263 85.013238 
L 595.024239 77.522402 
L 597.571215 77.420254 
L 600.118191 86.375209 
L 602.665167 88.962953 
L 605.212143 75.956136 
L 607.759119 61.723546 
L 610.306095 41.089695 
L 612.853071 28.423374 
L 615.400047 29.887492 
L 617.947023 29.478898 
L 620.493999 31.453755 
L 623.040975 44.188179 
L 625.587951 47.082365 
L 628.134927 53.790069 
L 630.681903 59.408197 
L 633.228879 61.212807 
L 635.775855 59.510345 
L 638.322831 42.315468 
L 640.869807 40.272515 
L 643.416783 55.833026 
L 645.963759 66.830935 
L 651.057711 87.056194 
L 653.604688 82.765987 
L 656.151664 83.412923 
L 658.69864 84.196056 
L 661.245616 89.575839 
L 663.792592 92.129533 
L 666.339568 80.314441 
L 668.886544 56.411862 
L 671.43352 35.982308 
L 673.980496 27.061402 
L 676.527472 30.806821 
L 679.074448 32.441184 
L 681.621424 34.51819 
L 684.1684 49.125321 
L 686.715376 49.057222 
L 689.262352 52.189754 
L 691.809328 58.659114 
L 694.356304 61.07661 
L 696.90328 61.485202 
L 699.450256 44.358424 
L 701.997232 37.548574 
L 704.544208 52.223804 
L 707.091184 65.571113 
L 709.63816 73.504589 
L 712.185136 87.090243 
L 712.185136 87.090243 
" clip-path="url(#pf8fe6fb118)" style="fill: none; stroke: #1f77b4; stroke-width: 3; stroke-linecap: square"/>
   </g>
   <g id="line2d_22">
    <path d="M 103.457864 84.655721 
L 106.00484 90.562037 
L 108.551816 94.289666 
L 111.098792 97.440685 
L 113.645768 99.861208 
L 116.192744 104.700027 
L 118.73972 95.742429 
L 121.286696 74.862387 
L 123.833672 47.479136 
L 126.380648 30.014909 
L 128.927624 29.223663 
L 131.4746 26.066127 
L 134.021576 27.330471 
L 136.568552 40.132992 
L 139.115528 42.72722 
L 141.662504 48.60331 
L 144.20948 47.951054 
L 146.756456 44.499044 
L 149.303432 33.625494 
L 151.850408 23.570522 
L 154.397384 33.87837 
L 156.94436 50.38122 
L 159.491336 65.345553 
L 162.038312 71.17549 
L 164.585289 78.307363 
L 167.132265 81.546382 
L 169.679241 81.999563 
L 172.226217 83.867783 
L 174.773193 86.882938 
L 177.320169 92.426766 
L 179.867145 82.519928 
L 182.414121 62.673334 
L 184.961097 36.68198 
L 187.508073 20.211616 
L 192.602025 22.988559 
L 195.149001 25.737205 
L 197.695977 38.231421 
L 200.242953 39.432089 
L 202.789929 44.441453 
L 205.336905 46.508483 
L 207.883881 47.130713 
L 210.430857 45.174493 
L 212.977833 35.303617 
L 215.524809 40.94103 
L 220.618761 71.754577 
L 223.165737 80.510723 
L 225.712713 88.452762 
L 228.259689 88.91783 
L 230.806665 89.918775 
L 233.353641 89.1192 
L 235.900618 91.328893 
L 238.447594 93.687353 
L 240.99457 88.47125 
L 243.541546 75.517253 
L 246.088522 55.247238 
L 248.635498 41.994961 
L 251.182474 44.088242 
L 253.72945 47.325598 
L 256.276426 49.741965 
L 258.823402 52.883258 
L 261.370378 48.176963 
L 263.917354 49.517154 
L 266.46433 51.576169 
L 269.011306 51.768046 
L 271.558282 46.742804 
L 274.105258 38.616071 
L 276.652234 42.718325 
L 279.19921 56.827486 
L 281.746186 66.454814 
L 284.293162 71.300532 
L 286.840138 77.063651 
L 289.387114 78.509215 
L 291.93409 77.538944 
L 294.481066 82.672152 
L 297.028042 87.343784 
L 299.575018 99.914144 
L 302.121994 104.130167 
L 304.668971 105.189468 
L 307.215947 101.710475 
L 309.762923 96.920437 
L 312.309899 92.653639 
L 314.856875 87.045753 
L 317.403851 81.711824 
L 319.950827 79.794026 
L 322.497803 76.773601 
L 325.044779 82.426792 
L 327.591755 87.418798 
L 330.138731 87.199922 
L 332.685707 81.085803 
L 335.232683 74.64652 
L 337.779659 80.532303 
L 340.326635 90.67825 
L 342.873611 92.025141 
L 345.420587 89.662558 
L 347.967563 96.471179 
L 350.514539 93.908258 
L 353.061515 91.790886 
L 358.155467 90.171102 
L 360.702443 96.231188 
L 363.249419 98.59979 
L 365.796395 103.092214 
L 368.343371 102.656772 
L 373.437324 93.760024 
L 375.9843 92.106473 
L 378.531276 90.130503 
L 381.078252 89.77784 
L 383.625228 86.936057 
L 386.172204 91.278036 
L 388.71918 94.509024 
L 391.266156 95.210193 
L 396.360108 80.710795 
L 398.907084 88.096059 
L 401.45406 100.937467 
L 404.001036 108.065084 
L 406.548012 109.075506 
L 409.094988 112.66466 
L 411.641964 106.259144 
L 414.18894 104.619243 
L 416.735916 100.59616 
L 419.282892 92.841508 
L 421.829868 90.086495 
L 424.376844 77.373918 
L 426.92382 60.485154 
L 429.470796 38.189325 
L 432.017772 26.733778 
L 434.564748 28.417653 
L 437.111724 31.089689 
L 439.6587 32.98062 
L 442.205676 38.976381 
L 444.752653 34.059057 
L 447.299629 35.15924 
L 449.846605 39.764269 
L 452.393581 41.943122 
L 454.940557 34.775488 
L 457.487533 20.231334 
L 460.034509 28.731345 
L 462.581485 49.353907 
L 465.128461 67.988909 
L 467.675437 79.148121 
L 470.222413 88.332343 
L 472.769389 89.461155 
L 475.316365 92.765529 
L 477.863341 94.764277 
L 480.410317 96.139299 
L 482.957293 100.505401 
L 485.504269 91.633658 
L 488.051245 71.180079 
L 490.598221 38.541754 
L 493.145197 21.705727 
L 495.692173 23.315651 
L 498.239149 24.311526 
L 500.786125 30.222563 
L 503.333101 45.357292 
L 505.880077 48.161933 
L 508.427053 51.575687 
L 510.974029 48.871531 
L 513.521006 45.637184 
L 516.067982 38.478278 
L 518.614958 33.279914 
L 521.161934 47.692925 
L 523.70891 66.086506 
L 526.255886 77.668192 
L 528.802862 82.75139 
L 531.349838 87.482757 
L 533.896814 92.661752 
L 536.44379 93.014415 
L 538.990766 91.465722 
L 541.537742 89.182028 
L 544.084718 92.380912 
L 546.631694 91.25614 
L 549.17867 76.114079 
L 551.725646 49.373392 
L 554.272622 37.449452 
L 556.819598 38.271455 
L 559.366574 39.48722 
L 561.91355 41.417055 
L 564.460526 52.391689 
L 567.007502 55.268219 
L 569.554478 60.236086 
L 572.101454 62.49298 
L 574.64843 60.098409 
L 577.195406 50.820785 
L 579.742382 34.362973 
L 582.289359 34.810169 
L 587.383311 63.602108 
L 589.930287 68.435988 
L 592.477263 73.661086 
L 595.024239 77.635456 
L 597.571215 79.51272 
L 600.118191 82.864062 
L 602.665167 83.290043 
L 605.212143 88.531551 
L 607.759119 83.839187 
L 610.306095 69.361852 
L 612.853071 46.457741 
L 615.400047 32.489865 
L 617.947023 35.397419 
L 620.493999 37.564268 
L 623.040975 43.818608 
L 625.587951 55.344132 
L 628.134927 59.005691 
L 633.228879 67.043892 
L 635.775855 68.103293 
L 638.322831 61.443471 
L 640.869807 44.781647 
L 643.416783 42.541312 
L 645.963759 52.44662 
L 648.510735 63.701462 
L 651.057711 69.775813 
L 653.604688 80.632456 
L 656.151664 86.346513 
L 658.69864 89.008423 
L 661.245616 88.426211 
L 663.792592 84.658631 
L 666.339568 86.643563 
L 668.886544 81.076825 
L 671.43352 70.487971 
L 673.980496 52.317805 
L 676.527472 36.295601 
L 679.074448 28.934677 
L 681.621424 25.173597 
L 684.1684 25.289378 
L 686.715376 32.981883 
L 689.262352 37.31648 
L 691.809328 48.203863 
L 694.356304 54.598789 
L 696.90328 55.936486 
L 699.450256 49.837762 
L 701.997232 39.210935 
L 704.544208 44.669923 
L 707.091184 58.94268 
L 709.63816 69.854718 
L 712.185136 74.327092 
L 712.185136 74.327092 
" clip-path="url(#pf8fe6fb118)" style="fill: none; stroke: #ff7f0e; stroke-width: 2; stroke-linecap: square"/>
   </g>
   <g id="line2d_23">
    <path d="M 103.457864 84.506124 
L 106.00484 91.661688 
L 108.551816 91.53683 
L 111.098792 89.187913 
L 113.645768 89.055607 
L 116.192744 93.472384 
L 118.73972 85.552723 
L 121.286696 74.523008 
L 123.833672 53.094221 
L 126.380648 38.792569 
L 128.927624 34.620371 
L 131.4746 35.258728 
L 134.021576 39.308362 
L 136.568552 44.49557 
L 139.115528 51.863177 
L 141.662504 53.246977 
L 144.20948 52.98514 
L 146.756456 45.704618 
L 149.303432 39.661124 
L 151.850408 31.858025 
L 154.397384 37.647363 
L 156.94436 57.076754 
L 159.491336 69.188713 
L 162.038312 75.208731 
L 164.585289 86.116331 
L 167.132265 90.160761 
L 169.679241 92.017061 
L 172.226217 91.039608 
L 174.773193 89.137355 
L 177.320169 90.542369 
L 179.867145 79.544625 
L 182.414121 61.221885 
L 184.961097 38.007707 
L 187.508073 29.152838 
L 192.602025 28.476375 
L 195.149001 29.580848 
L 197.695977 32.319386 
L 200.242953 35.5535 
L 202.789929 37.185171 
L 205.336905 41.136248 
L 207.883881 43.47341 
L 210.430857 40.233311 
L 212.977833 32.144518 
L 215.524809 39.49796 
L 218.071785 55.493546 
L 220.618761 68.434392 
L 225.712713 84.754111 
L 228.259689 85.529065 
L 230.806665 86.822305 
L 233.353641 89.464796 
L 235.900618 89.129125 
L 238.447594 92.644013 
L 240.99457 93.251679 
L 243.541546 80.595065 
L 246.088522 55.021445 
L 248.635498 35.127452 
L 251.182474 30.154199 
L 253.72945 30.702013 
L 256.276426 34.071659 
L 261.370378 41.534664 
L 263.917354 46.39079 
L 266.46433 53.913797 
L 269.011306 60.485005 
L 271.558282 58.945257 
L 274.105258 47.270601 
L 276.652234 44.375899 
L 279.19921 54.352514 
L 281.746186 65.504361 
L 284.293162 72.743552 
L 286.840138 76.49045 
L 289.387114 86.535313 
L 291.93409 87.021812 
L 294.481066 87.929487 
L 297.028042 87.23999 
L 299.575018 91.087007 
L 302.121994 96.091001 
L 304.668971 96.675491 
L 309.762923 90.869461 
L 312.309899 90.197603 
L 314.856875 88.475938 
L 319.950827 85.643748 
L 322.497803 84.098081 
L 325.044779 83.785453 
L 327.591755 85.929858 
L 330.138731 86.791863 
L 332.685707 82.032831 
L 335.232683 67.850434 
L 337.779659 70.324791 
L 340.326635 85.097996 
L 342.873611 89.252953 
L 345.420587 92.855274 
L 347.967563 93.523142 
L 350.514539 91.993536 
L 353.061515 90.774246 
L 355.608491 93.732259 
L 358.155467 96.038248 
L 360.702443 100.602694 
L 363.249419 104.809191 
L 365.796395 106.394509 
L 368.343371 104.136585 
L 370.890347 96.655075 
L 373.437324 87.7218 
L 378.531276 74.565919 
L 381.078252 72.957108 
L 383.625228 69.712786 
L 386.172204 66.870238 
L 388.71918 70.014274 
L 391.266156 73.80656 
L 393.813132 74.050308 
L 396.360108 66.112376 
L 398.907084 67.013867 
L 401.45406 77.327882 
L 404.001036 86.594484 
L 406.548012 89.311259 
L 409.094988 92.387147 
L 411.641964 90.007623 
L 414.18894 89.104153 
L 416.735916 92.779611 
L 419.282892 91.191383 
L 421.829868 94.32054 
L 424.376844 88.618436 
L 426.92382 74.420927 
L 429.470796 43.677972 
L 432.017772 29.154767 
L 434.564748 28.249701 
L 437.111724 31.156624 
L 439.6587 36.337597 
L 442.205676 42.811378 
L 444.752653 47.567983 
L 447.299629 48.412897 
L 449.846605 49.665421 
L 452.393581 52.532242 
L 454.940557 46.074937 
L 457.487533 34.049214 
L 460.034509 44.555771 
L 462.581485 60.593753 
L 465.128461 72.887596 
L 467.675437 78.211151 
L 470.222413 80.665657 
L 472.769389 85.851735 
L 475.316365 88.532133 
L 477.863341 88.346159 
L 480.410317 86.908242 
L 482.957293 91.10483 
L 485.504269 82.406508 
L 488.051245 72.679111 
L 490.598221 50.919458 
L 493.145197 38.529751 
L 495.692173 35.14594 
L 498.239149 34.573819 
L 500.786125 36.889567 
L 503.333101 41.005571 
L 505.880077 44.531814 
L 508.427053 47.545672 
L 510.974029 48.974045 
L 513.521006 52.163719 
L 516.067982 50.236976 
L 518.614958 39.764735 
L 521.161934 43.261201 
L 523.70891 61.182416 
L 526.255886 74.120801 
L 528.802862 78.866699 
L 531.349838 84.631348 
L 533.896814 89.405326 
L 536.44379 87.511752 
L 538.990766 87.351249 
L 541.537742 84.917242 
L 544.084718 86.22739 
L 546.631694 78.547537 
L 549.17867 64.02621 
L 551.725646 36.184342 
L 554.272622 24.040961 
L 556.819598 21.539072 
L 559.366574 24.29786 
L 561.91355 30.239621 
L 567.007502 44.027974 
L 569.554478 49.931331 
L 572.101454 53.78844 
L 574.64843 54.95614 
L 577.195406 49.895403 
L 579.742382 37.142576 
L 582.289359 35.076445 
L 584.836335 49.474293 
L 587.383311 61.209416 
L 589.930287 68.734518 
L 592.477263 80.108433 
L 595.024239 87.413295 
L 600.118191 87.824679 
L 602.665167 86.613836 
L 605.212143 91.164765 
L 607.759119 84.370243 
L 610.306095 69.112135 
L 612.853071 48.513881 
L 615.400047 39.360732 
L 617.947023 39.081322 
L 620.493999 40.029813 
L 623.040975 44.6455 
L 625.587951 51.326253 
L 628.134927 60.35732 
L 630.681903 66.750583 
L 633.228879 71.00403 
L 635.775855 74.538935 
L 638.322831 70.91091 
L 640.869807 54.539901 
L 643.416783 45.633327 
L 645.963759 54.240125 
L 648.510735 65.706412 
L 651.057711 75.298792 
L 653.604688 81.797512 
L 656.151664 87.861339 
L 658.69864 85.176352 
L 661.245616 82.740284 
L 663.792592 82.155229 
L 666.339568 86.882872 
L 668.886544 82.486195 
L 671.43352 66.211697 
L 673.980496 43.162528 
L 676.527472 26.942064 
L 679.074448 24.050537 
L 681.621424 32.316759 
L 684.1684 39.011395 
L 686.715376 46.930491 
L 689.262352 53.725329 
L 691.809328 58.728741 
L 694.356304 61.312877 
L 696.90328 62.077821 
L 699.450256 60.998054 
L 701.997232 55.034763 
L 704.544208 53.11881 
L 707.091184 59.062717 
L 709.63816 74.374757 
L 712.185136 84.981034 
L 712.185136 84.981034 
" clip-path="url(#pf8fe6fb118)" style="fill: none; stroke: #2ca02c; stroke-width: 2; stroke-linecap: square"/>
   </g>
   <g id="line2d_24">
    <path d="M 103.457864 81.907474 
L 106.00484 89.760167 
L 108.551816 89.020543 
L 111.098792 90.296376 
L 113.645768 92.595948 
L 116.192744 90.640211 
L 118.73972 81.036907 
L 121.286696 66.249238 
L 123.833672 47.049513 
L 126.380648 34.977356 
L 128.927624 29.153769 
L 131.4746 27.037029 
L 134.021576 31.309845 
L 136.568552 37.902167 
L 139.115528 43.377431 
L 141.662504 44.17147 
L 144.20948 42.102196 
L 146.756456 41.972616 
L 149.303432 33.691132 
L 151.850408 26.536532 
L 154.397384 43.755913 
L 156.94436 55.521777 
L 159.491336 68.899344 
L 162.038312 79.429293 
L 164.585289 86.179342 
L 167.132265 90.152482 
L 169.679241 88.130657 
L 172.226217 87.395257 
L 174.773193 87.763647 
L 177.320169 91.054371 
L 179.867145 84.753879 
L 182.414121 64.317358 
L 184.961097 41.160654 
L 187.508073 30.077821 
L 190.055049 31.436233 
L 192.602025 31.32943 
L 195.149001 29.919645 
L 197.695977 28.1154 
L 200.242953 32.60129 
L 205.336905 44.594908 
L 207.883881 46.74731 
L 210.430857 41.641833 
L 212.977833 34.812663 
L 215.524809 37.195113 
L 218.071785 52.241709 
L 220.618761 68.6405 
L 223.165737 78.882111 
L 225.712713 85.154523 
L 228.259689 89.92383 
L 230.806665 88.12399 
L 233.353641 89.753201 
L 235.900618 89.603371 
L 238.447594 91.713311 
L 240.99457 86.612024 
L 243.541546 66.808141 
L 246.088522 43.722179 
L 248.635498 25.897011 
L 251.182474 23.333009 
L 253.72945 19.452058 
L 256.276426 22.359047 
L 258.823402 24.163225 
L 261.370378 27.503145 
L 263.917354 32.911258 
L 266.46433 36.450485 
L 269.011306 46.401597 
L 271.558282 48.898764 
L 276.652234 37.10038 
L 279.19921 43.665536 
L 281.746186 63.483983 
L 284.293162 77.842195 
L 286.840138 79.12418 
L 289.387114 82.609923 
L 291.93409 82.94591 
L 294.481066 84.458109 
L 297.028042 88.222813 
L 299.575018 93.258978 
L 302.121994 103.558811 
L 307.215947 106.750314 
L 309.762923 104.100757 
L 312.309899 101.624072 
L 314.856875 97.915895 
L 317.403851 93.570109 
L 319.950827 90.549318 
L 322.497803 87.334307 
L 325.044779 85.217085 
L 327.591755 85.308709 
L 330.138731 86.84696 
L 332.685707 79.860279 
L 335.232683 76.988071 
L 337.779659 88.653483 
L 340.326635 97.699829 
L 342.873611 104.314712 
L 345.420587 105.17532 
L 347.967563 105.682035 
L 350.514539 97.99613 
L 353.061515 103.362247 
L 355.608491 103.152614 
L 358.155467 107.50811 
L 360.702443 110.873683 
L 363.249419 112.379082 
L 365.796395 110.331621 
L 368.343371 106.868755 
L 370.890347 102.435053 
L 373.437324 93.563958 
L 375.9843 93.737945 
L 378.531276 92.775488 
L 381.078252 89.063354 
L 383.625228 84.049169 
L 386.172204 78.635038 
L 388.71918 81.606351 
L 391.266156 81.944699 
L 393.813132 79.67364 
L 396.360108 71.810356 
L 398.907084 82.059316 
L 401.45406 91.099876 
L 404.001036 94.639851 
L 406.548012 95.904611 
L 409.094988 98.849856 
L 411.641964 95.749312 
L 414.18894 104.563381 
L 416.735916 104.31142 
L 421.829868 98.083032 
L 424.376844 93.614516 
L 426.92382 75.521659 
L 429.470796 44.84913 
L 432.017772 25.212468 
L 434.564748 25.424311 
L 437.111724 30.869133 
L 439.6587 34.298067 
L 442.205676 40.283321 
L 444.752653 45.554422 
L 447.299629 46.779414 
L 449.846605 51.383911 
L 452.393581 51.573792 
L 454.940557 36.966012 
L 457.487533 25.651617 
L 460.034509 32.857923 
L 462.581485 47.30475 
L 465.128461 63.349365 
L 467.675437 75.965829 
L 470.222413 84.348114 
L 472.769389 94.323632 
L 475.316365 92.263768 
L 477.863341 95.023121 
L 480.410317 96.205768 
L 482.957293 99.689765 
L 485.504269 92.234308 
L 488.051245 71.175723 
L 490.598221 46.93887 
L 493.145197 36.109627 
L 495.692173 32.131583 
L 498.239149 27.038459 
L 500.786125 28.201786 
L 503.333101 30.158954 
L 505.880077 34.239278 
L 508.427053 43.381687 
L 510.974029 47.025356 
L 513.521006 44.207099 
L 516.067982 35.64647 
L 518.614958 29.914225 
L 521.161934 40.148454 
L 523.70891 53.472055 
L 526.255886 65.549017 
L 528.802862 72.877671 
L 531.349838 80.563492 
L 533.896814 89.286902 
L 536.44379 83.026361 
L 538.990766 87.216781 
L 541.537742 89.613745 
L 544.084718 89.300452 
L 546.631694 85.191099 
L 549.17867 67.402357 
L 551.725646 42.965149 
L 554.272622 32.798403 
L 556.819598 32.798902 
L 559.366574 39.400301 
L 561.91355 44.490083 
L 564.460526 46.229555 
L 567.007502 52.418639 
L 569.554478 58.157734 
L 572.101454 61.414277 
L 574.64843 63.326488 
L 577.195406 60.576312 
L 579.742382 39.340116 
L 582.289359 34.264217 
L 584.836335 52.348496 
L 587.383311 68.453129 
L 589.930287 75.7344 
L 592.477263 81.318711 
L 595.024239 92.393481 
L 597.571215 88.592833 
L 600.118191 91.360382 
L 602.665167 91.130134 
L 605.212143 91.040539 
L 607.759119 85.447117 
L 610.306095 63.125534 
L 612.853071 41.903553 
L 615.400047 30.78697 
L 617.947023 34.351335 
L 620.493999 37.073081 
L 623.040975 41.547965 
L 625.587951 51.392739 
L 628.134927 56.549406 
L 630.681903 59.397673 
L 633.228879 63.58347 
L 635.775855 69.556538 
L 638.322831 70.947603 
L 640.869807 56.155578 
L 643.416783 47.208571 
L 645.963759 60.054966 
L 648.510735 73.639922 
L 651.057711 79.400614 
L 653.604688 83.497464 
L 656.151664 91.534718 
L 658.69864 89.088924 
L 661.245616 87.419164 
L 663.792592 85.518208 
L 666.339568 86.27326 
L 668.886544 78.610997 
L 671.43352 56.632501 
L 673.980496 36.580963 
L 676.527472 23.322801 
L 679.074448 21.012971 
L 681.621424 22.728568 
L 684.1684 31.114394 
L 686.715376 38.579628 
L 689.262352 45.412622 
L 691.809328 52.950476 
L 694.356304 57.086579 
L 696.90328 60.286046 
L 699.450256 62.154948 
L 701.997232 53.76701 
L 704.544208 43.964165 
L 707.091184 53.544675 
L 709.63816 66.711048 
L 712.185136 77.355148 
L 712.185136 77.355148 
" clip-path="url(#pf8fe6fb118)" style="fill: none; stroke: #d62728; stroke-width: 2; stroke-linecap: square"/>
   </g>
   <g id="line2d_25">
    <path d="M 103.457864 57.764988 
L 106.00484 60.720922 
L 108.551816 60.635832 
L 111.098792 62.4579 
L 113.645768 63.40935 
L 116.192744 63.493493 
L 118.73972 65.455448 
L 121.286696 59.872683 
L 123.833672 47.908426 
L 126.380648 32.749391 
L 128.927624 33.106908 
L 131.4746 33.799996 
L 134.021576 39.235142 
L 136.568552 41.529743 
L 139.115528 42.740204 
L 141.662504 47.45448 
L 146.756456 52.377225 
L 149.303432 55.43805 
L 151.850408 56.503503 
L 154.397384 63.492113 
L 156.94436 64.094359 
L 159.491336 64.234563 
L 162.038312 61.499815 
L 164.585289 62.195198 
L 167.132265 65.395479 
L 172.226217 74.506848 
L 174.773193 75.66153 
L 177.320169 75.62384 
L 179.867145 77.908382 
L 182.414121 76.382865 
L 184.961097 71.527854 
L 187.508073 69.131022 
L 190.055049 62.242731 
L 192.602025 54.725692 
L 195.149001 55.730977 
L 197.695977 55.628679 
L 200.242953 58.254279 
L 202.789929 60.61254 
L 205.336905 60.426349 
L 207.883881 58.100044 
L 210.430857 54.496492 
L 212.977833 60.144662 
L 215.524809 53.903356 
L 218.071785 56.416617 
L 220.618761 54.250216 
L 223.165737 58.13539 
L 225.712713 54.407412 
L 228.259689 51.776624 
L 230.806665 51.916462 
L 233.353641 57.717405 
L 235.900618 63.119782 
L 238.447594 66.715004 
L 240.99457 64.632846 
L 243.541546 63.694463 
L 246.088522 50.417298 
L 248.635498 47.606023 
L 251.182474 41.851981 
L 253.72945 42.176147 
L 256.276426 43.006912 
L 258.823402 41.384103 
L 261.370378 39.5356 
L 263.917354 43.903848 
L 266.46433 49.649227 
L 269.011306 54.438701 
L 271.558282 58.269558 
L 274.105258 57.155044 
L 276.652234 65.12774 
L 279.19921 69.392959 
L 281.746186 69.556388 
L 284.293162 72.027952 
L 286.840138 73.804133 
L 289.387114 76.98054 
L 291.93409 82.040645 
L 294.481066 83.561922 
L 297.028042 83.71245 
L 299.575018 86.233176 
L 302.121994 80.948043 
L 304.668971 71.731617 
L 307.215947 66.234508 
L 309.762923 58.658431 
L 312.309899 59.737982 
L 314.856875 59.990625 
L 317.403851 56.111437 
L 319.950827 52.831303 
L 322.497803 55.86877 
L 325.044779 57.961336 
L 327.591755 63.100513 
L 330.138731 65.00245 
L 332.685707 62.080232 
L 335.232683 64.856078 
L 337.779659 69.381188 
L 340.326635 67.693289 
L 342.873611 70.944029 
L 345.420587 66.610163 
L 347.967563 67.615697 
L 350.514539 65.0497 
L 353.061515 71.370226 
L 355.608491 72.771948 
L 358.155467 78.852783 
L 360.702443 84.539558 
L 363.249419 82.076224 
L 365.796395 82.56801 
L 368.343371 82.603389 
L 370.890347 82.147182 
L 373.437324 80.007499 
L 375.9843 79.965054 
L 378.531276 74.594432 
L 381.078252 73.736899 
L 383.625228 74.03616 
L 386.172204 76.119732 
L 388.71918 77.402714 
L 391.266156 81.978565 
L 393.813132 71.867282 
L 396.360108 67.601565 
L 398.907084 70.855348 
L 401.45406 68.558187 
L 404.001036 73.441429 
L 406.548012 72.763769 
L 409.094988 74.011538 
L 411.641964 74.014879 
L 414.18894 77.130802 
L 416.735916 77.514471 
L 419.282892 76.99133 
L 421.829868 78.359169 
L 424.376844 76.827218 
L 426.92382 75.69001 
L 429.470796 77.801313 
L 432.017772 72.870339 
L 434.564748 70.477763 
L 437.111724 64.901499 
L 439.6587 70.312737 
L 442.205676 65.230786 
L 444.752653 57.197954 
L 447.299629 57.46044 
L 449.846605 60.113522 
L 452.393581 64.259302 
L 454.940557 67.34302 
L 457.487533 68.049759 
L 460.034509 68.484469 
L 462.581485 77.352804 
L 465.128461 74.142448 
L 467.675437 76.880354 
L 470.222413 82.384546 
L 472.769389 80.692058 
L 475.316365 84.68307 
L 477.863341 85.167474 
L 480.410317 89.087511 
L 482.957293 87.90292 
L 485.504269 85.543097 
L 488.051245 81.494693 
L 490.598221 71.409529 
L 493.145197 64.105481 
L 495.692173 62.208499 
L 498.239149 61.8907 
L 500.786125 59.61886 
L 503.333101 62.17987 
L 505.880077 61.659006 
L 508.427053 63.716891 
L 510.974029 64.721327 
L 513.521006 68.484651 
L 516.067982 63.93309 
L 518.614958 65.458906 
L 521.161934 70.092714 
L 526.255886 78.096517 
L 528.802862 82.009572 
L 531.349838 81.017871 
L 533.896814 83.533891 
L 536.44379 82.310878 
L 538.990766 85.463327 
L 541.537742 86.027783 
L 544.084718 84.587623 
L 546.631694 85.64689 
L 549.17867 82.76356 
L 551.725646 72.792265 
L 554.272622 63.932508 
L 556.819598 53.159377 
L 559.366574 49.371114 
L 561.91355 48.648731 
L 564.460526 52.062402 
L 567.007502 51.427653 
L 569.554478 50.540959 
L 572.101454 49.30531 
L 574.64843 56.199137 
L 577.195406 61.35499 
L 579.742382 66.903206 
L 582.289359 65.999222 
L 584.836335 68.668248 
L 587.383311 71.56024 
L 589.930287 73.259378 
L 592.477263 74.201884 
L 595.024239 73.557741 
L 597.571215 68.635063 
L 600.118191 79.342757 
L 602.665167 79.322507 
L 605.212143 75.65739 
L 607.759119 77.048904 
L 610.306095 76.479477 
L 612.853071 78.921081 
L 615.400047 63.714863 
L 617.947023 54.737463 
L 620.493999 56.026979 
L 623.040975 57.61549 
L 625.587951 60.901942 
L 628.134927 63.55795 
L 630.681903 62.069243 
L 633.228879 61.388208 
L 635.775855 64.305687 
L 638.322831 61.304215 
L 640.869807 66.641353 
L 643.416783 69.574627 
L 645.963759 69.688845 
L 648.510735 74.450188 
L 651.057711 73.355341 
L 653.604688 76.963648 
L 656.151664 77.979407 
L 658.69864 74.975291 
L 661.245616 77.034772 
L 663.792592 78.893732 
L 666.339568 77.605962 
L 668.886544 77.465492 
L 671.43352 75.936917 
L 673.980496 58.605712 
L 676.527472 52.670633 
L 679.074448 54.656979 
L 681.621424 59.768391 
L 684.1684 59.80653 
L 686.715376 63.463151 
L 689.262352 61.261254 
L 691.809328 63.639416 
L 694.356304 70.743291 
L 696.90328 80.715717 
L 699.450256 75.006049 
L 707.091184 74.898963 
L 709.63816 76.234831 
L 712.185136 75.126102 
L 712.185136 75.126102 
" clip-path="url(#pf8fe6fb118)" style="fill: none; stroke: #9467bd; stroke-width: 2; stroke-linecap: square"/>
   </g>
   <g id="line2d_26">
    <path d="M 103.457864 95.830062 
L 106.00484 93.251662 
L 108.551816 88.248799 
L 111.098792 83.974703 
L 113.645768 79.216518 
L 116.192744 72.564311 
L 118.73972 65.58408 
L 121.286696 54.412665 
L 123.833672 38.41387 
L 126.380648 24.073148 
L 128.927624 21.057428 
L 131.4746 19.187778 
L 134.021576 25.374169 
L 136.568552 29.984285 
L 139.115528 33.868527 
L 141.662504 37.967705 
L 144.20948 33.921696 
L 146.756456 35.898415 
L 149.303432 36.537969 
L 151.850408 37.908352 
L 154.397384 49.199754 
L 156.94436 56.109924 
L 159.491336 68.693868 
L 162.038312 80.141667 
L 164.585289 87.234603 
L 167.132265 85.795473 
L 169.679241 87.740055 
L 172.226217 88.600198 
L 174.773193 85.928196 
L 177.320169 80.406946 
L 179.867145 72.525873 
L 182.414121 62.133285 
L 184.961097 44.875365 
L 187.508073 36.737077 
L 190.055049 32.799966 
L 192.602025 38.146397 
L 195.149001 43.166385 
L 197.695977 50.437714 
L 200.242953 41.644626 
L 202.789929 26.602901 
L 205.336905 34.683415 
L 207.883881 29.711326 
L 210.430857 30.630456 
L 212.977833 36.95863 
L 215.524809 46.484741 
L 218.071785 62.017055 
L 220.618761 67.500049 
L 223.165737 76.399275 
L 225.712713 82.918976 
L 228.259689 75.767867 
L 230.806665 70.066994 
L 233.353641 67.054117 
L 235.900618 66.373198 
L 238.447594 61.040134 
L 240.99457 57.421818 
L 243.541546 44.707846 
L 246.088522 32.676304 
L 248.635498 29.360758 
L 251.182474 25.024598 
L 253.72945 28.897469 
L 256.276426 31.714579 
L 258.823402 35.513565 
L 261.370378 31.721096 
L 263.917354 36.528958 
L 266.46433 37.53115 
L 269.011306 39.423311 
L 271.558282 41.803168 
L 276.652234 54.854425 
L 279.19921 68.095496 
L 281.746186 74.990337 
L 284.293162 81.276798 
L 286.840138 92.855939 
L 289.387114 89.779286 
L 291.93409 87.020399 
L 294.481066 88.042093 
L 297.028042 83.591333 
L 299.575018 81.027347 
L 302.121994 67.941094 
L 304.668971 62.406793 
L 307.215947 48.370103 
L 309.762923 46.912768 
L 312.309899 48.288953 
L 314.856875 42.736596 
L 317.403851 40.307827 
L 319.950827 37.458629 
L 322.497803 39.742889 
L 325.044779 39.2117 
L 327.591755 46.138363 
L 330.138731 52.221725 
L 332.685707 47.1966 
L 335.232683 48.919413 
L 337.779659 57.162824 
L 340.326635 69.169959 
L 342.873611 71.765733 
L 345.420587 76.828731 
L 347.967563 84.651465 
L 350.514539 81.002558 
L 353.061515 91.24397 
L 355.608491 91.39109 
L 358.155467 95.70675 
L 360.702443 102.612249 
L 363.249419 99.152957 
L 365.796395 99.933147 
L 368.343371 97.36444 
L 370.890347 95.688279 
L 375.9843 84.577481 
L 378.531276 69.723127 
L 381.078252 67.416822 
L 383.625228 61.969788 
L 386.172204 62.376152 
L 388.71918 65.161407 
L 391.266156 78.481035 
L 393.813132 71.755608 
L 396.360108 68.458316 
L 398.907084 73.679707 
L 401.45406 71.61045 
L 404.001036 86.289071 
L 406.548012 92.213393 
L 409.094988 88.247884 
L 411.641964 87.05222 
L 414.18894 89.013494 
L 416.735916 90.403927 
L 419.282892 90.857723 
L 421.829868 97.370259 
L 424.376844 96.373288 
L 426.92382 97.061721 
L 429.470796 91.335294 
L 432.017772 88.375403 
L 434.564748 82.529953 
L 437.111724 75.966992 
L 439.6587 74.643926 
L 442.205676 69.625634 
L 444.752653 74.51019 
L 447.299629 73.438935 
L 449.846605 68.542542 
L 452.393581 71.078413 
L 454.940557 71.360484 
L 457.487533 74.65056 
L 460.034509 77.386388 
L 462.581485 95.350214 
L 465.128461 103.412955 
L 467.675437 106.619504 
L 470.222413 112.415359 
L 472.769389 103.486656 
L 475.316365 96.369181 
L 477.863341 86.100969 
L 480.410317 81.476654 
L 482.957293 72.749953 
L 488.051245 57.500607 
L 490.598221 43.228415 
L 493.145197 34.762553 
L 495.692173 32.448267 
L 498.239149 31.393904 
L 500.786125 28.197564 
L 503.333101 31.277858 
L 505.880077 33.812565 
L 508.427053 37.612017 
L 510.974029 39.356642 
L 513.521006 37.408553 
L 516.067982 34.906331 
L 518.614958 39.822193 
L 521.161934 51.13185 
L 523.70891 64.878838 
L 526.255886 80.235286 
L 528.802862 89.053512 
L 531.349838 109.649888 
L 533.896814 106.644326 
L 536.44379 102.67649 
L 538.990766 101.104754 
L 541.537742 94.295036 
L 544.084718 83.482817 
L 546.631694 75.794867 
L 549.17867 61.947211 
L 551.725646 47.482029 
L 554.272622 34.425984 
L 556.819598 21.960963 
L 559.366574 14.071411 
L 561.91355 12.53577 
L 564.460526 15.227191 
L 567.007502 17.012748 
L 569.554478 21.769203 
L 572.101454 26.049102 
L 574.64843 31.339007 
L 577.195406 35.474827 
L 579.742382 46.043647 
L 584.836335 72.711531 
L 587.383311 79.019671 
L 589.930287 91.353483 
L 592.477263 93.619304 
L 595.024239 89.060362 
L 597.571215 88.500511 
L 602.665167 78.909394 
L 605.212143 77.700612 
L 607.759119 70.306137 
L 610.306095 60.051675 
L 612.853071 46.458423 
L 615.400047 30.565417 
L 617.947023 23.718124 
L 620.493999 23.71992 
L 623.040975 29.3301 
L 625.587951 35.943603 
L 628.134927 47.743649 
L 630.681903 48.717179 
L 633.228879 45.557182 
L 635.775855 40.904287 
L 638.322831 28.371999 
L 640.869807 33.755074 
L 643.416783 48.901191 
L 645.963759 59.633175 
L 648.510735 74.051356 
L 651.057711 83.00242 
L 653.604688 97.509881 
L 656.151664 97.379287 
L 658.69864 93.453514 
L 661.245616 93.514929 
L 663.792592 88.586648 
L 666.339568 80.844216 
L 668.886544 73.829637 
L 671.43352 62.06502 
L 673.980496 38.167944 
L 676.527472 31.385658 
L 679.074448 34.404437 
L 681.621424 47.826312 
L 684.1684 53.129151 
L 686.715376 61.41007 
L 689.262352 56.492446 
L 691.809328 58.802276 
L 694.356304 64.543633 
L 696.90328 72.488083 
L 699.450256 60.324335 
L 701.997232 58.872137 
L 704.544208 61.045288 
L 707.091184 59.072509 
L 709.63816 69.787401 
L 712.185136 75.671389 
L 712.185136 75.671389 
" clip-path="url(#pf8fe6fb118)" style="fill: none; stroke: #8c564b; stroke-width: 2; stroke-linecap: square"/>
   </g>
   <g id="line2d_27">
    <path d="M 103.457864 85.605227 
L 106.00484 85.40537 
L 108.551816 86.020052 
L 111.098792 87.666753 
L 113.645768 88.557387 
L 116.192744 85.073091 
L 118.73972 72.153143 
L 121.286696 38.775577 
L 123.833672 12.24 
L 126.380648 17.428289 
L 128.927624 25.349995 
L 131.4746 22.017391 
L 134.021576 21.919732 
L 136.568552 21.293445 
L 139.115528 29.101232 
L 141.662504 40.34304 
L 144.20948 48.464453 
L 146.756456 52.17918 
L 149.303432 51.890809 
L 151.850408 50.3355 
L 154.397384 60.652707 
L 156.94436 68.303349 
L 159.491336 78.630316 
L 162.038312 85.771799 
L 167.132265 85.687739 
L 169.679241 87.571405 
L 172.226217 90.452275 
L 174.773193 92.718695 
L 177.320169 95.808416 
L 179.867145 89.411761 
L 184.961097 47.854127 
L 187.508073 34.535048 
L 190.055049 29.140801 
L 192.602025 30.966227 
L 195.149001 35.10667 
L 197.695977 45.25802 
L 202.789929 37.52563 
L 205.336905 21.21178 
L 207.883881 28.061233 
L 210.430857 30.332159 
L 212.977833 38.345439 
L 215.524809 54.273575 
L 218.071785 62.944598 
L 220.618761 73.033486 
L 223.165737 82.593364 
L 225.712713 84.853716 
L 228.259689 81.898297 
L 230.806665 78.440368 
L 233.353641 76.556304 
L 235.900618 76.678186 
L 238.447594 73.781023 
L 240.99457 61.918681 
L 243.541546 43.32082 
L 246.088522 31.756509 
L 248.635498 36.892992 
L 251.182474 37.515622 
L 253.72945 33.214309 
L 256.276426 33.548817 
L 258.823402 37.888268 
L 261.370378 36.077406 
L 263.917354 45.456663 
L 266.46433 43.889716 
L 269.011306 39.996063 
L 271.558282 35.176464 
L 274.105258 42.164775 
L 276.652234 47.544425 
L 279.19921 60.386415 
L 281.746186 70.756708 
L 284.293162 77.99417 
L 286.840138 89.727464 
L 289.387114 88.760469 
L 291.93409 82.984448 
L 294.481066 82.481656 
L 297.028042 80.128151 
L 299.575018 82.206153 
L 302.121994 70.587376 
L 304.668971 48.116811 
L 307.215947 42.099403 
L 309.762923 34.633738 
L 312.309899 33.133176 
L 314.856875 28.737065 
L 317.403851 27.857902 
L 319.950827 26.085379 
L 322.497803 27.37975 
L 325.044779 26.949013 
L 327.591755 42.945131 
L 330.138731 55.805027 
L 332.685707 38.475385 
L 335.232683 41.181237 
L 337.779659 46.397856 
L 340.326635 53.85205 
L 342.873611 68.381689 
L 345.420587 79.917371 
L 347.967563 98.487534 
L 350.514539 96.901932 
L 353.061515 101.121945 
L 355.608491 102.324908 
L 358.155467 104.236355 
L 360.702443 109.503416 
L 363.249419 106.684277 
L 365.796395 113.04 
L 368.343371 109.067792 
L 370.890347 101.809747 
L 373.437324 95.481722 
L 375.9843 93.136264 
L 378.531276 83.268197 
L 381.078252 80.897484 
L 383.625228 80.408425 
L 386.172204 82.180516 
L 388.71918 82.561792 
L 391.266156 75.401871 
L 393.813132 77.405823 
L 396.360108 68.455141 
L 398.907084 70.790391 
L 401.45406 71.09745 
L 404.001036 84.752582 
L 406.548012 94.632802 
L 409.094988 89.486011 
L 411.641964 89.915533 
L 414.18894 94.631355 
L 416.735916 98.202172 
L 419.282892 99.059205 
L 421.829868 105.779345 
L 426.92382 111.585724 
L 429.470796 110.410127 
L 432.017772 105.684912 
L 434.564748 101.641895 
L 437.111724 85.757301 
L 439.6587 94.137874 
L 442.205676 90.722225 
L 444.752653 83.480806 
L 447.299629 86.637927 
L 449.846605 86.301075 
L 452.393581 83.147612 
L 454.940557 85.848027 
L 457.487533 78.257137 
L 460.034509 73.973149 
L 462.581485 98.284884 
L 465.128461 103.801911 
L 467.675437 112.249918 
L 470.222413 92.96241 
L 472.769389 91.636052 
L 475.316365 91.986968 
L 477.863341 91.131281 
L 480.410317 91.432704 
L 482.957293 85.776304 
L 485.504269 69.941953 
L 488.051245 41.792494 
L 490.598221 21.0417 
L 493.145197 22.594831 
L 495.692173 27.464174 
L 498.239149 35.980013 
L 500.786125 36.893325 
L 503.333101 42.956919 
L 505.880077 47.394345 
L 508.427053 39.622951 
L 510.974029 40.471789 
L 513.521006 33.306947 
L 516.067982 34.244233 
L 518.614958 38.281165 
L 521.161934 53.890422 
L 523.70891 66.484923 
L 526.255886 74.488693 
L 528.802862 84.66016 
L 531.349838 93.161984 
L 533.896814 93.278563 
L 536.44379 91.628886 
L 538.990766 92.561616 
L 541.537742 92.412983 
L 544.084718 91.001801 
L 546.631694 75.667931 
L 549.17867 46.685097 
L 551.725646 28.966365 
L 554.272622 28.925599 
L 556.819598 20.656484 
L 559.366574 17.969985 
L 561.91355 19.744902 
L 564.460526 24.48134 
L 567.007502 28.146157 
L 569.554478 32.519691 
L 572.101454 30.580812 
L 574.64843 31.327103 
L 577.195406 30.308152 
L 579.742382 41.016344 
L 582.289359 56.401288 
L 584.836335 67.792477 
L 587.383311 75.233587 
L 592.477263 86.131909 
L 595.024239 86.135617 
L 597.571215 85.392851 
L 600.118191 86.229851 
L 602.665167 85.867412 
L 605.212143 83.282645 
L 607.759119 73.723765 
L 610.306095 55.804279 
L 612.853071 40.398703 
L 615.400047 32.722357 
L 617.947023 29.572834 
L 620.493999 29.190844 
L 623.040975 37.326289 
L 625.587951 47.576213 
L 628.134927 52.113775 
L 630.681903 55.954309 
L 633.228879 54.574865 
L 635.775855 41.876321 
L 638.322831 32.306584 
L 640.869807 37.401171 
L 643.416783 52.945904 
L 645.963759 60.897652 
L 648.510735 74.88947 
L 651.057711 78.747793 
L 653.604688 84.637167 
L 656.151664 84.504661 
L 658.69864 83.836477 
L 661.245616 87.191626 
L 663.792592 85.827395 
L 666.339568 83.324791 
L 668.886544 74.423304 
L 671.43352 52.816157 
L 673.980496 35.385614 
L 676.527472 22.95451 
L 679.074448 22.481378 
L 681.621424 31.211555 
L 684.1684 39.416062 
L 686.715376 51.442333 
L 689.262352 55.86734 
L 691.809328 61.313908 
L 694.356304 61.406612 
L 696.90328 58.090334 
L 699.450256 55.278361 
L 701.997232 57.623803 
L 704.544208 59.311236 
L 707.091184 59.728971 
L 709.63816 72.613722 
L 712.185136 78.515134 
L 712.185136 78.515134 
" clip-path="url(#pf8fe6fb118)" style="fill: none; stroke: #e377c2; stroke-width: 2; stroke-linecap: square"/>
   </g>
   <g id="patch_3">
    <path d="M 73.0215 118.08 
L 73.0215 7.2 
" style="fill: none; stroke: #000000; stroke-width: 0.8; stroke-linejoin: miter; stroke-linecap: square"/>
   </g>
   <g id="patch_4">
    <path d="M 742.6215 118.08 
L 742.6215 7.2 
" style="fill: none; stroke: #000000; stroke-width: 0.8; stroke-linejoin: miter; stroke-linecap: square"/>
   </g>
   <g id="patch_5">
    <path d="M 73.0215 118.08 
L 742.6215 118.08 
" style="fill: none; stroke: #000000; stroke-width: 0.8; stroke-linejoin: miter; stroke-linecap: square"/>
   </g>
   <g id="patch_6">
    <path d="M 73.0215 7.2 
L 742.6215 7.2 
" style="fill: none; stroke: #000000; stroke-width: 0.8; stroke-linejoin: miter; stroke-linecap: square"/>
   </g>
   <g id="legend_1">
    <g id="patch_7">
     <path d="M 9.2 195.696 
L 752.875 195.696 
Q 754.875 195.696 754.875 193.696 
L 754.875 165.33975 
Q 754.875 163.33975 752.875 163.33975 
L 9.2 163.33975 
Q 7.2 163.33975 7.2 165.33975 
L 7.2 193.696 
Q 7.2 195.696 9.2 195.696 
z
" style="fill: #ffffff; opacity: 0.8; stroke: #cccccc; stroke-linejoin: miter"/>
    </g>
    <g id="line2d_28">
     <path d="M 11.2 171.438188 
L 21.2 171.438188 
L 31.2 171.438188 
" style="fill: none; stroke: #1f77b4; stroke-width: 3; stroke-linecap: square"/>
    </g>
    <g id="text_13">
     <!-- Actual Load -->
     <g transform="translate(39.2 174.938188) scale(0.1 -0.1)">
      <defs>
       <path id="DejaVuSans-41" d="M 2188 4044 
L 1331 1722 
L 3047 1722 
L 2188 4044 
z
M 1831 4666 
L 2547 4666 
L 4325 0 
L 3669 0 
L 3244 1197 
L 1141 1197 
L 716 0 
L 50 0 
L 1831 4666 
z
" transform="scale(0.015625)"/>
       <path id="DejaVuSans-63" d="M 3122 3366 
L 3122 2828 
Q 2878 2963 2633 3030 
Q 2388 3097 2138 3097 
Q 1578 3097 1268 2742 
Q 959 2388 959 1747 
Q 959 1106 1268 751 
Q 1578 397 2138 397 
Q 2388 397 2633 464 
Q 2878 531 3122 666 
L 3122 134 
Q 2881 22 2623 -34 
Q 2366 -91 2075 -91 
Q 1284 -91 818 406 
Q 353 903 353 1747 
Q 353 2603 823 3093 
Q 1294 3584 2113 3584 
Q 2378 3584 2631 3529 
Q 2884 3475 3122 3366 
z
" transform="scale(0.015625)"/>
       <path id="DejaVuSans-74" d="M 1172 4494 
L 1172 3500 
L 2356 3500 
L 2356 3053 
L 1172 3053 
L 1172 1153 
Q 1172 725 1289 603 
Q 1406 481 1766 481 
L 2356 481 
L 2356 0 
L 1766 0 
Q 1100 0 847 248 
Q 594 497 594 1153 
L 594 3053 
L 172 3053 
L 172 3500 
L 594 3500 
L 594 4494 
L 1172 4494 
z
" transform="scale(0.015625)"/>
       <path id="DejaVuSans-61" d="M 2194 1759 
Q 1497 1759 1228 1600 
Q 959 1441 959 1056 
Q 959 750 1161 570 
Q 1363 391 1709 391 
Q 2188 391 2477 730 
Q 2766 1069 2766 1631 
L 2766 1759 
L 2194 1759 
z
M 3341 1997 
L 3341 0 
L 2766 0 
L 2766 531 
Q 2569 213 2275 61 
Q 1981 -91 1556 -91 
Q 1019 -91 701 211 
Q 384 513 384 1019 
Q 384 1609 779 1909 
Q 1175 2209 1959 2209 
L 2766 2209 
L 2766 2266 
Q 2766 2663 2505 2880 
Q 2244 3097 1772 3097 
Q 1472 3097 1187 3025 
Q 903 2953 641 2809 
L 641 3341 
Q 956 3463 1253 3523 
Q 1550 3584 1831 3584 
Q 2591 3584 2966 3190 
Q 3341 2797 3341 1997 
z
" transform="scale(0.015625)"/>
       <path id="DejaVuSans-6c" d="M 603 4863 
L 1178 4863 
L 1178 0 
L 603 0 
L 603 4863 
z
" transform="scale(0.015625)"/>
       <path id="DejaVuSans-20" transform="scale(0.015625)"/>
       <path id="DejaVuSans-4c" d="M 628 4666 
L 1259 4666 
L 1259 531 
L 3531 531 
L 3531 0 
L 628 0 
L 628 4666 
z
" transform="scale(0.015625)"/>
       <path id="DejaVuSans-64" d="M 2906 2969 
L 2906 4863 
L 3481 4863 
L 3481 0 
L 2906 0 
L 2906 525 
Q 2725 213 2448 61 
Q 2172 -91 1784 -91 
Q 1150 -91 751 415 
Q 353 922 353 1747 
Q 353 2572 751 3078 
Q 1150 3584 1784 3584 
Q 2172 3584 2448 3432 
Q 2725 3281 2906 2969 
z
M 947 1747 
Q 947 1113 1208 752 
Q 1469 391 1925 391 
Q 2381 391 2643 752 
Q 2906 1113 2906 1747 
Q 2906 2381 2643 2742 
Q 2381 3103 1925 3103 
Q 1469 3103 1208 2742 
Q 947 2381 947 1747 
z
" transform="scale(0.015625)"/>
      </defs>
      <use xlink:href="#DejaVuSans-41"/>
      <use xlink:href="#DejaVuSans-63" x="66.658203"/>
      <use xlink:href="#DejaVuSans-74" x="121.638672"/>
      <use xlink:href="#DejaVuSans-75" x="160.847656"/>
      <use xlink:href="#DejaVuSans-61" x="224.226562"/>
      <use xlink:href="#DejaVuSans-6c" x="285.505859"/>
      <use xlink:href="#DejaVuSans-20" x="313.289062"/>
      <use xlink:href="#DejaVuSans-4c" x="345.076172"/>
      <use xlink:href="#DejaVuSans-6f" x="399.039062"/>
      <use xlink:href="#DejaVuSans-61" x="460.220703"/>
      <use xlink:href="#DejaVuSans-64" x="521.5"/>
     </g>
    </g>
    <g id="line2d_29">
     <path d="M 11.2 186.116313 
L 21.2 186.116313 
L 31.2 186.116313 
" style="fill: none; stroke: #ff7f0e; stroke-width: 2; stroke-linecap: square"/>
    </g>
    <g id="text_14">
     <!-- KAN+CNN Forecast Load -->
     <g transform="translate(39.2 189.616313) scale(0.1 -0.1)">
      <defs>
       <path id="DejaVuSans-4b" d="M 628 4666 
L 1259 4666 
L 1259 2694 
L 3353 4666 
L 4166 4666 
L 1850 2491 
L 4331 0 
L 3500 0 
L 1259 2247 
L 1259 0 
L 628 0 
L 628 4666 
z
" transform="scale(0.015625)"/>
       <path id="DejaVuSans-4e" d="M 628 4666 
L 1478 4666 
L 3547 763 
L 3547 4666 
L 4159 4666 
L 4159 0 
L 3309 0 
L 1241 3903 
L 1241 0 
L 628 0 
L 628 4666 
z
" transform="scale(0.015625)"/>
       <path id="DejaVuSans-2b" d="M 2944 4013 
L 2944 2272 
L 4684 2272 
L 4684 1741 
L 2944 1741 
L 2944 0 
L 2419 0 
L 2419 1741 
L 678 1741 
L 678 2272 
L 2419 2272 
L 2419 4013 
L 2944 4013 
z
" transform="scale(0.015625)"/>
       <path id="DejaVuSans-43" d="M 4122 4306 
L 4122 3641 
Q 3803 3938 3442 4084 
Q 3081 4231 2675 4231 
Q 1875 4231 1450 3742 
Q 1025 3253 1025 2328 
Q 1025 1406 1450 917 
Q 1875 428 2675 428 
Q 3081 428 3442 575 
Q 3803 722 4122 1019 
L 4122 359 
Q 3791 134 3420 21 
Q 3050 -91 2638 -91 
Q 1578 -91 968 557 
Q 359 1206 359 2328 
Q 359 3453 968 4101 
Q 1578 4750 2638 4750 
Q 3056 4750 3426 4639 
Q 3797 4528 4122 4306 
z
" transform="scale(0.015625)"/>
       <path id="DejaVuSans-46" d="M 628 4666 
L 3309 4666 
L 3309 4134 
L 1259 4134 
L 1259 2759 
L 3109 2759 
L 3109 2228 
L 1259 2228 
L 1259 0 
L 628 0 
L 628 4666 
z
" transform="scale(0.015625)"/>
       <path id="DejaVuSans-65" d="M 3597 1894 
L 3597 1613 
L 953 1613 
Q 991 1019 1311 708 
Q 1631 397 2203 397 
Q 2534 397 2845 478 
Q 3156 559 3463 722 
L 3463 178 
Q 3153 47 2828 -22 
Q 2503 -91 2169 -91 
Q 1331 -91 842 396 
Q 353 884 353 1716 
Q 353 2575 817 3079 
Q 1281 3584 2069 3584 
Q 2775 3584 3186 3129 
Q 3597 2675 3597 1894 
z
M 3022 2063 
Q 3016 2534 2758 2815 
Q 2500 3097 2075 3097 
Q 1594 3097 1305 2825 
Q 1016 2553 972 2059 
L 3022 2063 
z
" transform="scale(0.015625)"/>
      </defs>
      <use xlink:href="#DejaVuSans-4b"/>
      <use xlink:href="#DejaVuSans-41" x="63.826172"/>
      <use xlink:href="#DejaVuSans-4e" x="132.234375"/>
      <use xlink:href="#DejaVuSans-2b" x="207.039062"/>
      <use xlink:href="#DejaVuSans-43" x="290.828125"/>
      <use xlink:href="#DejaVuSans-4e" x="360.652344"/>
      <use xlink:href="#DejaVuSans-4e" x="435.457031"/>
      <use xlink:href="#DejaVuSans-20" x="510.261719"/>
      <use xlink:href="#DejaVuSans-46" x="542.048828"/>
      <use xlink:href="#DejaVuSans-6f" x="595.943359"/>
      <use xlink:href="#DejaVuSans-72" x="657.125"/>
      <use xlink:href="#DejaVuSans-65" x="695.988281"/>
      <use xlink:href="#DejaVuSans-63" x="757.511719"/>
      <use xlink:href="#DejaVuSans-61" x="812.492188"/>
      <use xlink:href="#DejaVuSans-73" x="873.771484"/>
      <use xlink:href="#DejaVuSans-74" x="925.871094"/>
      <use xlink:href="#DejaVuSans-20" x="965.080078"/>
      <use xlink:href="#DejaVuSans-4c" x="996.867188"/>
      <use xlink:href="#DejaVuSans-6f" x="1050.830078"/>
      <use xlink:href="#DejaVuSans-61" x="1112.011719"/>
      <use xlink:href="#DejaVuSans-64" x="1173.291016"/>
     </g>
    </g>
    <g id="line2d_30">
     <path d="M 182.88125 171.438188 
L 192.88125 171.438188 
L 202.88125 171.438188 
" style="fill: none; stroke: #2ca02c; stroke-width: 2; stroke-linecap: square"/>
    </g>
    <g id="text_15">
     <!-- KAN+LSTM Forecast Load -->
     <g transform="translate(210.88125 174.938188) scale(0.1 -0.1)">
      <defs>
       <path id="DejaVuSans-53" d="M 3425 4513 
L 3425 3897 
Q 3066 4069 2747 4153 
Q 2428 4238 2131 4238 
Q 1616 4238 1336 4038 
Q 1056 3838 1056 3469 
Q 1056 3159 1242 3001 
Q 1428 2844 1947 2747 
L 2328 2669 
Q 3034 2534 3370 2195 
Q 3706 1856 3706 1288 
Q 3706 609 3251 259 
Q 2797 -91 1919 -91 
Q 1588 -91 1214 -16 
Q 841 59 441 206 
L 441 856 
Q 825 641 1194 531 
Q 1563 422 1919 422 
Q 2459 422 2753 634 
Q 3047 847 3047 1241 
Q 3047 1584 2836 1778 
Q 2625 1972 2144 2069 
L 1759 2144 
Q 1053 2284 737 2584 
Q 422 2884 422 3419 
Q 422 4038 858 4394 
Q 1294 4750 2059 4750 
Q 2388 4750 2728 4690 
Q 3069 4631 3425 4513 
z
" transform="scale(0.015625)"/>
       <path id="DejaVuSans-54" d="M -19 4666 
L 3928 4666 
L 3928 4134 
L 2272 4134 
L 2272 0 
L 1638 0 
L 1638 4134 
L -19 4134 
L -19 4666 
z
" transform="scale(0.015625)"/>
      </defs>
      <use xlink:href="#DejaVuSans-4b"/>
      <use xlink:href="#DejaVuSans-41" x="63.826172"/>
      <use xlink:href="#DejaVuSans-4e" x="132.234375"/>
      <use xlink:href="#DejaVuSans-2b" x="207.039062"/>
      <use xlink:href="#DejaVuSans-4c" x="290.828125"/>
      <use xlink:href="#DejaVuSans-53" x="346.541016"/>
      <use xlink:href="#DejaVuSans-54" x="410.017578"/>
      <use xlink:href="#DejaVuSans-4d" x="471.101562"/>
      <use xlink:href="#DejaVuSans-20" x="557.380859"/>
      <use xlink:href="#DejaVuSans-46" x="589.167969"/>
      <use xlink:href="#DejaVuSans-6f" x="643.0625"/>
      <use xlink:href="#DejaVuSans-72" x="704.244141"/>
      <use xlink:href="#DejaVuSans-65" x="743.107422"/>
      <use xlink:href="#DejaVuSans-63" x="804.630859"/>
      <use xlink:href="#DejaVuSans-61" x="859.611328"/>
      <use xlink:href="#DejaVuSans-73" x="920.890625"/>
      <use xlink:href="#DejaVuSans-74" x="972.990234"/>
      <use xlink:href="#DejaVuSans-20" x="1012.199219"/>
      <use xlink:href="#DejaVuSans-4c" x="1043.986328"/>
      <use xlink:href="#DejaVuSans-6f" x="1097.949219"/>
      <use xlink:href="#DejaVuSans-61" x="1159.130859"/>
      <use xlink:href="#DejaVuSans-64" x="1220.410156"/>
     </g>
    </g>
    <g id="line2d_31">
     <path d="M 182.88125 186.116313 
L 192.88125 186.116313 
L 202.88125 186.116313 
" style="fill: none; stroke: #d62728; stroke-width: 2; stroke-linecap: square"/>
    </g>
    <g id="text_16">
     <!-- KAN+CNN-LSTM Forecast Load -->
     <g transform="translate(210.88125 189.616313) scale(0.1 -0.1)">
      <defs>
       <path id="DejaVuSans-2d" d="M 313 2009 
L 1997 2009 
L 1997 1497 
L 313 1497 
L 313 2009 
z
" transform="scale(0.015625)"/>
      </defs>
      <use xlink:href="#DejaVuSans-4b"/>
      <use xlink:href="#DejaVuSans-41" x="63.826172"/>
      <use xlink:href="#DejaVuSans-4e" x="132.234375"/>
      <use xlink:href="#DejaVuSans-2b" x="207.039062"/>
      <use xlink:href="#DejaVuSans-43" x="290.828125"/>
      <use xlink:href="#DejaVuSans-4e" x="360.652344"/>
      <use xlink:href="#DejaVuSans-4e" x="435.457031"/>
      <use xlink:href="#DejaVuSans-2d" x="510.261719"/>
      <use xlink:href="#DejaVuSans-4c" x="546.345703"/>
      <use xlink:href="#DejaVuSans-53" x="602.058594"/>
      <use xlink:href="#DejaVuSans-54" x="665.535156"/>
      <use xlink:href="#DejaVuSans-4d" x="726.619141"/>
      <use xlink:href="#DejaVuSans-20" x="812.898438"/>
      <use xlink:href="#DejaVuSans-46" x="844.685547"/>
      <use xlink:href="#DejaVuSans-6f" x="898.580078"/>
      <use xlink:href="#DejaVuSans-72" x="959.761719"/>
      <use xlink:href="#DejaVuSans-65" x="998.625"/>
      <use xlink:href="#DejaVuSans-63" x="1060.148438"/>
      <use xlink:href="#DejaVuSans-61" x="1115.128906"/>
      <use xlink:href="#DejaVuSans-73" x="1176.408203"/>
      <use xlink:href="#DejaVuSans-74" x="1228.507812"/>
      <use xlink:href="#DejaVuSans-20" x="1267.716797"/>
      <use xlink:href="#DejaVuSans-4c" x="1299.503906"/>
      <use xlink:href="#DejaVuSans-6f" x="1353.466797"/>
      <use xlink:href="#DejaVuSans-61" x="1414.648438"/>
      <use xlink:href="#DejaVuSans-64" x="1475.927734"/>
     </g>
    </g>
    <g id="line2d_32">
     <path d="M 384.826562 171.438188 
L 394.826562 171.438188 
L 404.826562 171.438188 
" style="fill: none; stroke: #9467bd; stroke-width: 2; stroke-linecap: square"/>
    </g>
    <g id="text_17">
     <!-- KAN+Transformer Forecast Load -->
     <g transform="translate(412.826562 174.938188) scale(0.1 -0.1)">
      <defs>
       <path id="DejaVuSans-6e" d="M 3513 2113 
L 3513 0 
L 2938 0 
L 2938 2094 
Q 2938 2591 2744 2837 
Q 2550 3084 2163 3084 
Q 1697 3084 1428 2787 
Q 1159 2491 1159 1978 
L 1159 0 
L 581 0 
L 581 3500 
L 1159 3500 
L 1159 2956 
Q 1366 3272 1645 3428 
Q 1925 3584 2291 3584 
Q 2894 3584 3203 3211 
Q 3513 2838 3513 2113 
z
" transform="scale(0.015625)"/>
       <path id="DejaVuSans-66" d="M 2375 4863 
L 2375 4384 
L 1825 4384 
Q 1516 4384 1395 4259 
Q 1275 4134 1275 3809 
L 1275 3500 
L 2222 3500 
L 2222 3053 
L 1275 3053 
L 1275 0 
L 697 0 
L 697 3053 
L 147 3053 
L 147 3500 
L 697 3500 
L 697 3744 
Q 697 4328 969 4595 
Q 1241 4863 1831 4863 
L 2375 4863 
z
" transform="scale(0.015625)"/>
       <path id="DejaVuSans-6d" d="M 3328 2828 
Q 3544 3216 3844 3400 
Q 4144 3584 4550 3584 
Q 5097 3584 5394 3201 
Q 5691 2819 5691 2113 
L 5691 0 
L 5113 0 
L 5113 2094 
Q 5113 2597 4934 2840 
Q 4756 3084 4391 3084 
Q 3944 3084 3684 2787 
Q 3425 2491 3425 1978 
L 3425 0 
L 2847 0 
L 2847 2094 
Q 2847 2600 2669 2842 
Q 2491 3084 2119 3084 
Q 1678 3084 1418 2786 
Q 1159 2488 1159 1978 
L 1159 0 
L 581 0 
L 581 3500 
L 1159 3500 
L 1159 2956 
Q 1356 3278 1631 3431 
Q 1906 3584 2284 3584 
Q 2666 3584 2933 3390 
Q 3200 3197 3328 2828 
z
" transform="scale(0.015625)"/>
      </defs>
      <use xlink:href="#DejaVuSans-4b"/>
      <use xlink:href="#DejaVuSans-41" x="63.826172"/>
      <use xlink:href="#DejaVuSans-4e" x="132.234375"/>
      <use xlink:href="#DejaVuSans-2b" x="207.039062"/>
      <use xlink:href="#DejaVuSans-54" x="290.828125"/>
      <use xlink:href="#DejaVuSans-72" x="337.162109"/>
      <use xlink:href="#DejaVuSans-61" x="378.275391"/>
      <use xlink:href="#DejaVuSans-6e" x="439.554688"/>
      <use xlink:href="#DejaVuSans-73" x="502.933594"/>
      <use xlink:href="#DejaVuSans-66" x="555.033203"/>
      <use xlink:href="#DejaVuSans-6f" x="590.238281"/>
      <use xlink:href="#DejaVuSans-72" x="651.419922"/>
      <use xlink:href="#DejaVuSans-6d" x="690.783203"/>
      <use xlink:href="#DejaVuSans-65" x="788.195312"/>
      <use xlink:href="#DejaVuSans-72" x="849.71875"/>
      <use xlink:href="#DejaVuSans-20" x="890.832031"/>
      <use xlink:href="#DejaVuSans-46" x="922.619141"/>
      <use xlink:href="#DejaVuSans-6f" x="976.513672"/>
      <use xlink:href="#DejaVuSans-72" x="1037.695312"/>
      <use xlink:href="#DejaVuSans-65" x="1076.558594"/>
      <use xlink:href="#DejaVuSans-63" x="1138.082031"/>
      <use xlink:href="#DejaVuSans-61" x="1193.0625"/>
      <use xlink:href="#DejaVuSans-73" x="1254.341797"/>
      <use xlink:href="#DejaVuSans-74" x="1306.441406"/>
      <use xlink:href="#DejaVuSans-20" x="1345.650391"/>
      <use xlink:href="#DejaVuSans-4c" x="1377.4375"/>
      <use xlink:href="#DejaVuSans-6f" x="1431.400391"/>
      <use xlink:href="#DejaVuSans-61" x="1492.582031"/>
      <use xlink:href="#DejaVuSans-64" x="1553.861328"/>
     </g>
    </g>
    <g id="line2d_33">
     <path d="M 384.826562 186.116313 
L 394.826562 186.116313 
L 404.826562 186.116313 
" style="fill: none; stroke: #8c564b; stroke-width: 2; stroke-linecap: square"/>
    </g>
    <g id="text_18">
     <!-- KAN+FCN1 Forecast Load -->
     <g transform="translate(412.826562 189.616313) scale(0.1 -0.1)">
      <use xlink:href="#DejaVuSans-4b"/>
      <use xlink:href="#DejaVuSans-41" x="63.826172"/>
      <use xlink:href="#DejaVuSans-4e" x="132.234375"/>
      <use xlink:href="#DejaVuSans-2b" x="207.039062"/>
      <use xlink:href="#DejaVuSans-46" x="290.828125"/>
      <use xlink:href="#DejaVuSans-43" x="348.347656"/>
      <use xlink:href="#DejaVuSans-4e" x="418.171875"/>
      <use xlink:href="#DejaVuSans-31" x="492.976562"/>
      <use xlink:href="#DejaVuSans-20" x="556.599609"/>
      <use xlink:href="#DejaVuSans-46" x="588.386719"/>
      <use xlink:href="#DejaVuSans-6f" x="642.28125"/>
      <use xlink:href="#DejaVuSans-72" x="703.462891"/>
      <use xlink:href="#DejaVuSans-65" x="742.326172"/>
      <use xlink:href="#DejaVuSans-63" x="803.849609"/>
      <use xlink:href="#DejaVuSans-61" x="858.830078"/>
      <use xlink:href="#DejaVuSans-73" x="920.109375"/>
      <use xlink:href="#DejaVuSans-74" x="972.208984"/>
      <use xlink:href="#DejaVuSans-20" x="1011.417969"/>
      <use xlink:href="#DejaVuSans-4c" x="1043.205078"/>
      <use xlink:href="#DejaVuSans-6f" x="1097.167969"/>
      <use xlink:href="#DejaVuSans-61" x="1158.349609"/>
      <use xlink:href="#DejaVuSans-64" x="1219.628906"/>
     </g>
    </g>
    <g id="line2d_34">
     <path d="M 594.560937 171.438188 
L 604.560937 171.438188 
L 614.560937 171.438188 
" style="fill: none; stroke: #e377c2; stroke-width: 2; stroke-linecap: square"/>
    </g>
    <g id="text_19">
     <!-- KAN+FCN2 Forecast Load -->
     <g transform="translate(622.560937 174.938188) scale(0.1 -0.1)">
      <use xlink:href="#DejaVuSans-4b"/>
      <use xlink:href="#DejaVuSans-41" x="63.826172"/>
      <use xlink:href="#DejaVuSans-4e" x="132.234375"/>
      <use xlink:href="#DejaVuSans-2b" x="207.039062"/>
      <use xlink:href="#DejaVuSans-46" x="290.828125"/>
      <use xlink:href="#DejaVuSans-43" x="348.347656"/>
      <use xlink:href="#DejaVuSans-4e" x="418.171875"/>
      <use xlink:href="#DejaVuSans-32" x="492.976562"/>
      <use xlink:href="#DejaVuSans-20" x="556.599609"/>
      <use xlink:href="#DejaVuSans-46" x="588.386719"/>
      <use xlink:href="#DejaVuSans-6f" x="642.28125"/>
      <use xlink:href="#DejaVuSans-72" x="703.462891"/>
      <use xlink:href="#DejaVuSans-65" x="742.326172"/>
      <use xlink:href="#DejaVuSans-63" x="803.849609"/>
      <use xlink:href="#DejaVuSans-61" x="858.830078"/>
      <use xlink:href="#DejaVuSans-73" x="920.109375"/>
      <use xlink:href="#DejaVuSans-74" x="972.208984"/>
      <use xlink:href="#DejaVuSans-20" x="1011.417969"/>
      <use xlink:href="#DejaVuSans-4c" x="1043.205078"/>
      <use xlink:href="#DejaVuSans-6f" x="1097.167969"/>
      <use xlink:href="#DejaVuSans-61" x="1158.349609"/>
      <use xlink:href="#DejaVuSans-64" x="1219.628906"/>
     </g>
    </g>
   </g>
  </g>
 </g>
 <defs>
  <clipPath id="pf8fe6fb118">
   <rect x="73.0215" y="7.2" width="669.6" height="110.88"/>
  </clipPath>
 </defs>
</svg>
